<svg width="1000" height="1000" viewBox="0 0 1000 1000" fill="none" xmlns="http://www.w3.org/2000/svg">
<path d="M665.13 470.6C662.67 471.03 660.21 471.45 657.75 471.88C657.85 472.57 657.96 473.27 658.06 473.96C661.13 473.45 665.32 474.03 667.08 472.23C673.88 465.28 682.1 469.35 689.61 468.44C690.59 468.32 691.68 470.81 693.02 471.45C694.4 472.1 696.16 471.97 697.75 472.17V466.97C700.99 467.93 704.11 468.85 707.52 469.86C707.59 469.68 708.03 468.53 708.71 466.76C710.47 468.19 712.09 469.49 713.76 470.85C716.41 467.97 719.07 462.73 722.08 471.46C728.78 460.45 735.32 469.98 742.35 471.73C742.12 469.29 741.96 467.56 741.8 465.83L742.79 465.51C743.66 467.4 744.54 469.28 746.06 472.57C747.12 469.48 747.73 467.68 748.43 465.63C755.14 469.69 761.77 472.24 769.04 466.15C769.58 467.17 770.57 469.08 771.56 470.98C772.24 470.46 772.92 469.94 773.6 469.41C773.71 467.98 773.82 466.56 773.89 465.6C777.67 466.95 780.95 468.12 784.23 469.28C784.55 462.3 789.06 465.95 792.01 466.42C793.55 466.67 794.91 468.07 796.63 469.13C797.58 467.88 798.73 466.36 799.87 464.84C800.03 465.48 800.19 466.11 800.36 466.75C802.52 466.54 804.67 466.22 806.83 466.15C808.84 466.09 810.86 466.43 812.87 466.35C827.18 465.79 841.49 465.11 855.81 464.67C857.45 464.62 859.13 465.84 861.97 466.93C866.14 466.93 872.03 466.49 877.81 467.08C882.11 467.52 886.32 469.17 890.5 470.5C892.71 471.2 896.08 471.94 896.58 473.44C897.19 475.28 895.52 478.01 894.53 480.23C893.74 482.02 892.35 483.54 891.5 485.31C886.02 496.72 877.32 500.38 864.01 498.76C858.63 498.11 852.91 501.12 847.27 501.53C839.9 502.07 832.46 501.51 825.07 501.79C822.88 501.87 820.78 503.69 818.57 503.88C798.44 505.66 778.28 507.06 758.17 508.98C739.89 510.72 721.66 513 703.41 514.99C696.19 515.78 688.97 516.7 681.72 517.1C671.18 517.68 660.57 517.36 650.07 518.3C637.45 519.42 624.9 521.41 612.33 523.14C611.34 523.28 610.48 524.37 609.78 526.31C620.46 523.11 630.91 526.69 641.56 525.61C651.28 524.63 661.29 526.53 671.5 527.13C673.72 527.25 675.94 527.52 678.16 527.47C683.24 527.33 688.32 526.78 693.39 526.86C702.48 527 711.57 527.78 720.65 527.73C728 527.69 735.37 526.26 742.7 526.47C751.56 526.72 760.42 527.86 769.24 528.97C778.27 530.11 787.25 531.67 797.44 533.23C795.37 539.04 793.61 543.97 791.49 549.9C792.08 550.71 793.54 552.69 794.99 554.68L795.47 552.38C802.14 552.94 808.82 553.48 815.49 554.06C816.73 554.17 818 554.69 819.19 554.53C825.74 553.67 832.24 552.48 838.81 551.82C840.15 551.69 841.6 553.52 843.12 554.16C844.21 554.62 845.71 555.1 846.67 554.71C854.38 551.52 854.36 551.46 860.66 554.71C866.29 544.86 872.31 558.18 878.46 554.1C877.93 553.45 877.3 552.67 876.15 551.26C887.43 552.58 898.21 553.35 908.72 555.48C910.89 555.92 913.42 561.49 913.24 564.54C913.08 567.11 909.21 569.44 906.57 572.33C909.68 577.59 908.96 579.13 900.79 578.85C886.8 578.38 872.82 577.01 858.84 576.93C849.49 576.88 840.14 578.75 830.76 579.13C820.3 579.56 809.81 579.25 799.33 579.3C787.17 579.36 775.01 579.51 762.85 579.52C746.81 579.54 730.77 579.13 714.74 579.52C703.5 579.79 692.3 581.44 681.06 581.8C672.01 582.09 662.94 581.2 653.87 581.17C648.74 581.15 643.61 581.83 638.48 582.18C616.13 583.72 593.8 585.66 571.43 586.67C554.49 587.43 537.49 586.78 520.52 587.18C513.17 587.36 505.87 588.92 498.52 589.31C482.68 590.14 466.82 590.61 450.96 591.22C446.05 591.41 441.12 591.45 436.22 591.76C421.01 592.73 405.81 593.77 390.6 594.82C368.4 596.34 346.21 598 324.01 599.36C317.09 599.78 310.11 599.43 303.17 599.43C303.11 598.64 303.04 597.84 302.98 597.05C316.73 596.14 330.48 595.22 346.18 594.18C343.49 592.34 341.81 590.22 340.36 590.36C322.27 592.13 304.2 594.22 286.32 598.06C290.82 597.63 295.32 597.21 299.82 596.78C299.93 597.54 300.05 598.3 300.16 599.06C290.56 603.19 279.84 600.92 269.79 602.43C259.19 604.03 248.44 604.77 237.75 605.68C226.99 606.59 216.21 607.25 206.73 607.93C204.96 599.65 203.43 592.48 201.78 584.74C205.15 585.57 207.05 586.04 208.95 586.51C209.38 584.6 209.82 582.69 210.15 581.21C236.93 578.4 264.29 575.52 291.65 572.65C291.68 571.45 291.72 570.26 291.75 569.06C283.02 570.74 274.86 567.97 266.5 567.68C256.69 567.34 246.84 568.01 237.02 568.57C227.26 569.13 217.53 570.09 207.8 570.88C208.18 565.23 208.49 560.46 208.8 555.84C198.28 556.11 205.49 546.67 200.96 543.47C207.49 542.28 213.06 541.27 219.12 540.17C218.74 541.14 218.26 542.37 217.78 543.6C218.19 544.03 218.6 544.46 219 544.88C220.78 543.2 222.55 541.51 224.22 539.93C228.17 545.45 234.96 541.48 240.95 540.95C255.08 539.69 269.16 537.84 283.25 536.16C296.35 534.59 309.45 532.94 322.54 531.31C338.36 529.33 354.18 527.33 370 525.35C385.92 523.35 401.83 521.29 417.76 519.42C424.59 518.62 431.47 518.2 438.33 517.62C450.54 516.57 462.76 515.59 474.96 514.4C476.3 514.27 477.53 513.01 480.92 511.07C476.95 510.33 474.87 509.52 472.86 509.64C458.29 510.55 443.74 511.74 429.17 512.65C413.65 513.63 413.64 513.54 410.3 516.44C405.68 512.05 397.69 512.3 394.45 516.21H379.9C379.91 516.33 379.92 516.44 379.93 516.56C372.57 516.56 365.18 516.18 357.85 516.65C347.96 517.29 338.1 518.6 328.23 519.59C318.69 520.55 309.15 521.54 299.59 522.36C292.95 522.93 286.23 522.85 279.63 523.72C271.7 524.76 263.89 526.72 255.97 527.86C250.62 528.63 245.17 528.66 239.77 529.04C236.09 529.3 232.4 529.41 228.75 529.88C219.19 531.12 209.67 532.65 200.1 533.81C191.04 534.91 181.94 535.66 172.85 536.6C158.46 538.09 144.05 539.37 129.7 541.19C114.18 543.16 98.73 545.68 83.23 547.87C75.52 548.96 67.77 549.71 60.08 550.9C50.68 552.35 41.34 554.21 31.94 555.69C24.15 556.92 16.31 557.84 8.49999 558.91L7.42999 556.88C11.9 554.84 16.37 552.8 20.84 550.76C20.63 549.92 20.42 549.08 20.21 548.24C14.41 550.69 9.66999 550.48 11.01 543.25C11.5 540.6 15.08 537.02 17.74 536.52C32.06 533.86 46.55 532.13 60.96 529.9C75.15 527.7 89.3 525.28 103.71 522.92C103.45 521.28 103.17 519.58 102.9 517.88C104.92 524.19 109.03 521.97 113.06 521.13C119.57 519.77 126.15 518.62 132.76 517.88C137.53 517.35 142.38 517.68 147.2 517.59C151.52 517.51 151.48 517.49 151.89 512.27C151.93 511.79 152.8 510.95 153.19 511C154.12 511.13 155.16 511.49 155.84 512.11C157.06 513.22 158.05 514.59 159.14 515.85C159.73 514.08 160.32 512.31 160.43 511.99C167 513.01 173.78 514.06 181.13 515.2V507.67C181.72 507.35 182.3 507.04 182.89 506.72C183.78 508.32 184.67 509.92 186.42 513.05C189.25 512.65 193.74 511.83 198.27 511.4C210.02 510.28 221.81 509.52 233.52 508.12C235.58 507.87 237.35 505.21 239.26 503.66C239.13 502.69 238.99 501.71 238.86 500.74C241.24 502.21 243.61 503.68 247.26 505.94C247.59 505.64 249.28 504.1 250.98 502.56C251.1 503.13 251.23 503.71 251.35 504.28C253.25 503.78 255.15 503.27 257.05 502.77L256.48 501.14C260.05 502.06 263.62 502.98 267.2 503.89L267.86 502.74C267 502.02 266.13 501.29 264.22 499.69H269.1C268.35 505.3 272.78 504.05 275.17 503.46C277.74 502.83 279.89 500.51 281.23 499.61C286.16 500.45 290.94 502.21 295.56 501.88C310.77 500.81 325.94 499.12 341.09 497.36C344.7 496.94 350.8 498.5 348.74 490.38C354.52 490.43 360.38 488.16 364.82 494.03C365.33 494.7 367.28 494.47 368.54 494.35C394.7 491.92 420.87 489.47 447.01 486.87C448.09 486.76 449.03 485.14 450.01 484.19C450.7 483.52 451.35 482.23 452.01 482.23C453.35 482.23 455.14 482.54 455.92 483.43C458.15 485.99 457.78 485.86 460 484.08C461.8 482.64 464.2 481.94 464.37 481.86C469.07 483.04 472.01 483.78 474.95 484.52C474.79 483.39 474.63 482.27 474.53 481.58C478.42 482.25 483.06 483.05 487.69 483.85C487.53 482.92 487.38 481.98 487.08 480.21C489.46 481.87 491.47 486.1 494.41 480.41C495.31 478.67 503.2 480.49 507.88 480.76C509.88 480.87 512.54 482.1 513.77 481.23C521.29 475.9 531.83 475.34 537.96 479.1C543.95 478.04 549.2 475.37 551.84 476.98C557.83 480.64 562.02 475.88 566.44 476.01C578 476.36 589.57 469.28 601.15 475.58C601.33 475.68 607.29 478.94 605.1 472.93C606.62 472.46 608.13 471.66 609.67 471.56C617.49 471.04 625.33 470.7 633.64 470.27C634.18 471.94 634.76 473.76 635.23 475.22C638.38 475.04 641.2 474.89 644.43 474.71C644.27 473.37 644.11 471.99 643.72 468.75C651.22 474.95 657.91 469.02 664.91 468.51C665 469.18 665.08 469.85 665.17 470.52L665.13 470.6ZM335.83 512.64C329.62 512.72 323.4 512.69 317.19 512.99C316.1 513.04 315.08 514.49 314.03 515.29C314.79 516.05 315.63 517.55 316.3 517.47C323.46 516.65 330.59 515.59 337.73 514.6C358.61 514.48 364 513.37 365.32 507.36C355.11 509.19 345.47 510.92 335.83 512.64ZM410.12 507.09C412 507.52 413.92 508.42 415.77 508.3C430.46 507.35 445.15 506.25 459.82 505.03C460.62 504.96 461.31 503.41 462.04 502.55C460.85 502 459.64 500.95 458.46 500.98C449.24 501.24 440 501.46 430.8 502.19C423.88 502.74 417.02 504.01 410.14 504.96C399.493 505.32 393.993 507.077 393.64 510.23C399.27 509.16 404.69 508.13 410.11 507.09H410.12ZM374.87 589.24C375.11 590.21 375.36 591.19 375.6 592.16C398.22 590.92 420.83 589.69 443.57 588.45C441.37 584.09 436.65 583.33 428.98 584.03C413.16 585.49 397.28 586.22 381.43 587.4C379.21 587.57 377.06 588.6 374.88 589.23L374.87 589.24ZM294.13 559.69C294.27 560.62 294.41 561.55 294.56 562.48C318.11 560.85 341.65 559.22 365.2 557.59C365.44 556.96 365.67 556.33 365.9 555.69C364.48 554.92 363.02 553.46 361.66 553.55C359.75 553.68 357.94 555.61 356.05 555.66C343.6 556 331.12 555.66 318.68 556.32C310.46 556.76 302.31 558.52 294.12 559.68L294.13 559.69ZM292.73 572.58C310.84 570.55 326.93 568.75 343.86 566.85C337.77 562.9 297.85 566.46 292.73 572.58ZM877.08 573.51C869.51 566.94 849.47 566.9 841.78 573.51H877.08ZM444.59 552.35L444.39 549.5C431.49 550.31 418.59 551.13 405.69 551.94C405.75 552.79 405.81 553.64 405.88 554.48C418.78 553.77 431.69 553.06 444.59 552.35ZM559.17 581.86C552.94 575.94 540.6 576.88 537.85 581.86H559.17ZM491.36 524.89C491.39 526.01 491.41 527.13 491.44 528.24C501.28 527.63 511.13 527.02 520.97 526.41C520.99 525.71 521 525 521.01 524.3C511.16 519 501.21 528.81 491.35 524.88L491.36 524.89ZM310.9 514.62C310.57 513.99 310.25 513.36 309.92 512.72C303.51 513.88 297.1 515.05 290.69 516.21C290.92 517.22 291.15 518.22 291.38 519.23C297.7 516.89 305.52 521.06 310.9 514.61V514.62ZM503.18 584.08C508.7 582.6 515.59 586.75 521.88 580.1C513.79 579.33 507.59 578.03 503.18 584.08Z" fill="#C62369"/>
</svg>
