<svg width="140" height="46" viewBox="0 0 140 46" fill="none" xmlns="http://www.w3.org/2000/svg">
<path d="M55.1551 2.26057C41.1988 2.43543 33.2758 2.94697 19.57 5.58489C15.639 6.34148 13.1595 6.04567 9.56171 7.80111C6.91066 9.09463 4.89218 9.66284 3.44553 12.2335C1.74771 15.2506 2.37264 17.8069 3.44553 21.0984C4.64104 24.7661 6.48548 26.5275 9.56171 28.8552C12.9044 31.3844 15.5646 31.4978 19.57 32.7335C24.4529 34.24 27.3302 34.5933 32.3584 35.5038C38.6129 36.6363 42.1438 37.2539 48.4829 37.72C55.8457 38.2615 60.0047 37.72 67.3874 37.72C73.033 37.72 76.2115 37.3346 81.8439 37.72C86.8598 38.0632 89.6576 38.538 94.6071 39.3779L94.6323 39.3822C101.435 40.5365 105 42.6049 111.869 43.2606C117.056 43.7558 120.194 44.6639 125.213 43.2606C129.516 42.0576 132.453 41.2265 135.221 37.72C138.749 33.2521 138.748 28.8558 137.446 23.3146C136.263 18.2851 133.892 15.8654 130.217 12.2335C120.617 2.74568 109.662 7.49648 96.3003 5.58489C80.3422 3.30181 71.2744 2.0586 55.1551 2.26057Z" stroke="#CDDD20" stroke-width="3"/>
</svg>
