<svg width="140" height="46" viewBox="0 0 140 46" fill="none" xmlns="http://www.w3.org/2000/svg">
<path d="M84.845 43.9882C98.8012 43.8133 106.724 43.3018 120.43 40.6639C124.361 39.9073 126.841 40.2031 130.438 38.4477C133.089 37.1541 135.108 36.5859 136.555 34.0152C138.252 30.9982 137.627 28.4419 136.555 25.1504C135.359 21.4827 133.515 19.7212 130.438 17.3936C127.096 14.8644 124.435 14.751 120.43 13.5152C115.547 12.0088 112.67 11.6554 107.642 10.745C101.387 9.61246 97.8563 8.99491 91.5172 8.52875C84.1544 7.98731 79.9953 8.52875 72.6126 8.52875C66.967 8.52875 63.7886 8.91414 58.1562 8.52875C53.1403 8.18554 50.3425 7.71077 45.393 6.87086L45.3678 6.86658C38.5655 5.71226 34.9996 3.64387 28.1313 2.9882C22.9436 2.49297 19.8057 1.58487 14.7869 2.9882C10.4845 4.19122 7.5467 5.02224 4.7786 8.52874C1.25154 12.9967 1.25165 17.3929 2.55454 22.9341C3.73711 27.9637 6.10791 30.3834 9.78275 34.0152C19.3829 43.5031 30.3383 38.7523 43.6998 40.6639C59.6578 42.947 68.7257 44.1902 84.845 43.9882Z" stroke="#CDDD20" stroke-width="3"/>
</svg>
