<svg width="192" height="48" viewBox="0 0 192 48" fill="none" xmlns="http://www.w3.org/2000/svg">
<path d="M69.7188 2.0008C50.5196 1.93457 20.7188 6.0008 20.7188 6.0008C20.7188 6.0008 10.3064 7.03197 6.21885 11.5008C3.08629 14.9256 1.10151 17.9007 1.71885 22.5008C2.41766 27.7081 6.24906 29.7394 10.7188 32.5008C15.6746 35.5624 19.4577 35.1391 25.2188 36.0008C34.8745 37.445 40.4671 35.5294 50.2188 36.0008C63.7664 36.6557 71.1808 39.1732 84.7188 40.0008C99.9209 40.9302 108.544 38.7029 123.719 40.0008C137.92 41.2154 145.553 47.5707 159.719 46.0008C171.442 44.7016 183.11 46.6323 188.219 36.0008C191.348 29.4889 190.88 24.2177 188.219 17.5008C182.577 3.25972 165.891 8.1093 150.719 6.0008C137.567 4.17311 129.988 6.47285 116.719 6.0008C98.3095 5.3459 88.1397 2.06435 69.7188 2.0008Z" stroke="#CDDD20" stroke-width="3"/>
</svg>
