<svg version="1.0" xmlns="http://www.w3.org/2000/svg"
 width="132.000000pt" height="209.000000pt" viewBox="0 0 132.000000 209.000000"
 preserveAspectRatio="xMidYMid meet">

<g transform="translate(0.000000,209.000000) scale(0.100000,-0.100000)"
fill="#ffffff" stroke="none">
<path d="M961 2059 c-56 -11 -101 -40 -182 -121 -159 -156 -198 -233 -394
-779 -52 -144 -99 -265 -105 -269 -5 -3 -19 -62 -30 -131 -12 -68 -24 -131
-27 -139 -28 -70 -17 449 12 570 9 36 24 88 34 115 10 28 40 124 65 215 64
225 73 247 104 262 22 11 28 21 30 55 3 39 0 44 -30 63 -50 30 -71 26 -117
-27 l-42 -48 16 39 c15 39 15 39 -5 21 -24 -22 -108 -185 -144 -280 -32 -85
-76 -258 -76 -294 1 -25 1 -25 21 9 l20 35 -4 -30 c-2 -16 -22 -93 -43 -170
-37 -132 -39 -148 -38 -270 1 -136 23 -340 49 -472 30 -146 99 -260 195 -322
82 -53 163 -74 286 -74 174 1 267 44 361 168 158 209 290 548 354 910 30 171
38 522 15 655 -28 157 -75 239 -166 284 -55 28 -101 35 -159 25z m130 -79 c60
-81 87 -392 54 -624 -9 -66 -32 -199 -51 -295 -18 -97 -34 -183 -33 -191 1
-25 66 225 101 385 30 139 32 164 32 345 1 187 0 198 -26 275 -15 43 -25 81
-23 83 2 2 18 -25 36 -59 21 -42 34 -86 39 -129 8 -79 -4 -409 -21 -552 -17
-147 -186 -732 -247 -853 -42 -85 -182 -249 -182 -213 0 8 25 65 55 127 30 62
55 117 55 123 0 5 -32 -38 -70 -97 -77 -116 -148 -199 -192 -221 -26 -13 -33
-13 -72 4 -83 37 -153 132 -202 274 -39 113 -41 199 -9 343 57 256 156 515
329 870 105 214 168 311 231 360 103 78 162 92 196 45z m-555 -580 c-61 -148
-112 -265 -114 -260 -2 5 11 47 28 92 18 46 55 148 82 227 50 143 91 227 107
216 5 -2 -41 -126 -103 -275z"/>
<path d="M320 1419 c0 -2 -11 -92 -25 -199 -22 -170 -31 -296 -20 -265 8 22
56 458 51 463 -3 3 -6 3 -6 1z"/>
</g>
</svg>
