<svg width="4128" height="2992" viewBox="0 0 4128 2992" fill="none" xmlns="http://www.w3.org/2000/svg">
<mask id="mask0_4340_45992" style="mask-type:alpha" maskUnits="userSpaceOnUse" x="0" y="0" width="4128" height="2992">
<path d="M3566.73 2718.88C3555.74 2722.72 3544.81 2725.74 3533.92 2728.59C3523.04 2731.49 3512.19 2734.17 3501.34 2737.27C3487.94 2741.15 3474.29 2745.2 3460.68 2748.92C3446.55 2752.74 3429.56 2756.8 3419.47 2764.1C3418.39 2764.88 3416.72 2765.5 3414.82 2765.79C3413.02 2766.07 3411.99 2765.97 3413.17 2765.13C3419.64 2760.52 3409.67 2764.11 3406.21 2765.12C3388.28 2770.32 3370.28 2775.54 3352.4 2781.15C3336.03 2786.27 3319.73 2791.08 3303.4 2795.71C3299.32 2796.86 3295.24 2798.02 3291.17 2799.17L3285.06 2800.89C3284.04 2801.16 3283.03 2801.5 3281.99 2801.71L3278.88 2802.38C3270.58 2804.15 3262.34 2806.05 3253.99 2807.53C3250.51 2808.2 3247.03 2808.87 3243.54 2809.55C3240.05 2810.2 3236.53 2810.75 3233.02 2811.37C3229.51 2811.98 3226 2812.6 3222.49 2813.21L3211.92 2814.8C3209.67 2815.15 3207.42 2815.49 3205.17 2815.84L3201.79 2816.36L3198.4 2816.8L3184.84 2818.56C3183.71 2818.7 3182.58 2818.86 3181.45 2818.99L3178.05 2819.32C3175.78 2819.54 3173.52 2819.75 3171.26 2819.97C3169 2820.18 3166.74 2820.38 3164.48 2820.58C3163.35 2820.67 3162.22 2820.79 3161.09 2820.86L3157.7 2821.03C3152.3 2821.3 3146.91 2821.5 3141.53 2821.67C3136.15 2821.67 3130.77 2821.67 3125.4 2821.67H3121.38C3120.04 2821.67 3118.7 2821.6 3117.36 2821.57L3109.32 2821.38L3101.28 2821.27L3093.24 2821.05C3064.56 2820.53 3035.46 2817.93 3008.15 2812.65C2990.83 2809.48 2973.19 2806.36 2956.73 2801.56L2955.44 2806.1C2955.43 2805.95 2955.44 2805.8 2955.48 2805.66C2955.52 2805.53 2955.56 2805.24 2955.63 2805.05C2955.66 2804.95 2955.7 2804.84 2955.75 2804.74L2955.76 2804.72L2956.88 2801.61V2801.6V2801.59L2956.87 2801.54C2956.68 2801.43 2956.45 2801.3 2956.26 2801.16C2955.86 2800.88 2955.47 2800.61 2955.07 2800.33C2954.67 2800.06 2954.28 2799.78 2953.85 2799.57C2953.64 2799.45 2953.4 2799.42 2953.18 2799.35L2952.5 2799.15C2951.25 2798.78 2949.98 2798.42 2948.68 2798.07C2945.33 2797.17 2941.95 2796.26 2938.55 2795.34C2935.26 2794.44 2931.94 2793.56 2928.64 2792.6C2922.03 2790.69 2915.43 2788.56 2909.06 2785.92C2906.55 2784.88 2904.03 2783.81 2901.53 2782.7L2899.65 2781.87L2897.89 2781.07L2895.84 2780.13C2895.08 2779.81 2894.13 2779.51 2893.22 2779.36C2892.32 2779.21 2891.52 2779.19 2891.11 2779.18L2890.86 2779.17C2890.78 2779.17 2890.74 2779.16 2890.74 2779.16H2890.71L2890.68 2779.93C2890.66 2780.49 2890.57 2781.28 2890.57 2781.34C2890.43 2782.44 2890.41 2782.15 2890.57 2781.76C2890.63 2781.62 2890.78 2781.21 2890.94 2780.92L2890.97 2780.86L2891.72 2779.36L2891.7 2779.35L2891.64 2779.32L2891.51 2779.25L2891.25 2779.11L2890.23 2778.58C2888.88 2777.89 2887.56 2777.26 2886.27 2776.63L2882.47 2774.81L2880.66 2773.92L2878.63 2772.89C2876.4 2771.93 2874.17 2770.98 2871.93 2770.02L2865.56 2767.2C2861.32 2765.29 2857.1 2763.35 2852.92 2761.36C2841.7 2756.07 2831.01 2749.84 2820.41 2743.46C2809.81 2737.06 2799.34 2730.41 2788.4 2724.15C2780.99 2719.88 2778.18 2715.18 2771.27 2710.38C2757.07 2700.49 2743.24 2690.19 2729.55 2679.67C2727.32 2677.97 2724.24 2675.27 2723.32 2675.49C2719.77 2676.32 2717.93 2672.98 2714.85 2669.57C2709.66 2663.81 2704.2 2658.98 2699.71 2655.92C2698.58 2655.11 2697.54 2654.44 2696.47 2653.82C2695.4 2653.2 2694.39 2652.7 2693.46 2652.32C2691.58 2651.56 2690 2651.31 2688.83 2651.64C2685.33 2648.87 2682.08 2645.22 2683.49 2645.59C2687.72 2646.7 2686.58 2644.84 2684.08 2642.53C2681.59 2640.21 2677.7 2637.47 2676.67 2636.78C2669.26 2631.76 2662.85 2626.81 2655.53 2622.08C2654.48 2621.42 2653.44 2620.76 2652.39 2620.09L2655.12 2622.2C2654.15 2621.18 2653.18 2620.15 2652.2 2619.12L2651.27 2618.14L2649.55 2617.05L2637.94 2609.71L2635.03 2607.88C2634.78 2607.73 2634.55 2607.57 2634.29 2607.42L2633.47 2606.98L2631.83 2606.1L2628.54 2604.34L2625.42 2602.74C2617.12 2598.5 2608.61 2594.57 2599.9 2591.03C2582.46 2583.98 2564.26 2578.53 2545.66 2574.9C2544.06 2574.6 2542.42 2574.34 2540.76 2574.09C2539.09 2573.82 2537.49 2573.75 2535.87 2573.57C2534.26 2573.41 2532.66 2573.25 2531.11 2573.06C2530.34 2572.96 2529.58 2572.85 2528.83 2572.75C2528.1 2572.66 2527.38 2572.56 2526.69 2572.44C2512.88 2570.07 2498.6 2569.06 2484.34 2568.79C2470.07 2568.51 2455.81 2568.97 2441.81 2569.38C2429.27 2569.75 2416.76 2570.5 2404.32 2571.52C2398.11 2572.04 2391.9 2572.6 2385.72 2573.23L2376.73 2574.17C2375.25 2574.34 2373.74 2574.48 2372.2 2574.6L2369.91 2574.8L2367.48 2575.04C2353.62 2576.44 2339.86 2578.08 2326.43 2580.41C2319.72 2581.57 2313.09 2582.91 2306.57 2584.46L2301.7 2585.66C2300.09 2586.07 2298.37 2586.53 2296.71 2586.99C2293.41 2587.95 2290.2 2589.06 2286.98 2590.19C2283.5 2591.42 2280.48 2592.1 2277.51 2592.47C2275.17 2592.74 2272.87 2593.15 2270.52 2593.58C2268.18 2594.02 2265.81 2594.5 2263.43 2595.02C2258.66 2596.06 2253.83 2597.24 2249.05 2598.69C2244.25 2600.09 2239.44 2601.59 2234.67 2603.13C2229.95 2604.79 2225.26 2606.44 2220.65 2608.06C2215.63 2609.83 2210.66 2611.58 2205.72 2613.33C2200.78 2615.05 2195.82 2616.68 2190.94 2618.47C2186.04 2620.23 2181.14 2621.98 2176.24 2623.83C2171.37 2625.74 2166.49 2627.71 2161.6 2629.81C2143.4 2637.77 2123.73 2643.88 2107.17 2654.62C2106.26 2655.2 2103.94 2656.33 2103.64 2656.34C2097.02 2656.61 2087.96 2662.68 2080.71 2665.47C2057.32 2674.41 2035.8 2688.57 2013.1 2697.86C2006.95 2700.37 2001.31 2703.68 1995.62 2706.96C1989.93 2710.23 1984.18 2713.42 1977.97 2715.77C1967.71 2719.66 1957.68 2724.6 1947.78 2730.02C1930.19 2739.65 1911.92 2748.01 1894.12 2757.17C1880.15 2764.36 1865 2770.97 1850.43 2778.53C1840.56 2783.66 1829.39 2788.82 1821.06 2793.71C1812.96 2798.46 1808.18 2800.36 1801.3 2802.87C1797.68 2804.18 1792.86 2806.79 1788.87 2808.98C1773.05 2817.6 1756.55 2824.46 1740.43 2832.31C1726.08 2839.3 1710.74 2845.65 1695.88 2851.88C1683.99 2856.87 1672.05 2861.86 1660.07 2866.73C1648.03 2871.64 1636.27 2876.23 1623.89 2880.99C1601.45 2889.66 1578.29 2895.64 1556.62 2905.11C1553.81 2906.33 1549.39 2907.74 1547.85 2906.95C1546.58 2906.29 1543.11 2907.51 1541.47 2908.32C1538.67 2909.7 1535.79 2910.88 1532.86 2911.85C1531.4 2912.34 1529.92 2912.8 1528.44 2913.22C1526.97 2913.64 1525.56 2914 1524.11 2914.36L1521.95 2914.89L1520.87 2915.15C1520.5 2915.24 1520.25 2915.28 1519.93 2915.34C1518.56 2915.61 1517.2 2915.87 1515.84 2916.14C1512.99 2916.69 1510.07 2917.25 1507.08 2917.95L1496.08 2920.48L1490.3 2921.86L1489.43 2922.06L1488.68 2922.2L1486.25 2922.68C1479.66 2923.94 1472.97 2924.97 1466.07 2925.92L1455.67 2927.3C1454.16 2927.51 1452.61 2927.63 1451.07 2927.79L1446.08 2928.26C1439.38 2928.85 1432.73 2929.34 1426.14 2929.69C1421.01 2929.97 1415.89 2929.92 1410.79 2929.67C1408.24 2929.55 1405.7 2929.37 1403.17 2929.16C1401.9 2929.05 1400.64 2928.95 1399.37 2928.82L1395.5 2928.43C1384.41 2927.31 1373.94 2926.43 1363.66 2926.34C1362.27 2926.32 1359.15 2925.56 1357.84 2925.02C1351.88 2922.43 1344.37 2921.09 1337.53 2919.14C1331.05 2917.3 1324.83 2915.09 1318.78 2912.64C1312.73 2910.19 1306.99 2907.25 1301.39 2904.1L1297.26 2901.63C1295.88 2900.81 1294.58 2899.86 1293.23 2898.99L1291.52 2897.85C1291.31 2897.72 1291.11 2897.54 1290.92 2897.4L1290.21 2896.85C1288.85 2895.79 1287.5 2894.74 1286.22 2893.67C1281.01 2889.42 1276.39 2885.14 1272.28 2880.61C1270.49 2878.64 1268.37 2876.64 1266.43 2874.58C1265.47 2873.54 1264.53 2872.53 1263.73 2871.49C1263.33 2870.97 1262.93 2870.48 1262.59 2869.97C1262.38 2869.67 1262.36 2869.6 1262.27 2869.44C1262.2 2869.29 1262.13 2869.15 1262.06 2869.01C1261.88 2868.66 1261.75 2868.27 1261.6 2867.91L1261.37 2867.35C1261.21 2867.02 1260.95 2866.56 1260.66 2866.06C1260.08 2865.05 1259.21 2863.61 1257.99 2861.91C1256.78 2860.23 1255.23 2858.34 1253.62 2856.66L1258.76 2863.25C1256.97 2859.96 1254.87 2856.81 1253.39 2854.67L1252.39 2853.22L1252.01 2852.65L1251.8 2852.32C1251.5 2851.86 1251.21 2851.4 1250.93 2850.92C1250.65 2850.45 1250.36 2849.98 1250.13 2849.49L1249.77 2848.78L1249.08 2847.49L1246.08 2841.89C1242.11 2834.5 1238.36 2827.5 1235.3 2820.62C1233.08 2815.65 1231.53 2810.98 1231 2806.93C1230.43 2802.5 1229.56 2798.45 1228.63 2793.8L1229.33 2800.83C1229.33 2800.58 1229.33 2800.3 1229.33 2800.01V2794.34C1229.31 2793.87 1229.38 2793.39 1229.28 2792.92L1229.07 2791.51L1228.66 2788.69L1227.56 2781.02L1227.02 2774.83C1226.94 2773.8 1226.83 2772.77 1226.76 2771.74L1226.66 2768.62C1226.23 2760.33 1226.67 2751.91 1227.38 2743.44L1228.03 2737.07L1228.92 2730.66C1229.08 2729.59 1229.19 2728.53 1229.38 2727.45L1229.95 2724.23C1230.35 2722.08 1230.64 2719.93 1231.1 2717.77C1232.76 2709.13 1234.86 2700.39 1237.08 2691.56C1237.9 2688.56 1238.79 2685.52 1239.77 2682.47C1240.83 2679.41 1241.95 2676.35 1243.15 2673.36C1246.83 2664.48 1250.18 2654.31 1252.93 2645.5C1253.25 2644.56 1253.5 2643.85 1253.79 2643.15C1254.06 2642.49 1254.43 2641.69 1254.96 2640.68C1261.55 2628.08 1267.33 2614.45 1273.25 2600.98C1275.75 2595.3 1278.39 2589.68 1281.13 2584.12C1284.02 2578.39 1286.91 2572.66 1289.79 2566.94C1295.61 2555.71 1301.42 2544.49 1307.25 2533.24C1314.01 2520.08 1321.8 2507.06 1327.99 2494.08C1329.77 2490.35 1331.59 2486.64 1333.44 2482.95L1336.24 2477.43L1338.51 2473.03C1338.7 2472.7 1338.83 2472.33 1339.07 2472.03C1339.3 2471.72 1339.51 2471.41 1339.72 2471.09L1340.71 2469.59L1341.42 2468.49L1342.61 2466.61L1343.52 2465.18L1343.88 2464.63L1344.04 2464.4C1344.05 2464.38 1344.12 2464.28 1344.09 2464.32L1343.97 2464.48C1344.81 2463.2 1345.64 2461.92 1346.47 2460.64C1347.31 2459.36 1348.06 2458.03 1348.86 2456.73L1351.71 2451.38C1352.45 2449.97 1353.23 2448.58 1354.01 2447.18C1355.56 2444.39 1357.1 2441.6 1358.7 2438.83C1360.28 2436.05 1361.87 2433.28 1363.5 2430.53C1365.1 2427.77 1366.74 2425.01 1368.38 2422.25C1376.88 2407.9 1385.95 2393.68 1395.27 2379.34C1399.98 2372.14 1404.69 2364.94 1409.4 2357.73C1413.93 2350.78 1418.46 2343.82 1422.99 2336.86C1423.26 2336.4 1423.59 2335.98 1423.92 2335.55L1424.42 2334.91L1424.78 2334.46L1425.52 2333.57C1428.2 2330.4 1430.93 2326.95 1433.36 2323.47L1434.77 2320.76L1436.04 2318.38L1436.35 2317.8L1436.47 2317.59L1436.71 2317.17C1436.86 2316.89 1437.03 2316.61 1437.23 2316.3C1437.94 2315.12 1438.86 2313.79 1439.94 2312.36C1442.05 2309.53 1444.93 2306.21 1447.94 2302.92L1449.54 2301.15L1451.17 2299.28C1452.25 2298.01 1453.41 2296.62 1454.46 2295.3C1455.39 2294.13 1456.32 2292.97 1457.25 2291.8C1458.1 2290.71 1458.96 2289.62 1459.81 2288.53C1463.2 2284.15 1466.41 2279.76 1469.73 2275.3C1476.28 2266.39 1482.76 2257.49 1489.79 2248.86C1512.3 2221.27 1535.38 2192.82 1556.32 2163.31C1556.95 2162.43 1558.28 2161.06 1558.88 2160.66C1563.15 2157.84 1566.78 2152.23 1570.9 2147.34C1578.24 2138.63 1584.22 2129.29 1591.18 2121.11C1599.63 2111.17 1607.63 2100.89 1615.61 2090.53C1619.63 2085.33 1623.66 2080.12 1627.69 2074.9C1631.82 2069.66 1635.97 2064.42 1640.12 2059.15C1642.03 2056.75 1643.93 2054.33 1645.82 2051.89C1647.66 2049.47 1649.51 2047.04 1651.36 2044.61C1655.02 2039.74 1658.66 2034.81 1662.27 2029.85C1669.51 2019.95 1676.69 2009.97 1684.02 2000.26C1699.24 1980.11 1713.65 1959.51 1728.63 1939.35C1735.82 1929.68 1742.82 1918.26 1750.67 1908.4C1759.39 1897.42 1767.78 1886.29 1776.03 1875.1C1780.14 1869.5 1784.24 1863.9 1788.34 1858.3L1794.38 1850.04C1796.39 1847.28 1798.39 1844.51 1800.46 1841.83C1801.74 1840.15 1802.9 1838.34 1804.04 1836.52C1805.21 1834.66 1806.38 1832.76 1807.61 1830.96C1810.07 1827.35 1812.8 1824.07 1816.51 1821.95C1816.63 1821.88 1817.08 1821.25 1817.36 1820.88C1827.32 1807.79 1837.99 1795.39 1848.09 1782.04C1857.73 1769.3 1867.05 1756.05 1876.92 1743.52C1880.48 1739 1883.96 1734.43 1887.4 1729.82L1892.52 1722.88L1897.66 1715.83C1899.39 1713.42 1901.12 1711.1 1902.84 1708.63L1908.01 1701.22C1911.37 1696.37 1914.74 1691.52 1918.1 1686.68C1920.23 1683.63 1921.85 1680.66 1923.48 1677.63C1925.13 1674.61 1926.85 1671.6 1929.13 1668.41C1936.02 1658.95 1943.67 1649.39 1947.32 1638C1947.71 1636.8 1949.01 1634 1949.53 1633.37C1956.88 1624.52 1962.32 1611.87 1968.43 1601.1C1973.26 1592.68 1977.6 1583.72 1981.65 1574.73C1983.62 1570.22 1985.62 1565.67 1987.37 1561.26C1988.27 1559.04 1989.16 1556.82 1990.04 1554.63C1990.93 1552.37 1991.81 1550.13 1992.68 1547.92C1994.92 1542 1997.42 1535.47 1999.65 1529.13C2000.21 1527.55 2000.77 1525.99 2001.31 1524.48C2001.84 1522.94 2002.35 1521.44 2002.84 1520C2003.34 1518.56 2003.83 1517.17 2004.28 1515.85C2004.73 1514.51 2005.15 1513.25 2005.55 1512.07C2006.96 1508.13 2008.13 1504.05 2009.28 1500.02C2009.83 1497.99 2010.32 1495.92 2010.83 1493.87L2011.57 1490.79L2012.21 1487.66C2013.98 1479.36 2015.11 1470.78 2015.89 1462.03C2016.77 1452.94 2016.88 1442.82 2016.23 1434.45C2015.92 1431.42 2015.71 1428.41 2015.38 1425.41C2014.97 1421.93 2014.55 1418.47 2014.14 1415.01L2013.54 1412.44L2013.23 1411.09L2013.16 1410.68C2013.07 1410.15 2013.01 1409.67 2012.98 1409.32C2012.97 1409.15 2012.96 1409 2012.96 1408.89L2012.97 1408.77C2012.97 1408.75 2012.98 1408.76 2012.98 1408.75L2012.99 1408.74C2012.94 1408.74 2013.19 1408.72 2012.59 1408.77C2006.04 1409.44 1999.91 1409.81 1994.5 1409.8L2012.32 1401.44C2010.67 1392.34 2008.31 1384.36 2005.65 1377.14C2004.32 1373.53 2002.91 1370.09 2001.44 1366.85L2000.89 1365.64L2000.7 1365.28C2000.55 1365.03 2000.43 1364.78 2000.32 1364.51L2000.12 1364.11L1999.6 1362.75C1999.19 1361.65 1998.7 1360.6 1998.23 1359.53C1994.53 1351.16 1989.86 1342.57 1984.78 1334.87C1979.7 1327.18 1974.31 1320.31 1969.36 1314.52C1964.23 1308.51 1959.2 1303.24 1954.45 1298.32L1953.38 1297.22L1951.99 1295.83C1951.06 1294.9 1950.1 1294 1949.12 1293.12C1948.14 1292.24 1947.15 1291.38 1946.13 1290.54L1944.6 1289.29L1943.29 1288.24C1941.81 1287.06 1940.79 1286.26 1940.22 1285.77L1940.01 1285.59L1939.88 1285.47C1939.77 1285.38 1939.75 1285.35 1939.71 1285.31C1939.68 1285.29 1939.67 1285.28 1939.69 1285.28C1939.88 1285.07 1939.22 1285.8 1938.84 1286.21L1937.55 1287.59L1935.47 1289.8C1934.82 1290.47 1934.17 1291.13 1933.5 1291.79L1936.69 1282.56C1924.47 1272.42 1911.44 1262.95 1897.85 1254.51C1891.24 1250.44 1884.41 1246.23 1877.91 1242.23C1874.78 1240.27 1871.61 1238.39 1868.43 1236.57C1865.11 1234.66 1862.39 1233.17 1859.14 1231.4C1855.92 1229.68 1852.77 1227.93 1849.46 1226.26C1846.13 1224.61 1842.8 1222.92 1839.45 1221.32C1826.07 1214.94 1812.61 1209.34 1799.5 1203.95C1773.01 1193.06 1746.3 1185.32 1722.4 1174.9C1719.44 1173.62 1716.54 1172.45 1713.61 1171.37C1710.61 1170.27 1707.63 1169.18 1704.68 1168.09C1703.23 1167.57 1701.79 1167.04 1700.36 1166.52C1698.98 1166.01 1697.61 1165.49 1696.23 1164.98C1695.52 1164.72 1694.89 1164.45 1694.27 1164.18L1692.4 1163.36C1691.16 1162.79 1689.91 1162.23 1688.71 1161.6C1674.63 1154.23 1661.97 1145.96 1651.04 1136.48C1650.02 1135.56 1648.94 1134.73 1647.85 1133.94C1646.74 1133.17 1645.75 1132.33 1644.71 1131.56C1643.7 1130.76 1642.65 1130.01 1641.8 1129.11C1640.94 1128.23 1640.14 1127.3 1639.48 1126.29C1638.73 1125.18 1637.97 1124.06 1637.2 1122.92C1636.43 1121.79 1635.56 1120.72 1634.75 1119.61C1633.18 1117.33 1631.35 1115.2 1629.78 1112.86C1628.99 1111.71 1628.08 1110.6 1627.36 1109.43C1626.63 1108.26 1625.89 1107.1 1625.17 1105.94C1624.39 1104.77 1623.91 1103.64 1623.32 1102.49C1622.74 1101.38 1622.27 1100.15 1621.82 1098.94C1621.18 1097.32 1620.38 1095.58 1619.36 1093.93C1618.86 1093.09 1618.38 1092.23 1617.85 1091.42C1617.32 1090.6 1616.77 1089.81 1616.27 1089.02C1612.84 1083.94 1609.54 1078.02 1610.72 1070.96C1610.85 1070.1 1610.78 1068.84 1610.61 1067.4C1610.52 1066.69 1610.4 1065.94 1610.26 1065.18C1610.14 1064.4 1610.01 1063.62 1609.88 1062.85C1609.04 1058.14 1608.35 1053.27 1607.84 1048.2C1607.69 1046.95 1607.59 1045.66 1607.48 1044.38C1607.37 1043.11 1607.24 1041.77 1607.18 1040.62L1606.94 1037.06L1606.88 1033.57L1606.84 1031.82C1606.82 1031.25 1606.81 1030.66 1606.83 1030.02L1606.88 1026.26C1606.86 1023.76 1607.05 1021.24 1607.15 1018.73C1607.19 1017.48 1607.28 1016.21 1607.39 1014.95L1607.69 1011.17C1607.91 1008.65 1608.24 1006.11 1608.51 1003.59C1609.68 994.417 1610.56 985.007 1612.79 976.297C1614.89 968.087 1617.1 959.807 1619.56 951.467C1620.77 947.307 1622.1 943.117 1623.45 938.937L1625.57 932.637L1627.98 925.937C1636.12 903.017 1645.01 881.427 1654.84 859.687C1668.94 828.907 1685.09 798.627 1702.73 768.637C1712.25 752.327 1722.89 736.497 1733.31 720.547C1740.34 709.967 1746.78 698.347 1754.2 688.897C1762.08 678.797 1767.63 667.767 1775.51 657.517C1781.95 649.137 1787.46 640.217 1793.11 630.957C1795.93 626.347 1798.77 621.687 1801.77 617.047C1804.79 612.317 1807.98 607.567 1811.44 602.897C1812.57 601.347 1813.72 599.777 1814.89 598.167C1816.05 596.557 1817.22 594.917 1818.39 593.137C1820.71 589.647 1823.14 585.977 1825.39 582.357C1827.68 578.707 1829.96 575.037 1832.2 571.197C1833.31 569.287 1834.43 567.387 1835.53 565.487C1836.62 563.537 1837.7 561.597 1838.77 559.667C1847.09 544.537 1855.58 528.817 1863.15 511.847C1870.69 494.887 1877.21 476.497 1881.21 456.957C1881.52 455.437 1881.83 453.917 1882.14 452.397L1882.6 450.117C1882.75 449.357 1882.85 448.577 1882.98 447.807C1883.47 444.727 1883.96 441.647 1884.44 438.567C1884.56 437.797 1884.69 437.037 1884.79 436.257L1885.05 433.927L1885.55 429.257C1885.85 426.157 1886.28 422.987 1886.37 419.987C1886.51 416.947 1886.66 413.907 1886.8 410.857C1886.94 407.807 1886.87 404.767 1886.89 401.707C1886.88 400.177 1886.87 398.647 1886.86 397.117C1886.84 395.587 1886.7 393.967 1886.61 392.387C1886.4 389.217 1886.19 386.027 1885.89 382.847C1884.67 372.677 1882.85 362.317 1880.3 352.347C1879.67 349.857 1879.09 347.337 1878.43 344.867C1877.74 342.417 1877.05 339.987 1876.36 337.557C1876.03 336.337 1875.69 335.127 1875.36 333.917C1875.01 332.717 1874.63 331.547 1874.27 330.357C1873.55 327.997 1872.85 325.647 1872.18 323.297C1867.76 308.607 1861.49 294.717 1854.52 281.657C1847.54 268.577 1839.88 256.277 1832.43 244.287C1831.07 242.127 1829.68 239.967 1828.26 237.807C1827.56 236.717 1826.83 235.667 1826.1 234.617C1825.34 233.537 1824.59 232.457 1823.83 231.377C1822.65 229.677 1821.42 228.007 1820.22 226.327L1818.41 223.807L1816.23 221.597C1814.77 220.127 1813.3 218.657 1811.84 217.187C1811.54 216.887 1811.76 217.107 1811.81 217.157L1812.05 217.397L1812.53 217.877L1813.01 218.357C1813.15 218.497 1813.41 218.767 1813.29 218.617L1812.89 217.987L1811.84 216.457L1809.13 212.717L1806.36 209.127C1802.65 204.457 1798.94 200.277 1795.52 196.577C1792.43 193.277 1789.35 189.997 1786.29 186.727L1784.37 184.617L1782.62 182.627L1781.04 180.747C1780.07 179.617 1779.1 178.487 1778.13 177.357C1777.48 176.677 1776.77 175.997 1776.11 175.357C1775.54 174.817 1774.99 174.297 1774.45 173.787C1773.6 173.007 1772.77 172.277 1771.94 171.607C1770.28 170.267 1768.68 169.077 1767.11 167.977C1763.97 165.757 1761.01 163.737 1758.14 160.937C1747.33 150.377 1735.44 140.907 1723.66 132.307L1719.24 129.117L1714.8 125.967C1713.21 124.857 1711.62 123.727 1710.03 122.647L1705.25 119.467L1702.86 117.877L1700.55 116.377L1695.96 113.387C1692.88 111.417 1689.8 109.437 1686.73 107.467C1684.38 105.987 1682.05 104.517 1679.7 103.187C1677.34 101.877 1674.98 100.707 1672.6 99.7867C1663.86 96.4667 1655.89 92.3767 1649.54 86.4867C1647.67 84.7767 1645.12 83.0967 1642.34 81.5367C1639.55 80.0067 1636.53 78.5767 1633.72 77.3667C1631.61 76.4667 1629.37 75.5367 1627.29 74.5767C1625.2 73.6467 1623.25 72.6967 1621.72 71.7467C1619.64 70.4367 1617.49 69.2067 1615.31 67.9967C1613.13 66.7767 1610.9 65.5967 1608.65 64.4667C1606.39 63.3267 1604.11 62.1967 1601.8 61.1267C1600.65 60.5867 1599.49 60.0567 1598.33 59.5167C1597.18 58.9867 1596.01 58.4467 1594.78 57.9067L1587.52 54.7267C1585.22 53.7567 1582.93 52.7867 1580.65 51.8267C1578.44 50.8667 1576.23 49.9067 1574.05 48.9567C1571.86 47.9867 1569.65 46.9967 1567.49 45.9867C1555.95 40.6067 1543.86 37.4167 1531.67 32.2767C1522.37 28.3667 1512.78 24.9767 1501.61 22.7867C1490.46 20.6067 1478.96 18.1567 1467.02 14.5567C1466.2 14.3167 1465.38 14.0767 1464.54 13.8267C1463.69 13.5867 1463.01 13.4267 1462.22 13.2267C1460.69 12.8567 1459.13 12.5067 1457.54 12.1867C1455.94 11.8667 1454.36 11.5567 1452.76 11.2767C1451.93 11.1367 1451.21 10.9967 1450.28 10.8667C1449.31 10.7367 1448.33 10.6167 1447.35 10.4867C1439.51 9.52672 1431.98 9.34672 1425.41 9.51672C1423.64 9.55672 1422.15 9.65671 1420.7 9.60671C1419.23 9.55671 1417.95 9.36672 1416.71 8.83672C1413.5 7.50672 1410.24 6.82671 1406.96 6.54671C1403.83 6.24671 1400.64 6.3767 1397.93 6.5967C1395.24 6.8267 1393.29 6.8067 1391.68 5.6567C1390.97 5.1967 1390.27 4.7667 1389.48 4.4367L1389.18 4.30672L1389.1 4.27669L1388.62 4.16671L1388.47 4.13671L1388.41 4.11672L1387.9 3.97671C1387.23 3.79671 1386.52 3.59671 1385.85 3.44671C1384.52 3.14671 1383.14 2.8567 1381.82 2.5967C1379.15 2.0267 1376.36 1.6967 1373.62 1.2867C1370.87 0.976704 1368.13 0.656719 1365.52 0.426719C1354.47 -0.603281 1343.37 0.306701 1333.07 2.3467C1322.69 4.3367 1313.12 7.36671 1304.02 10.3267C1302.52 10.7967 1301.12 11.3167 1299.66 11.8267L1297.51 12.6067L1295.23 13.4867L1292.36 14.6367C1291.43 15.0067 1290.58 15.4567 1289.64 15.8867L1288.31 16.5167L1287.5 16.8867L1285.93 17.6167C1281.74 19.5567 1277.84 21.4367 1274.17 23.2067C1266.84 26.7467 1260.46 29.7767 1254.93 32.0167L1253.9 32.4267L1253.66 32.5267C1253.59 32.5567 1253.47 32.6067 1253.49 32.5967L1253.41 32.6067C1253.31 32.6167 1253.22 32.6867 1253.13 32.6667C1253.09 32.6667 1253.05 32.6667 1253.01 32.6667L1252.36 32.8567C1251.87 33.0267 1251.34 33.1467 1250.81 33.2567C1249.76 33.4967 1248.73 33.7867 1247.61 33.9567L1245.97 34.2767L1244.25 34.5167C1239.64 35.1567 1234.53 35.4367 1228.78 35.1567C1224.2 34.9667 1219.15 34.6067 1213.7 34.0967C1212.38 33.9967 1210.93 33.8167 1209.54 33.6767C1208.16 33.5467 1206.7 33.3667 1205.24 33.1967C1202.42 32.8867 1199.18 32.4567 1196.38 32.0867C1194.94 31.8767 1193.57 31.7267 1192.07 31.4767L1187.63 30.7667C1184.37 30.2067 1181.12 29.6567 1177.88 29.0967C1171.3 27.9267 1164.59 26.6467 1157.69 25.2667C1144.19 22.5567 1129.67 20.4567 1114.24 19.1167C1106.5 18.4667 1098.58 17.9767 1090.45 17.7367C1086.75 17.6567 1083.05 17.5667 1079.34 17.4867L1073.83 17.3367L1067.82 17.2667C1038.45 16.9367 1009.26 20.5367 982.217 25.5867C973.867 27.1467 965.507 28.8367 957.417 30.7367C955.447 31.1767 953.167 31.7467 951.037 32.2667C948.877 32.7967 946.707 33.3367 944.627 33.9567C940.447 35.1667 936.197 36.4167 932.187 37.7167C913.997 43.6467 896.307 51.0367 878.277 56.6467C873.547 58.1367 868.847 59.8667 864.247 61.8467C861.937 62.8167 859.637 63.8267 857.337 64.8367C855.067 65.8867 852.787 66.9367 850.517 67.9867C848.247 69.0267 845.977 70.0667 843.727 71.1067C841.477 72.1567 839.227 73.1767 836.977 74.1467C832.447 76.0667 827.977 77.9367 823.407 79.4267C822.627 79.6867 821.027 80.8067 819.797 81.5467C814.257 84.8767 808.267 87.3367 802.587 90.3167C792.427 95.5167 781.847 100.727 771.867 106.327C766.937 109.187 762.067 112.057 757.617 115.187C756.497 115.967 755.397 116.747 754.317 117.547C753.757 117.957 753.207 118.367 752.657 118.777C751.707 119.437 750.767 120.087 749.837 120.737C748.847 121.427 747.837 122.087 746.947 122.907L745.587 124.077L744.917 124.667L744.737 124.817L744.487 125.017L743.987 125.427L743.007 126.247L742.517 126.657C742.457 126.717 742.317 126.817 742.307 126.837L742.227 126.917L741.617 127.577C741.217 128.027 740.817 128.467 740.417 128.917C740.097 129.287 739.207 129.997 738.327 130.637C738.107 130.797 737.887 130.947 737.677 131.097C737.577 131.167 737.467 131.237 737.377 131.307L737.237 131.407C737.217 131.417 737.287 131.367 737.297 131.347C737.527 131.137 737.697 130.977 737.747 130.887C737.767 130.827 737.867 130.717 737.827 130.707L737.757 130.627L737.627 130.477C737.557 130.397 737.487 130.307 737.407 130.217C737.307 130.097 737.197 129.967 737.087 129.837L737.057 129.797C737.027 129.797 736.827 129.897 736.717 129.937C736.457 130.057 736.197 130.177 735.937 130.297C735.427 130.537 734.917 130.787 734.397 131.037C732.357 132.047 730.417 133.127 728.647 134.147C726.877 135.177 725.297 136.147 723.887 137.017C723.227 137.427 722.567 137.837 721.907 138.237C720.267 139.197 718.647 140.147 717.047 141.077C715.627 142.087 714.267 143.067 712.927 144.027L703.707 150.627L695.017 156.927C689.207 161.167 683.377 165.487 677.527 169.877C665.827 178.667 654.057 187.787 642.337 197.087C638.647 200.017 634.987 202.997 631.347 205.997L628.427 208.407L626.307 210.547C625.637 211.217 624.987 211.907 624.337 212.607L623.787 213.217V213.227V213.247L623.777 213.287C623.777 213.317 623.767 213.337 623.757 213.357L623.727 213.427L623.707 213.467V213.477L624.057 213.207L623.857 213.367L622.977 214.057C620.627 215.887 618.337 217.727 616.117 219.557C611.687 223.217 607.557 226.797 603.747 230.157C596.117 236.907 589.827 242.597 583.827 247.467L581.137 249.647L578.767 252.027C578.187 252.607 577.617 253.207 577.057 253.807L576.217 254.717L575.567 255.457L574.357 256.877L573.947 257.377L573.807 257.557L573.787 257.587C573.767 257.607 573.757 257.627 573.727 257.637C573.697 257.687 573.617 257.687 573.617 257.677C572.237 258.897 570.857 260.117 569.467 261.347C567.837 262.807 566.187 264.257 564.587 265.757C561.377 268.757 558.157 271.767 554.947 274.767C551.757 277.777 548.597 280.777 545.467 283.737C542.327 286.677 539.207 289.547 536.147 292.337C504.677 320.637 477.837 351.697 450.187 382.457C445.787 387.327 441.357 392.167 436.977 397.177C432.567 402.167 428.307 407.377 424.157 412.927C419.647 419.017 410.527 427.747 403.787 436.057C399.117 441.737 394.377 447.697 389.677 453.557C387.287 456.497 385.077 459.417 382.777 462.347L376.087 470.927C367.177 482.357 358.167 493.947 349.117 505.747C338.927 519.007 328.877 532.697 319.117 546.687C314.247 553.697 309.427 560.777 304.727 567.947L301.207 573.317L297.787 578.647L296.077 581.317L295.967 581.487L295.937 581.527L295.927 581.547C305.877 588.147 273.637 566.797 318.227 596.357L318.317 596.397L318.667 596.577L318.847 596.667L318.937 596.727L319.117 596.857L319.177 596.897C319.177 596.897 319.217 596.927 319.187 596.897L318.777 596.577L317.827 595.807L316.177 594.417L298.207 578.667C297.937 578.927 297.687 579.167 297.317 579.547L293.287 583.667L288.227 591.587L284.687 597.237L279.327 605.917L274.037 614.577L268.807 623.197C261.987 634.517 255.167 645.827 248.337 657.157C241.487 668.437 234.917 679.527 227.797 690.437C221.337 700.457 214.857 710.517 208.367 720.567C206.737 723.027 205.137 725.517 203.487 727.957L198.517 735.227L197.897 736.137L197.307 736.967L196.137 738.607L193.797 741.867L192.617 743.497C192.217 744.047 191.867 744.557 191.367 745.167L188.567 748.677C185.027 753.087 181.537 757.527 178.087 761.967C176.367 764.197 174.647 766.417 172.937 768.647L170.377 771.987C169.527 773.047 168.687 774.007 167.837 775.027L162.787 781.067L160.227 784.107L157.477 787.277C153.807 791.497 150.147 795.737 146.317 799.867C143.507 802.907 140.807 806.047 137.997 809.157C135.207 812.277 132.437 815.427 129.667 818.597C124.027 824.877 118.407 831.217 112.477 837.327C96.7166 853.687 79.8366 869.497 63.4866 885.507C59.1566 889.727 54.5866 893.897 50.1766 898.237C45.7266 902.567 41.5166 907.097 37.7966 912.027C32.9066 918.567 25.7566 926.907 18.8366 934.637C12.6566 941.517 9.62662 946.907 3.55662 953.787C-0.593384 958.497 -1.50339 962.317 2.93661 960.707C8.92661 958.547 18.0866 952.357 25.8766 945.947C39.3866 934.817 51.7766 926.307 61.2366 921.727C68.9266 918.047 76.6166 914.377 84.8566 909.627C91.6666 905.627 98.1866 903.817 104.987 897.757C117.577 886.637 129.807 879.257 142.237 865.307C144.087 863.207 146.967 860.477 149.817 858.117C152.667 855.767 155.567 853.837 157.567 853.457C159.207 853.147 162.547 850.487 163.877 847.537C165.317 844.397 168.057 841.127 170.957 838.127C173.847 835.117 176.847 832.337 178.907 830.277C180.707 828.477 182.497 826.687 184.297 824.897C186.077 823.097 187.857 821.297 189.637 819.507L194.987 814.137L200.207 808.757C201.947 806.957 203.687 805.147 205.427 803.347C206.307 802.457 207.137 801.497 207.977 800.537L210.487 797.657C213.827 793.797 217.157 789.887 220.467 785.907C222.737 783.167 225.097 780.387 227.467 777.597C228.627 776.197 229.887 774.817 230.977 773.407C232.087 771.997 233.197 770.587 234.297 769.187C235.387 767.777 236.467 766.387 237.537 764.997C238.577 763.567 239.617 762.157 240.627 760.767C242.627 757.967 244.527 755.247 246.177 752.557C247.837 749.887 249.417 747.487 250.937 745.257C252.447 743.017 253.917 740.967 255.377 739.017C258.317 735.137 261.137 731.587 264.257 727.877C265.647 726.217 266.667 725.217 267.847 722.897C273.817 711.127 282.347 700.697 289.217 688.867C298.137 673.527 309.277 660.237 318.877 643.677C321.917 638.417 324.527 632.727 328.787 626.827C329.867 625.337 330.947 623.837 332.027 622.337C332.607 621.517 333.197 620.707 333.777 619.877L334.657 618.647C334.957 618.237 335.217 617.797 335.597 617.467C336.287 616.827 336.977 616.187 337.647 615.527L338.627 614.557L339.347 613.817C339.797 613.327 340.227 612.837 340.627 612.327L341.227 611.547L341.967 610.517C343.937 607.757 345.917 604.997 347.897 602.227C351.877 596.697 355.867 591.147 359.867 585.587C367.867 574.497 375.887 563.367 383.897 552.267C391.797 541.257 400.377 531.357 408.507 520.367C415.757 510.567 423.667 501.277 431.617 491.767C435.647 487.067 439.687 482.337 443.647 477.517C447.637 472.737 451.517 467.837 455.287 462.817C459.057 457.817 464.377 451.347 469.457 446.067C488.557 426.007 506.997 405.317 526.167 384.907C528.267 382.647 530.427 380.327 532.587 377.997C534.777 375.687 536.977 373.367 539.157 371.067C543.517 366.467 547.957 362.127 552.187 358.357C569.187 343.297 585.917 327.477 603.317 312.887C606.587 310.127 609.897 307.347 613.227 304.537C614.787 303.207 616.357 301.877 617.927 300.547L619.087 299.547C619.447 299.187 619.757 298.767 620.047 298.357L620.927 297.097C621.257 296.647 621.387 296.417 622.237 295.517L622.397 295.357L622.587 295.207C630.357 289.077 637.977 282.407 645.807 276.067C649.237 273.287 652.687 270.497 656.197 267.767C657.957 266.407 659.717 265.047 661.497 263.727C663.187 262.477 664.837 261.267 666.527 260.077L667.837 259.147C668.237 258.787 668.547 258.347 668.857 257.907L669.757 256.587C669.907 256.367 670.067 256.157 670.227 255.947C670.407 255.717 670.497 255.607 670.887 255.207L671.007 255.077L671.157 254.957C675.017 251.857 678.857 248.807 682.737 245.817C693.987 237.107 705.407 228.467 716.927 220.097C722.687 215.907 728.487 211.797 734.307 207.777C737.217 205.767 740.127 203.777 743.047 201.817C744.507 200.847 745.967 199.867 747.427 198.897C748.917 197.917 750.407 196.937 751.897 195.957C752.007 195.887 752.107 195.817 752.217 195.757L754.857 194.367L757.377 192.997C759.057 192.057 760.727 191.107 762.407 190.167C764.087 189.207 765.777 188.247 767.467 187.287L770.017 185.857L772.517 184.487C775.827 182.187 779.147 179.887 782.467 177.577L783.737 176.687L785.087 175.917L787.757 174.387L793.047 171.347C800.117 167.327 807.227 163.347 814.397 159.477C828.737 151.747 843.307 144.427 858.157 137.867C884.757 126.117 912.127 115.147 939.967 107.137C943.477 106.137 947.127 105.217 950.807 104.277C954.477 103.337 958.207 102.537 961.837 101.637C969.097 99.8967 976.137 98.4167 982.027 96.4867C990.817 93.6667 999.047 92.2467 1007.24 91.1867C1015.43 90.1267 1023.55 89.3567 1032.3 87.9067C1039.66 86.6567 1047.66 86.3167 1055.86 86.3567C1064.09 86.3967 1072.44 86.8067 1080.86 87.1167C1088.31 87.2367 1095.66 86.9167 1102.86 88.0167C1112.46 89.4767 1122.33 90.7667 1132.27 92.2367C1142.21 93.7167 1152.21 95.3667 1161.98 97.4667C1167.47 98.6467 1173.04 99.7267 1178.72 100.697C1184.4 101.717 1190.22 102.437 1195.97 103.157C1201.75 103.847 1207.58 104.387 1213.42 104.837C1219.26 105.267 1225.12 105.527 1230.96 105.677C1236.7 105.807 1242.34 105.607 1248 105.117C1253.66 104.537 1259.34 103.627 1265.1 102.197C1267.21 101.647 1269.31 101.037 1271.42 100.457L1274.56 99.4467C1275.65 99.0767 1276.77 98.7867 1277.83 98.3567L1280.97 97.0767L1283.9 95.8467C1285.83 95.0167 1287.76 94.1867 1289.67 93.3567C1297.28 90.0367 1304.61 86.7467 1311.72 84.1567C1313.97 83.3367 1316.26 82.4167 1318.52 81.4167C1319.08 81.1567 1319.65 80.8967 1320.21 80.6467L1321.69 79.9367C1322.69 79.4567 1323.55 79.1067 1324.66 78.5467C1332.54 74.7767 1340.7 72.4167 1348.69 71.6567C1356.68 70.8867 1364.48 71.7167 1371.67 73.8767C1371.9 73.9367 1372.13 74.0067 1372.35 74.0867L1372.69 74.1967L1372.86 74.2467L1372.94 74.2767C1372.97 74.2867 1372.86 74.2667 1372.93 74.2867L1374.74 74.8067C1375.95 75.1667 1377.17 75.4767 1378.4 75.7467C1380.86 76.3467 1383.34 76.8067 1385.83 77.2367C1390.8 78.0467 1395.8 78.5767 1400.71 78.9867C1410.51 79.7767 1419.96 80.1567 1428.59 81.6467C1432.81 82.3667 1437.08 82.6767 1441.32 83.0867C1445.73 83.6267 1450.1 83.9967 1453.93 84.9567C1468.81 88.8267 1482.41 94.0267 1498.92 97.1067C1499.81 97.2767 1501.37 97.9667 1502.44 98.4467C1512.31 102.987 1521.63 108.177 1533.73 110.757C1536.93 111.437 1539.58 113.087 1541.43 114.527C1545.48 117.657 1551.48 120.277 1557.88 123.247C1561.07 124.737 1564.12 126.177 1567.3 127.617C1570.47 129.087 1573.65 130.547 1576.83 132.027C1583.19 134.977 1589.49 138.087 1595.66 141.537C1615.38 152.607 1635.77 164.227 1655.21 176.927L1660.94 180.697L1666.54 184.457C1668.42 185.687 1670.21 186.997 1672.03 188.277L1677.63 192.287C1685.07 197.647 1692.32 203.067 1699.3 208.657C1706.29 214.247 1713 220.017 1719.43 226.047L1721.84 228.317L1723.94 230.357L1724.36 230.767L1724.82 231.277L1725.75 232.317L1728.24 235.017C1731.66 238.677 1734.92 242.067 1737.89 245.297C1740.92 248.577 1743.63 251.687 1745.97 254.737C1746.57 255.497 1747.14 256.257 1747.67 257.017C1748.23 257.767 1748.73 258.527 1749.24 259.277L1749.62 259.837L1750.17 260.707L1751.28 262.477C1751.63 263.027 1752.06 263.767 1752.47 264.437L1753.7 266.487C1753.87 266.737 1754.23 267.097 1754.56 267.437L1755.54 268.447C1756.2 269.127 1756.85 269.797 1757.5 270.467C1758.02 271.027 1758.55 271.587 1759.07 272.147C1759.5 272.657 1760.01 273.087 1760.38 273.647L1761.46 275.307L1762.45 276.777L1763.78 278.717C1764.68 280.007 1765.55 281.317 1766.4 282.637C1768.1 285.277 1769.92 287.897 1771.55 290.587C1773.18 293.277 1774.9 295.947 1776.43 298.677C1777.95 301.407 1779.51 304.127 1780.9 306.877C1782.82 310.767 1784.87 314.667 1786.71 318.657C1788.69 322.607 1790.4 326.637 1792.26 330.637C1793.15 332.647 1793.95 334.677 1794.81 336.687L1796.1 339.697L1797.25 342.727C1798.01 344.747 1798.85 346.747 1799.57 348.757C1800.27 350.767 1800.98 352.777 1801.67 354.777C1802.4 356.687 1802.73 358.517 1803.1 360.257C1803.44 361.997 1803.72 363.657 1803.97 365.287C1804.15 366.917 1804.35 368.507 1804.64 370.097C1804.79 370.887 1804.96 371.687 1805.17 372.487C1805.28 372.887 1805.39 373.287 1805.51 373.697C1805.61 374.107 1805.71 374.517 1805.83 374.927C1806.79 378.377 1807.75 381.937 1808.16 385.567C1808.41 387.377 1808.68 389.197 1808.87 391.027L1809.2 396.527L1809.37 399.277L1809.39 402.097C1809.4 403.977 1809.43 405.847 1809.49 407.717C1809.54 409.577 1809.48 411.427 1809.54 413.267C1809.56 415.097 1809.71 416.957 1809.77 418.747C1809.8 421.227 1809.62 423.527 1809.33 425.697C1809.25 426.237 1809.17 426.777 1809.09 427.297C1808.98 427.827 1808.84 428.347 1808.71 428.857C1808.45 429.887 1808.17 430.887 1807.89 431.877C1807.6 432.867 1807.32 433.847 1807.04 434.817L1806.62 436.277L1806.12 437.737C1805.47 439.697 1804.89 441.687 1804.45 443.817C1802.47 452.017 1799.96 460.107 1796.76 468.207L1795.63 471.257C1795.25 472.277 1794.8 473.287 1794.39 474.307C1793.56 476.347 1792.74 478.387 1791.94 480.447C1791.07 482.497 1790.19 484.567 1789.34 486.647L1788.09 489.787L1786.76 492.947C1783.6 500.987 1777.97 510.677 1773.05 517.577C1767.2 525.657 1762.39 534.357 1757.49 543.107C1756.27 545.267 1755.05 547.417 1753.83 549.557C1752.6 551.697 1751.38 553.817 1750.01 555.937C1747.32 560.167 1744.51 564.297 1741.43 568.247C1741.24 568.497 1741.07 569.067 1740.86 569.347C1737.77 573.527 1735.42 577.707 1733.01 582.047C1730.6 586.387 1728.11 590.877 1724.66 595.737C1719.81 602.537 1714.69 608.767 1709.97 615.627C1696.96 634.547 1684.01 653.617 1671.22 672.997C1669.09 676.187 1666.87 679.707 1665.96 682.457C1663.56 689.657 1657.11 699.617 1655.31 706.667C1654.28 710.577 1650.53 715.387 1648.85 715.737C1646.91 716.147 1644.8 718.447 1642.68 721.527C1640.57 724.617 1638.41 728.427 1636.25 731.757C1634 735.237 1632.62 738.607 1629.87 742.517C1618.82 758.427 1608.41 775.937 1598.97 794.507C1597.32 797.707 1595.99 800.407 1594.97 802.857C1594.46 804.087 1594.02 805.247 1593.68 806.387C1593.35 807.537 1593.1 808.667 1592.93 809.787C1592.25 814.117 1590.97 818.587 1587.33 821.577C1586.27 822.447 1584.82 824.657 1584.14 826.687C1583.6 828.217 1583.07 829.727 1582.53 831.237C1581.98 832.737 1581.39 834.207 1580.78 835.657C1579.56 838.557 1578.23 841.387 1576.85 844.187C1575.46 846.977 1574.08 849.767 1572.7 852.557C1571.41 855.397 1570.14 858.257 1568.97 861.197C1567.6 864.697 1566.24 868.187 1564.87 871.677C1564.22 873.427 1563.49 875.167 1562.91 876.917L1561.13 882.167C1558.8 889.157 1556.46 896.147 1554.13 903.147L1552.41 908.347C1551.83 910.157 1551.26 911.967 1550.68 913.787C1549.5 917.397 1548.43 921.097 1547.27 924.767C1545.08 932.177 1542.84 939.637 1540.75 947.327C1537.24 959.997 1534.25 973.247 1532.25 986.887C1530.23 1000.52 1529.14 1014.49 1529.17 1028.41V1031.81L1529.27 1035.33C1529.35 1037.67 1529.38 1040.04 1529.52 1042.36C1529.69 1044.66 1529.85 1047.05 1530.05 1049.28C1530.27 1051.52 1530.44 1053.73 1530.71 1055.98C1531.69 1064.95 1533.1 1074.06 1535.15 1083.19C1537.2 1092.31 1539.89 1101.43 1543.36 1110.31C1546.82 1119.19 1551.06 1127.81 1556.03 1135.89C1557.07 1137.67 1558.4 1139.79 1559.38 1141.73C1559.88 1142.69 1560.29 1143.64 1560.61 1144.41C1560.93 1145.18 1561.12 1145.85 1561.13 1146.34C1561.15 1148.15 1562.29 1150.6 1563.89 1153.34C1565.56 1156.01 1567.75 1158.9 1569.73 1161.8C1579.62 1175.46 1592.03 1187.76 1604.7 1197.63C1607.61 1199.85 1610.2 1202.15 1612.78 1204.2C1615.33 1206.3 1617.74 1208.42 1620.23 1210.32C1622.69 1212.26 1625.15 1214.17 1627.79 1215.84C1629.1 1216.69 1630.44 1217.52 1631.83 1218.32C1633.22 1219.12 1634.67 1219.81 1636.17 1220.5C1643.14 1223.77 1650.63 1227.81 1658.05 1231.31C1661.76 1232.99 1665.49 1234.64 1668.9 1235.72C1670.61 1236.29 1672.35 1236.81 1673.95 1237.2C1675.54 1237.58 1677.09 1237.86 1678.59 1238.03C1679.15 1238.09 1681.51 1239.1 1682.34 1239.62C1693.1 1246.23 1705.78 1250.7 1719.23 1255.42C1737.52 1261.85 1755.09 1268.48 1772 1275.58C1780.42 1279.14 1788.7 1282.8 1796.78 1286.59C1798.83 1287.51 1800.79 1288.52 1802.8 1289.47C1804.79 1290.45 1806.83 1291.37 1808.77 1292.38L1814.67 1295.35C1816.64 1296.32 1818.63 1297.43 1820.62 1298.45C1821.73 1299.04 1822.84 1299.63 1823.95 1300.22C1825.1 1300.85 1826.25 1301.48 1827.4 1302.11L1829.14 1303.08L1830.78 1304.02L1834.04 1305.92C1838.38 1308.47 1842.61 1311.11 1846.81 1313.65C1855.21 1318.74 1863.34 1323.52 1871.7 1326.88C1872.41 1327.16 1874.5 1328.9 1875.47 1329.89C1879.41 1333.84 1883.65 1337.81 1888.06 1341.85L1885.57 1339.6C1887.03 1341.12 1888.43 1342.46 1889.73 1343.64C1891.01 1344.79 1892.18 1345.78 1893.22 1346.65C1894.1 1347.37 1894.98 1348.09 1895.86 1348.82L1896.66 1349.49L1897.28 1350.02C1897.69 1350.38 1898.09 1350.75 1898.48 1351.12L1899.93 1352.57C1901.37 1354.01 1902.81 1355.44 1904.24 1356.86C1913.8 1366.35 1921.04 1375.05 1925.12 1383.35C1925.41 1383.87 1925.61 1384.39 1925.86 1384.91C1926.09 1385.43 1926.37 1385.94 1926.56 1386.47L1927.18 1388.03C1927.28 1388.29 1927.41 1388.55 1927.48 1388.81L1927.61 1389.21L1927.82 1389.79L1928.47 1391.69C1928.71 1392.34 1928.89 1393 1929.18 1393.63L1930.64 1396.98C1931.27 1398.46 1931.88 1399.92 1932.44 1401.33C1934.69 1406.97 1936.33 1412.18 1937.08 1416.34L1937.1 1416.44L1936.44 1409.78C1936.43 1412.38 1936.58 1414.52 1936.76 1416.48C1936.94 1418.43 1937.18 1420.18 1937.43 1421.83C1937.69 1423.48 1937.96 1425.02 1938.26 1426.51L1938.7 1428.74C1938.79 1429.46 1938.79 1430.1 1938.87 1430.88C1938.96 1431.98 1939.1 1433.07 1939.16 1434.18L1939.3 1437.49C1939.34 1438.59 1939.44 1439.69 1939.4 1440.8V1444.11C1939.4 1444.66 1939.42 1445.21 1939.4 1445.77L1939.33 1447.43L1939.22 1450.76C1939.21 1451.87 1939.07 1452.99 1939.01 1454.1C1938.43 1463.02 1937.27 1472.08 1936.02 1481.55C1935.92 1482.17 1935.59 1483.15 1935.34 1483.7C1931.92 1491.08 1929.09 1499.17 1926.15 1507.56C1924.68 1511.76 1923.21 1515.97 1921.62 1520.27C1920.03 1524.55 1918.34 1528.93 1916.61 1533.14C1911.79 1544.78 1905.98 1558.04 1900.57 1568C1890.74 1586.24 1880.63 1604.48 1869.22 1621.84C1863.78 1630.04 1858.18 1638.38 1853.1 1646.56C1850.58 1650.65 1848.17 1654.74 1846.09 1658.71C1843.98 1662.63 1842.27 1666.51 1840.67 1670.37C1839.6 1673.03 1837.3 1675.97 1835.79 1676.49C1831 1678.13 1825.02 1686.97 1821.03 1693.02C1809.94 1709.85 1795.82 1723.85 1784.33 1741.1C1780.68 1746.57 1775.98 1754.7 1769.54 1761C1761.97 1768.4 1755.49 1779.09 1747.73 1786.93C1744.79 1789.89 1742.82 1793.42 1741.86 1796.2C1741.33 1797.74 1739.93 1800.89 1739.21 1801.7C1729.08 1812.67 1721.27 1825.7 1711.94 1836.97C1698.58 1853.12 1696.05 1856.88 1687.28 1872.98C1686.65 1874.15 1684.9 1876.53 1684.22 1877.09C1680.39 1880.25 1678.9 1882.21 1677.9 1886.35C1676.95 1890.3 1672.45 1895.52 1668.43 1899.52C1666.8 1901.14 1665.41 1901.09 1663.88 1903.63C1656.13 1916.44 1644.07 1928.74 1637.96 1941.63C1637.15 1943.34 1635.93 1945.09 1634.18 1946.82C1621.14 1959.73 1608.63 1977.51 1597.85 1992.74C1595.64 1995.86 1593.4 1998.95 1591.15 2002.02L1587.76 2006.61L1584.39 2011.11L1577.61 2020.06C1575.29 2022.99 1572.97 2025.93 1570.64 2028.87C1566.03 2034.71 1561.25 2040.72 1556.57 2046.79C1551.88 2052.86 1547.21 2059.02 1542.65 2065.36C1520.04 2096.69 1493.89 2127.95 1469.78 2159.89C1464.42 2166.98 1460.4 2173.63 1455.13 2180.74C1448.83 2189.29 1443.78 2192.52 1437.95 2200.15C1431.49 2208.57 1425.24 2217.13 1418.92 2225.68C1415.77 2229.97 1412.59 2234.21 1409.35 2238.49C1406.12 2242.78 1402.83 2247.05 1399.45 2251.28C1398.53 2252.44 1397.6 2253.6 1396.68 2254.77C1395.76 2255.91 1394.84 2257.06 1393.91 2258.2C1391.97 2260.6 1389.83 2263.23 1387.54 2266.16C1385.25 2269.09 1382.82 2272.33 1380.39 2275.93C1379.18 2277.72 1377.97 2279.61 1376.79 2281.58L1376.35 2282.31L1376.11 2282.72L1375.67 2283.49L1375.45 2283.87L1375.28 2284.18L1374.95 2284.8C1374.47 2285.63 1373.8 2286.32 1373.2 2287.03L1371.66 2288.78L1370.05 2290.67C1369.47 2291.36 1368.9 2292.05 1368.34 2292.76C1367.22 2294.17 1366.12 2295.59 1365.16 2297.11L1362.7 2300.91C1360.02 2305.12 1357.36 2309.31 1354.69 2313.5C1349.35 2321.97 1344.03 2330.41 1338.68 2338.9C1325.95 2358.86 1312.96 2379.36 1301.74 2400.47C1299.73 2404.32 1297.32 2408.15 1294.96 2412.09C1293.77 2414.05 1292.58 2416.03 1291.4 2417.99C1290.83 2418.99 1290.26 2419.98 1289.7 2420.97C1289.3 2421.68 1288.9 2422.39 1288.51 2423.1C1288.23 2423.57 1288.03 2424.09 1287.73 2424.54C1287.42 2424.99 1287.13 2425.46 1286.88 2425.94L1286.56 2426.45L1286.38 2426.76L1286.05 2427.33L1285.45 2428.41L1284.92 2429.41L1284.47 2430.32C1284.2 2430.9 1283.96 2431.43 1283.78 2431.9C1283.69 2432.13 1283.6 2432.38 1283.53 2432.58L1283.42 2432.9C1283.39 2433 1283.47 2432.94 1283.49 2432.97C1282.94 2434.16 1282.41 2435.34 1281.92 2436.49C1281.64 2437.11 1281.42 2437.76 1281.22 2438.4C1281.04 2438.97 1280.81 2439.53 1280.54 2440.07C1280.27 2440.69 1279.95 2441.28 1279.61 2441.84C1279.44 2442.12 1279.27 2442.39 1279.09 2442.66C1278.94 2442.87 1278.81 2443.03 1278.66 2443.2C1278.09 2443.87 1277.48 2444.41 1276.99 2444.77C1276.15 2445.39 1275.58 2444.4 1274.29 2447.32C1267.36 2462.97 1255.56 2479.77 1252.49 2494.69C1252.02 2496.96 1250.79 2499 1249.38 2501.64C1244.8 2510.2 1240.31 2518.89 1235.98 2527.63C1234.04 2531.54 1232.06 2535.36 1230.06 2539.14C1228.05 2542.91 1226.13 2546.53 1224.07 2550.18C1219.95 2557.59 1215.77 2565.17 1211.84 2572.93C1209.57 2577.42 1207.17 2581.33 1205.01 2586.61C1200.37 2598.01 1195.37 2610.31 1191.04 2620.96C1190.26 2622.78 1189.71 2624.49 1189.05 2626.25L1187.19 2631.52C1185.98 2635.02 1184.9 2638.39 1183.78 2641.83C1182.68 2645.27 1181.65 2648.76 1180.59 2652.23C1179.55 2655.71 1178.58 2659.25 1177.57 2662.75C1173.64 2676.87 1170.07 2691.25 1166.48 2705.92C1165.54 2709.74 1165.25 2713.29 1165.15 2717.3C1165.1 2721.08 1165.09 2725.03 1164.91 2729.04C1164.81 2733.07 1164.74 2737.22 1164.52 2741.38C1164.48 2745.58 1164.3 2749.8 1164.17 2754.02C1164.15 2756.14 1164.11 2758.25 1164.05 2760.35C1164 2762.45 1163.87 2764.54 1163.89 2766.62C1163.88 2769.89 1163.87 2773.17 1163.86 2776.46C1164.02 2779.76 1164.18 2783.07 1164.34 2786.38C1164.4 2788.04 1164.57 2789.69 1164.75 2791.35L1165.01 2793.83L1165.08 2794.45L1165.11 2794.76L1165.12 2794.92L1165.17 2795.55C1165.22 2796.41 1165.35 2797.26 1165.32 2798.14L1165.16 2800.77L1165.06 2802.46L1165.71 2806.31C1168.14 2820.7 1172.74 2834.76 1178.73 2846.99C1180.84 2851.28 1182.95 2855.57 1185.05 2859.85C1187.14 2864.03 1189.21 2868.13 1191.28 2872.12C1192.32 2874.09 1193.36 2876.06 1194.39 2878.03L1195.39 2879.9L1196.49 2881.88C1197.26 2883.17 1198.07 2884.44 1198.91 2885.68C1199.76 2886.92 1200.64 2888.13 1201.54 2889.33L1202.7 2890.85L1203.6 2891.99L1205.88 2894.89L1210.11 2900.27L1217.41 2892.77C1217.82 2892.35 1217.73 2892.53 1216.13 2893.81L1215.41 2894.38L1214.54 2895.04L1213.38 2895.9L1211.99 2896.92L1210.18 2898.21L1209.18 2898.92L1209.19 2898.91C1209.19 2898.89 1209.23 2898.94 1209.26 2898.95C1209.39 2899.06 1209.65 2899.38 1210.03 2899.89C1210.54 2900.6 1211.08 2901.34 1211.61 2902.05C1212.29 2902.99 1213 2903.83 1213.77 2904.8C1214.42 2905.63 1215.07 2906.46 1215.73 2907.29C1216.92 2908.82 1218.09 2910.39 1219.28 2911.97C1221.65 2915.13 1224.03 2918.38 1226.62 2921.55C1231.77 2927.89 1237.69 2933.95 1244.98 2938.3C1245.64 2938.69 1247.23 2940.34 1248.21 2941.29C1249.31 2942.39 1250.48 2943.44 1251.7 2944.45C1252.31 2944.96 1252.94 2945.46 1253.57 2945.94C1254.37 2946.54 1255.18 2947.14 1255.99 2947.75C1257.71 2948.9 1259.31 2949.85 1260.74 2950.73C1262.22 2951.61 1263.7 2952.51 1265.2 2953.37C1268.25 2955 1271.23 2956.71 1274.12 2958.36C1277.04 2959.96 1279.75 2961.76 1282.25 2963.58C1282.45 2963.72 1283.94 2964.12 1284.87 2964.46C1297.24 2969.06 1309.3 2973.54 1321.42 2978.05C1324.36 2979.15 1327.47 2980.23 1330.59 2981.28C1333.71 2982.22 1336.85 2983.1 1339.85 2983.62C1351.13 2985.56 1362.03 2987.22 1372.72 2988.6C1375.38 2988.92 1378.03 2989.25 1380.69 2989.57L1388.42 2990.41L1392.42 2990.82L1396.61 2991.17C1399.41 2991.38 1402.21 2991.55 1405.03 2991.65C1414.16 2992.01 1423.56 2992.05 1432.63 2991.54C1441.73 2991.06 1450.41 2990.03 1458.38 2988.43C1459.87 2988.13 1461.39 2987.89 1462.93 2987.65C1463.71 2987.53 1464.49 2987.4 1465.27 2987.28C1465.97 2987.18 1466.68 2987.08 1467.38 2986.98C1470.2 2986.61 1473.04 2986.24 1475.8 2985.88C1481.36 2985.1 1486.67 2984.02 1490.65 2981.78C1490.66 2981.78 1491.04 2981.77 1491.54 2981.75C1492.04 2981.73 1492.65 2981.7 1493.12 2981.63C1495.5 2981.32 1497.89 2980.97 1500.28 2980.59L1502.18 2980.27C1502.98 2980.12 1503.78 2979.99 1504.56 2979.8L1505.65 2979.56L1506.39 2979.41L1507.89 2979.12C1511.91 2978.34 1516.12 2977.54 1520.62 2976.62C1525.12 2975.69 1529.82 2974.64 1534.84 2973.31L1536.92 2972.75L1538.69 2972.22C1539.87 2971.86 1541.05 2971.49 1542.24 2971.13C1544.64 2970.39 1546.92 2969.63 1549.2 2968.85C1558.2 2965.79 1567.55 2962.78 1576.21 2959.59C1584.67 2956.45 1584.93 2959.05 1592.51 2956.07C1609.59 2949.32 1627.32 2944.56 1644.09 2937.86C1650.48 2935.3 1656.14 2933.29 1661.16 2931.9C1663.68 2931.2 1666 2930.69 1668.1 2930.39C1670.18 2930.09 1672.06 2930.01 1673.71 2930.17C1679.27 2927.83 1674.29 2927.72 1681.92 2924.66C1701.38 2916.8 1721.09 2908.37 1737.74 2898.05C1739.28 2897.09 1742.4 2895.65 1743.9 2895.24C1752.98 2892.78 1763.94 2886.44 1772.74 2884.13C1775.92 2883.3 1779.02 2881.33 1780.82 2879.88C1785.29 2876.29 1790.16 2874.39 1795.88 2872.22C1806.51 2868.18 1817.72 2864.26 1828.22 2858.58C1840.76 2851.79 1852.5 2844.84 1865.58 2840.15C1866.86 2839.69 1869.34 2838.3 1870.35 2837.51C1879.05 2830.74 1889.13 2827.13 1898.77 2823.25C1902.75 2821.65 1905.58 2819.77 1908.69 2818.17C1920.47 2812.14 1931.64 2805.41 1943.28 2799.78C1957.68 2792.82 1972.39 2787 1986.55 2779.92C1990.75 2777.81 1995.04 2775.78 1999.34 2773.75C2003.63 2771.72 2007.97 2769.69 2012.3 2767.58C2020.94 2763.41 2029.39 2758.83 2037.1 2753.57C2042.96 2749.56 2049.77 2748.73 2055.31 2745.08C2069.31 2735.87 2084.67 2731.06 2099.24 2723.64C2102.55 2721.95 2105.9 2720.07 2109.32 2718.27C2112.74 2716.49 2116.22 2714.83 2119.78 2713.51C2135.14 2707.82 2150.71 2701.16 2165.88 2694.1C2173.73 2690.54 2181.8 2687.53 2188.81 2684.44C2192.15 2682.94 2195.65 2681.57 2199.19 2680.24C2202.74 2678.96 2206.35 2677.74 2209.87 2676.45C2216.91 2673.8 2223.71 2671.14 2229.36 2667.32C2231.01 2666.22 2234.38 2665.03 2236.5 2664.88C2241.17 2664.5 2246 2663.45 2250.93 2662.02C2253.39 2661.28 2255.89 2660.54 2258.41 2659.74C2260.93 2658.94 2263.46 2658.08 2266 2657.2C2268.54 2656.34 2271.07 2655.39 2273.62 2654.58C2276.17 2653.77 2278.71 2652.98 2281.24 2652.25C2286.28 2650.8 2291.29 2649.49 2295.97 2649.01C2297.57 2647.13 2300.29 2646.15 2303.16 2645.57C2304.6 2645.28 2306.07 2645.09 2307.46 2644.92C2308.16 2644.84 2308.83 2644.77 2309.47 2644.69C2310.09 2644.64 2310.68 2644.59 2311.23 2644.54C2312.21 2644.44 2313.15 2644.3 2314.08 2644.12C2315.08 2643.93 2316.06 2643.72 2317.02 2643.49C2318.95 2643.02 2320.78 2642.49 2322.61 2641.96C2326.26 2640.91 2329.83 2639.87 2333.7 2639.51C2344.13 2638.53 2353.4 2637.14 2361.17 2635.38C2365.05 2634.5 2368.56 2633.53 2371.64 2632.44C2372.41 2632.17 2373.15 2631.89 2373.87 2631.61C2374.23 2631.46 2374.58 2631.31 2374.92 2631.17C2375.31 2631.02 2375.7 2630.87 2376.07 2630.72C2377.58 2630.1 2378.93 2629.47 2380.18 2628.75C2391.91 2629.16 2396.84 2633.79 2415.81 2628.54C2417.68 2628.02 2421.37 2628.55 2423.82 2628.91C2427.75 2629.47 2436.5 2629.34 2445.11 2629.05C2449.44 2628.85 2453.7 2628.69 2457.4 2628.37C2461.08 2628.1 2464.16 2627.77 2466.07 2627.31C2472.46 2625.86 2477.12 2625.95 2481.17 2627.65C2483.55 2628.63 2486.32 2628.93 2489.46 2628.17C2491.21 2627.73 2493.03 2627.46 2494.88 2627.31C2496.73 2627.18 2498.61 2627.22 2500.52 2627.3C2504.35 2627.44 2508.22 2628.04 2512.07 2628.49C2517.76 2629.23 2523.27 2630.37 2528.17 2631.48C2528.8 2631.61 2529.44 2631.74 2530.07 2631.88C2530.69 2632.01 2531.38 2632.12 2531.92 2632.28C2533.06 2632.58 2534.22 2632.87 2535.39 2633.12C2537.93 2633.72 2540.75 2634.26 2543.6 2634.76C2545.7 2635.09 2548.19 2635.47 2550.45 2635.83C2552.7 2636.25 2554.72 2636.7 2555.85 2637.27C2563.43 2641.13 2571.26 2643.36 2579.3 2645.82C2583.3 2647.09 2587.36 2648.33 2591.36 2649.91C2593.37 2650.66 2595.36 2651.54 2597.33 2652.46C2598.32 2652.91 2599.29 2653.42 2600.27 2653.93L2601.72 2654.72L2602.44 2655.13C2602.67 2655.26 2602.95 2655.42 2603.1 2655.52C2604.12 2656.18 2605.17 2656.81 2606.26 2657.41C2607.65 2658.31 2609.2 2659.32 2610.71 2660.25C2613.76 2662.15 2616.91 2664.03 2620.11 2665.9L2611.78 2659.39C2612.79 2660.37 2613.81 2661.36 2614.83 2662.34L2619.3 2666.68L2623.47 2669.03C2628.22 2671.71 2632.97 2674.54 2637.57 2677.67C2644.31 2682.24 2650.97 2687.58 2657.8 2693.4C2659.56 2694.91 2661.32 2696.42 2663.08 2697.93C2665.08 2699.68 2667.1 2701.32 2669.11 2702.97C2672.85 2706.02 2676.58 2709.06 2680.28 2712.08C2687.43 2717.84 2697.1 2724.03 2704.08 2731.58C2710.87 2738.99 2727.92 2749.37 2736.32 2751.93C2731.68 2752.92 2738.2 2756.6 2744.7 2760.51C2748.15 2762.59 2749.83 2763.09 2751.63 2763.46C2757.23 2764.61 2761.88 2768.62 2766.66 2772.7C2771.43 2776.77 2776.31 2780.95 2782.12 2782.32C2782.96 2782.52 2787.26 2785.35 2786.79 2785.83C2785.69 2786.94 2787.54 2788.57 2790.34 2790.34C2793.15 2792.1 2796.93 2793.98 2799.64 2795.62C2806.9 2800.04 2816.18 2803.69 2822.13 2808.03C2828.64 2812.82 2836.27 2816.17 2844.46 2819.48C2846.69 2820.36 2848.97 2821.38 2851.21 2822.3C2852.33 2822.77 2853.44 2823.23 2854.51 2823.67C2854.77 2823.78 2855.02 2823.88 2855.27 2823.98C2855.4 2824.04 2855.54 2824.09 2855.67 2824.13C2855.79 2824.18 2855.89 2824.23 2855.99 2824.27C2856.06 2824.3 2856.12 2824.32 2856.19 2824.35C2856.41 2824.45 2856.63 2824.54 2856.85 2824.64C2858.72 2825.46 2860.57 2826.26 2862.41 2827.06C2863.92 2827.74 2865.16 2828.33 2865.96 2828.77C2866.16 2828.88 2866.33 2828.98 2866.47 2829.06L2866.65 2829.18L2866.66 2829.19L2866.93 2829.33L2867.66 2829.68L2869.13 2830.36C2869.63 2830.58 2870.1 2830.78 2870.64 2831C2871.2 2831.23 2871.77 2831.44 2872.34 2831.65C2874.54 2832.47 2877.14 2833.22 2879.61 2833.74C2880.83 2834 2882.19 2834.24 2883.28 2834.38C2884.39 2834.54 2885.7 2834.67 2886.54 2834.73L2887.95 2834.82L2889.03 2834.87L2890.48 2834.91L2890.87 2834.92L2890.75 2834.93H2890.69H2890.67H2890.66C2890.82 2819.33 2890.29 2869.85 2891.01 2799.96V2799.07C2891.01 2797.89 2891.03 2796.71 2891.06 2795.53L2891.15 2793.03C2891.16 2792.68 2891.18 2792.33 2891.21 2791.98L2891.27 2791.28C2891.28 2791.15 2891.3 2791.01 2891.32 2790.88C2891.37 2790.49 2891.4 2790.46 2891.36 2790.58L2891.27 2790.86L2891.2 2791.03L2891.14 2791.34L2891.07 2791.65L2891.03 2791.8V2791.82C2907.16 2756.76 2869.05 2839.61 2872.98 2831.08L2873.01 2831.09L2873.06 2831.12L2873.49 2831.32L2876.97 2832.93L2882.5 2835.43C2884.24 2836.17 2885.97 2836.92 2887.74 2837.61C2891.27 2839.01 2894.91 2840.25 2898.67 2841.3C2904.82 2842.99 2911.06 2844.93 2917.39 2846.83C2920.55 2847.78 2923.74 2848.72 2926.94 2849.59C2928.54 2850.04 2930.14 2850.45 2931.75 2850.87L2932.95 2851.18L2933.36 2851.3C2933.63 2851.38 2933.89 2851.45 2934.16 2851.51C2934.56 2851.62 2934.96 2851.71 2935.37 2851.79C2935.58 2851.82 2935.75 2851.95 2935.92 2852.05C2936.01 2852.1 2936.1 2852.15 2936.19 2852.2L2937.29 2852.66L2937.83 2852.88L2938.1 2852.99L2938.6 2853.17C2939.94 2853.64 2941.32 2854.06 2942.7 2854.41C2943.39 2854.59 2944.09 2854.75 2944.78 2854.91L2945.48 2855.05L2946.36 2855.22C2946.95 2855.33 2947.55 2855.42 2948.14 2855.51C2950.53 2855.85 2952.96 2856.03 2955.35 2856.03L2943.71 2854.63C2948.78 2855.64 2953.83 2856.4 2958.8 2856.73C2959.64 2856.79 2962.08 2857.48 2962.88 2857.86C2963.84 2858.32 2964.84 2858.76 2965.88 2859.17C2966.92 2859.57 2968.01 2859.91 2969.12 2860.25C2971.35 2860.92 2973.71 2861.51 2976.15 2862.06C2978.59 2862.61 2981.1 2863.12 2983.66 2863.62C2986.21 2864.12 2988.79 2864.64 2991.39 2865.05C3023.8 2871 3056.57 2874.85 3089.53 2876.16C3093.24 2876.29 3097.53 2876.85 3101.36 2876.86C3105.19 2876.84 3108.56 2876.42 3110.39 2874.89C3111.09 2874.31 3114.73 2874.34 3116.78 2874.8C3121.82 2876.02 3127.5 2876.32 3133.61 2876.37C3136.67 2876.39 3139.83 2876.32 3143.07 2876.21C3146.31 2876.06 3149.61 2875.75 3152.97 2875.49C3155.85 2875.25 3158.56 2874.91 3161.39 2874.59C3162.8 2874.43 3164.24 2874.29 3165.74 2874.17C3167.24 2874.03 3168.79 2873.87 3170.45 2873.77C3175.55 2873.46 3180.68 2873.05 3185.83 2872.59C3188.41 2872.39 3190.97 2872.02 3193.54 2871.72C3196.11 2871.39 3198.69 2871.07 3201.27 2870.74C3203.85 2870.41 3206.43 2870.08 3209.02 2869.74C3211.6 2869.39 3214.17 2868.96 3216.75 2868.58C3221.9 2867.8 3227.07 2867.07 3232.24 2866.37C3238.07 2865.45 3244.06 2864.5 3250.15 2863.54C3253.2 2863.07 3256.23 2862.44 3259.29 2861.82C3262.34 2861.19 3265.4 2860.53 3268.45 2859.83C3269.74 2859.54 3271.05 2859.21 3272.39 2858.87C3273.72 2858.53 3275.06 2858.18 3276.52 2857.75C3279.37 2856.92 3282.26 2856.09 3285.08 2855.37C3287.9 2854.65 3290.66 2854.05 3293.27 2853.69C3294.58 2853.51 3295.84 2853.39 3297.07 2853.35C3298.27 2853.3 3299.28 2853.28 3300.32 2853.38C3300.64 2853.41 3302.49 2852.91 3302.98 2852.66C3307.99 2850.09 3313.25 2848.32 3318.64 2846.79C3321.33 2846.03 3324.05 2845.32 3326.78 2844.61C3328.14 2844.25 3329.51 2843.89 3330.87 2843.53C3332.18 2843.17 3333.5 2842.81 3334.81 2842.42C3373.8 2830.93 3412.52 2818.07 3451.27 2807.03C3478.76 2799.21 3506.34 2791.2 3533.29 2782.51C3539.19 2780.61 3546.45 2778.93 3553.22 2776.82C3559.98 2774.72 3566.25 2772.13 3570.19 2768.28C3568.56 2772.77 3579.25 2769.96 3586.47 2767.86C3594.15 2765.61 3601.8 2763.38 3609.46 2761.21C3617.12 2759.04 3624.8 2757.05 3632.52 2755.1C3637.41 2753.89 3642.19 2752.29 3647.03 2750.81C3651.87 2749.33 3656.77 2747.9 3661.86 2746.89C3670.12 2745.26 3677.16 2745.24 3686.39 2742.36C3694.39 2739.84 3702.26 2737.96 3710.09 2736.32C3717.93 2734.74 3725.72 2733.37 3733.57 2731.72C3736.46 2731.12 3739.48 2730.48 3742.45 2729.82C3745.42 2729.17 3748.32 2728.47 3750.94 2727.65C3758.65 2725.26 3766.15 2720.83 3771.72 2723.62C3771.93 2723.73 3774.24 2723.19 3775.58 2722.92L3789.3 2720.06L3796.16 2718.63L3799.68 2717.9C3802.03 2717.43 3804.37 2716.92 3806.7 2716.38C3808.52 2715.93 3810.34 2715.45 3812.15 2714.96C3813.05 2714.71 3813.98 2714.48 3814.85 2714.19C3815.74 2713.89 3816.61 2713.56 3817.47 2713.23C3818.24 2712.93 3819.06 2712.59 3819.9 2712.23L3821.16 2711.67L3821.2 2711.65L3820.99 2711.69L3820.54 2711.79L3819.64 2711.99L3818.75 2712.19L3818.64 2712.21H3818.63C3837.34 2764.33 3793.14 2641.21 3797.69 2653.89V2653.88L3797.68 2653.86L3797.65 2653.78L3797.59 2653.62C3797.51 2653.42 3797.47 2653.14 3797.43 2652.98C3797.39 2652.83 3797.37 2652.68 3797.39 2652.52L3808.38 2714.96C3809.96 2714.68 3811.37 2714.34 3811.81 2713.88C3815.17 2710.33 3820.02 2710.42 3825.28 2711.28C3827.88 2711.7 3831.52 2711 3835.26 2710.51C3859.24 2707.4 3883.56 2702.03 3906.65 2700.25C3911.26 2699.89 3916.59 2698.9 3921.56 2698.14C3924.85 2697.63 3927.43 2696.32 3924.45 2696.5C3914.63 2697.11 3921.86 2695.33 3924.57 2694.43C3929.34 2692.86 3933.06 2692.58 3934.43 2693.98C3935.04 2694.63 3935.04 2695.87 3939.81 2694.48C3940.56 2694.26 3941.18 2694.09 3941.89 2693.92C3942.61 2693.74 3943.29 2693.6 3943.91 2693.48C3945.15 2693.24 3946.25 2693.1 3947.18 2693.05C3949.01 2692.94 3950.41 2693.15 3951.9 2693.48C3954.01 2693.94 3957.98 2692.96 3961.25 2692.55C3973.73 2690.98 3981.28 2686.83 3992.08 2684.4C4000.61 2682.49 4012.02 2681.58 4014.39 2677.3C4014.5 2677.12 4017.25 2676.28 4018.64 2675.99C4021.36 2675.4 4023.99 2674.73 4026.63 2674.07L4028.53 2673.57L4030.36 2673.07C4031.57 2672.73 4032.78 2672.39 4033.99 2672.05C4038.81 2670.65 4043.57 2669.13 4048.27 2667.51C4057.68 2664.26 4066.88 2660.59 4076.03 2656.71C4082.31 2654.04 4087.18 2651.77 4085.88 2649.99C4084 2647.37 4088.85 2644.9 4100.84 2641.52C4110.38 2638.84 4120.86 2633.09 4123.04 2630.88C4130.22 2623.66 4126.86 2620.56 4125.32 2616.89C4125.14 2616.47 4121.33 2617.75 4119.1 2618.31C4113.89 2619.58 4111.97 2619.55 4112.98 2618.35C4113.99 2617.15 4117.94 2614.8 4124.43 2611.25C4121.33 2612.39 4119.01 2613.12 4117.32 2613.52C4115.62 2613.9 4114.55 2613.96 4113.92 2613.79C4112.66 2613.45 4113.2 2612.18 4114.13 2610.64C4115.19 2608.89 4115.21 2607.74 4113.41 2607.76C4111.61 2607.78 4108.01 2609.02 4101.75 2611.87C4096.82 2614.11 4091.5 2615.73 4088.96 2615.91C4081.22 2616.51 4071.18 2620.21 4061.03 2623.51C4050.82 2626.84 4040.54 2630.06 4030.25 2633.02C4027.78 2633.72 4025.23 2634.48 4022.68 2635.17C4020.11 2635.87 4017.62 2636.55 4015.01 2637.18C4009.91 2638.46 4004.81 2639.33 4001.01 2639.55C3990.64 2640.16 3979.41 2641.77 3967.83 2643.5C3956.24 2645.23 3944.35 2647.08 3932.67 2648.29C3927.73 2648.77 3919.86 2650.7 3916.97 2652.68C3915.71 2653.54 3915.86 2654.24 3912.06 2654.54C3909.5 2654.74 3909.15 2654.19 3909.32 2653.55C3909.89 2651.39 3904.5 2651.82 3897.67 2652.32C3887.66 2653.06 3877.95 2655.8 3867.77 2656.75C3851.93 2658.22 3834.41 2659.67 3823.13 2666.56C3822.26 2667.09 3819.77 2667.54 3818.15 2667.45C3816.44 2667.35 3817.08 2666.78 3818.3 2666.22C3825.7 2662.78 3819.5 2663.02 3812.05 2663.7C3808.06 2664.07 3803.83 2664.45 3799.72 2665.11L3797.4 2652.52C3797.39 2652.67 3797.4 2652.81 3797.44 2652.95C3797.48 2653.05 3797.51 2653.34 3797.58 2653.52C3797.61 2653.62 3797.65 2653.72 3797.69 2653.82L3797.72 2653.89L3801.57 2664.6H3801.58H3801.59L3801.65 2664.59L3801.87 2664.56L3801.92 2664.55L3801.88 2664.57L3801.79 2664.61L3801.62 2664.69L3801.28 2664.87C3800.66 2665.21 3800.06 2665.57 3799.43 2665.9C3799.11 2666.07 3798.79 2666.23 3798.45 2666.35C3798.11 2666.49 3797.74 2666.52 3797.39 2666.61C3795.95 2666.92 3794.49 2667.23 3793.02 2667.55C3791.58 2667.84 3790.13 2668.13 3788.7 2668.41C3787.52 2668.66 3786.36 2668.9 3785.22 2669.13C3782.95 2669.63 3780.8 2670.17 3778.89 2670.79C3775.08 2672.03 3772.24 2673.59 3771.4 2675.79C3771.08 2676.63 3766.56 2678.56 3766.15 2679.95C3765.92 2680.69 3763.01 2682.97 3757.83 2682.58C3753.72 2682.27 3750.36 2681.71 3743.3 2682.88C3740.36 2683.37 3740.03 2682.81 3743.06 2681.16C3745.8 2679.67 3751.15 2676.9 3747.66 2676.44C3744.45 2676.01 3738.15 2677.57 3733.03 2679.58C3732.39 2679.83 3730.73 2679.95 3729.58 2680.09C3719.36 2681.46 3708.79 2683.65 3698.15 2686.01C3687.52 2688.45 3676.84 2691.13 3666.32 2693.32C3661.95 2694.22 3656.88 2695.58 3652.97 2697C3644.86 2699.98 3637.73 2701.22 3629.59 2702.97C3621.52 2704.74 3613.09 2706.47 3604.72 2708.89C3596.34 2711.29 3588.07 2714.55 3580.29 2719.16C3583.16 2714.66 3574.63 2716.18 3566.73 2718.88ZM3759.3 2714.95C3761.63 2714.18 3764.42 2713.13 3765.77 2713.84C3767.17 2714.57 3764.66 2715.5 3761.28 2716.51C3756.02 2718.08 3750.79 2719.12 3741.88 2720.83C3749.79 2718.16 3754.51 2716.57 3759.3 2714.95Z" fill="white"/>
</mask>
<g mask="url(#mask0_4340_45992)">
<path d="M-4 959L545 305L867.5 92.5L1077.5 39L1243.5 65.5L1392 39L1636.5 92.5L1748.5 202.5L1853.5 380.5L1802.5 561L1636.5 783.5L1565.5 1030L1592.5 1130L1695 1225L1873 1276.5L1944 1359.5L1985.5 1479L1873 1654.5L1280 2479.5L1194.5 2711.5V2819L1243.5 2916.5L1333.5 2946L1463 2960.5L1604.5 2926.5L1768 2855.5L1958.5 2753L2195.5 2641L2412.5 2599.5H2539.5L2717.5 2685L2817.5 2753L3001 2836H3171.5L3416 2782.5L3750 2685L4148 2599.5" stroke="black" stroke-width="131"/>
</g>
</svg>
