<svg width="42" height="78" viewBox="0 0 42 78" fill="none" xmlns="http://www.w3.org/2000/svg">
<mask id="mask0_4250_45290" style="mask-type:alpha" maskUnits="userSpaceOnUse" x="0" y="0" width="42" height="78">
<path d="M10.044 13.2377C9.01018 14.1516 8.34094 14.7377 7.67169 15.3285C7.53784 15.1347 7.40861 14.9362 7.27476 14.7424C7.69938 14.05 8.65017 13.0439 8.45632 12.7115C7.44553 10.9807 8.87167 10.6161 9.684 9.72071C10.4363 8.88992 10.8102 7.70836 11.3179 6.66526C12.4164 4.41752 14.2303 3.0375 16.6211 2.47903C20.2904 1.62517 23.9782 0.822071 27.6752 0.0974396C28.6906 -0.101026 29.7752 0.0651312 31.6999 0.0651312C30.4906 0.951304 30.0014 1.3067 29.4337 1.72671C31.206 4.74983 36.8877 4.71752 36.14 10.1776C34.3815 8.14221 32.8584 6.38371 31.3353 4.6206C31.1137 4.79137 30.8922 4.95753 30.6753 5.1283C31.2245 5.95447 31.7784 6.78064 32.4799 7.8422C32.1291 8.36837 31.6952 9.033 31.2614 9.69301C31.3629 9.79455 31.4645 9.90071 31.5614 10.0023C32.203 9.53609 32.8445 9.07454 33.7123 8.44222C35.6277 13.2654 38.1108 17.8809 39.2739 22.8102C41.1385 30.7027 42.6894 38.646 41.674 47.0046C40.8893 53.4848 39.9108 59.8126 37.1969 65.7066C34.6861 71.1621 31.3168 76.0499 24.7905 77.3561C23.909 77.5315 22.8705 77.4715 22.0212 77.1761C19.3858 76.2622 16.538 75.593 14.2718 74.0837C10.5471 71.6052 6.88244 69.1036 5.26702 64.2712C4.02084 60.5465 1.60232 57.1956 1.33924 53.0925C1.10385 49.4462 0.988479 45.7908 0.720781 42.1491C0.563854 40.0537 -0.183896 37.9306 0.0422628 35.8951C0.286883 33.6566 1.36233 31.515 2.0408 29.3181C2.37312 28.2334 2.62236 27.1211 3.61008 26.0918C3.47161 27.2734 3.28234 28.455 3.22234 29.6411C3.19464 30.1719 3.42545 30.7119 3.54084 31.2519C3.9793 30.9473 4.6624 30.7396 4.82394 30.3288C6.71629 25.4641 8.56705 20.5856 10.3117 15.6701C10.5517 14.9962 10.1502 14.0916 10.0394 13.2423L10.044 13.2377ZM20.9504 67.4051C21.9612 67.2712 23.3736 67.5159 23.9136 66.9389C26.5167 64.165 28.5337 60.9988 29.6183 57.2556C30.1168 55.5294 31.0491 53.8909 31.9953 52.3401C32.9553 50.7663 34.22 49.4001 33.0061 47.36C32.8676 47.1293 33.6846 46.3354 34.063 45.7954C34.3584 46.5754 34.5984 47.3739 34.9584 48.1216C35.2215 48.6662 35.6277 49.137 35.9738 49.6401C36.9754 39.8783 37.6354 30.5458 33.7907 21.7579C33.8507 25.1549 33.4445 28.7642 34.5476 31.8243C36.1769 36.3428 34.4646 40.6214 34.7969 44.9876C34.8154 45.2507 34.303 45.56 34.04 45.8462C33.9846 42.7768 33.9614 39.7029 33.8553 36.6336C33.7584 33.8135 33.6061 30.9935 33.4261 28.178C33.1261 23.5256 30.0245 20.1055 28.1137 16.1593C25.6167 11.0084 25.1182 10.6484 19.8427 10.87C8.8671 28.0073 3.97007 45.9523 12.998 65.5589C14.7934 64.5989 15.4534 66.5328 16.3764 67.7051C17.9873 69.7498 19.6673 69.6898 20.9551 67.4143L20.9458 67.4005L20.9504 67.4051Z" fill="#28282D"/>
</mask>
<g mask="url(#mask0_4250_45290)">
<path d="M21.5 3.99942C17.505 6.49908 12.0378 15.1932 7.05666 27.8304C4.21201 35.0473 -0.824719 49.0588 10.0561 69.8309C12.6506 74.784 18.5962 74.0368 24.0561 72.8309C30.4056 71.4285 31.4004 64.4206 34.9994 59.0049C42.6726 47.4584 40.5806 33.1905 34.9994 20.5C31.0941 11.6204 25.495 1.49975 21.5 3.99942Z" stroke="black" stroke-width="15"/>
</g>
</svg>
