<svg width="46" height="90" viewBox="0 0 46 90" fill="none" xmlns="http://www.w3.org/2000/svg">
<mask id="mask0_4250_45292" style="mask-type:alpha" maskUnits="userSpaceOnUse" x="0" y="0" width="46" height="90">
<path d="M22.7415 49.538C23.0138 50.1242 23.2861 50.7104 23.7661 51.7396C23.7661 49.7273 24.0015 48.2365 23.7153 46.8564C23.1661 44.2256 21.6661 39.0516 21.6661 39.0516C21.6661 39.0516 21.7999 34.33 21.6707 31.9761C21.5276 29.3637 21.0153 26.7698 20.863 24.1574C20.7937 22.9805 21.1999 21.7805 21.4768 20.0727C19.806 21.0604 18.1121 22.062 16.506 23.0128C16.5383 23.5528 16.9121 24.559 16.566 25.0067C13.4782 28.9852 10.2704 32.8715 7.06729 36.7623C6.95191 36.9008 6.52728 36.7808 5.92727 36.7808C6.19958 35.8392 6.64728 34.2792 6.64728 34.2792C6.64728 34.2792 2.4518 33.5546 0.360985 33.3284C-1.22674 28.496 2.82104 26.1929 4.78263 23.1466C7.71346 18.6004 10.9766 14.2203 14.5351 10.1494C17.7798 6.43859 21.6061 3.23545 24.9754 0C28.1785 0.475395 28.4185 2.89852 28.7462 4.82317C29.3047 8.07247 29.5355 11.4049 29.577 14.7049C29.6324 19.0527 29.2816 27.7575 29.2816 27.7575C29.2816 27.7575 29.9324 32.3961 29.9647 34.7223C30.0478 40.6163 29.7847 46.5149 29.9739 52.3996C30.0986 56.2766 30.9247 60.1306 31.1601 64.0122C31.3724 67.483 31.2063 70.977 31.2063 74.7432C33.9386 74.4893 37.0449 74.2032 40.1465 73.917C40.1788 74.2078 40.2157 74.5032 40.248 74.794C38.6557 74.9878 37.0449 75.1078 35.4664 75.3986C33.7448 75.7171 32.0509 76.1971 30.3801 77.0556C35.4341 78.5417 40.9126 74.7847 45.5696 78.7541C44.2266 82.5388 40.6403 85.0357 36.2879 85.4234C32.0232 85.8019 27.777 86.4573 23.5307 87.0342C19.0399 87.6435 14.5675 88.4281 10.0627 88.8989C7.56577 89.162 5.02263 88.945 2.40564 88.945C2.42411 89.0004 2.25333 88.7373 2.32257 88.6404C3.61029 86.785 5.3688 84.9942 2.96412 82.7049C2.94566 82.6911 3.73029 81.431 4.26108 81.311C7.20576 80.651 10.192 80.1618 13.1643 79.6125C13.9721 79.4648 14.7798 79.3079 15.5875 79.1602C15.5413 78.8464 15.4906 78.5371 15.4444 78.2233C11.3089 78.9156 7.17345 79.6079 3.04258 80.2956C3.46259 78.3664 18.126 75.154 22.2061 76.2017C23.4661 71.7801 22.1276 67.4277 21.9661 63.0568C21.7999 58.5752 21.9292 54.0797 21.9292 49.5934C22.1969 49.575 22.4646 49.5565 22.7369 49.538H22.7415ZM21.6568 77.494C21.643 77.6786 21.6245 77.8633 21.6107 78.0433H28.4047C28.377 77.5402 28.3493 77.0325 28.3216 76.5294C26.1016 76.8525 23.8815 77.1709 21.6568 77.494Z" fill="#28282D"/>
</mask>
<g mask="url(#mask0_4250_45292)">
<path d="M1 85L27 81.8663M45.5 79.5L27 81.8663M27 81.8663L25 -0.5L2.5 34.5" stroke="black" stroke-width="15"/>
</g>
</svg>
