<svg width="50" height="62" viewBox="0 0 50 62" fill="none" xmlns="http://www.w3.org/2000/svg">
<mask id="mask0_4298_43623" style="mask-type:alpha" maskUnits="userSpaceOnUse" x="0" y="0" width="50" height="62">
<path d="M40.1298 26.0571C40.6792 25.0395 41.2286 24.0258 41.778 23.0082C41.6774 22.9579 41.5768 22.9115 41.4724 22.8612C40.3697 23.8169 39.2012 24.7029 38.1913 25.7476C37.4602 26.5059 36.9533 27.3842 38.6363 27.864C38.9613 27.9569 39.1199 29.017 39.1315 29.6322C39.1354 29.9379 38.6092 30.2358 38.3461 30.5569C35.5875 33.9192 32.8481 37.2931 30.07 40.6362C29.7025 41.0773 29.0099 41.2862 28.7352 41.7582C28.0387 42.9499 26.0422 42.8106 25.9765 44.7878C25.9533 45.4571 24.5371 46.0762 23.6898 46.4786C23.1249 47.3143 22.5445 48.1423 21.999 48.9936C21.6508 49.5352 21.3606 50.1079 21.0433 50.6689C21.7475 50.9668 22.7032 51.7136 23.1172 51.4853C26.2589 49.7558 29.6948 49.8951 33.03 49.9492C37.1739 50.0189 41.3215 50.46 45.4421 50.9746C46.3591 51.0906 47.3612 52.0347 47.9571 52.8627C48.7541 53.9693 49.1913 55.3312 50 57.0453C47.8101 57.2426 45.8097 57.5483 43.8055 57.5599C41.9173 57.5715 40.0253 57.0994 38.145 57.142C35.1774 57.2078 32.1942 57.3896 29.2498 57.7688C25.5238 58.2486 21.8287 58.9566 18.1259 59.6067C16.3577 59.9162 14.4309 59.9781 12.8833 60.7597C8.85548 62.7948 5.261 60.4772 1.5118 59.9704C0.00669858 59.7653 -0.643324 58.7941 0.830826 57.3974C4.96694 53.4895 9.05664 49.5391 13.1463 45.581C16.3113 42.5166 19.2364 39.1698 22.6335 36.3955C27.3036 32.5844 30.3757 27.5119 34.1713 23.0082C37.406 19.17 39.681 15.0377 39.681 9.86855C39.681 8.84709 40.0795 7.82563 40.4432 6.09225C38.9574 7.14079 38.0444 7.79855 37.1196 8.43309C36.9881 8.52208 36.7173 8.62268 36.6553 8.56464C33.7883 5.82528 31.5287 10.12 28.3908 8.73488C28.3715 8.69619 28.0465 8.08873 27.7137 7.45419C26.228 8.01522 24.7577 8.48726 23.388 9.15662C23.0978 9.29978 23.1636 10.1703 23.0359 10.8513C24.3011 10.3445 25.3574 9.91884 26.4137 9.49711C26.4795 9.65574 26.5414 9.81051 26.6071 9.96914C24.8854 10.9442 23.1636 11.9192 21.1748 13.0451C21.6701 11.9115 22.0454 11.0564 22.4285 10.1781C19.5266 11.2924 16.617 14.349 17.0116 16.1443C17.2399 15.475 17.4024 14.9952 17.7003 14.1091C18.3762 16.3558 18.1221 17.8209 16.9381 18.5045C16.5009 17.7423 16.0637 16.9839 15.6652 16.2875C14.2917 15.9857 12.3996 17.6223 11.8889 15.1074C11.7496 14.4109 11.5716 13.3585 11.9392 12.9832C14.2258 10.6385 16.586 8.3557 19.0778 6.23154C20.5094 5.01275 22.2311 4.13445 23.86 3.07817C24.3437 3.49604 24.8428 3.91778 25.1175 4.15767C25.7946 3.48443 26.3053 2.7106 27.025 2.31981C28.6501 1.43378 30.3293 0.57095 32.0897 0.0408752C32.7939 -0.171928 33.7728 0.501305 34.6202 0.791492C34.7208 0.826314 34.7634 1.09716 34.8446 1.10489C38.8181 1.4802 41.3602 3.77075 43.4418 7.31103C45.21 10.3174 45.7826 13.2386 45.1558 16.5235C44.4516 20.2108 43.7474 23.9097 40.1453 26.0571H40.1298ZM43.9486 11.2498C42.9736 14.7901 41.9947 18.3343 41.0081 21.9132C44.5793 19.0114 44.4478 15.1809 43.9486 11.2498Z" fill="black"/>
</mask>
<g mask="url(#mask0_4298_43623)">
<path d="M12 16.5L33.5 2.5L43 8.5V16.5L35 28.5L20 44L3.5 60.5L33.5 54L49.5 55.5" stroke="black" stroke-width="11"/>
</g>
</svg>
