<svg width="51" height="77" viewBox="0 0 51 77" fill="none" xmlns="http://www.w3.org/2000/svg">
<mask id="mask0_4298_43789" style="mask-type:alpha" maskUnits="userSpaceOnUse" x="0" y="0" width="51" height="77">
<path d="M26.5825 75.1746C26.4794 75.4126 26.2691 75.8847 26.0113 76.4638C24.3215 74.6946 22.5206 74.4447 20.3151 74.7462C19.1925 74.9009 17.7606 74.0362 16.7134 73.2865C13.1909 70.7597 9.6804 68.1972 6.35631 65.4205C4.07545 63.5205 2.10799 61.2436 0.148438 58.7763C2.71886 59.6966 4.63083 59.0936 6.20561 57.1182C7.18142 57.7489 6.2016 60.5653 8.83946 59.165C8.92673 60.359 8.99416 61.2832 9.06556 62.2828C9.53363 62.2233 9.99381 62.1678 10.2715 62.1321C10.569 62.8778 10.8466 63.58 11.1243 64.286L11.6994 64.1115C11.751 63.5681 11.8026 63.0246 11.8701 62.2749C13.2187 63.1595 14.6467 63.6831 15.3647 64.7065C15.9439 65.5355 15.6622 66.9675 15.8407 69.0104C18.0263 64.4011 19.9105 68.5582 22.1239 68.3281C21.9415 67.5982 21.7868 66.9834 21.5766 66.1543C22.0327 66.3606 22.3501 66.4439 22.592 66.6303C24.5516 68.1337 26.0391 67.6974 27.3124 65.6545C28.3715 63.9568 29.5972 62.3661 30.7396 60.72C33.3656 56.9476 33.7265 52.2431 35.8487 48.2487C36.4159 47.1816 34.1549 42.0646 33.1077 41.3109C30.6761 39.5576 28.2207 38.5897 25.1545 39.8948C22.8022 40.8984 21.1918 38.8159 19.3353 37.8757C18.5301 37.4672 17.7764 36.9674 16.9871 36.5231C16.5706 36.2891 16.1342 36.0868 15.7058 35.8686C16.0469 35.3529 16.277 34.6032 16.757 34.3692C18.2128 33.6631 19.9621 33.4291 21.2433 32.5167C23.4091 30.9737 25.8566 31.9138 27.955 31.299C30.2834 30.6167 32.3223 28.7761 34.3334 27.241C35.575 26.293 36.4676 24.8967 37.6536 23.8535C38.4469 23.1553 39.482 22.7309 40.3666 22.2073C39.3511 21.0569 39.2678 20.0137 40.918 19.625C40.918 18.0383 40.8506 16.5389 40.9299 15.0434C41.1203 11.5805 39.7438 9.79152 36.3961 9.02991C35.0276 8.71654 33.6591 7.60983 32.4056 7.76454C29.736 8.09774 27.1378 9.00215 24.5238 9.71615C24.135 9.82325 23.8256 10.3389 23.4528 10.3707C18.9228 10.7832 17.1457 14.9641 14.02 17.2846C13.3694 17.7685 13.1949 18.8991 12.6197 20.1129C11.6915 19.7003 10.7474 19.2878 9.80733 18.8594C8.97036 18.4786 8.14529 17.7725 7.30435 17.7606C5.11473 17.7289 5.03143 16.6856 5.7851 15.1426C6.92751 12.8022 8.36742 10.8387 10.8466 9.53368C13.06 8.37144 14.8133 6.37222 16.9553 5.03148C21.759 2.02075 27.1616 0.854538 32.7468 0.426135C33.8336 0.342834 34.9364 0.445969 36.0113 0.311101C40.2476 -0.212503 43.3139 2.54038 46.4396 4.49598C48.1771 5.58285 49.5376 8.25641 49.8788 10.4064C50.6642 15.3687 49.7479 20.3072 46.9474 24.5675C45.8565 26.2295 44.4008 27.5861 43.6312 29.5536C43.2821 30.4461 41.7946 30.934 40.7712 31.5132C39.9105 31.9971 38.9743 32.3462 37.8281 32.8658C40.5372 34.9721 37.0546 35.3926 36.8206 37.007H39.1726C38.8632 38.4549 39.0735 38.2407 40.6641 39.8115C41.755 40.8904 42.588 42.608 42.7863 44.1392C43.3297 48.3002 43.413 52.5168 41.866 56.551C39.8867 61.7077 37.8043 66.8128 33.8574 70.8787C32.4889 72.2869 31.287 73.9013 29.7479 75.0834C29.1133 75.5713 27.7923 75.1627 26.5904 75.1627L26.5825 75.1746Z" fill="white"/>
</mask>
<g mask="url(#mask0_4298_43789)">
<path d="M7 19L19 9L31 4.5L43.5 6L47 17L38 29.5L26 35.5H16L41.5 42L38 57L31 68L26.5 71.5H20.5L2 56" stroke="black" stroke-width="11"/>
</g>
</svg>
