<svg width="154" height="148" viewBox="0 0 154 148" fill="none" xmlns="http://www.w3.org/2000/svg">
<mask id="mask0_4298_44036" style="mask-type:alpha" maskUnits="userSpaceOnUse" x="0" y="0" width="154" height="148">
<path d="M53.6903 33.4506C57.4603 27.7806 61.0702 21.9906 65.1002 16.5106C66.3202 14.8506 68.7002 14.0606 70.4902 12.7806C71.2702 12.2206 72.0402 11.5406 72.5502 10.7406C73.6902 8.99061 74.6102 7.09061 75.7302 5.33061C80.9202 -2.80939 89.2103 0.910612 95.9503 1.15061C98.58 1.24061 101.55 1.67061 104.48 1.65061C106.19 1.65061 107.9 3.32061 110.04 5.15061C103.5 4.68061 104.03 8.23061 104.07 12.2406C104.13 18.0806 102.85 23.9406 103.09 29.7606C103.52 40.4806 104.91 51.1606 105.39 61.8806C105.79 70.8606 105.47 79.8606 105.47 89.8606C111.7 88.8106 117.27 87.4106 122.92 87.0406C130.81 86.5306 138.76 86.6006 146.67 86.8606C148.54 86.9206 150.34 88.7606 153.24 90.3806C146.36 92.6806 151.29 102.431 151.29 102.431C151.29 102.431 125.69 106.291 113.53 108.121C113.41 110.101 113.28 112.211 113.12 114.761C110.59 113.721 108.22 112.751 104.24 111.111C109.5 123.611 111.12 135.221 108.2 147.971C103.2 143.791 98.15 140.181 93.9403 135.761C92.1903 133.921 91.7403 130.391 91.5903 127.581C91.4003 124.171 92.4203 120.701 92.4303 117.261C92.4303 113.661 91.6302 110.351 86.6102 111.651C83.3102 112.501 79.9703 110.871 76.3203 113.151C74.2003 114.471 69.7003 111.981 65.8403 111.101C65.2103 118.741 61.2102 115.891 58.9302 114.621C55.0202 115.831 51.9302 117.921 49.6102 117.271C45.0702 115.981 41.8103 118.851 37.9003 119.341C31.3603 120.151 24.9103 121.611 18.3903 122.591C14.3003 123.201 11.3302 121.601 9.7902 117.511C9.1202 115.751 8.1503 114.011 6.94026 112.571C4.20026 109.311 -1.43977 107.121 1.16023 101.761C2.89023 98.2106 6.61028 95.6306 9.4003 92.5906C9.9603 91.9806 10.3903 91.2406 10.7803 90.5006C12.4803 87.3106 14.1402 84.1006 15.8602 80.7906C18.6002 83.1106 19.9502 84.2506 21.3002 85.3906C21.6702 83.6406 22.8402 80.6606 22.3002 80.3206C15.7702 76.0906 22.2703 73.8106 23.5803 70.8806C24.0403 69.8506 25.1302 69.0906 26.6102 67.4806C25.7502 71.3706 25.1102 74.2806 24.4702 77.1906C25.2502 77.5206 26.0303 77.8406 26.8103 78.1706C29.9103 74.1306 32.9203 70.0106 36.1403 66.0706C39.1703 62.3706 42.6502 59.0106 45.4802 55.1706C46.5502 53.7206 47.3302 50.6806 46.5402 49.4806C41.6402 42.0006 48.4503 40.6206 52.2603 37.6406C53.2203 41.2206 44.8902 43.0006 50.1702 47.6206C59.2602 39.7006 65.0602 31.1806 64.2402 27.7306C60.7902 29.5906 57.2402 31.5206 53.6802 33.4406L53.6903 33.4506ZM27.9902 101.641C34.8202 100.381 39.7402 99.251 44.7202 98.5906C58.9102 96.7006 73.1403 95.1006 87.3103 93.0606C88.7403 92.8506 90.8203 90.4806 90.9303 89.0006C91.3803 82.9406 91.1803 76.8206 91.2003 70.7306C91.2003 67.8606 91.3303 64.9906 91.1203 62.1406C90.3603 51.7406 89.3802 41.3506 88.7302 30.9406C88.5802 28.5306 89.4303 26.0506 89.8203 23.6006L88.1903 23.0106C66.0003 46.7306 45.1302 71.4806 27.9902 101.651V101.641ZM93.3703 27.3606C92.7503 27.3606 92.1203 27.3706 91.5003 27.3806C91.9603 34.8106 92.4203 42.2406 92.8703 49.6706C93.3603 49.6406 93.8602 49.6206 94.3502 49.5906C94.0202 42.1806 93.6903 34.7706 93.3703 27.3506V27.3606Z" fill="white"/>
</mask>
<g mask="url(#mask0_4298_44036)">
<path d="M151 93.5L15.5 111.5H4L92.5 0.5L105 146.5" stroke="black" stroke-width="24"/>
</g>
</svg>
