<svg width="123" height="182" viewBox="0 0 123 182" fill="none" xmlns="http://www.w3.org/2000/svg">
<mask id="mask0_4298_44208" style="mask-type:alpha" maskUnits="userSpaceOnUse" x="0" y="0" width="123" height="182">
<path d="M77.7516 81.9206C79.6916 82.5206 81.6316 83.1206 84.2316 83.9306C83.2916 86.1806 82.3816 88.3806 80.8016 92.1906C80.1716 89.4906 79.9216 88.4306 79.8416 88.0806C75.5716 88.0806 71.4216 88.7806 67.6016 87.9506C56.7016 85.5606 46.5216 88.7806 36.1816 91.0506C30.6316 92.2706 25.1516 93.8606 19.5516 94.6906C18.3616 94.8706 15.5816 92.4206 15.6116 91.2306C15.7516 85.4906 16.8616 79.7706 17.0816 74.0206C17.1816 71.4906 15.5616 68.9306 15.4516 66.3606C14.8516 52.1106 14.1716 37.8606 14.1716 23.6006C14.1716 17.8006 15.0216 11.6806 17.1016 6.34056C18.1816 3.57056 23.4916 -0.119438 25.6416 0.560561C32.7016 2.80056 39.6316 0.870561 46.4816 1.70056C54.6616 2.70056 62.7216 1.09056 70.8516 1.53056C81.2916 2.09056 91.7616 2.19056 102.192 2.98056C104.112 3.13056 105.742 5.80056 107.722 6.92056C111.822 9.2506 116.072 11.3206 120.322 14.3906C110.442 16.2706 103.752 27.2006 93.0316 24.3906C82.1716 21.5406 70.5716 25.8206 58.7616 21.3006C56.3116 23.2806 52.5516 24.0406 47.5116 21.5706C44.9816 20.3306 40.6416 21.4306 37.7216 22.7706C35.4116 23.8406 36.5016 26.7206 36.8816 29.4306C37.9716 37.2206 37.6716 45.2106 37.7716 53.1206C37.8116 56.5606 37.4516 60.0106 37.3216 63.4606C37.1616 67.8306 40.1016 70.4906 43.8316 68.5606C48.0616 66.3706 51.7716 66.4106 55.5216 68.7906C59.7316 71.4606 62.3016 70.2206 63.2216 67.4606C71.0116 69.6906 78.7216 71.4706 86.1116 74.1506C92.0416 76.3006 97.6316 79.4306 103.252 82.3706C106.042 83.8306 108.752 85.6006 111.132 87.6606C120.812 96.0206 124.292 106.531 122.512 119.241C121.782 124.481 123.362 130.031 122.752 135.311C121.002 150.481 113.362 163.111 100.882 171.011C92.0816 176.581 81.1016 180.121 70.7316 181.291C64.4816 182.001 57.4516 176.591 50.9016 173.651C47.8316 172.271 45.0516 170.241 42.1416 168.491C28.8416 160.471 15.5316 152.461 2.2616 144.391C1.4016 143.871 0.821562 142.881 0.601562 141.161C2.99156 141.991 5.38162 142.831 8.5316 143.931C6.45162 139.421 9.2616 134.071 4.25159 130.671C3.73159 130.321 3.95157 127.511 4.42157 127.321C6.63157 126.431 9.5416 124.921 11.2916 125.691C17.2916 128.331 22.9316 131.821 28.6816 135.011C41.9916 142.401 55.2016 149.971 68.6216 157.141C76.6616 161.431 85.8116 159.281 91.7016 152.441C98.022 145.101 101.212 136.681 101.412 126.901C101.522 121.591 102.732 116.301 103.422 111.001C105.112 97.8806 96.0216 84.0906 83.9916 81.7406C82.0616 81.3606 80.2216 80.5406 78.3416 79.9306C78.1316 80.5906 77.9316 81.2606 77.7216 81.9206H77.7516Z" fill="white"/>
</mask>
<g mask="url(#mask0_4298_44208)">
<path d="M120.5 15L25.5 10.5189M25.5 10.5189L14.5 10M25.5 10.5189V79.5M25.5 79.5V98.5M25.5 79.5L104 83L114 123L104 151.5L92.5 171H58L25.5 147.5L1 132.5" stroke="black" stroke-width="34"/>
</g>
</svg>
