<svg width="105" height="183" viewBox="0 0 105 183" fill="none" xmlns="http://www.w3.org/2000/svg">
<mask id="mask0_4298_44537" style="mask-type:alpha" maskUnits="userSpaceOnUse" x="0" y="0" width="105" height="183">
<path d="M57.8422 170.16C56.8222 172.97 55.8022 175.79 54.7822 178.6C54.2722 178.03 53.7722 177.46 53.2622 176.89C49.5222 178.58 45.7922 180.27 41.8322 182.06C39.3722 172.48 42.3722 163.79 46.2422 155.4C48.9722 149.48 52.9322 144.12 55.5422 138.16C57.4722 133.75 58.1122 128.78 59.5022 123.39C58.8822 123.24 59.8422 123.47 61.0822 123.78C60.8922 120.93 60.7122 118.08 60.4922 115.23C60.3922 113.99 59.6022 112.35 60.1322 111.58C65.6222 103.56 65.1422 93.6699 68.7122 85.1199C70.2822 81.3499 72.9822 78.0599 75.5222 73.9999C74.0722 74.6399 73.1222 75.0599 70.5822 76.1899C74.4022 72.2299 76.8923 69.2699 75.0623 64.8699C74.8523 64.3599 77.5321 63.0399 77.9421 61.7899C78.7321 59.3799 78.5021 56.6299 79.3221 54.2399C80.8421 49.7999 83.2922 45.6299 84.4222 41.1199C85.2522 37.8199 84.5822 34.1499 84.5822 30.2799C85.0422 29.6599 86.4522 28.3499 87.1122 26.7299C87.9222 24.7399 87.5722 25.4799 85.0222 25.2399C81.1122 24.8699 77.3322 23.1999 73.9622 22.2199C71.3622 23.6799 68.4222 25.5399 65.2622 26.8799C64.8222 27.0699 63.3122 24.7199 61.9022 23.0999C60.6322 32.3899 53.3522 26.4999 48.8622 27.9699C41.2422 30.4599 32.9322 30.9999 24.8522 31.8299C21.2322 32.1999 17.6622 33.5099 13.7822 29.8899C11.2522 27.5399 5.65219 28.4799 0.492188 27.8299C1.06219 25.6299 1.39215 23.4399 2.20215 21.4499C3.54215 18.1699 4.95214 14.8699 6.82214 11.8899C7.66214 10.5499 9.6122 9.27989 11.1722 9.12989C22.0922 8.06989 33.0822 7.67989 43.9622 6.34989C55.2922 4.95989 66.5022 2.61989 77.8022 1.01989C80.2522 0.669891 82.9221 1.66989 85.4521 2.20989C86.1321 2.35989 86.6722 3.12989 87.2822 3.60989C91.1322 -2.09011 93.5122 5.85989 96.9622 3.93989C97.5522 9.51989 98.072 14.3899 98.542 18.8399C100.162 20.6199 102.612 22.2999 103.532 24.5899C104.732 27.5799 104.292 30.5299 100.472 32.4399C99.282 33.0299 99.592 36.6299 99.182 39.0599C98.622 40.3199 97.0521 43.4899 97.1921 43.5699C104.672 47.6699 100.492 54.0699 99.292 58.6699C94.8922 75.5299 89.5922 92.1699 84.3822 108.81C80.6722 120.64 76.6422 132.37 72.5822 144.08C70.9222 148.85 68.8022 153.46 66.5822 158.91C65.3922 156.12 64.6522 154.4 63.9222 152.68L62.4323 153.17C64.0623 146.41 65.6921 139.65 67.3221 132.89L64.8022 132.33C62.0122 141.79 59.2122 151.25 56.4222 160.71C56.9122 160.86 57.3922 161.01 57.8822 161.17C58.3422 159.88 58.8022 158.58 59.2622 157.29C59.8122 157.37 60.3622 157.45 60.9122 157.52C60.5422 160.09 60.6422 164.68 59.7322 164.89C55.6222 165.85 58.1922 168.47 57.7222 170.23L57.8422 170.16Z" fill="black"/>
</mask>
<g mask="url(#mask0_4298_44537)">
<path d="M0.5 24L99 17L48.5 184.5" stroke="black" stroke-width="34"/>
</g>
</svg>
