<svg width="144" height="177" viewBox="0 0 144 177" fill="none" xmlns="http://www.w3.org/2000/svg">
<mask id="mask0_4298_44860" style="mask-type:alpha" maskUnits="userSpaceOnUse" x="0" y="0" width="144" height="177">
<path d="M108.928 71.3893C107.668 74.8093 106.628 77.6093 105.268 81.2993C108.918 82.9993 114.568 84.9493 119.418 88.1193C123.278 90.6393 126.178 94.6393 129.458 98.029C131.918 100.569 135.168 102.789 136.518 105.839C139.298 112.129 141.038 118.889 143.208 125.449C142.668 125.699 142.128 125.949 141.598 126.189C140.578 124.419 139.558 122.639 138.308 120.479C137.278 122.029 136.258 123.579 135.938 124.059C136.388 128.139 136.748 131.429 137.108 134.719C136.438 134.819 135.768 134.909 135.108 135.009C134.508 133.299 133.908 131.589 133.318 129.889C132.748 130.029 132.168 130.159 131.588 130.299C132.348 133.359 133.098 136.429 133.858 139.489C133.958 139.879 134.318 140.389 134.188 140.629C131.188 145.859 129.078 152.089 124.848 156.009C119.178 161.249 112.208 165.479 105.128 168.679C99.048 171.429 92.038 172.079 85.458 173.729C84.038 174.089 82.718 175.119 81.318 175.199C72.228 175.729 63.1281 176.399 54.0381 176.289C51.8381 176.259 49.6681 173.509 48.3981 172.639C33.8181 174.759 27.648 162.519 19.108 156.579C7.35802 134.619 11.788 113.569 23.508 93.0593C21.468 91.7993 20.148 90.6493 18.618 90.0893C10.238 87.0093 10.848 77.8993 6.35802 72.0493C5.46802 72.8793 4.59801 73.6793 2.83801 75.2993C3.53801 72.5393 4.01804 70.8293 4.37804 69.0893C4.52804 68.3693 4.60807 66.9893 4.40807 66.9293C-0.0519271 65.5493 -0.461922 63.0593 2.03808 59.4593C3.69808 57.0593 0.32805 52.8493 5.50805 51.2293C7.10805 50.7293 7.4381 46.1893 8.3081 43.5893C10.4981 39.8193 12.7081 36.0893 14.8081 32.2993C15.0281 31.9093 14.368 30.7293 14.508 30.6593C23.588 25.8993 27.3281 14.6493 38.5481 12.0193C45.1581 10.4693 51.028 5.9293 57.378 3.0693C67.028 -1.2807 76.3881 -1.4307 85.1381 5.6193C86.4481 6.6793 88.5481 6.7693 90.2781 7.3093C90.1481 7.9093 90.018 8.5093 89.878 9.1093C87.208 8.7793 84.548 8.4493 81.878 8.1093C81.588 8.5993 81.298 9.0793 80.998 9.5693C84.448 11.6993 87.928 13.7793 91.338 15.9593C98.338 20.4193 106.358 23.6593 109.978 32.1393C110.498 33.3693 112.708 33.8693 114.818 33.7893C121.728 44.2993 121.428 56.6493 120.338 69.0993C119.648 69.2593 118.958 69.4093 118.268 69.5693C117.628 67.4693 116.988 65.3693 115.798 61.4993C114.428 64.7593 112.688 67.1793 112.688 69.5993C112.688 70.8293 115.828 72.0493 117.798 73.4493C117.018 74.7293 115.628 77.0093 113.828 79.9393C112.028 76.8193 110.558 74.2693 108.898 71.3993L108.928 71.3893ZM39.4081 109.309C39.0081 111.579 38.788 113.889 38.188 116.099C36.408 122.619 33.8981 129.009 32.7681 135.629C31.8081 141.209 33.248 148.519 38.318 150.169C49.158 153.699 60.7481 154.929 72.0481 156.989C72.6381 157.099 73.3781 155.869 74.1381 155.709C78.5481 154.809 82.9881 154.039 87.4181 153.229C88.3781 153.899 88.908 152.249 89.838 151.969C98.628 149.349 105.648 143.829 113.338 139.199C120.538 134.859 119.978 129.629 120.068 123.459C120.088 121.969 120.978 120.499 121.258 118.989C121.448 117.949 121.428 116.809 121.248 115.759C119.838 107.479 108.948 96.3993 100.768 95.1893C100.108 95.0893 99.148 96.9893 98.008 98.329C94.478 90.0593 87.0581 96.2293 82.1581 93.2793C81.9181 93.1393 80.328 94.8693 79.688 95.9193C79.238 96.6493 79.3281 97.7193 79.1781 98.629C78.1781 98.189 77.128 97.8393 76.198 97.2793C75.568 96.8993 74.928 95.6693 74.608 95.7693C70.088 97.2593 64.808 95.6193 60.868 99.989C57.988 103.179 52.6281 101.869 51.3981 98.539C52.8881 99.069 54.458 99.639 57.488 100.719C54.168 93.5493 49.9881 96.9593 47.0181 97.7093C43.5781 98.579 40.048 100.579 40.958 105.419C34.888 106.709 33.428 111.939 31.228 116.629C30.408 118.379 29.0481 119.879 27.5181 122.099C28.0281 122.659 29.178 123.929 31.228 126.179C32.628 122.959 33.508 120.719 34.568 118.569C36.118 115.439 37.808 112.379 39.438 109.289L39.4081 109.309ZM53.438 75.8493C54.378 75.0093 55.0681 74.6293 55.3881 74.0393C56.0181 72.8893 56.438 71.6193 56.948 70.3993C58.008 71.3593 59.098 72.2893 60.118 73.2793C61.248 74.3793 62.808 76.6993 63.358 76.4793C69.838 73.8593 76.308 74.4193 82.868 75.8193C83.638 75.9793 84.648 75.7493 85.348 75.3493C90.558 72.3793 95.588 69.0393 100.938 66.3593C106.368 63.6493 109.798 50.5193 106.028 45.7993C103.208 42.2593 101.168 37.8193 97.728 35.1293C92.578 31.0993 86.848 26.8993 80.718 25.2993C74.278 23.6193 67.068 24.9193 60.198 24.9193C60.148 24.4493 60.0981 23.9693 60.0381 23.4993C63.4181 22.8793 66.7981 22.2493 70.7781 21.5193C62.5181 16.8893 55.1581 19.2393 47.7981 21.5193C46.2081 22.0193 44.6481 22.5993 41.9281 23.5393C41.0681 24.8893 39.188 27.8193 36.598 31.8593C40.908 30.2093 43.768 29.1193 46.628 28.0193C46.788 28.4593 46.958 28.8993 47.118 29.3493C41.738 33.2993 36.368 37.2393 30.988 41.1893C30.488 40.9093 29.988 40.6193 29.488 40.3393C31.648 37.5693 33.798 34.8093 35.858 32.1693C31.358 33.9393 27.228 35.4393 23.218 37.1993C22.128 37.6793 20.688 38.8793 20.598 39.8593C19.988 46.1893 18.8281 52.6693 19.6381 58.8693C20.1581 62.8793 23.228 66.9193 26.078 70.1393C28.338 72.6893 31.9781 74.0193 36.1681 76.6093C31.3581 76.8693 28.5081 77.0193 25.6581 77.1693C34.6181 82.1693 35.1881 82.1093 36.7681 77.2793H60.2981L60.208 75.8393H53.438V75.8493ZM28.938 138.809C29.508 135.339 30.398 131.869 30.468 128.379C30.488 127.349 28.148 125.319 27.008 125.399C24.018 125.599 26.0481 127.189 26.2881 128.679C26.4981 129.939 24.778 131.509 23.878 133.019C24.888 134.169 26.628 136.159 28.948 138.809H28.938Z" fill="white"/>
</mask>
<g mask="url(#mask0_4298_44860)">
<path d="M46.75 88L32 84.5L6.5 71L17.5 37.5L61.5 11H72L99 23L117 42V64L46.75 88ZM46.75 88L61.5 91.5H89L117 98L127 108.5V130L120.5 154L89 163.5H53L24.5 154L17.5 130L28.5 102.5L46.75 88Z" stroke="black" stroke-width="34"/>
</g>
</svg>
