<svg width="122" height="189" viewBox="0 0 122 189" fill="none" xmlns="http://www.w3.org/2000/svg">
<mask id="mask0_4298_45110" style="mask-type:alpha" maskUnits="userSpaceOnUse" x="0" y="0" width="122" height="189">
<path d="M36.6866 145.119C34.2266 140.679 31.7766 136.239 29.0966 131.399C43.8966 130.939 55.1266 134.959 63.9766 145.949C66.7566 149.399 72.7066 150.239 77.1166 152.469C83.7666 155.839 90.3066 159.439 96.9766 162.769C97.9766 163.269 99.4367 162.839 101.297 162.839C100.107 154.389 98.9967 146.249 97.7967 138.109C96.8267 131.529 96.1266 124.869 94.5966 118.419C93.5766 114.089 91.0766 110.129 89.7266 105.859C88.6566 102.459 88.7567 98.6791 87.5567 95.3491C85.9367 90.8391 82.5267 91.7091 79.2667 93.6391C72.1067 97.8791 65.4366 103.739 57.7066 105.939C51.2266 107.789 43.5667 111.639 36.1767 105.479C32.5067 102.419 26.7867 101.959 22.5067 99.459C17.7667 96.6991 13.5966 92.9691 9.21662 89.6191C8.72662 89.2491 8.18664 88.6391 8.11664 88.0891C6.96664 79.7191 1.11661 72.6291 0.956607 64.1991C0.806607 56.1291 1.54659 47.9291 2.93659 39.9591C4.68659 29.9691 7.72666 19.9291 16.6367 13.9591C25.6567 7.90914 35.3367 2.56914 46.5267 1.49914C52.0767 0.96914 57.7067 1.24914 63.2867 0.97914C67.7067 0.76914 70.8967 1.90914 74.3067 5.36914C75.9867 7.07914 79.7967 9.0091 82.6467 9.8391C91.8167 12.5091 93.3966 19.6891 94.7166 27.3391C96.9166 40.1391 99.0467 52.9491 101.267 65.7491C101.757 68.5991 103.957 72.7391 102.827 74.0091C98.0266 79.3691 103.007 83.3891 103.837 87.8491C104.297 90.3391 105.857 92.6091 106.707 95.0491C107.607 97.6191 108.377 100.249 108.967 102.899C109.697 106.159 110.267 109.459 110.767 112.759C111.617 118.499 111.957 124.349 113.277 129.979C114.377 134.689 116.707 139.109 118.217 143.749C118.927 145.929 119.067 148.309 119.297 150.619C119.517 152.869 119.427 155.149 119.647 157.409C120.147 162.589 120.757 167.769 121.277 172.949C121.357 173.789 121.607 175.089 121.177 175.419C116.207 179.369 111.377 183.589 105.997 186.919C100.197 190.509 95.2967 188.309 89.6667 184.499C78.6567 177.029 66.6367 171.049 55.1367 164.289C53.3867 163.259 52.1466 161.369 50.7066 159.839C50.3466 159.459 50.0767 158.499 49.8967 158.529C40.3867 160.139 37.2766 148.909 28.9666 148.019C28.4966 147.969 27.6167 145.519 28.0067 144.959C28.5867 144.149 30.2967 143.509 31.2667 143.759C32.7867 144.159 34.0966 145.359 35.4966 146.229C35.8966 145.859 36.2966 145.489 36.6966 145.119H36.6866ZM73.0367 25.7091C66.6267 25.3691 59.6467 24.1091 52.8967 24.8691C44.6167 25.7991 35.3166 25.5091 28.9966 32.1591C21.2966 40.2691 15.3066 49.4591 19.8466 61.5791C20.9966 64.6491 22.9067 67.4791 23.6767 70.6191C25.7367 78.9691 31.3767 82.6091 38.5367 83.4491C39.4667 85.2591 39.8167 87.2991 40.9167 87.8591C43.8067 89.3291 46.9467 90.5691 50.1267 91.1091C52.8867 91.5791 56.8966 92.0891 58.4666 90.5991C62.3766 86.8891 65.5666 86.0191 68.9866 89.6991C71.6566 86.3091 74.1866 83.1091 76.2166 80.5291C72.0866 76.9591 74.0466 73.7391 75.8666 70.6091C76.3366 69.7991 77.8467 69.1591 77.7867 68.5591C77.2567 63.3191 76.3767 58.1091 75.7967 52.8691C74.8767 44.5491 74.0967 36.2091 73.0367 25.7191V25.7091ZM68.2266 6.77914C62.6866 1.92914 58.6167 1.64914 50.1367 5.87914C56.7767 6.20914 62.0966 6.46914 68.2266 6.77914Z" fill="white"/>
</mask>
<g mask="url(#mask0_4298_45110)">
<path d="M22 134L116 187L93.1569 70.5M93.1569 70.5L81 8.5L29 14.5L7.5 37V60.5L16.5 80L33.5 93L55.5 98.5L75 93L93.1569 70.5Z" stroke="black" stroke-width="34"/>
</g>
</svg>
