<svg width="241" height="424" viewBox="0 0 241 424" fill="none" xmlns="http://www.w3.org/2000/svg">
<mask id="mask0_3771_46420" style="mask-type:alpha" maskUnits="userSpaceOnUse" x="0" y="0" width="241" height="424">
<path d="M82.9798 247.272C82.3891 247.239 81.7985 247.207 81.2078 247.174C78.3371 258.256 75.4665 269.338 72.5971 280.42C73.1665 280.559 73.7345 280.699 74.3038 280.838C77.1958 269.65 80.0878 258.46 82.9798 247.272ZM174.201 162.408C167.332 116.226 160.68 71.5058 154.028 26.7858C153.722 26.7844 153.416 26.7831 153.109 26.7818L164.506 149.402C163.738 149.487 162.97 149.572 162.201 149.658C157.916 113.126 153.63 76.5951 149.38 40.3551C132.686 78.4364 122.944 118.515 115.292 159.998C132.876 163.011 149.412 163.83 167.382 160.078C168.069 160.312 170.718 161.218 174.201 162.408ZM168.477 178.042C166.198 176.688 163.829 174.038 161.657 174.19C146.722 175.228 131.806 176.66 116.946 178.475C114.35 178.792 110.434 181.079 109.858 183.192C102.365 210.67 95.2438 238.248 88.3278 265.876C86.6038 272.768 86.3865 280.031 84.6691 286.924C83.1171 293.151 76.0918 296.12 70.9758 292.574C69.2771 291.396 68.8465 286.803 69.4811 284.163C73.7838 266.268 78.5331 248.479 83.1238 230.651C87.3265 214.33 91.5131 198.004 95.7945 181.332C87.7331 181.332 80.2545 180.819 72.8718 181.436C55.6798 182.872 38.5318 184.827 21.3718 186.62C12.5718 187.54 11.3091 186.266 8.36914 172.464C11.2691 171.547 14.2478 170.606 18.0251 169.411C15.1278 169.051 12.9958 168.786 9.61847 168.364H46.6798C41.5665 169.244 36.7238 170.076 31.4771 170.979C47.8291 174.674 74.7731 171.744 98.0198 163.728C92.9065 162.622 88.3958 161.646 83.7651 160.643C84.2491 160.444 84.6105 160.164 84.9665 160.168C100.726 160.4 100.281 160.271 104.617 145.803C114.872 111.57 125.52 77.4525 136.181 43.3418C138.561 35.7271 141.604 28.3151 144.432 20.8444C146.073 16.5071 147.894 12.2378 149.686 7.80713C153.434 9.70578 158.513 11.7298 162.934 14.7178C165.662 16.5618 168.913 19.6524 169.336 22.5564C174.092 55.2511 178.352 88.0164 182.692 120.77C182.804 121.611 182.308 122.532 180.884 123.496C179.792 117.267 178.698 111.038 177.606 104.808C177.197 104.82 176.788 104.832 176.38 104.844C176.888 111.022 177.216 117.22 177.948 123.371C179.14 133.386 180.742 143.351 181.882 153.37C182.46 158.432 185.984 160.646 189.997 161.578C193.172 162.314 196.738 161.386 200.13 161.196C200.449 160.451 200.768 159.704 201.088 158.959C202.429 162.107 203.77 165.256 205.018 168.187C203.74 169.13 203.388 169.528 202.948 169.694C197.096 171.882 187.104 167.684 186.489 177.708C186.105 183.966 189.957 190.415 191.524 196.871C193.297 204.179 196.953 212.136 195.376 218.772C194.285 223.362 196.728 225.156 197.328 228.016C202.896 254.579 209.221 280.986 214.724 307.562C221.137 338.543 226.973 369.642 232.994 400.703C234.604 409.004 231.96 412.776 222.336 414.787C212.72 386.102 202.753 357.368 193.534 328.4C189.58 315.976 186.778 303.14 184.245 290.335C183.017 284.132 184.277 277.464 183.254 271.194C180.641 255.166 177.358 239.244 174.382 223.272C172.136 211.216 169.949 199.15 167.736 187.087C169.722 193.518 172.072 199.863 173.622 206.396C177.38 222.222 177.278 239.13 187.87 254.07C183.87 226.664 180.012 200.23 175.944 172.358C172.47 174.955 166.757 170.724 168.477 178.042Z" fill="white"/>
<path d="M52.1827 190.141L50.4 189.982C54.3213 189.216 53.2453 189.66 52.1827 190.141ZM188.977 335.082C188.519 334.273 188.368 334.386 188.319 334.806C188.829 335.308 189.495 337.234 190.141 339.462C190.259 338.749 190.108 337.565 188.977 335.082ZM191.315 343.86C191.361 343.933 191.395 343.984 191.44 344.04C192.345 348.337 192.043 346.806 191.315 343.86ZM173.969 109.27C173.669 107.237 174.404 105.953 174.877 104.564C174.765 106.05 174.501 107.582 173.969 109.27ZM152.964 17.5732C152.832 17.5705 152.687 17.5838 152.536 17.5998C152.287 19.0585 152.101 20.6412 151.463 20.5932C150.976 18.4598 151.608 17.7252 152.319 17.0305C152.516 17.1958 152.732 17.3772 152.964 17.5732ZM124.108 105.59L127.089 99.4411C126.327 107.729 124.028 113.189 127.292 107.56C124.108 105.59 134.661 82.3772 131.48 80.4158L133.519 76.3865C133.109 77.5945 133.253 77.8518 132.847 79.0465C137.052 71.2865 132.239 72.1278 136.016 61.6185C137.425 57.9852 138.725 55.5492 138.356 58.2092L140.051 49.6651C140.86 47.2771 141.279 48.0532 140.475 50.4305C141.083 48.3065 141.669 46.1758 142.284 44.1825C142.907 42.1531 143.576 40.1198 144.277 38.0772L144.344 38.2051C144.439 36.2811 145.131 32.0105 145.54 29.9265C147.233 26.9812 145.291 31.6358 146.023 30.9958L147.837 23.8238C148.265 23.3798 148.504 23.4198 148.652 23.6265C148.723 23.7398 148.771 23.8945 148.788 24.1105C148.772 24.4265 148.72 24.8185 148.636 25.2679C148.305 27.0625 147.476 29.7385 146.511 32.0585C149.42 29.5372 149.764 28.0252 150.279 25.5038C150.312 25.3465 150.344 25.1838 150.379 25.0185C150.416 24.8452 150.455 24.6651 150.448 24.6131C150.459 24.4398 150.476 24.2531 150.504 24.0518C150.56 23.6505 150.659 23.1892 150.828 22.6745C151.157 21.6678 151.808 20.3545 152.748 19.4358L151.92 22.7171C153.152 22.6571 153.609 22.2865 154.101 21.7145C154.464 22.1158 154.883 22.4918 154.839 23.1305C154.888 22.9185 154.916 22.4812 154.64 21.8172C154.385 21.1638 153.789 20.2678 153.223 19.4078C152.821 19.1518 152.504 18.7692 152.583 17.7238C152.648 17.6398 152.803 17.6118 153.048 17.6398C153.537 18.0278 154.031 18.3691 154.601 18.6131C155.18 18.8625 155.829 19.0012 156.851 19.1491C156.781 19.2945 156.749 19.4331 156.744 19.5611C156.737 19.6238 156.736 19.6838 156.741 19.7411C156.735 19.7905 156.76 19.8505 156.852 19.9465C157.141 20.2878 157.616 20.6585 158.205 21.0718C158.823 21.5145 159.417 21.8985 160.064 22.3932C160.708 22.8865 161.4 23.4758 161.921 24.0572L160.511 25.0358C161.276 25.4532 161.72 25.6172 162.221 25.8905L162.493 26.1052C162.597 26.2678 162.708 26.4785 162.819 26.6865C163.04 27.1105 163.272 27.6078 163.521 28.2638C164.204 34.5358 163.072 36.0198 162.171 37.6491C163.263 47.6891 163.328 30.4398 165.256 42.2345C165.741 50.6478 167.225 56.3905 169.591 66.2038C169.801 72.1091 168.419 65.3305 168.22 67.4865L170.269 72.4612C170.409 73.7292 169.94 73.3785 169.703 73.2011C170.816 77.4785 171.439 73.3252 172.828 80.1012C174.941 81.6905 172.017 94.5172 175.283 102.693C175.087 104.844 174.111 101.826 173.543 102.552C176.509 113.978 175.904 112.372 179.069 121.661V122.223L179.068 122.504V122.644V122.678L180.621 122.476L180.637 122.474C180.721 122.477 180.411 122.49 179.892 122.2C179.656 122.08 179.257 121.8 179.044 121.622C179.035 121.615 179.011 121.617 178.999 121.617L178.98 121.621C178.909 121.564 179.213 121.845 178.428 121.145L176.788 119.689L175.979 118.97L175.959 119.034C175.755 119.73 175.531 120.346 175.303 120.901C175.196 119.756 175.137 118.646 175.124 117.573C175.424 120.37 176.619 120.941 177.389 119.821C178.2 118.734 178.555 115.936 178.323 112.885C178.407 113.177 178.489 113.465 178.571 113.746C178.683 114.106 178.792 114.458 178.9 114.801C179.117 115.488 179.324 116.141 179.519 116.754C179.869 117.86 180.173 118.821 180.417 119.59C180.148 116.846 179.935 114.416 179.776 112.301C179.288 110.633 178.764 109.976 178.288 110.086C178.319 109.704 178.36 109.385 178.417 109.202C178.329 108.877 178.249 108.582 178.177 108.317L178.119 108.109C178.076 108.068 178.013 108.054 177.963 108.026C177.855 107.972 177.752 107.92 177.657 107.872C177.264 107.663 176.935 107.44 176.664 107.206C176.537 107.097 176.389 106.952 176.323 106.864C176.263 106.781 176.2 106.682 176.136 106.565C176.053 106.416 176.039 106.384 176.013 106.318C175.991 106.254 175.952 106.162 175.94 106.084C176.021 105.878 176.307 105.649 176.723 105.385L176.803 105.336L176.823 105.322L176.833 105.317L177.28 106.285V106.29V106.296L177.285 106.342L177.304 106.536C177.313 106.665 177.324 106.801 177.335 106.941C177.352 107.22 177.364 107.512 177.367 107.808C177.475 109.008 177.685 110.28 177.993 111.594C177.956 112.696 177.729 113.616 177.376 114.096C177.029 114.58 176.56 114.628 176.216 114.126C176.437 113.702 176.66 112.728 176.808 111.581C176.623 112.03 176.421 112.25 176.367 111.936C176.309 111.58 176.692 110.92 176.959 109.628C176.825 108.831 176.805 108.121 176.899 107.499C176.973 107.388 177.037 107.269 177.091 107.142L177.229 106.501L177.267 106.341L177.275 106.301L177.277 106.292L177.279 106.286V106.284C173.195 97.4251 176.145 103.829 175.232 101.852L175.203 101.857L175.081 101.877L174.599 101.958L174.116 102.043C174.04 102.059 173.943 102.068 173.885 102.088L173.82 102.184L173.557 102.559C173.181 103.06 172.743 103.558 172.289 104.172C171.844 104.824 171.427 105.648 171.119 106.741C170.839 107.885 170.693 109.297 170.659 110.878C171.453 115.248 172.317 119.258 173.236 122.966C174.157 126.661 175.225 130.249 176.153 133.361C177.901 138.686 179.601 144.708 181.028 152.57C179.137 148.87 178.672 152.114 177.017 152.193C177.591 149.852 177.001 146.789 176.172 143.242C175.757 141.47 175.284 139.577 174.867 137.601C174.659 136.614 174.465 135.606 174.3 134.584C174.221 134.038 174.143 133.49 174.064 132.941C173.98 132.212 173.895 131.478 173.811 130.745C174.148 134.018 173.957 134.437 173.74 134.736C173.509 134.933 173.179 134.448 172.969 133.909L176.497 148.566C175.119 148.452 175.913 151.891 175.877 155.887C176.321 155.213 176.711 155.206 177.076 155.734C177.492 156.46 177.892 157.836 178.748 159.4C179.575 160.968 180.921 162.689 182.768 163.958C183.679 164.602 184.696 165.141 185.753 165.556C186.793 165.972 187.957 166.293 188.869 166.472C191.24 166.929 193.155 166.677 194.499 166.409C194.655 166.749 194.608 167.125 193.815 167.464C193.035 167.752 191.583 168.225 188.587 167.697C188.271 167.624 187.935 167.545 187.577 167.462C187.177 167.345 186.751 167.229 186.315 167.068C185.435 166.76 184.496 166.332 183.535 165.766C184.351 166.422 185.204 166.96 186.072 167.344C186.5 167.549 186.937 167.701 187.363 167.849C187.776 167.985 188.1 168.065 188.479 168.158C189.953 168.482 191.276 168.437 192.361 168.258C192.913 168.17 193.417 168.044 193.891 167.901C194.125 167.829 194.361 167.756 194.579 167.674C194.751 167.598 194.823 167.532 194.948 167.456C195.848 166.87 197.02 166.142 198.423 165.877C198.607 165.446 198.801 164.993 199.009 164.507C199.099 164.082 199.184 164.613 199.26 164.89C199.337 165.209 199.405 165.552 199.463 165.914C199.343 165.633 199.237 165.384 199.143 165.161C199.096 165.049 199.052 164.944 199.009 164.845L198.947 164.706C198.927 164.638 198.907 164.769 198.887 164.79C198.673 165.286 198.515 165.658 198.372 165.99C198.499 165.697 198.64 165.364 198.795 165.004L198.851 164.873C198.869 164.82 198.888 164.909 198.908 164.921L199.023 165.112C199.099 165.248 199.177 165.388 199.257 165.53C199.572 166.121 199.892 166.828 200.181 167.541C200.761 168.973 201.197 170.394 201.267 171.122L202.481 166.665C202.375 166.716 202.277 166.762 202.189 166.804C202.131 166.818 202.077 166.83 202.032 166.841C201.937 166.856 201.865 166.853 201.816 166.83C201.716 166.785 201.707 166.662 201.796 166.461L202.137 166.2L200.733 171.349L200.42 170.649C200.503 170.862 200.587 171.085 200.695 171.365L202.112 166.165C201.867 166.342 201.613 166.525 201.347 166.718C201.127 166.877 200.904 167.086 200.588 167.137C199.66 167.4 199.035 167.444 197.224 167.525C195.584 167.602 193.659 167.573 191.309 167.99C190.711 168.11 190.129 168.213 189.46 168.45L188.493 168.78L187.477 169.281C186.811 169.581 186.152 170.12 185.532 170.625C184.913 171.137 184.429 171.821 183.935 172.446C183.536 173.1 183.212 173.78 182.901 174.456C182.7 175.096 182.525 175.738 182.367 176.376C182.232 176.998 182.216 177.549 182.151 178.13C182.081 178.71 182.073 179.26 182.096 179.788C182.263 184.082 183.641 187.182 184.668 189.325C185.749 191.47 186.673 192.716 187.284 192.924C187.049 193.134 184.183 192.414 183.495 191.865L187.052 196.126C187.617 196.82 188.169 197.514 188.685 198.225C189.199 198.896 189.739 199.798 190.281 200.554C192.46 203.693 194.8 206.522 196.887 209.842C195.713 209.125 194.436 210.848 192.989 211.462C192.263 211.778 191.533 211.849 190.767 211.321C190.009 210.792 189.228 209.696 188.289 207.489C188.541 208.78 188.824 210.224 189.176 212.024C189.523 213.718 189.952 215.625 190.16 217.65C190.361 217.038 191.036 216.118 191.687 215.529C192.325 214.945 193.025 214.8 193.172 215.982C192.675 217.642 192.237 218.446 191.812 219.274C191.636 219.57 191.404 220.256 191.249 220.713C191.117 221.218 190.984 221.694 190.925 222.2C190.781 223.205 190.724 224.316 190.995 225.942C191.063 226.349 191.157 226.788 191.284 227.264C191.351 227.502 191.421 227.749 191.495 228.009C191.563 228.24 191.635 228.481 191.709 228.733C191.829 229.162 191.925 229.566 191.939 229.836C191.941 230.102 191.944 230.38 191.888 230.677C191.887 229.861 192.984 229.426 194.139 230.293C194.964 231.14 195.816 232.73 196.165 234.582C195.571 233.978 193.296 235.585 192.637 234.009L197.972 244.538C196.841 241.87 195.379 244.589 195.1 247.265C195.416 245.984 197.169 256.916 198.128 259.814L197.756 254.945C200.112 267.613 204.647 266.43 207.271 278.921C206.328 277.548 202.723 276.029 203.76 282.44C205.901 285.004 213.835 293.685 217.32 304.53L216.905 306.836C217.829 309.6 218.681 312.369 219.573 315.137C216.344 310.281 208.425 296.48 204.793 288.848C205.143 293.689 204.075 290.376 205.676 297.384C205.408 300.037 203.631 293.821 203.128 291.766L206.109 308.217C207.757 307.097 210.367 320.421 211.707 319.492L209.044 310.741L206.272 302.045C207.067 301.5 208.869 303.8 210.712 307.71C212.559 311.621 214.369 317.166 215.369 323.029C215.253 326.14 211.808 321.45 211.271 321.814C212.172 323.202 214.596 332.646 214.377 333.806L212.468 329.05C213.081 335.676 216.876 339.173 216.729 347.314C217.145 350.03 216.043 355.809 217.175 356.066C218.319 351.273 224.355 349.164 226.435 351.792C226.485 352.765 227.295 366.332 226.907 369.604C226.204 374.352 221.851 363.688 221.24 367.733C221.752 367.801 222.825 370.133 223.216 371.116C223.361 374.026 221.499 370.24 222.921 376.342C224.905 377.016 225.223 388.873 224.999 378.95C226.688 384.864 225.885 385.413 227.348 392.458C227.704 391.221 228.996 392.614 230.411 395.058C231.117 396.281 231.855 397.766 232.521 399.316C233.181 400.872 233.816 402.438 234.135 404.085C233.629 403.761 233.212 405.248 232.919 405.87C232.936 407.521 232.651 409.085 231.951 410.374C231.261 411.67 230.183 412.621 229.043 413.28C226.755 414.578 224.311 415.08 221.851 415.5L222.748 416.016C221.568 411.816 220.36 407.618 218.649 402.462C218.725 401.3 217.443 395.77 218.947 397.808C218.109 396.31 217.035 395.037 215.851 391.622C215.131 384.497 218.629 399.186 218.737 393.537C217.591 393.438 214.399 385.133 212.144 380.458C211.095 382.469 215.608 391.836 217.863 396.516C215.736 397.248 210.66 389.476 205.795 378.174C202.184 369.109 205.843 373.717 205.003 372.213C199.593 354.744 196.336 358.641 193.076 343.73C192.535 337.574 195.707 342.601 196.269 341.017C199.293 348.374 199.253 352.845 201.008 357.928L199.56 351.441C200.812 353.688 202.829 358.597 203.347 361.461C203.161 358.868 200.777 351.525 198.025 343.112C196.648 338.905 195.18 334.43 193.847 330.149C192.557 325.862 191.564 321.726 190.949 318.254C189.843 315.969 188.328 311.884 188.26 314.009L189.557 318.289C189.464 322.581 185.919 310.512 186.796 316.148C184.528 310.505 181.789 304.141 180.756 295.702L182.047 293.822C181.608 294.092 182.181 299.437 183.171 301.664C182.449 300.01 182.331 296.718 182.06 293.429C181.909 291.712 181.759 289.988 181.623 288.44C181.476 286.896 181.247 285.558 180.703 284.568C180.333 286.592 180.029 288.713 179.963 290.98C179.061 287.658 178.516 283.97 178.075 280.521C177.86 278.913 177.64 277.266 177.417 275.598C177.297 274.845 177.177 274.089 177.056 273.329C176.905 272.421 176.784 271.505 176.696 270.581C176.175 272.376 176.289 272.786 176.409 273.437C176.507 274.082 176.635 274.628 175.804 276.924C176.34 275.938 176.664 276.408 176.848 277.688C177.031 278.969 176.989 281.15 176.965 283.453C176.939 285.757 177.029 288.201 177.321 289.506C177.613 290.818 177.909 290.846 178.333 288.673C178.125 289.472 177.975 290.256 177.908 291.053C177.82 291.805 177.855 292.729 177.863 293.354C177.893 294.632 178.032 295.868 178.196 297.156C178.525 299.733 178.941 302.506 178.805 306.244C179.289 305.909 179.247 303.52 180.388 309.8C180.604 310.045 180.955 310.664 181.167 311.058C181.193 311.252 181.203 311.321 181.227 311.486C181.22 311.357 181.215 311.26 181.208 311.129C181.349 311.38 181.372 311.401 181.2 310.996C181.08 309.462 181.093 308.201 181.275 307.649C183.131 310.461 185.512 320.293 187.112 323.413C187.897 327.124 186.084 322.056 186.092 324.202C186.868 325.765 187.657 327.318 188.461 328.862C187.44 329.746 189.655 338.954 186.232 330.753C187.025 333.345 187.857 335.784 188.668 338.306C189.499 342.922 191.268 349.073 192.995 352.661C193.927 356.276 197.232 361.18 195.313 358.39L199.937 369.912L199.688 370.113C203.411 381.754 209.528 393.354 211.895 407.288C213.185 410.384 214.548 413.55 216.033 418.266L217.711 423.592L223.299 422.433C223.889 422.31 224.523 422.18 225.192 422.041C225.885 421.874 226.597 421.705 227.391 421.492C228.08 421.621 228.792 421.734 229.527 421.83C231.576 420.901 234.128 419.588 236.272 417.473C238.457 415.398 239.965 412.413 240.548 409.38C240.688 408.62 240.768 407.853 240.844 407.104C240.876 406.35 240.885 405.606 240.873 404.885C240.839 404.228 240.784 403.604 240.723 402.998C240.661 402.364 240.576 402.008 240.499 401.536C240.331 400.581 240.184 400.088 240.019 399.57C239.855 399.076 239.68 398.688 239.493 398.436C241.132 392.312 235.155 373.161 233.852 363.952L232.457 363.87C231.303 357.582 229.745 351.641 227.685 343.961L226.608 344.676C224.329 338.158 224.056 327.249 221.852 316.653C222.441 317.284 222.852 320.001 222.956 321.962C223.011 315.346 221.297 308.757 219.313 302.322C217.361 295.896 215.311 289.664 215.004 283.722C213.948 280.961 213.635 278.861 213.481 276.796C213.544 277.061 213.619 277.293 213.701 277.489C213.649 277.194 213.555 276.76 213.453 276.314C213.373 275.012 213.319 273.661 213.191 272.214C213.175 273.472 213.196 274.668 213.309 275.686C212.795 273.492 211.904 270.19 210.88 266.989L211.823 265.317C211.751 265.054 211.692 264.844 211.617 264.57C211.363 261.261 210.448 262.126 209.887 264.046C209.313 262.449 208.729 260.998 208.165 259.897C209.605 256.844 205.575 251.484 206.951 247.456C205.397 245.489 202.588 231.23 200.023 229.953C200.288 229.781 200.221 228.789 200.613 230.549C200.533 229.994 200.453 229.44 200.375 228.889C200.223 227.862 199.848 226.764 199.473 225.909L199.027 224.882C198.925 224.649 198.824 224.418 198.737 224.184C198.368 223.248 198.183 222.274 198.097 221.273C198.409 221.093 198.691 221.084 199.016 220.821L199.992 220.05C199.899 218.312 199.584 216.51 199.091 214.99C198.597 213.446 198.009 212.018 197.343 210.688C197.273 208.001 197.099 206.181 197.373 205.541C197.628 204.929 198.291 205.44 199.577 207.846C198.292 204.862 197.373 202.988 196.745 201.512C196.115 200.049 195.723 199.02 195.389 198.061C195.2 197.526 195.016 197.006 194.817 196.448C194.601 195.844 194.337 195.233 194.025 194.544C193.396 193.17 192.495 191.556 191.188 189.386L192.347 189.48C191.719 187.812 190.612 185.845 189.923 184.037C189.212 182.236 188.953 180.548 189.441 179.725C189.532 179.381 189.712 179.05 189.84 178.668C189.94 178.245 190.157 177.958 190.309 177.629C190.365 177.424 190.513 177.4 190.584 177.272C190.629 177.224 190.655 177.149 190.703 177.114C190.757 177.092 190.805 177.068 190.845 177.038C190.891 177.013 190.907 176.962 190.959 176.941C191.019 176.928 191.072 176.91 191.119 176.884C191.175 176.813 191.381 176.793 191.523 176.726C192.179 176.465 193.759 176.326 195.771 176.31C196.759 176.294 197.939 176.284 199.204 176.214C199.576 176.181 199.951 176.148 200.327 176.114C200.761 176.074 201.148 176.018 201.555 175.936C202.365 175.797 203.168 175.59 203.969 175.336C204.62 175.15 205.203 174.781 205.757 174.381C206.269 173.993 206.787 173.602 207.308 173.208L210.084 171.106L208.745 167.936C207.643 165.325 206.508 162.637 205.355 159.906C204.777 158.534 204.195 157.153 203.609 155.764L203.391 155.241L203.28 154.98L203.225 154.848C203.205 154.793 203.188 154.76 203.185 154.798L203.013 155.208L202.669 156.02C201.756 155.006 200.757 153.805 199.457 151.888L199.429 151.846L199.363 152.036L199.228 152.437L198.957 153.24L198.416 154.846L197.332 158.064L197.265 158.265C197.24 158.341 197.219 158.405 197.213 158.381L197.157 158.387L197.043 158.397L196.815 158.42L196.359 158.464L194.525 158.65C193.805 158.718 193.559 158.723 193.196 158.737C192.856 158.746 192.533 158.745 192.231 158.733C191.617 158.705 191.141 158.633 190.709 158.508C190.229 158.368 189.907 158.26 189.607 158.128C189.293 157.999 188.999 157.835 188.717 157.663C188.163 157.304 187.689 156.846 187.353 156.317C187.021 155.785 186.836 155.186 186.773 154.605C186.757 154.46 186.741 154.316 186.745 154.171C186.741 154.001 186.753 153.964 186.732 153.62C186.707 153.061 186.683 152.51 186.657 151.966C184.107 156.43 186.804 142.338 184.317 141.925C184.889 140.634 184.932 137.769 185.995 140.944C185.477 138.398 185.164 136.146 184.939 134.098C184.885 133.586 184.835 133.086 184.784 132.598C184.764 132.384 184.745 132.17 184.727 131.96L184.716 131.653C184.704 131.261 184.693 130.886 184.683 130.521C184.621 129.089 184.469 128.277 183.161 125.356C183.563 125.526 183.896 126.141 184.181 126.633C184.468 127.138 184.707 127.543 184.939 127.6C184.735 127.194 184.096 125.558 184.58 125.808C185.068 126.137 185.345 127.283 185.751 128.093C185.568 126.669 184.8 124.746 183.701 122.13C183.155 120.845 182.533 119.445 181.88 118.016C181.261 116.617 180.449 115.048 180.005 113.813C180.313 113.953 180.612 114.089 180.901 114.221C181.06 114.496 181.108 114.876 181.207 115.165C181.359 115.73 181.501 116.262 181.637 116.77C181.875 117.697 182.015 118.364 182.073 118.87C182.193 119.886 181.987 120.236 181.588 120.733C182.04 121.929 182.515 123.216 182.804 123.676C183.095 124.141 183.213 123.844 182.993 122.093C183.18 122.978 183.667 125.288 184.193 127.788C184.389 127.665 184.572 127.532 184.745 127.372C185.201 126.925 185.912 126.125 186.397 125.009C186.645 124.438 186.841 123.752 186.905 123.018C186.939 122.656 186.94 122.277 186.907 121.914L186.849 121.418C186.795 121.016 186.741 120.617 186.688 120.221C186.469 118.642 186.236 117.138 185.993 115.833C185.507 113.224 184.981 111.406 184.452 111.36C184.72 110.129 183.865 106.112 183.536 105.152C182.495 96.7411 182.547 95.9811 181.265 87.7571L181.3 90.0811C178.82 87.1038 179.913 83.2892 178.765 76.6745L179 76.8358C178.396 61.3878 177.401 70.3545 177.032 55.0811L175.877 56.0785C172.963 55.0625 175.672 42.5278 173.443 33.9465L173.148 37.2011C172.595 35.5785 172.661 33.3932 172.968 31.0305C173.121 29.8478 173.335 28.6225 173.56 27.3998C173.675 26.7878 173.789 26.1785 173.903 25.5758C174.012 24.9598 174.141 24.4638 174.192 23.5345C174.427 20.5105 173.267 17.7438 171.801 15.8492C171.563 15.4771 171.608 15.4465 171.756 15.5438C171.912 15.6518 172.316 16.0399 172.693 16.4798C173.509 17.3772 174.483 18.8318 175.027 19.9385C174.604 18.6838 174.057 17.6318 173.513 16.7372C173.227 16.2932 172.969 15.8932 172.681 15.5065C172.353 15.0771 172.164 14.8239 171.945 14.5665C171.099 13.5452 170.46 12.9651 169.985 12.5971C169.035 11.8718 168.751 12.0251 168.537 12.2731C168.323 12.5345 168.164 12.9065 167.476 12.7958C166.804 12.6932 165.519 12.0439 163.269 10.8025C162.673 9.92517 163.493 9.7438 163.728 9.32114C163.843 9.11182 163.805 8.82651 163.351 8.37448C162.635 7.77051 161.275 6.88516 158.853 5.65717C157.903 5.01718 156.105 4.23981 153.816 3.2558C151.531 2.27313 148.707 1.14917 145.84 -0.000183105C144.345 4.65182 142.784 9.6105 141.177 14.0732C140.381 16.2918 139.523 18.5052 138.705 20.4078C138.129 21.7825 137.492 23.0545 136.793 24.1532C138.124 22.6345 139.451 21.1225 138.373 25.3785C137.287 28.5465 135.012 32.5518 133.089 36.7092C132.129 38.7852 131.259 40.8985 130.667 42.9225C130.1 44.8905 129.783 46.7171 129.859 48.3318C129.427 49.0918 129.157 49.3452 128.981 49.3265C128.012 54.3985 124.972 65.5398 125.2 68.8438C119.581 72.0718 117.865 99.9478 114.004 98.6438L109.567 113.788L109.289 113.273C106.063 122.834 105.947 126.526 105.84 130.196C104.888 132.344 105.025 130.608 104.877 130.362C102.315 137.285 100.967 141.11 100.048 144.753C99.584 146.566 99.2613 148.374 98.932 150.41C98.7813 151.361 98.62 152.381 98.44 153.512C98.3613 154.045 98.2853 154.477 98.196 154.952C98.0893 155.424 97.9693 155.956 97.7293 156.472C97.2187 156.405 96.7293 156.281 96.2373 156.082C96.1213 156.358 95.776 156.676 95.2227 156.88C94.6787 157.118 93.9227 157.164 93.1 157.176C92.8347 157.169 92.5627 157.162 92.2813 157.154C91.9733 157.142 91.656 157.129 91.3307 157.116C90.5787 157.073 89.8147 157.041 88.9507 156.97C88.0947 156.905 87.2053 156.838 86.288 156.77C85.824 156.734 85.352 156.7 84.8747 156.664L84.7853 156.657L84.74 156.654L84.5707 156.652C84.0547 156.653 83.6373 156.721 83.2693 156.802C82.5707 156.972 82.1907 157.154 81.9333 157.264L81.504 157.456L81.4747 157.465L81.4693 157.464H81.4667L81.5907 157.729L81.948 158.512L82.1587 159.008L82.3667 167.072C86.808 168.288 91.736 169.513 96.584 170.336L95.9827 160.24C94.4907 160.804 93.036 161.413 91.6227 162.041C91.712 161.864 91.9107 161.526 92.9053 161.004C85.6653 164.178 76.1667 165.496 68.0773 166.194C59.952 166.957 53.2307 167.212 50.4293 169.648C48.708 169.929 46.9947 170.054 45.2627 170.266C43.5467 170.372 41.804 170.558 40.0853 170.572C46.7373 171.186 46.2853 171.546 44.7507 172.122C43.2373 172.633 40.6467 173.152 43.468 173.673C40.736 173.756 37.2533 173.002 35.3667 172.289C34.4133 171.96 33.8653 171.59 33.9427 171.414C34.0187 171.24 34.724 171.225 36.348 171.364L37.328 171.74C38.5067 170.741 35.4147 170.17 31.872 169.265L31.7053 175.677C36.6213 175.012 42.5813 173.901 42.5387 174.877C44.0587 174.613 45.576 174.35 47.0827 174.089L46.3533 165.53C33.8227 165.512 21.4547 165.208 9.292 164.889L8.68 174.754C11.4933 175.178 14.2813 175.6 17.06 176.02L16.1387 165.954C12.868 166.902 9.63066 167.841 6.40933 168.774L1.792 170.113L2.74534 175.068C3.056 176.689 3.384 178.32 3.76 179.988L4.06934 181.26L4.224 181.896L4.472 182.729L4.98667 184.426L5.652 186.144C6.59734 188.396 7.968 190.425 9.89334 191.861C11.8707 193.236 14.228 193.868 16.644 193.964C15.252 193.284 14.096 192.366 13.1333 191.392C14.9947 192.041 17.0147 192.174 19.0413 192.057C19.564 192.053 20 192.006 20.4813 191.974L21.7973 191.864L24.016 191.668C25.2013 191.777 26.0213 192.078 25.7533 192.421C25.6187 192.593 25.2133 192.776 24.4453 192.949C24.0613 193.036 23.5867 193.121 23.0107 193.201C22.7213 193.237 22.408 193.277 22.068 193.318C21.6533 193.358 21.2067 193.401 20.7267 193.446C21.0107 193.49 21.3453 193.516 21.6507 193.532C21.8907 193.553 22.1427 193.562 22.404 193.561C22.9267 193.558 23.4853 193.512 24.0587 193.433C25.2067 193.276 26.416 192.99 27.5227 192.666C29.7373 192.018 31.54 191.22 31.6093 191C44.064 190.54 27.0013 193.749 30.8027 193.414L35.94 192.75L34.756 192.64C38.8533 191.426 39.1427 190.548 46.7507 189.88C51.596 189.784 49.3293 190.829 51.228 190.713C51.2293 190.852 51.8733 190.853 54.1333 190.477L65.3067 189.52L60.7093 188.434C65.592 187.18 71.2173 187.457 65.9133 186.238C67.0627 186.521 68.78 186.65 70.888 186.666C73.0493 186.648 75.34 186.65 77.9867 186.693C79.308 186.722 80.684 186.752 82.0893 186.784C82.9693 186.814 83.868 186.846 84.772 186.878C86.5147 186.937 88.28 186.97 89.9907 186.958C89.5387 189.138 88.9413 191.341 88.5107 193.028C88.2107 194.088 87.9507 195.012 87.74 195.756C87.4427 196.757 87.1893 197.509 86.9867 197.952C86.3373 204.989 84.604 211.656 82.3507 219.885C83.188 217.91 85.1813 217.113 83.1453 224.188C80.3493 220.688 78.292 236.85 74.336 241.997C77.3027 237.258 69.568 262.404 73.98 254.898C72.18 260.784 72.5893 254.936 70.6213 259.253C69.4853 266.512 67.2747 274.269 64.8453 282.422L64.388 283.956C64.3173 284.192 64.2267 284.478 64.132 284.906C64.0333 285.294 63.9733 285.689 63.904 286.085C63.6893 287.634 63.6453 289.026 63.7707 290.526C63.9293 292.032 64.1027 293.546 65.1293 295.64C65.2893 295.926 65.4587 296.209 65.636 296.486C65.8333 296.78 66.108 297.117 66.364 297.413C66.6333 297.721 67.056 298.089 67.432 298.382L67.5747 298.492L67.644 298.537L67.7827 298.629L68.0627 298.81C68.4387 299.048 68.8133 299.289 69.2053 299.506C69.612 299.704 70.024 299.894 70.4413 300.077C72.1307 300.756 73.9813 301.138 75.8227 301.105C77.6613 301.066 79.4693 300.673 81.1373 299.976C84.456 298.56 87.204 295.88 88.6587 292.625C88.544 292.333 87.828 293.162 87.344 293.284C87.112 293.354 86.9667 293.269 87.0107 292.854C87.0587 292.448 87.26 291.68 87.5427 290.376C88.1067 289.305 88.44 288.598 88.8267 287.797C89.1987 287.004 89.5533 286.21 89.8987 285.413C90.5813 283.822 91.2147 282.234 91.828 280.68C91.9667 278.862 91.4013 277.969 91.1253 276.746C90.8533 275.538 90.832 273.941 92.2 271.104C91.6547 271.865 90.824 273.048 91.0987 270.793C91.348 269.88 91.6 269.014 91.8853 268.106L92.7827 265.252C93.3573 263.341 93.932 261.425 94.508 259.506C95.628 255.66 96.6947 251.784 97.7267 247.885C99.7893 240.09 101.713 232.209 103.655 224.31C105.596 216.412 107.555 208.496 109.685 200.634C110.751 196.704 111.86 192.788 113.031 188.894L113.921 185.98L113.949 185.888C115.949 186.425 111.229 185.128 111.733 185.268L111.775 185.276L111.856 185.296C111.963 185.324 112.065 185.36 112.163 185.401C112.323 185.484 112.595 185.592 112.843 185.725C113.079 185.858 113.291 186.014 113.591 186.193L113.791 186.33C113.853 186.376 113.809 186.346 113.823 186.357C113.823 186.357 113.813 186.366 113.833 186.356L114.279 186.045C114.716 185.761 115.336 185.458 115.929 185.257C116.484 185.081 116.972 184.997 117.497 185.01L120.164 184.914L122.915 184.844C124.749 184.812 126.581 184.804 128.412 184.824C123.508 184.454 126.697 184.001 130.369 183.574C127.957 183.614 130.3 182.416 129.764 181.834C134.793 181.885 139.819 181.988 144.837 182.126C146.116 181.126 150.113 180.744 153.968 180.424C154.931 180.34 155.885 180.258 156.787 180.18C157.237 180.134 157.675 180.089 158.093 180.046C158.521 179.997 158.936 179.945 159.131 179.904C160.123 179.733 160.915 179.418 161.26 179.07C160.732 179.04 160.129 179.209 159.576 179.277L158.721 179.414L157.544 179.578C163.693 177.112 148.396 175.836 149.08 173.246C142.209 176.084 130.024 171.59 118.755 176.208C116.129 175.997 120.844 175.13 119.404 174.706C118.459 175.174 117.569 175.55 116.228 175.889C114.631 176.262 112.779 176.984 111.005 177.996C110.093 178.522 109.136 179.118 108.069 180.081C107.544 180.554 106.967 181.156 106.401 182.061C106.259 182.316 106.124 182.506 105.992 182.832L105.805 183.298L105.669 183.682C105.584 183.937 105.496 184.197 105.407 184.462L105.333 183.668C100.911 201.71 97.8613 209.134 91.9067 229.154L93.5187 227.977C92.224 232.273 91.604 233.088 90.768 235.04C91.3253 240.5 94.0467 222.878 94.9093 227.948C90.9227 233.058 86.9053 258.53 83.06 261.705C81.3067 268.405 84.988 260.049 83.2347 266.83C82.8187 267.418 82.4267 268.008 82.032 268.605C82.2373 269.292 82.4587 269.965 82.6813 270.629C81.7227 275.286 80.5187 277.37 79.8107 277.448C80.0373 276.384 80.0507 274.31 80.1827 273.077C79.2507 276.062 78.8613 280.154 78.4187 283.43C78.3 284.24 78.1853 285.021 78.0787 285.754C78.016 286.109 77.956 286.453 77.8987 286.781C77.8627 286.92 77.844 287.028 77.8333 287.15C77.7093 287.576 77.568 287.885 77.3947 287.941C77.6733 287.737 77.9147 287.458 78.1027 287.1C78.1533 286.977 78.1973 286.996 78.2747 286.758L78.5 286.062C78.6547 285.602 78.7867 285.114 78.932 284.641C78.8413 285.158 78.7653 285.696 78.6573 286.208L78.5067 286.964C78.4707 287.077 78.4413 287.192 78.42 287.312C78.284 287.762 78.0853 288.178 77.8067 288.546C77.2293 289.265 76.3173 289.721 75.5173 289.752C75.1133 289.78 74.7467 289.696 74.3787 289.52C74.2773 289.505 74.1947 289.417 74.0987 289.368L73.952 289.293L73.9467 289.292C69.424 295.816 72.7 291.088 71.6933 292.54L71.7187 292.5L71.7707 292.422C71.8067 292.373 71.844 292.326 71.884 292.282C71.9707 292.181 72.032 292.161 72.1653 292.01C72.62 291.577 73.2947 291.146 74.1267 290.722C74.3387 290.61 74.5533 290.509 74.7707 290.418L74.9347 290.352C74.944 290.352 74.94 290.358 74.94 290.358L74.936 290.341C74.932 290.312 74.92 290.31 74.9067 290.264C74.7853 289.905 74.6427 289.014 74.66 288.246C74.66 287.854 74.6853 287.472 74.7307 287.22C74.764 287.044 74.756 287.034 74.848 286.676L75.0853 285.736C77.608 275.704 80.0053 265.726 81.4667 256.741L80.548 257.932C82.9027 244.234 83.9227 247.338 87.1893 232.47V233.042C87.3733 229.942 88.096 225.924 89.1987 221.904C88.9173 225.802 92.3133 215.232 91.8053 220.312C94.404 205.445 92.7573 212.872 93.0853 202.697L94.612 200.722C94.6 198.972 94.4987 197.998 94.604 196.533C94.6213 196.205 94.688 195.701 94.772 195.152C94.8627 194.616 94.964 194.016 95.0813 193.328C95.3333 191.969 95.6827 190.293 96.176 188.117C95.7187 191.602 96.4587 190.234 97.292 188.644C98.1027 187.141 99.0227 185.346 98.3827 190.092C99.9547 185.617 101.309 181.249 102.211 177.57C98.2653 177.529 94.5053 177.618 91.2133 177.746C88.0227 177.87 85.1387 177.981 82.4707 178.085C78.732 178.302 75.6867 178.31 72.428 177.29C68.8347 179.041 72.3107 178.956 76.376 178.929C78.3787 178.91 80.46 178.892 81.7733 178.91C82.356 178.916 83.112 178.94 83.312 178.969C83.5413 179.001 83.3733 179.044 82.6827 179.108C85.0053 179.589 82.5787 180.05 80.2 180.426C77.6067 180.789 73.896 181.142 71.38 181.282C66.3 181.732 62.4453 178.662 49.656 180.002C50.9307 179.888 50.9973 179.672 52.268 179.556C47.416 179.344 42.9787 181.441 36.9987 180.904C33.8707 182.881 29.3653 181.577 28.6293 183.772L40.3067 182.105C37.0093 182.714 33.864 183.79 30.1613 184.704C28.3107 185.16 26.32 185.574 24.1013 185.87C23.0067 186.016 21.7893 186.141 20.624 186.209C19.5307 186.266 18.504 186.262 17.4587 186.081C18.36 185.716 20.3453 184.974 22.8787 184.389C22.0813 184.312 21.2267 184.348 20.5347 184.414C19.956 184.469 19.3813 184.576 18.8987 184.645C17.9 184.788 16.7187 184.877 15.908 184.118C16.3467 183.674 17.0347 183.656 17.896 183.521C18.3027 183.468 18.776 183.406 19.2947 183.338C20.0133 183.252 20.7947 183.157 21.6133 183.058C25.944 182.57 31.0533 182.066 34.5373 180.906C31.008 180.365 21.2107 183.786 24.5587 181.149C23.36 182.001 21.9187 182.489 20.4373 182.774C19.3813 183.01 18.6773 183.016 17.82 182.836C16.9867 182.673 16.2347 182.062 15.7733 181.27C15.524 180.877 15.2693 180.474 15.008 180.064C14.8493 179.818 14.688 179.572 14.524 179.321L14.384 179.122L14.2093 178.79L13.8347 178.113L15.1907 178.3C14.7173 177.29 13.6867 175.081 13.14 172.853L9.61333 178.909C9.836 178.837 10.052 178.766 10.2667 178.697L9.68667 179.138L13.376 172.804C14.1 173.94 14.82 175.088 15.556 176.152C15.0133 175.025 14.6307 173.802 14.3373 172.598L9.98267 180.076C13.2387 178.966 16.604 178.514 19.8867 177.808L51.568 170.985L18.5947 163.684C16.5467 163.23 14.488 162.881 12.3653 162.857C15.6733 163.26 17.5853 163.577 18.5747 163.841L49.7627 172.16L19.8387 177.656C16.2547 178.314 21.0013 175.681 16.4373 176.384C17.4 175.973 18.2853 175.613 19.0933 175.298L39.0373 167.541L18.2693 166.294C14.052 166.041 11.684 165.521 9.90933 164.872L9.292 174.846C13.4867 175.809 14.76 177.801 27.484 177.405C24.8427 177.584 17.5707 176.645 21.7 176.058C25.412 176.32 30.316 176.805 32.5947 177.469C45.5173 177.206 30.6107 176.168 36.1107 175.39C40.0173 176.758 41.9893 175.202 46.3533 174.49L45.564 165.258C45.044 165.438 44.476 165.613 43.86 165.776L43.6027 164.514C30.572 166.01 38.0347 167.458 30.4973 168.657L9.34933 172.018L30.3013 176.213C31.2507 176.404 32.4733 176.722 34.0027 177.092C32.7 177.26 31.3667 177.362 30.0133 177.488L6.58533 179.658L30.276 167.37L32.1947 166.374L30.188 166.858L0 174.148L29.9 177.993C31.6773 178.221 33.4573 178.504 35.1973 178.59L33.4387 179.826C35.5347 179.838 37.2507 179.905 38.7507 179.882C40.244 179.916 41.56 179.945 42.872 179.974C44.168 180.038 45.4587 180.102 46.9147 180.174C47.6413 180.214 48.408 180.256 49.2373 180.302C50.0627 180.321 50.9493 180.342 51.9187 180.365C50.0947 179.482 52.876 178.12 59.5293 177.504C61.8413 177.67 61.2387 178.034 61.232 178.222C61.2267 178.409 61.836 178.457 66.5587 177.764C64.54 178.83 62.2587 180.146 57.98 179.325C57.5867 179.773 55.8933 180.269 55.472 180.71C60.584 181.33 68.064 179.692 71.4827 179.09C70.1453 179.245 68.5467 179.418 67.7067 179.36C72.2347 178.122 76.6707 176.68 81.036 175.126C83.2547 175.085 81.676 175.9 80.0693 176.609C81.436 176.27 82.5467 175.785 83.824 175.309C85.1013 174.838 86.5267 174.292 88.5 173.7C87.7293 174.953 88.2907 176.037 82.64 177.857C86.9027 176.505 91.088 174.936 95.2227 173.284C95.9213 173.404 99.136 172.868 100.344 172.89L126.717 173.389L99.4133 157.256C98.976 156.998 98.88 156.829 99.368 156.822C95.5053 155.629 90.4053 155.246 85.06 154.625L86.3533 169.21C86.7307 169.042 87.0307 168.88 87.22 168.772L87.4053 168.656L87.4173 168.645L87.4227 168.64L87.004 167.813L85.6947 165.133L85.1453 163.928L84.9853 163.546L84.868 163.242C84.7467 162.933 84.684 162.684 84.6573 162.559C84.6427 162.469 84.6347 162.44 84.632 162.38L84.6293 162.329V162.316V162.313C84.72 156.165 84.5053 170.684 84.5293 169.188H84.5347L84.56 169.185L84.7533 169.17L86.312 169.065C87.376 169.01 88.4467 168.957 89.5173 168.904L91.2093 168.837L92.0653 168.814L93.124 168.761L94.2227 168.698L94.7707 168.666L95.408 168.582C96.2573 168.444 97.1387 168.416 97.9707 168.212C98.6667 167.753 100.304 167.346 102.881 165.345C103.565 164.768 104.271 164.213 104.827 163.518C105.448 162.881 105.96 162.16 106.444 161.413C106.964 160.693 107.295 159.849 107.733 159.072C107.963 158.653 108.105 158.32 108.253 157.976L108.699 156.932C109.025 156.16 109.177 155.734 109.405 155.156L110.015 153.548C110.381 152.517 110.751 151.482 111.123 150.434C112.555 146.308 113.873 141.942 114.721 136.741L118.261 131.618C120.263 123.677 113.637 138.605 116.972 125.38C119.24 115.988 119.563 122.402 121.059 119.321C121.565 114.464 122.181 105.93 126.251 97.9078C125.724 100.814 124.781 102.932 124.108 105.59Z" fill="white"/>
</mask>
<g mask="url(#mask0_3771_46420)">
<path d="M68.6414 299.113L150.089 0L230 424M0 175.253L215.145 163.947" stroke="white" stroke-width="51"/>
</g>
</svg>
