<svg width="175" height="359" viewBox="0 0 175 359" fill="none" xmlns="http://www.w3.org/2000/svg">
<g clip-path="url(#clip0_5935_63570)">
<mask id="mask0_5935_63570" style="mask-type:alpha" maskUnits="userSpaceOnUse" x="2" y="-1" width="170" height="357">
<path d="M122.461 177.87C120.751 176.85 118.971 174.87 117.351 174.98C106.151 175.76 94.9606 176.83 83.8206 178.19C81.8706 178.43 78.9406 180.14 78.5006 181.73C72.8806 202.34 67.5406 223.02 62.3506 243.74C61.0606 248.91 60.8906 254.36 59.6106 259.53C58.4506 264.2 53.1806 266.43 49.3406 263.77C48.0706 262.89 47.7406 259.44 48.2206 257.46C51.4506 244.04 55.0106 230.7 58.4506 217.33C61.6006 205.09 64.7406 192.84 67.9506 180.34C61.9006 180.34 56.2906 179.95 50.7606 180.42C37.8706 181.5 25.0106 182.96 12.1406 184.31C5.54063 185 4.59063 184.04 2.39062 173.69C4.56063 173 6.80062 172.3 9.63062 171.4C7.46062 171.13 5.86062 170.93 3.33062 170.62H31.1306C27.2906 171.28 23.6606 171.9 19.7306 172.58C31.9906 175.35 52.2006 173.15 69.6406 167.14C65.8006 166.31 62.4206 165.58 58.9506 164.83C59.3106 164.68 59.5806 164.47 59.8506 164.47C71.6706 164.64 71.3406 164.55 74.5906 153.7C82.2806 128.03 90.2706 102.44 98.2606 76.8502C100.041 71.1402 102.331 65.5802 104.451 59.9802C105.681 56.7302 107.051 53.5302 108.391 50.2002C111.201 51.6202 115.011 53.1402 118.331 55.3802C120.381 56.7602 122.811 59.0802 123.131 61.2602C126.701 85.7802 129.891 110.35 133.151 134.92C133.231 135.55 132.861 136.24 131.791 136.96C130.971 132.29 130.151 127.62 129.331 122.94C129.021 122.94 128.721 122.96 128.411 122.97C128.791 127.6 129.041 132.25 129.591 136.87C130.481 144.38 131.691 151.85 132.541 159.37C132.971 163.17 135.621 164.83 138.631 165.53C141.011 166.08 143.691 165.39 146.231 165.24C146.471 164.68 146.711 164.12 146.951 163.56C147.961 165.92 148.961 168.28 149.901 170.48C148.941 171.19 148.681 171.49 148.351 171.61C143.961 173.25 136.471 170.1 136.011 177.62C135.721 182.31 138.611 187.15 139.791 191.99C141.121 197.47 143.861 203.44 142.681 208.42C141.861 211.86 143.691 213.21 144.141 215.35C148.321 235.27 153.061 255.08 157.191 275.01C162.001 298.25 166.381 321.57 170.891 344.87C172.101 351.1 170.111 353.93 162.901 355.43C155.691 333.92 148.211 312.37 141.301 290.64C138.331 281.32 136.231 271.69 134.331 262.09C133.411 257.44 134.351 252.44 133.591 247.73C131.631 235.71 129.171 223.77 126.941 211.79C125.261 202.75 123.621 193.7 121.961 184.65C123.451 189.47 125.211 194.23 126.381 199.13C129.201 211 129.121 223.68 137.071 234.88C134.071 214.33 131.181 194.5 128.121 173.6C125.511 175.55 121.231 172.37 122.521 177.86L122.461 177.87ZM126.751 166.15C121.601 131.51 116.611 97.9702 111.621 64.4302C111.391 64.4302 111.161 64.4302 110.931 64.4302C113.781 95.0902 116.631 125.74 119.481 156.4L117.751 156.59C114.541 129.19 111.321 101.79 108.131 74.6102C95.6106 103.17 88.3006 133.23 82.5606 164.34C95.7506 166.6 108.151 167.21 121.631 164.4C122.141 164.58 124.131 165.25 126.741 166.15H126.751ZM58.3306 229.8L57.0006 229.73C54.8506 238.04 52.6906 246.35 50.5406 254.67C50.9706 254.77 51.3906 254.88 51.8206 254.98C53.9906 246.59 56.1606 238.2 58.3306 229.81V229.8Z" fill="white"/>
<path d="M147.36 34.2902C147.04 34.3302 146.95 33.9402 146.76 33.7702C146.64 33.6602 146.5 33.5702 146.4 33.4202C146.29 33.2602 146.21 32.9902 145.8 33.5102C145.76 33.5702 145.73 33.5702 145.73 33.5102C145.73 33.4602 145.75 33.4002 145.8 33.3402C146.06 33.0202 145.92 33.0302 145.89 33.0002C145.73 32.8402 145.58 32.6702 145.4 32.5702C145.06 32.3802 144.83 32.0002 144.56 31.6802C144.45 31.5402 144.33 31.4302 144.2 31.3302C144.03 31.2002 143.84 31.1402 143.69 30.9802C143.51 30.8002 143.41 30.4602 143.2 30.3502C142.91 30.2002 142.63 30.0302 142.43 29.7302C142.29 29.5202 142.02 29.5502 141.96 29.2302C141.91 28.9802 141.68 29.0302 141.57 28.8702C141.43 28.6502 141.27 28.4502 141.07 28.3302C140.83 28.1802 140.74 27.7602 140.38 27.8302C140.26 27.8502 140.39 27.5002 140.32 27.4402C140.16 27.3202 140.03 27.1702 139.88 27.0302C139.86 27.0102 139.84 26.9402 139.78 27.0302C139.53 27.4202 139.62 27.1702 139.65 27.0302C139.74 26.5302 139.54 26.5702 139.19 27.1102C139.15 27.0902 139.18 26.9302 139.24 26.8602C139.6 26.4102 139.41 26.3902 139.38 26.3902C139.27 26.3902 139.24 26.2702 139.18 26.2002C138.9 25.8402 138.58 25.5302 138.29 25.1902C138.24 25.1402 138.14 25.1702 138.12 25.0802C138.04 24.6302 137.71 24.5702 137.53 24.2902C137.37 24.0402 137.17 23.8302 136.93 23.7002C136.67 23.5602 136.62 23.0902 136.19 23.2402C136.13 23.2602 136.11 23.2302 136.12 23.1502C136.18 22.6802 135.97 22.5902 135.77 22.5102C135.56 22.4202 135.49 22.1102 135.27 22.0302C135.06 21.9602 135.08 21.5202 134.66 21.7802C134.64 21.7902 134.61 21.7802 134.62 21.7702C134.79 21.3702 134.55 21.5402 134.54 21.4002C134.5 20.9702 133.99 21.2302 133.94 20.8102C133.91 20.5802 133.55 20.8702 133.55 20.6102C133.55 20.3902 133.45 20.3202 133.31 20.3002C133.06 20.2702 132.95 20.0402 132.76 19.9302C132.61 19.8502 132.55 19.6102 132.38 19.5402C132.27 19.4902 132.19 19.3602 132.05 19.3802C131.91 19.4102 131.9 19.3202 131.91 19.1602C131.91 19.0802 131.85 19.0702 131.79 19.0602C131.56 19.0402 131.5 18.7802 131.33 18.6802C131.18 18.5902 131.09 18.3902 130.98 18.2402C130.8 18.0002 130.55 17.8402 130.28 17.7202C130.03 17.6102 130.03 17.1502 129.61 17.2902C129.56 17.3102 129.52 17.2702 129.62 17.1002C129.71 16.9602 129.67 16.9402 129.62 16.9702C129.32 17.1502 129.4 16.8002 129.3 16.7102C129.06 16.5002 128.96 16.0802 128.67 15.9402C128.44 15.8302 128.5 15.3202 128.02 15.5602C127.99 15.5802 127.98 15.5202 128 15.4602C128.09 15.2102 127.99 15.1802 127.93 15.1202C127.69 14.8702 127.43 14.6402 127.23 14.3302C127.19 14.2602 127.01 14.3402 127.03 14.2302C127.07 13.7902 126.8 13.7702 126.57 13.7002C126.5 13.6802 126.45 13.6302 126.48 13.5002C126.51 13.3602 126.48 13.3002 126.42 13.2602C126.07 13.0002 125.86 12.5602 125.48 12.3502C125.41 12.3102 125.37 12.2402 125.37 12.1202C125.37 11.9502 125.25 11.9002 125.11 11.8902C125.08 11.8902 125.06 11.8902 125.07 11.8402C125.07 11.5702 124.92 11.4902 124.76 11.4402C124.36 11.2402 124.09 10.8302 123.75 10.5202C123.55 10.3402 123.42 10.0302 123.17 9.94023C122.69 9.76023 122.39 9.30023 122.02 8.94023C121.56 8.49023 121.11 8.00023 120.61 7.62023C120.39 7.45023 120.11 7.40023 119.99 7.09023C119.76 6.53023 119.36 6.56023 119.08 6.17023C118.63 5.56023 118.11 5.02023 117.54 4.97023C117.52 4.97023 117.5 4.91023 117.5 4.86023C117.48 4.50023 117.37 4.55023 117.29 4.44023C117.14 4.24023 116.95 4.33023 116.81 4.13023C116.47 3.64023 116.08 3.59023 115.73 3.11023C115.41 2.66023 115.05 2.54023 114.72 2.18023C114.37 1.80023 114.02 1.61023 113.68 1.28023C113.51 1.12023 113.33 1.21023 113.16 0.960234C112.78 0.410234 112.41 0.220234 112.04 -0.00976562L112.01 0.0202344C111.9 0.100234 111.85 0.850234 111.69 0.220234C111.69 0.220234 111.68 0.220234 111.67 0.240234C111.48 0.520234 111.27 0.580234 111.08 0.860234C110.9 1.13023 110.73 1.50023 110.53 1.64023C110.25 1.85023 110 2.32023 109.72 2.53023C109.63 2.60023 109.61 2.96023 109.51 2.96023C109.35 2.96023 109.14 2.80023 109.12 3.45023C109.12 3.52023 109.1 3.61023 109.08 3.59023C108.86 3.33023 108.76 3.75023 108.59 3.79023C108.32 3.86023 108.12 4.23023 107.94 4.57023C107.82 4.79023 107.66 4.98023 107.53 5.02023C107.31 5.08023 107.15 5.28023 106.97 5.45023C106.88 5.54023 106.77 5.62023 106.71 5.75023C106.51 6.18023 106.09 6.05023 105.92 6.58023C105.83 6.88023 105.64 7.03023 105.47 7.17023C105.11 7.48023 104.75 7.80023 104.46 8.25023C104.39 8.37023 104.3 8.46024 104.19 8.52024C103.77 8.73024 103.49 9.20023 103.12 9.51023C102.74 9.83023 102.53 10.3802 102.08 10.6202C101.86 10.7402 101.88 11.1302 101.67 11.2502C101.36 11.4302 101.09 11.6502 100.82 11.8902C100.72 11.9802 100.82 12.2502 100.63 12.2402C100.22 12.2102 100.21 12.6302 99.8597 12.6802C99.7397 12.7002 99.7397 12.8502 99.7697 13.0102C99.8497 13.2402 99.9697 13.4502 99.5597 13.2302C99.4597 13.1702 99.4097 13.2002 99.3797 13.2302C99.1797 13.4202 99.0097 13.6402 98.7797 13.8002C98.6797 13.8702 98.6797 14.0402 98.5597 14.0902C98.3297 14.1802 98.2297 14.3902 98.0597 14.5302C97.8297 14.7102 97.6097 14.8902 97.4197 15.1102C97.1497 15.4202 96.9097 15.7502 96.6697 16.0802C96.5397 16.2602 96.3297 16.3702 96.1497 16.5102C96.0397 16.6002 96.0497 16.8202 95.8397 16.8202C95.6097 16.8202 95.7097 17.0902 95.4997 17.1002C95.1597 17.1202 95.3797 17.6202 95.0397 17.6702C94.8197 17.7002 94.6797 17.8402 94.5997 18.0202C94.4497 18.3702 94.0597 18.5102 93.8397 18.8002C93.6997 18.9802 93.4397 19.0402 93.3197 19.2302C93.2197 19.3902 93.2197 19.6302 92.9697 19.6602C92.5797 19.7002 92.5597 20.0602 92.2297 20.1502C91.8997 20.2402 91.8997 20.6402 91.5097 20.6802C91.3697 20.6902 91.6197 20.9802 91.4897 20.9802C91.0197 20.9702 90.8697 21.2502 90.5997 21.4202C90.5497 21.4502 90.4997 21.4902 90.5697 21.6102C90.6897 21.8502 90.6697 21.9502 90.3397 21.7802C90.1497 21.6802 90.1097 21.7502 90.1097 21.8302C90.1097 21.9002 90.1197 21.9702 90.0497 21.9602C89.6497 21.8902 89.6497 22.1802 89.3897 22.2302C89.2197 22.2602 89.3097 22.5202 89.1197 22.5302C88.9697 22.5302 88.8797 22.5902 88.9097 22.7602C88.9397 22.9302 88.8897 23.0302 88.6097 22.9402C88.2997 22.8402 88.2397 22.9802 88.2997 23.2102C88.3097 23.2702 88.3497 23.3402 88.2197 23.2702C87.8897 23.0802 87.8797 23.2002 87.9697 23.4002C88.0097 23.5002 88.0297 23.5502 87.9097 23.4902C87.6997 23.3802 87.6997 23.4902 87.5897 23.4902C87.3697 23.4902 87.4697 23.7702 87.2797 23.8002C86.7797 23.8702 86.5997 24.2302 86.1897 24.3802C85.8597 24.5002 85.7197 24.8002 85.3697 24.9002C85.0197 25.0002 84.9697 25.3402 84.6697 25.4802C84.3997 25.6102 84.1597 25.7702 83.8997 25.9202C83.7397 26.0102 83.5797 26.1002 83.5197 26.2702C83.4497 26.4702 83.4797 26.7602 83.1997 26.7702C82.8997 26.7802 83.1197 27.2502 82.6897 27.1402C82.6697 27.1402 82.6997 27.1902 82.7097 27.2102C82.7297 27.3202 82.6397 27.3202 82.5897 27.3702C82.4397 27.5502 81.9997 27.5102 82.3897 28.1302C82.4097 28.1602 82.3897 28.1902 82.3597 28.1802C81.9797 27.9602 81.9897 28.1402 81.9197 28.2202C81.6997 28.4502 81.5597 28.7502 81.3597 28.9902C81.1497 29.2402 81.0497 29.5902 80.7997 29.8102C80.6597 29.9402 80.6497 30.1802 80.4897 30.2802C80.0697 30.5202 80.0797 31.1202 79.7997 31.4702C79.7097 31.5802 79.5697 31.6502 79.5997 31.8702C79.6197 31.9902 79.3697 31.9602 79.3097 32.0702C79.1397 32.3602 78.9897 32.6502 78.7897 32.9102C78.3897 33.4402 78.1697 34.1202 77.8197 34.6902C77.7397 34.8202 77.6797 34.9702 77.5697 35.0702C77.3597 35.2702 77.3497 35.6302 77.1497 35.8402C76.9597 36.0302 76.8797 36.3202 76.7197 36.5302C76.5997 36.6802 76.6097 36.9602 76.5197 37.1502C76.3997 37.4002 76.1997 37.5802 76.1097 37.8602C76.0597 38.0102 75.9197 38.0702 76.1297 38.4402C76.2697 38.6802 76.3797 38.9402 76.4497 39.1602C76.5197 39.3602 76.7297 39.6302 76.8097 39.8302C76.8697 39.9702 77.1297 40.2402 77.3697 40.3902C77.6997 40.5902 77.9597 40.6402 78.0697 40.5902C78.2697 40.5002 78.6197 40.5702 79.0597 40.8102C79.4197 41.0002 79.7897 41.2002 80.1197 41.3402C80.3897 41.4602 80.8197 41.7302 80.9197 41.6902C81.1097 41.6002 81.6097 41.8302 81.6197 41.5502C81.6197 41.4702 81.7697 41.4402 82.0897 41.6702C82.2197 41.7602 82.3197 41.7802 82.2097 41.6402C81.9797 41.3402 82.2097 41.3802 82.2797 41.3502C82.5297 41.2602 82.8797 41.2602 83.0897 41.1302C83.2297 41.0402 83.4697 41.0102 83.4797 40.8302C83.4897 40.6502 83.6397 40.6602 83.8497 40.6902C83.8997 40.6902 83.9497 40.7202 83.9297 40.6702C83.8497 40.4102 84.1597 40.4702 84.2097 40.3102C84.2697 40.1002 84.7197 40.2302 84.7697 39.9902C84.7897 39.9102 84.7197 39.7702 84.8297 39.7502C85.2597 39.6702 85.5497 39.4502 85.6697 39.1002C85.7197 38.9502 85.8997 38.9102 85.9497 38.7402C86.0297 38.4502 86.4897 38.4802 86.4897 38.1002C86.4897 38.0102 86.5397 37.9202 86.6297 37.9002C86.9897 37.8002 87.1697 37.5402 87.3297 37.2602C87.3997 37.1402 87.4297 36.9602 87.5897 36.9302C87.9097 36.8702 88.0697 36.6702 88.3297 36.5502C88.5397 36.4602 88.6697 36.2802 88.8697 36.1802C89.0397 36.0902 89.1497 35.9502 89.2897 35.8302C89.5397 35.6202 89.6997 35.3302 90.0597 35.2302C90.5797 35.0802 90.8097 34.6702 91.2197 34.4202C91.5197 34.2402 91.7097 33.9702 92.0297 33.8102C92.1897 33.7302 92.4997 33.7502 92.4697 33.5402C92.4097 33.2202 92.8797 33.4002 92.9197 33.1602C92.9597 32.9702 93.3497 33.0602 93.5097 32.9402C93.5797 32.8902 93.5597 32.7602 93.6797 32.7502C94.0097 32.7502 94.0497 32.4602 94.3297 32.4102C94.6497 32.3502 94.7497 32.0902 95.0397 32.0002C95.1797 31.9602 95.2997 31.9002 95.3697 31.7902C95.4697 31.6302 95.5997 31.5002 95.9497 31.5802C96.0597 31.6102 96.1397 31.6002 96.1497 31.5302C96.1797 31.2702 96.4297 31.2102 96.7397 31.2202C97.0697 31.2202 97.0097 30.8902 97.3497 30.9102C97.5097 30.9102 97.4197 30.6902 97.5697 30.7002C97.8697 30.7202 98.1997 30.7702 98.0597 30.3902C98.0597 30.3702 98.0897 30.3702 98.1097 30.3802C98.3397 30.4102 98.6097 30.4902 98.4497 30.1602C98.4097 30.0702 98.4997 30.1102 98.5897 30.1602C98.7997 30.2702 98.8697 30.2302 98.9597 30.2002C99.1397 30.1402 99.1997 29.9802 99.3997 29.9402C99.7297 29.8702 99.9297 29.6902 100.16 29.5302C100.52 29.2802 100.83 28.9802 101.21 28.7502C101.35 28.6602 101.49 28.5802 101.64 28.5102C101.78 28.4402 101.9 28.3302 102.09 28.3002C102.36 28.2502 102.56 28.1202 102.67 27.9302C102.72 27.8402 103.01 27.9902 102.98 27.8502C102.92 27.5502 103.27 27.5902 103.21 27.2802C103.16 27.0702 103.56 27.2802 103.63 27.2002C103.78 27.0402 104.05 26.9802 104.05 26.6902C104.05 26.5502 104.17 26.4802 104.35 26.5002C104.77 26.5602 104.47 25.9902 104.83 26.0002C104.83 26.0002 104.82 25.9802 104.83 25.9802C104.98 25.9602 104.8 25.6602 104.93 25.6002C105.03 25.5602 105.19 25.5802 105.26 25.5202C105.48 25.3602 105.67 25.1902 105.87 25.0202C105.9 24.9902 105.93 24.9502 105.87 24.8602C105.7 24.6002 105.79 24.5002 105.57 24.2202C105.45 24.0602 105.57 24.0802 105.74 24.2102C106.12 24.5002 106.11 24.3502 106.2 24.3102C106.25 24.2902 106.2 24.2002 106.29 24.2102C106.64 24.2302 106.85 24.1102 107.01 23.9602C107.07 23.9102 107.08 23.8502 106.95 23.6702C106.83 23.5002 106.76 23.3802 107.05 23.5702C107.13 23.6202 107.2 23.6402 107.18 23.6002C107.08 23.3302 107.41 23.4302 107.5 23.3302C107.72 23.0902 107.75 22.6902 108.08 22.5302C108.35 22.4002 108.6 22.2302 108.77 22.0102C108.88 21.8702 109.01 21.7302 109.1 21.5702C109.2 21.4002 109.26 21.2102 109.18 21.0402C109.17 21.0002 109.19 20.9802 109.33 21.0902C109.58 21.2902 109.55 21.2202 109.6 21.2102C109.71 21.2002 109.73 21.1002 109.76 21.0102C109.79 20.9302 110.12 21.2002 110.03 21.0102C109.93 20.7802 110.26 21.0102 109.95 20.5402C109.94 20.5202 109.95 20.5102 109.97 20.5302C110.24 20.7402 110.25 20.6502 110.29 20.5602C110.39 20.3102 110.73 20.4302 110.87 20.2702C110.95 20.1702 111.23 20.4502 110.94 19.7002C110.93 19.6702 110.96 19.6802 110.98 19.7102C111.2 19.9502 111.28 19.9502 111.32 19.8402C111.39 19.6402 111.51 19.5202 111.64 19.4502C111.76 19.3802 111.95 19.5702 111.91 19.0202C111.91 19.0002 111.91 19.0202 111.93 19.0202C112.17 19.4902 112.13 19.0202 112.18 18.8802C112.22 18.7802 112.25 18.6302 112.31 18.6402C112.42 18.6602 112.49 18.5202 112.59 18.5502C112.69 18.5702 112.77 18.5602 112.69 17.6102C112.68 17.4502 112.69 17.4502 112.73 17.6402C112.85 18.2402 112.87 18.0902 112.88 17.9602C112.92 17.6002 113.07 18.1002 113.1 17.6702C113.11 17.5302 113.12 17.2002 113.18 17.4202C113.25 17.6902 113.26 17.2902 113.33 17.5402C113.36 17.6602 113.36 17.5402 113.36 17.3202C113.36 17.2702 113.36 17.2002 113.36 17.1402C113.36 17.0802 113.36 17.0302 113.36 17.0502C113.45 17.4402 113.49 17.1302 113.57 17.3502C113.67 17.6702 113.68 17.6402 113.75 17.1602C113.75 17.1302 113.77 17.1402 113.77 17.1902C113.8 17.4702 113.81 17.4902 113.82 17.1502C113.83 16.8202 113.87 16.9702 113.9 17.1802C113.91 17.2702 113.92 17.5202 113.93 17.4702C114 17.2502 114.07 17.8402 114.15 17.3202C114.16 17.2502 114.17 17.2502 114.18 17.3402C114.25 18.0202 114.34 18.0002 114.43 17.9902C114.58 17.9802 114.69 18.3902 114.87 18.2502C115.1 18.0702 115.27 18.3902 115.5 18.3902C115.55 18.3902 115.63 18.2602 115.68 18.2502C115.75 18.2502 115.68 18.6202 115.73 18.6502C115.84 18.7202 115.98 18.6602 116.05 18.8702C116.1 19.0102 116.2 18.9902 116.26 19.0802C116.34 19.2002 116.49 19.1702 116.59 19.2402C116.71 19.3302 116.81 19.4602 116.96 19.4802C117.06 19.5002 116.88 20.0402 117.27 19.5002C117.34 19.4002 117.29 19.5302 117.24 19.6302C117.21 19.7002 117.12 19.8402 117.16 19.8202C117.35 19.7302 117.2 20.1902 117.64 19.6902C117.71 19.6102 117.71 19.6502 117.72 19.6702C117.75 19.7402 117.79 19.8002 117.84 19.8402C117.94 19.9202 117.88 20.1502 117.93 20.3002C117.96 20.3502 117.95 20.4602 118.02 20.4702C118.17 20.5002 118.32 20.5602 118.41 20.6502C118.64 20.8802 119.11 20.8102 119.18 21.2302C119.19 21.2902 119.24 21.2802 119.33 21.2302C119.66 21.0602 119.87 21.1002 119.92 21.3102C120 21.6602 120.09 22.0202 120.44 22.0202C120.73 22.0202 120.75 22.3802 121.1 22.2802C121.34 22.2102 121.05 22.8702 121.43 22.6502C121.45 22.6402 121.43 22.6902 121.43 22.7202C121.39 22.9902 121.78 22.7202 121.65 23.1002C121.65 23.1002 121.69 23.0802 121.7 23.0802C121.92 23.0102 122 23.1202 121.99 23.3502C121.99 23.4602 121.96 23.6202 122.03 23.6302C122.28 23.7002 122.34 24.0102 122.52 24.1702C122.66 24.3002 122.77 24.4902 123.04 24.4302C123.22 24.3802 123.11 24.7902 123.46 24.4602C123.46 24.4602 123.45 24.5102 123.45 24.5202C123.49 24.8202 123.59 25.0502 123.83 25.0902C123.95 25.1102 124.04 25.1802 124.15 25.2002C124.26 25.2202 124.01 25.5602 124.13 25.5602C124.38 25.5702 124.4 25.9102 124.61 25.9702C124.77 26.0202 124.81 26.1702 124.58 26.6202C124.65 26.6402 124.79 26.3502 124.86 26.4002C125.05 26.5402 125.23 26.7102 125.64 26.5102C125.68 26.4902 125.71 26.5102 125.7 26.5602C125.64 26.8402 125.85 26.7802 125.78 27.0802C125.75 27.1902 125.83 27.1502 125.89 27.1002C126.06 26.9602 126.07 27.0602 126.08 27.1702C126.09 27.3902 126.07 27.6702 126.22 27.6902C126.4 27.7202 126.62 27.6702 126.6 28.0002C126.6 28.0302 126.64 28.0302 126.67 28.0002C126.97 27.7802 126.95 28.0302 126.97 28.2202C126.97 28.3002 127.05 28.2702 127.08 28.2902C127.21 28.3702 127.43 28.3302 127.53 28.4402C127.66 28.5802 127.68 28.8902 127.84 28.9902C128.02 29.1102 128.08 29.4502 128.48 29.2302C128.63 29.1502 128.48 29.5102 128.62 29.4402C128.96 29.2802 128.89 29.7302 129.08 29.7902C129.17 29.8202 129.32 29.7602 129.33 29.9002C129.36 30.2102 129.5 30.3702 129.71 30.4302C129.81 30.4602 129.86 30.5802 129.96 30.6002C130.15 30.6302 130.1 31.0802 130.53 30.7102C130.59 30.6602 130.62 30.6902 130.6 30.7802C130.38 31.5502 131.05 31.0502 131.01 31.5602C131.3 31.1902 131.22 31.5002 131.22 31.6102C131.22 31.8002 131.46 31.5702 131.47 31.7402C131.5 32.1902 131.83 32.1002 132.33 31.5002C132.3 31.8002 131.9 32.5602 132.39 32.2102C132.44 32.1702 132.4 32.3202 132.38 32.4102C132.31 32.7102 132.53 32.9902 132.75 32.8202C132.93 32.6802 132.96 32.7302 132.87 33.0002C132.81 33.1502 132.82 33.2202 132.92 33.1202C133.16 32.9002 133.18 33.0702 133.23 33.1702C133.31 33.3302 133.26 33.6802 133.44 33.7002C133.51 33.7002 133.64 33.6402 133.62 33.7302C133.53 34.3402 134.12 33.7902 134.21 34.1002C134.28 34.3302 134.52 34.3102 134.69 34.3802C134.9 34.4602 135.02 34.7102 135.16 34.9002C135.23 34.9902 135.41 34.9402 135.35 35.2802C135.29 35.6202 135.6 35.5302 135.9 35.2102C135.59 35.6902 135.72 35.6302 135.83 35.6202C135.89 35.6202 135.95 35.5402 136.02 35.4502C136.47 34.8902 136 36.0402 136.4 35.5802C136.43 35.5502 136.46 35.6002 136.4 35.7002C136.15 36.1302 136.34 36.0202 136.38 36.0902C136.43 36.1802 136.61 36.0902 136.57 36.3202C136.53 36.5602 136.62 36.5902 136.72 36.6102C136.78 36.6202 136.82 36.6902 136.88 36.6902C137.07 36.6902 137.03 37.0702 137.24 37.0102C137.54 36.9302 137.49 37.5102 137.92 37.1702C137.94 37.1602 137.95 37.1902 137.94 37.2202C137.87 37.5402 138 37.5402 138.09 37.6202C138.37 37.8702 138.62 38.1602 138.9 38.4202C138.96 38.4802 138.94 38.7402 139.21 38.3202C139.26 38.2402 139.29 38.2702 139.27 38.3502C139.18 38.7502 139.3 38.8202 139.45 38.8702C139.51 38.8902 139.6 38.8402 139.65 38.9102C139.79 39.1402 140.04 39.1602 140.19 39.3702C140.28 39.4902 140.36 39.6302 140.49 39.6802C140.6 39.7202 140.85 39.5502 140.69 40.0602C140.69 40.0802 140.69 40.1002 140.71 40.0902C140.97 39.8702 140.97 40.1502 141.07 40.2402C141.44 40.5802 141.91 40.7302 142.27 41.1102C142.52 41.3802 142.79 41.6202 143.13 41.7002C143.28 41.7302 143.3 42.1702 143.78 41.4602C143.47 42.0102 143.56 42.1302 143.65 42.1702C143.83 42.2502 144 42.3302 144.15 42.4802C144.24 42.5802 144.43 42.4602 144.5 42.6202C144.55 42.7502 144.5 43.0602 144.64 43.0402C144.89 43.0002 144.95 43.3202 145.08 43.4902C145.13 43.5502 145.18 43.6302 145.27 43.6102C145.4 43.5702 145.67 43.2302 145.44 43.8502C145.44 43.8702 145.46 43.8902 145.47 43.9002L145.81 44.1502C145.81 44.1502 145.86 44.2002 145.91 44.1202C146.16 43.7002 146.14 43.8702 146.07 44.1602C146.04 44.3002 146.08 44.3102 146.11 44.3602C146.29 44.6602 146.64 44.6402 146.75 45.0602C146.77 45.1502 146.84 45.1602 146.9 45.1902C146.94 45.2102 147.03 45.0902 147.01 45.0302C146.97 44.8302 147.09 44.7802 147.15 44.7302C147.26 44.6302 147.28 44.7002 147.19 44.9402C147.15 45.0502 147.06 45.2402 147.16 45.1602C147.28 45.0702 147.26 45.1802 147.22 45.3602C147.18 45.4902 147.24 45.4702 147.27 45.5102C147.35 45.6802 147.6 45.3402 147.72 45.3802C147.81 45.4202 147.81 45.7402 148.08 45.2202C148.09 45.2002 148.13 45.1902 148.14 45.2002C148.29 45.4302 148.56 45.3402 148.84 45.2602C148.93 45.2302 149.01 45.2002 149.15 44.8702C149.35 44.4002 149.45 44.3202 149.48 44.5902C149.5 44.8002 149.68 44.7102 149.78 44.5702C150.11 44.0802 150.37 43.4402 150.64 42.8402C150.67 42.7702 150.66 42.6802 150.67 42.6002C150.7 42.2502 150.82 42.0702 151.02 42.0202C150.97 41.7802 151.09 41.5202 151.26 41.2302C151.45 40.9002 151.56 40.6102 151.41 40.5802C151.35 40.5702 151.33 40.4602 151.36 40.3302C151.44 39.9402 151.35 39.8602 151.26 39.7702C151.17 39.6802 151.07 39.6202 150.96 39.5502C150.86 39.4902 150.74 39.4502 150.75 39.2002C150.79 38.5502 150.54 38.4302 150.38 38.1302C150.35 38.0702 150.21 38.1302 150.08 38.3402C150.02 38.4302 149.97 38.5402 149.95 38.4702C149.94 38.4302 149.98 38.3302 150.02 38.2502C150.17 37.9502 150.14 37.8602 150.12 37.7302C150.08 37.5402 149.9 37.6502 149.85 37.4802C149.77 37.2102 149.71 36.8702 149.24 37.5302C149.2 37.5802 149.18 37.5702 149.19 37.5102C149.2 37.4402 149.24 37.3802 149.28 37.3302C149.51 37.0602 149.5 36.9002 149.47 36.7702C149.45 36.6902 149.43 36.6102 149.38 36.5902C149.26 36.5302 149.23 36.2002 148.85 36.9202C148.79 37.0302 148.68 37.1402 148.58 37.3302C148.53 37.4302 148.38 37.6502 148.44 37.3902C148.49 37.1802 148.55 36.9702 148.51 36.8602C148.49 36.8202 148.53 36.7202 148.63 36.6002C148.72 36.4902 148.88 36.3002 148.94 36.1002C148.99 35.9102 148.92 35.8902 148.81 35.9802C148.8 35.9902 148.8 35.9402 148.8 35.9202C148.75 35.4802 148.48 35.4502 148.33 35.1902C148.3 35.1402 148.25 35.1002 148.18 35.1302C148.04 35.2002 148.01 35.0702 147.96 34.9602C147.86 34.7402 147.79 34.4202 147.27 35.0202C147.57 34.5002 147.55 34.3302 147.44 34.3402L147.36 34.2902ZM146.07 42.0402C146.07 42.0402 146.17 41.9802 146.11 42.1402C146.05 42.3002 146 42.3402 145.94 42.3502C145.86 42.3702 145.81 42.3102 145.74 42.2102C145.89 42.1402 145.98 42.0902 146.06 42.0502L146.07 42.0402Z" fill="white"/>
</mask>
<g mask="url(#mask0_5935_63570)">
<path d="M52 267.817L111.668 53L164 358" stroke="white" stroke-width="28"/>
<path d="M2.5 178L149.5 167.5" stroke="white" stroke-width="28"/>
<path d="M77.5 42L112 4.5L150.5 43.5" stroke="white" stroke-width="28"/>
</g>
</g>
<defs>
<clipPath id="clip0_5935_63570">
<rect width="174.09" height="358.18" fill="white"/>
</clipPath>
</defs>
</svg>
