<svg width="175" height="357" viewBox="0 0 175 357" fill="none" xmlns="http://www.w3.org/2000/svg">
<g clip-path="url(#clip0_5932_63135)">
<mask id="mask0_5932_63135" style="mask-type:alpha" maskUnits="userSpaceOnUse" x="2" y="-1" width="170" height="355">
<path d="M122.461 175.83C120.751 174.81 118.971 172.83 117.351 172.94C106.151 173.72 94.9606 174.79 83.8206 176.15C81.8706 176.39 78.9406 178.1 78.5006 179.69C72.8806 200.3 67.5406 220.98 62.3506 241.7C61.0606 246.87 60.8906 252.32 59.6106 257.49C58.4506 262.16 53.1806 264.39 49.3406 261.73C48.0706 260.85 47.7406 257.4 48.2206 255.42C51.4506 242 55.0106 228.66 58.4506 215.29C61.6006 203.05 64.7406 190.8 67.9506 178.3C61.9006 178.3 56.2906 177.91 50.7606 178.38C37.8706 179.46 25.0106 180.92 12.1406 182.27C5.54063 182.96 4.59063 182 2.39062 171.65C4.56063 170.96 6.80062 170.26 9.63062 169.36C7.46062 169.09 5.86062 168.89 3.33062 168.58H31.1306C27.2906 169.24 23.6606 169.86 19.7306 170.54C31.9906 173.31 52.2006 171.11 69.6406 165.1C65.8006 164.27 62.4206 163.54 58.9506 162.79C59.3106 162.64 59.5806 162.43 59.8506 162.43C71.6706 162.6 71.3406 162.51 74.5906 151.66C82.2806 125.99 90.2706 100.4 98.2606 74.8102C100.041 69.1002 102.331 63.5402 104.451 57.9402C105.681 54.6902 107.051 51.4902 108.391 48.1602C111.201 49.5802 115.011 51.1002 118.331 53.3402C120.381 54.7202 122.811 57.0402 123.131 59.2202C126.701 83.7402 129.891 108.31 133.151 132.88C133.231 133.51 132.861 134.2 131.791 134.92C130.971 130.25 130.151 125.58 129.331 120.9C129.021 120.9 128.721 120.92 128.411 120.93C128.791 125.56 129.041 130.21 129.591 134.83C130.481 142.34 131.691 149.81 132.541 157.33C132.971 161.13 135.621 162.79 138.631 163.49C141.011 164.04 143.691 163.35 146.231 163.2C146.471 162.64 146.711 162.08 146.951 161.52C147.961 163.88 148.961 166.24 149.901 168.44C148.941 169.15 148.681 169.45 148.351 169.57C143.961 171.21 136.471 168.06 136.011 175.58C135.721 180.27 138.611 185.11 139.791 189.95C141.121 195.43 143.861 201.4 142.681 206.38C141.861 209.82 143.691 211.17 144.141 213.31C148.321 233.23 153.061 253.04 157.191 272.97C162.001 296.21 166.381 319.53 170.891 342.83C172.101 349.06 170.111 351.89 162.901 353.39C155.691 331.88 148.211 310.33 141.301 288.6C138.331 279.28 136.231 269.65 134.331 260.05C133.411 255.4 134.351 250.4 133.591 245.69C131.631 233.67 129.171 221.73 126.941 209.75C125.261 200.71 123.621 191.66 121.961 182.61C123.451 187.43 125.211 192.19 126.381 197.09C129.201 208.96 129.121 221.64 137.071 232.84C134.071 212.29 131.181 192.46 128.121 171.56C125.511 173.51 121.231 170.33 122.521 175.82L122.461 175.83ZM126.751 164.1C121.601 129.46 116.611 95.9202 111.621 62.3802C111.391 62.3802 111.161 62.3802 110.931 62.3802C113.781 93.0402 116.631 123.69 119.481 154.35L117.751 154.54C114.541 127.14 111.321 99.7402 108.131 72.5602C95.6106 101.12 88.3006 131.18 82.5606 162.29C95.7506 164.55 108.151 165.16 121.631 162.35C122.141 162.53 124.131 163.2 126.741 164.1H126.751ZM58.3306 227.75L57.0006 227.68C54.8506 235.99 52.6906 244.3 50.5406 252.62C50.9706 252.72 51.3906 252.83 51.8206 252.93C53.9906 244.54 56.1606 236.15 58.3306 227.76V227.75Z" fill="white"/>
<path d="M140.361 30.0398C140.121 30.1498 140.031 29.7998 139.871 29.6798C139.771 29.6098 139.661 29.5498 139.571 29.4298C139.481 29.3098 139.401 29.0698 139.111 29.6598C139.081 29.7198 139.061 29.7298 139.061 29.6798C139.061 29.6298 139.071 29.5698 139.101 29.4998C139.281 29.1298 139.171 29.1698 139.151 29.1498C139.021 29.0298 138.901 28.9098 138.751 28.8498C138.481 28.7498 138.271 28.4498 138.051 28.2098C137.961 28.1098 137.851 28.0298 137.751 27.9698C137.611 27.8898 137.461 27.8798 137.331 27.7698C137.181 27.6398 137.081 27.3498 136.911 27.2898C136.681 27.2098 136.451 27.1398 136.271 26.9098C136.151 26.7498 135.941 26.8498 135.861 26.5598C135.801 26.3398 135.631 26.4498 135.531 26.3198C135.401 26.1498 135.261 26.0098 135.101 25.9398C134.901 25.8598 134.801 25.4898 134.521 25.6598C134.431 25.7198 134.501 25.3398 134.431 25.3098C134.301 25.2398 134.181 25.1398 134.051 25.0498C134.031 25.0298 134.011 24.9798 133.971 25.0898C133.811 25.5198 133.861 25.2698 133.871 25.1198C133.891 24.6198 133.741 24.7198 133.531 25.3298C133.491 25.3298 133.501 25.1698 133.531 25.0798C133.761 24.5598 133.611 24.5898 133.591 24.5898C133.501 24.6198 133.471 24.5198 133.411 24.4698C133.151 24.2198 132.881 23.9998 132.611 23.7798C132.571 23.7498 132.491 23.8098 132.471 23.7298C132.351 23.3398 132.101 23.3798 131.921 23.1698C131.761 22.9798 131.591 22.8498 131.391 22.7998C131.171 22.7498 131.081 22.3098 130.761 22.5998C130.721 22.6398 130.701 22.6098 130.701 22.5398C130.681 22.0898 130.511 22.0698 130.341 22.0598C130.161 22.0398 130.071 21.7698 129.891 21.7698C129.721 21.7698 129.671 21.3498 129.381 21.7298C129.361 21.7498 129.341 21.7498 129.341 21.7298C129.421 21.3098 129.251 21.5398 129.221 21.4198C129.131 21.0298 128.771 21.4398 128.671 21.0698C128.621 20.8698 128.381 21.2598 128.341 21.0198C128.311 20.8198 128.221 20.7798 128.111 20.8098C127.921 20.8698 127.801 20.6898 127.631 20.6598C127.501 20.6298 127.421 20.4398 127.281 20.4198C127.191 20.4198 127.111 20.3098 127.001 20.3898C126.891 20.4598 126.881 20.3898 126.861 20.2298C126.861 20.1498 126.801 20.1698 126.751 20.1798C126.571 20.2498 126.481 20.0198 126.331 19.9998C126.201 19.9698 126.101 19.8198 125.981 19.7198C125.801 19.5698 125.581 19.5098 125.351 19.4898C125.141 19.4798 125.061 19.0498 124.761 19.3398C124.721 19.3798 124.691 19.3598 124.741 19.1598C124.781 18.9998 124.741 18.9998 124.721 19.0398C124.521 19.3098 124.521 18.9698 124.421 18.9198C124.191 18.8198 124.051 18.4798 123.801 18.4498C123.611 18.4298 123.551 17.9498 123.231 18.3498C123.211 18.3798 123.191 18.3298 123.201 18.2698C123.221 18.0098 123.141 18.0198 123.081 17.9798C122.851 17.8398 122.601 17.7398 122.391 17.5398C122.341 17.4998 122.231 17.6398 122.211 17.5298C122.161 17.1198 121.941 17.2098 121.751 17.2298C121.691 17.2298 121.651 17.2098 121.641 17.0898C121.641 16.9498 121.601 16.9098 121.551 16.8998C121.231 16.7998 120.981 16.4798 120.641 16.4498C120.581 16.4498 120.541 16.3898 120.511 16.2898C120.471 16.1398 120.371 16.1398 120.261 16.1798C120.241 16.1898 120.221 16.1898 120.221 16.1598C120.171 15.9098 120.031 15.9098 119.891 15.9298C119.651 15.9598 119.501 15.7298 119.301 15.6398C119.191 15.5898 119.111 15.3998 118.971 15.4398C118.691 15.5198 118.521 15.3098 118.311 15.1998C118.051 15.0598 117.791 14.8998 117.511 14.8298C117.391 14.7998 117.211 14.8898 117.151 14.7198C117.051 14.3998 116.791 14.5998 116.641 14.4398C116.401 14.1898 116.131 14.0398 115.741 14.2698C115.731 14.2698 115.721 14.2398 115.731 14.2098C115.771 13.9498 115.681 14.0398 115.641 13.9898C115.561 13.9098 115.421 14.0598 115.351 13.9898C115.191 13.7898 114.911 13.9298 114.751 13.7298C114.601 13.5498 114.361 13.6198 114.181 13.5098C114.001 13.3898 113.771 13.4098 113.581 13.3298C113.491 13.2898 113.321 13.4298 113.251 13.3298C113.081 13.0998 112.821 13.1398 112.571 13.1298C112.491 13.1298 112.281 13.5298 112.381 13.0098H112.371C112.231 13.0098 112.131 12.8498 111.991 12.8398C111.851 12.8398 111.691 12.8998 111.581 12.8098C111.421 12.6798 111.211 12.7398 111.051 12.5998C111.001 12.5598 110.891 12.7598 110.851 12.6598C110.801 12.5198 110.791 12.2298 110.571 12.5998C110.551 12.6398 110.511 12.6698 110.511 12.6498C110.531 12.2998 110.361 12.4598 110.301 12.3298C110.201 12.1298 110.021 12.1698 109.861 12.1998C109.751 12.2198 109.641 12.1998 109.601 12.0998C109.521 11.9398 109.411 11.9198 109.311 11.8598C109.251 11.8298 109.201 11.7798 109.141 11.7998C108.931 11.8598 108.891 11.4298 108.651 11.5798C108.511 11.6698 108.411 11.5798 108.321 11.5198C108.131 11.3798 107.931 11.2498 107.691 11.2498C107.631 11.2498 107.571 11.2298 107.531 11.1698C107.371 10.9198 107.131 10.9498 106.941 10.7998C106.751 10.6498 106.471 10.7698 106.301 10.5298C106.221 10.4098 106.031 10.6398 105.961 10.5298C105.851 10.3698 105.721 10.2598 105.581 10.1698C105.531 10.1298 105.401 10.3498 105.391 10.1998C105.391 9.84983 105.171 10.0598 105.121 9.80983C105.111 9.71983 105.031 9.79983 104.951 9.90983C104.821 10.0898 104.681 10.2798 104.751 9.81983C104.771 9.70983 104.751 9.66983 104.711 9.65983C104.521 9.57983 104.331 9.51983 104.161 9.38983C104.081 9.32983 103.961 9.40983 103.901 9.32983C103.781 9.16983 103.611 9.17983 103.471 9.08983C103.291 8.96983 103.101 8.85983 102.901 8.78983C102.621 8.68983 102.321 8.62983 102.021 8.56983C101.861 8.52983 101.731 8.39983 101.591 8.30983C101.501 8.24983 101.341 8.35983 101.301 8.16983C101.251 7.96983 101.081 8.16983 101.021 7.99983C100.931 7.71983 100.611 8.11983 100.501 7.84983C100.431 7.66983 100.301 7.60983 100.151 7.61983C99.8606 7.63983 99.6706 7.35983 99.4106 7.29983C99.2506 7.25983 99.1506 7.05983 98.9806 7.03983C98.8406 7.01983 98.6606 7.12983 98.5906 6.92983C98.4806 6.60983 98.2106 6.74983 98.0706 6.49983C97.9306 6.25983 97.6406 6.42983 97.5306 6.10983C97.4906 5.99983 97.3306 6.33983 97.3006 6.22983C97.2106 5.80983 96.9706 5.80983 96.7906 5.63983C96.7606 5.60983 96.7206 5.57983 96.6406 5.69983C96.4906 5.90983 96.4106 5.92983 96.4706 5.56983C96.5006 5.35983 96.4506 5.34983 96.3806 5.38983C96.3306 5.41983 96.2806 5.45983 96.2706 5.38983C96.2406 5.00983 96.0206 5.13983 95.9306 4.92983C95.8706 4.78983 95.7006 4.97983 95.6506 4.81983C95.6106 4.69983 95.5606 4.62983 95.4406 4.73983C95.3206 4.83983 95.2306 4.83983 95.2406 4.55983C95.2406 4.24983 95.1306 4.25983 94.9706 4.40983C94.9306 4.44983 94.8806 4.50983 94.9106 4.35983C94.9806 3.98983 94.8906 4.02983 94.7606 4.19983C94.7006 4.27983 94.6606 4.31983 94.6806 4.18983C94.7106 3.95983 94.6406 3.99983 94.6206 3.90983C94.5706 3.71983 94.3906 3.92983 94.3306 3.76983C94.1806 3.36983 93.8706 3.36983 93.6806 3.06983C93.5206 2.82983 93.2706 2.83983 93.1306 2.57983C92.9906 2.31983 92.7206 2.42983 92.5606 2.21983C92.4106 2.03983 92.2406 1.89983 92.0806 1.73983C91.9806 1.63983 91.8806 1.53983 91.7406 1.55983C91.5806 1.58983 91.3706 1.73983 91.3106 1.49983C91.2406 1.24983 90.9406 1.63983 90.9306 1.21983C90.9306 1.19983 90.9006 1.24983 90.8806 1.25983C90.8106 1.31983 90.7806 1.24983 90.7406 1.22983C90.5806 1.16983 90.5206 0.779832 90.1406 1.37983C90.1206 1.40983 90.0906 1.39983 90.1006 1.36983C90.1806 0.949832 90.0506 1.02983 89.9806 0.999832C89.7606 0.909832 89.5206 0.919832 89.3006 0.839832C89.0706 0.759832 88.7906 0.819832 88.5806 0.699832C88.4606 0.629832 88.2706 0.729832 88.1706 0.629832C87.9106 0.369832 87.4706 0.629832 87.1506 0.539832C87.0506 0.509832 86.9706 0.409832 86.8106 0.539832C86.7206 0.609832 86.7006 0.379832 86.6106 0.369832C86.3706 0.349832 86.1206 0.339832 85.8806 0.279832C85.4006 0.159832 84.8606 0.259832 84.3706 0.189832C84.2606 0.169832 84.1406 0.189832 84.0406 0.129832C83.8506 0.0298319 83.5806 0.179832 83.3906 0.0898319C83.2106 -0.000168055 82.9806 0.0598319 82.8006 -0.000168056C82.6606 -0.0401681 82.4606 0.0898319 82.3006 0.0898319C82.0906 0.0898319 81.9206 -0.0101681 81.6906 0.0298319C81.5706 0.0498319 81.4906 -0.050168 81.2606 0.299832C81.1106 0.529832 80.9406 0.729832 80.7806 0.889832C80.6506 1.02983 80.4806 1.32983 80.3506 1.48983C80.2606 1.59983 80.1006 1.93983 80.0406 2.21983C79.9606 2.59983 79.9606 2.83983 80.0206 2.91983C80.1206 3.05983 80.1406 3.38983 80.0506 3.87983C79.9806 4.26983 79.9006 4.67983 79.8606 5.02983C79.8206 5.31983 79.7006 5.80983 79.7606 5.87983C79.8606 6.00983 79.7906 6.53983 80.0006 6.42983C80.0606 6.39983 80.1106 6.51983 80.0006 6.88983C79.9606 7.03983 79.9606 7.12983 80.0406 6.97983C80.2206 6.64983 80.2406 6.86983 80.2706 6.91983C80.3906 7.09983 80.4606 7.39983 80.6006 7.52983C80.7006 7.61983 80.7606 7.81983 80.9006 7.74983C81.0406 7.67983 81.0606 7.81983 81.0806 8.00983C81.0806 8.04983 81.0806 8.10983 81.1106 8.06983C81.2906 7.88983 81.3106 8.17983 81.4406 8.15983C81.6106 8.12983 81.6006 8.56983 81.7906 8.50983C81.8506 8.48983 81.9506 8.36983 81.9806 8.45983C82.1306 8.79983 82.3506 8.95983 82.6406 8.91983C82.7706 8.89983 82.8306 9.03983 82.9706 9.00983C83.2106 8.94983 83.2806 9.36983 83.5606 9.20983C83.6306 9.16983 83.7006 9.16983 83.7406 9.24983C83.8906 9.52983 84.1206 9.56983 84.3606 9.58983C84.4706 9.58983 84.6006 9.54983 84.6606 9.66983C84.7706 9.91983 84.9606 9.97983 85.0906 10.1598C85.2006 10.3098 85.3606 10.3498 85.4806 10.4798C85.5806 10.5898 85.7106 10.6298 85.8306 10.6998C86.0406 10.8298 86.2906 10.8498 86.4406 11.1198C86.6606 11.5098 87.0106 11.5298 87.2806 11.7798C87.4806 11.9598 87.7206 12.0198 87.9006 12.2198C87.9906 12.3198 88.0406 12.6098 88.2006 12.4798C88.4306 12.2898 88.3906 12.7798 88.5806 12.7098C88.7306 12.6598 88.7506 13.0498 88.8706 13.1298C88.9206 13.1698 89.0206 13.0898 89.0406 13.1998C89.1106 13.4898 89.3306 13.3998 89.4306 13.6198C89.5406 13.8798 89.7606 13.8498 89.8906 14.0598C89.9506 14.1598 90.0206 14.2398 90.1106 14.2598C90.2506 14.2798 90.3806 14.3298 90.3906 14.6798C90.3906 14.7898 90.4206 14.8598 90.4706 14.8298C90.6706 14.7398 90.7606 14.9298 90.8306 15.2098C90.8906 15.4998 91.1306 15.3098 91.1906 15.5998C91.2206 15.7498 91.3706 15.5598 91.3906 15.6998C91.4406 15.9698 91.4706 16.2898 91.7306 15.9898C91.7406 15.9698 91.7506 16.0098 91.7506 16.0298C91.7806 16.2398 91.7806 16.5198 91.9906 16.2298C92.0506 16.1498 92.0406 16.2498 92.0306 16.3498C92.0006 16.5798 92.0306 16.6198 92.0806 16.6898C92.1606 16.8298 92.3006 16.7998 92.3706 16.9598C92.4906 17.2198 92.6706 17.3198 92.8406 17.4498C93.1106 17.6498 93.3906 17.7998 93.6506 18.0298C93.7406 18.1098 93.8406 18.1998 93.9206 18.2898C94.0006 18.3798 94.1106 18.4298 94.1806 18.5898C94.2706 18.8098 94.4106 18.9198 94.5806 18.9398C94.6606 18.9398 94.6106 19.2698 94.7106 19.1798C94.9206 18.9898 94.9706 19.3198 95.1806 19.1298C95.3306 18.9998 95.2506 19.4298 95.3306 19.4698C95.4806 19.5298 95.5906 19.7398 95.8006 19.6098C95.9006 19.5498 95.9806 19.6298 96.0106 19.7898C96.0606 20.1898 96.4206 19.6798 96.4906 19.9898L96.5106 19.9698C96.5606 20.0898 96.7406 19.7998 96.8106 19.8898C96.8606 19.9598 96.8806 20.0998 96.9406 20.1498C97.1006 20.2698 97.2806 20.3598 97.4506 20.4698C97.4806 20.4898 97.5106 20.4898 97.5706 20.3898C97.7206 20.1298 97.8206 20.1598 97.9806 19.8498C98.0706 19.6798 98.0906 19.7998 98.0306 19.9898C97.9006 20.4498 98.0106 20.3698 98.0606 20.4398C98.0806 20.4798 98.1406 20.3998 98.1606 20.4798C98.2206 20.7998 98.3606 20.9198 98.5106 20.9998C98.5606 21.0298 98.6106 20.9998 98.7106 20.8198C98.8106 20.6398 98.8806 20.5298 98.8106 20.8598C98.7906 20.9498 98.7906 21.0198 98.8106 20.9898C98.9906 20.7898 98.9806 21.1098 99.0806 21.1498C99.3106 21.2398 99.6106 21.0798 99.8006 21.2998C99.9606 21.4798 100.141 21.6198 100.341 21.6698C100.601 21.7398 100.861 21.8598 101.221 21.6198C101.261 21.5898 101.301 21.6198 101.251 21.7798C101.171 22.0898 101.251 22.0398 101.281 22.0898C101.371 22.1998 101.501 22.1898 101.621 22.1898C101.731 22.1898 101.671 22.6298 101.831 22.4798C102.011 22.2998 102.021 22.7298 102.281 22.2298C102.291 22.2098 102.311 22.2198 102.311 22.2498C102.301 22.6098 102.421 22.5898 102.541 22.5998C102.871 22.6198 103.071 23.0398 103.381 23.1398C103.551 23.1998 103.611 23.6298 103.991 22.9998C104.011 22.9698 104.021 23.0098 104.021 23.0498C104.031 23.3898 104.141 23.4898 104.271 23.4898C104.531 23.4898 104.761 23.5898 104.981 23.7098C105.181 23.8198 105.311 24.1498 105.651 23.8398C105.651 23.8398 105.671 23.8398 105.671 23.8598C105.671 24.3798 105.941 24.1098 106.111 24.1098C106.231 24.1098 106.371 24.0798 106.451 24.1598C106.601 24.2998 106.781 24.3298 106.931 24.4698C107.071 24.6098 107.221 24.7098 107.571 24.1098C107.631 24.0098 107.651 24.0298 107.621 24.1798C107.511 24.6398 107.621 24.5998 107.701 24.5498C107.931 24.4098 107.951 24.8798 108.201 24.6898C108.281 24.6298 108.421 24.4498 108.431 24.6598C108.441 24.9098 108.621 24.6998 108.641 24.9298C108.641 25.0198 108.711 24.9298 108.781 24.7798C108.821 24.6998 108.891 24.5698 108.891 24.5898C108.931 24.8498 109.141 24.6398 109.221 24.7898C109.331 25.0098 109.381 24.9898 109.651 24.6398C109.671 24.6098 109.691 24.6198 109.691 24.6598C109.671 24.8598 109.691 24.8698 109.801 24.6298C109.911 24.3898 109.941 24.4898 109.941 24.6398C109.941 24.6998 109.891 24.8798 109.931 24.8498C110.121 24.6798 110.131 25.1098 110.381 24.7198C110.411 24.6698 110.431 24.6698 110.431 24.7298C110.431 25.2298 110.631 25.2098 110.801 25.1898C111.081 25.1598 111.251 25.4798 111.571 25.3398C111.971 25.1698 112.261 25.3898 112.621 25.3598C112.701 25.3598 112.811 25.2198 112.891 25.2098C112.991 25.1898 112.931 25.5198 113.011 25.5298C113.181 25.5698 113.391 25.4898 113.531 25.6598C113.621 25.7798 113.771 25.7298 113.881 25.7998C114.031 25.8898 114.221 25.8298 114.381 25.8698C114.571 25.9198 114.751 26.0198 114.961 25.9998C115.091 25.9898 115.061 26.5398 115.371 25.9398C115.421 25.8298 115.411 25.9598 115.391 26.0598C115.371 26.1298 115.321 26.2798 115.361 26.2598C115.551 26.1198 115.581 26.6098 115.901 26.0098C115.951 25.9198 115.961 25.9498 115.981 25.9698C116.051 26.0298 116.121 26.0698 116.201 26.0998C116.341 26.1398 116.401 26.3898 116.511 26.5198C116.541 26.5598 116.551 26.6498 116.601 26.6398C116.711 26.6098 116.831 26.5898 116.921 26.6398C117.131 26.7498 117.461 26.4898 117.591 26.8398C117.611 26.8798 117.641 26.8598 117.701 26.7798C117.911 26.4898 118.071 26.4498 118.141 26.6198C118.261 26.8998 118.391 27.1898 118.641 27.0498C118.851 26.9298 118.931 27.2498 119.171 27.0198C119.341 26.8598 119.231 27.5698 119.471 27.2198C119.481 27.1998 119.481 27.2498 119.491 27.2798C119.511 27.5398 119.751 27.1298 119.721 27.5298C119.721 27.5298 119.741 27.4998 119.751 27.4898C119.901 27.3398 119.981 27.4098 120.011 27.6198C120.031 27.7198 120.031 27.8698 120.091 27.8598C120.281 27.8298 120.381 28.0798 120.531 28.1598C120.651 28.2298 120.771 28.3498 120.951 28.1898C121.081 28.0798 121.061 28.4898 121.261 28.0598C121.261 28.0598 121.261 28.1098 121.261 28.1198C121.341 28.3798 121.441 28.5398 121.631 28.4898C121.721 28.4698 121.801 28.4898 121.881 28.4598C121.971 28.4398 121.831 28.8398 121.921 28.7998C122.101 28.7198 122.171 29.0198 122.331 28.9998C122.461 28.9798 122.511 29.1098 122.401 29.5998C122.451 29.5998 122.511 29.2798 122.581 29.2998C122.741 29.3598 122.901 29.4398 123.171 29.1098C123.201 29.0798 123.221 29.0898 123.221 29.1298C123.221 29.3998 123.361 29.2698 123.351 29.5698C123.351 29.6798 123.391 29.6198 123.441 29.5498C123.551 29.3598 123.571 29.4498 123.591 29.5498C123.631 29.7398 123.651 29.9998 123.771 29.9698C123.911 29.9298 124.061 29.8198 124.091 30.1198C124.091 30.1498 124.121 30.1398 124.141 30.0998C124.331 29.7898 124.351 30.0298 124.391 30.1998C124.411 30.2698 124.451 30.2198 124.481 30.2198C124.591 30.2498 124.741 30.1298 124.831 30.1998C124.941 30.2898 125.001 30.5598 125.131 30.5998C125.281 30.6498 125.371 30.9298 125.631 30.5998C125.731 30.4698 125.671 30.8498 125.761 30.7498C125.991 30.4798 125.991 30.9298 126.141 30.9198C126.211 30.9198 126.311 30.8098 126.341 30.9398C126.401 31.2098 126.521 31.3198 126.681 31.2998C126.761 31.2998 126.811 31.3898 126.881 31.3698C127.031 31.3298 127.041 31.7598 127.311 31.2798C127.351 31.2098 127.371 31.2298 127.371 31.3198C127.291 32.0998 127.731 31.4198 127.761 31.8998C127.931 31.4698 127.911 31.7798 127.921 31.8698C127.941 32.0398 128.101 31.7598 128.121 31.9098C128.191 32.3198 128.421 32.1298 128.731 31.4198C128.731 31.7098 128.521 32.5398 128.851 32.0598C128.881 32.0098 128.871 32.1598 128.861 32.2498C128.841 32.5498 129.031 32.7398 129.171 32.5098C129.291 32.3198 129.321 32.3598 129.271 32.6398C129.241 32.7998 129.251 32.8598 129.321 32.7298C129.471 32.4498 129.501 32.5998 129.551 32.6798C129.621 32.8098 129.621 33.1498 129.751 33.0998C129.801 33.0798 129.891 32.9798 129.891 33.0698C129.881 33.6698 130.261 32.9798 130.361 33.2398C130.431 33.4298 130.611 33.3398 130.741 33.3598C130.901 33.3798 131.011 33.5698 131.131 33.6998C131.191 33.7698 131.321 33.6598 131.301 33.9998C131.281 34.3298 131.501 34.1598 131.701 33.7698C131.511 34.3098 131.601 34.2198 131.681 34.1698C131.721 34.1498 131.761 34.0698 131.811 33.9598C132.101 33.3098 131.841 34.5098 132.101 33.9598C132.121 33.9198 132.151 33.9598 132.111 34.0698C131.961 34.5498 132.091 34.3898 132.121 34.4498C132.171 34.5198 132.291 34.3898 132.281 34.6098C132.271 34.8498 132.331 34.8498 132.411 34.8398C132.461 34.8398 132.491 34.8898 132.531 34.8698C132.671 34.8198 132.661 35.1898 132.821 35.0698C133.031 34.9098 133.041 35.4698 133.331 35.0298C133.341 35.0098 133.351 35.0298 133.351 35.0698C133.321 35.3898 133.421 35.3598 133.491 35.4098C133.711 35.5698 133.921 35.7698 134.131 35.9398C134.181 35.9798 134.181 36.2398 134.351 35.7698C134.381 35.6798 134.411 35.6998 134.401 35.7798C134.361 36.1798 134.451 36.2198 134.561 36.2198C134.611 36.2198 134.671 36.1498 134.711 36.2098C134.821 36.3898 135.011 36.3498 135.131 36.4998C135.201 36.5898 135.271 36.6998 135.361 36.7198C135.441 36.7298 135.621 36.5098 135.521 37.0298C135.521 37.0498 135.521 37.0698 135.541 37.0498C135.721 36.7798 135.731 37.0298 135.811 37.0998C136.101 37.3298 136.451 37.3598 136.721 37.6298C136.911 37.8198 137.121 37.9898 137.371 37.9698C137.481 37.9698 137.511 38.3698 137.841 37.5898C137.631 38.1898 137.701 38.2798 137.761 38.2898C137.891 38.3198 138.021 38.3598 138.131 38.4698C138.201 38.5398 138.341 38.3898 138.391 38.5298C138.431 38.6398 138.391 38.9498 138.501 38.8998C138.681 38.8098 138.731 39.0998 138.831 39.2298C138.871 39.2798 138.911 39.3398 138.971 39.2998C139.061 39.2298 139.261 38.8498 139.101 39.4898C139.101 39.5098 139.111 39.5198 139.121 39.5298L139.371 39.6898C139.371 39.6898 139.411 39.7298 139.441 39.6398C139.611 39.1898 139.611 39.3498 139.561 39.6398C139.541 39.7798 139.561 39.7798 139.591 39.8198C139.731 40.0598 139.981 39.9698 140.071 40.3498C140.091 40.4298 140.141 40.4198 140.181 40.4398C140.211 40.4498 140.271 40.3198 140.261 40.2598C140.231 40.0798 140.321 40.0098 140.361 39.9398C140.441 39.8298 140.461 39.8798 140.391 40.1398C140.361 40.2598 140.301 40.4498 140.371 40.3598C140.461 40.2498 140.451 40.3598 140.411 40.5398C140.391 40.6698 140.431 40.6398 140.441 40.6798C140.501 40.8298 140.681 40.4498 140.761 40.4698C140.831 40.4898 140.821 40.7998 141.021 40.2398C141.021 40.2198 141.061 40.1998 141.061 40.2098C141.171 40.3998 141.371 40.2598 141.571 40.1198C141.641 40.0698 141.701 40.0198 141.791 39.6898C141.931 39.1998 142.011 39.0998 142.031 39.3498C142.051 39.5498 142.181 39.4298 142.251 39.2698C142.491 38.7398 142.681 38.0698 142.881 37.4398C142.901 37.3698 142.901 37.2798 142.901 37.2098C142.921 36.8598 143.011 36.6698 143.161 36.5798C143.121 36.3598 143.211 36.0898 143.331 35.7798C143.471 35.4198 143.551 35.1298 143.431 35.1298C143.391 35.1298 143.371 35.0298 143.391 34.8998C143.451 34.5098 143.381 34.4498 143.311 34.3898C143.241 34.3198 143.161 34.2798 143.081 34.2398C143.011 34.1998 142.911 34.1798 142.921 33.9498C142.941 33.3198 142.751 33.2498 142.621 32.9998C142.591 32.9498 142.501 33.0298 142.401 33.2598C142.361 33.3598 142.321 33.4698 142.311 33.4098C142.301 33.3698 142.331 33.2798 142.361 33.1798C142.471 32.8598 142.441 32.7798 142.421 32.6598C142.381 32.4898 142.251 32.6298 142.211 32.4698C142.151 32.2298 142.091 31.9198 141.751 32.6498C141.721 32.7098 141.701 32.6998 141.711 32.6398C141.711 32.5698 141.741 32.4998 141.771 32.4498C141.941 32.1398 141.931 31.9898 141.901 31.8698C141.881 31.7998 141.861 31.7298 141.831 31.7198C141.741 31.6898 141.701 31.3798 141.441 32.1498C141.401 32.2698 141.321 32.3998 141.251 32.5998C141.211 32.7098 141.111 32.9398 141.151 32.6798C141.181 32.4698 141.221 32.2598 141.181 32.1598C141.171 32.1198 141.191 32.0198 141.271 31.8898C141.331 31.7698 141.451 31.5498 141.491 31.3498C141.521 31.1598 141.471 31.1498 141.381 31.2598C141.371 31.2698 141.371 31.2298 141.371 31.1998C141.311 30.7898 141.111 30.8198 140.981 30.5998C140.951 30.5498 140.921 30.5298 140.861 30.5798C140.751 30.6798 140.731 30.5598 140.681 30.4598C140.591 30.2698 140.521 29.9798 140.161 30.6598C140.371 30.0998 140.341 29.9298 140.261 29.9798L140.361 30.0398ZM139.651 37.7198C139.651 37.7198 139.721 37.6398 139.681 37.7998C139.641 37.9698 139.601 38.0098 139.561 38.0298C139.501 38.0698 139.471 38.0298 139.411 37.9398C139.521 37.8398 139.581 37.7698 139.641 37.7198H139.651Z" fill="white"/>
</mask>
<g mask="url(#mask0_5932_63135)">
<path d="M53 262L111.5 51.5L162 356.5" stroke="white" stroke-width="25"/>
<path d="M1 178L151 166" stroke="white" stroke-width="25"/>
<path d="M80 1L144 38" stroke="white" stroke-width="25"/>
</g>
</g>
<defs>
<clipPath id="clip0_5932_63135">
<rect width="174.09" height="356.14" fill="white"/>
</clipPath>
</defs>
</svg>
