<svg width="291" height="288" viewBox="0 0 291 288" fill="none" xmlns="http://www.w3.org/2000/svg">
<mask id="mask0_3771_46421" style="mask-type:alpha" maskUnits="userSpaceOnUse" x="0" y="0" width="291" height="288">
<path d="M140.112 150.991C139.721 149.661 139.568 148.921 139.498 148.929C129.244 150.081 118.994 151.286 108.746 152.489C108.882 153.413 109.018 154.338 109.154 155.262C119.426 153.845 129.697 152.429 140.112 150.991ZM182.925 272.677C183.205 273.191 183.485 273.706 183.765 274.221C199.361 268.57 214.956 262.919 230.552 257.269C230.313 256.619 230.074 255.97 229.836 255.321C214.2 261.106 198.562 266.891 182.925 272.677ZM169.752 156.513C169.434 157.635 169.118 158.757 168.801 159.879C183.621 162.877 198.442 165.875 213.262 168.873L213.734 166.874C199.073 163.421 184.412 159.966 169.752 156.513ZM275.876 70.3434C264.178 78.8221 252.5 88.0888 240.012 96.1075C228.317 103.617 215.578 109.495 203.674 116.706C198.125 120.067 193.464 124.878 188.4 129.031C189.217 130.065 190.036 131.098 190.853 132.131C223.468 117.286 254.438 100.142 275.876 70.3434ZM250.214 83.3661C260.696 81.9061 264.184 72.6208 269.884 65.8088C265.789 69.4994 261.696 73.1901 257.601 76.8808C259.376 73.6808 260.842 70.2581 262.99 67.3301C267.116 61.7061 271.869 56.5328 275.904 50.8514C279.286 46.0888 278.417 41.9501 272.79 39.1274C263.058 34.2434 253.417 29.1808 245.102 24.8968C244.404 24.8968 245.634 24.9701 246.852 24.8728C247.817 24.7968 248.765 24.5101 249.721 24.3168C227.16 18.6901 204.546 16.6888 181.69 20.0928C178.849 20.5154 176.217 22.4808 173.544 23.8421C170.312 25.4861 167.325 27.9568 163.91 28.8354C148.952 32.6888 133.908 36.2408 118.821 39.5714C114.485 40.5288 113.181 42.6874 112.902 46.8328C111.85 62.4554 109.933 78.0381 109.364 93.6714C108.732 111.023 109.218 128.415 109.218 144.51C122.726 145.101 136.294 145.823 149.872 146.103C151.349 146.134 153.321 143.866 154.273 142.213C155.406 140.245 154.976 136.869 156.473 135.723C160.525 132.623 165.241 130.381 170.074 127.577C168.874 130.766 167.949 133.222 167.025 135.679C167.94 136.339 168.853 137.002 169.768 137.663C173.676 133.85 177.058 129.203 181.589 126.377C197.549 116.418 214.004 107.247 230.061 97.4368C237.041 93.1728 243.512 88.0821 250.214 83.3661ZM66.9983 277.793C42.181 270.283 19.4156 259.889 8.38765 234.214C5.62498 227.781 3.77964 220.727 11.021 212.795C11.901 217.271 13.105 220.386 13.0023 223.457C12.7223 231.851 15.2383 238.493 22.3063 243.643C56.4596 268.53 94.1836 279.825 136.704 275.606C167.736 272.526 197.273 264.094 226.077 252.969C238.765 248.067 251.05 241.755 259.046 229.65C265.104 220.481 264.976 215.603 257.04 207.705C245.888 196.609 231.292 191.997 216.95 186.989C212.908 185.577 208.693 184.654 204.684 181.927C210.636 182.374 216.586 182.822 222.538 183.269C222.62 182.539 222.701 181.81 222.782 181.081C208.494 178.002 194.206 174.922 179.918 171.843C179.694 172.495 179.469 173.146 179.245 173.797C181.606 175.247 183.968 176.697 186.329 178.147C186.304 178.573 186.278 178.997 186.254 179.422C177.168 178.741 168.089 177.601 158.996 177.479C143.322 177.271 127.641 177.773 111.962 177.818C106.29 177.834 107.128 181.837 106.994 185.226C106.112 207.691 105.377 230.163 104.342 252.622C104.192 255.885 105.91 261.325 99.7596 261.029C95.3263 260.814 89.7596 261.102 89.2236 254.113C87.2823 228.757 85.2143 203.411 83.1956 178.061C83.8836 177.935 84.573 177.81 85.2623 177.685C85.653 178.586 86.0423 179.486 86.433 180.387L84.8983 180.435C83.4463 137.774 81.9943 95.1128 80.4903 50.8981C69.5076 55.8381 58.885 60.3821 48.4916 65.3994C43.7436 67.6928 39.3956 70.8354 34.9716 73.7514C31.961 75.7354 27.941 76.9914 29.8196 82.4048C30.225 83.5728 27.0476 87.3488 25.177 87.6248C21.6783 88.1421 16.0543 88.2968 14.6156 86.2754C9.14097 78.5848 4.21964 70.2594 0.834312 61.5034C-0.096355 59.0968 4.27298 53.3501 7.54765 50.9154C14.601 45.6741 22.417 41.3995 30.145 37.1328C32.801 35.6661 36.2863 32.5288 39.0503 37.6488C39.2503 38.0181 41.813 37.4328 43.089 36.8715C53.7463 32.1795 64.2223 27.0448 75.0383 22.7555C81.7076 20.1101 84.5023 15.9141 84.069 9.00479C83.901 6.33411 84.313 3.62744 84.5063 0.114105C94.393 3.13678 103.444 5.93677 112.522 8.64743C114.165 9.13809 115.99 9.72479 117.612 9.47946C127.865 7.91943 138.057 5.94345 148.329 4.52213C152.696 3.91812 157.292 -0.0578918 161.773 5.99146C162.928 7.55011 169.246 5.32343 174.722 4.64743C172.066 3.45676 170.88 2.92612 167.7 1.50079C197.37 5.13147 225.937 -5.12988 251.378 8.21811C245.121 8.8421 237.561 9.59677 230.001 10.3528C243.994 11.2341 256.706 14.6128 269.261 20.6648C282.081 26.8461 285.433 38.6741 289.277 50.0154C292.965 60.8954 289.814 71.4808 283.246 80.8754C272.542 96.1848 258.682 108.17 243.472 118.894C223.974 132.639 203.777 144.963 180.8 153.277C188.8 155.442 197.094 156.889 204.712 159.985C211.668 162.814 217.857 167.486 224.458 171.218C226.178 172.19 228.166 172.698 230.04 173.395C236.042 175.625 242.518 177.07 247.904 180.311C252.164 182.877 255.088 187.641 259.116 191.979C256.07 191.199 253.466 190.531 250.862 189.863C250.7 190.191 250.536 190.518 250.372 190.846C251.608 191.883 252.68 193.418 254.104 193.879C264.82 197.351 266.446 206.967 268.833 215.747C271.476 225.475 266.704 232.559 260.658 240.213C254.625 247.85 245.842 251.177 239.529 257.381C227.281 269.417 211.364 271.866 196.476 276.905C175.868 283.878 154.546 287.814 132.624 287.206C117.756 286.795 102.813 286.851 88.069 285.221C80.7836 284.414 73.873 280.263 66.805 277.634C68.9863 277.727 71.3316 277.301 73.297 277.975C93.3516 284.863 126.017 285.745 148.166 279.803C140.38 279.246 132.601 278.689 124.822 278.13C124.809 278.446 124.794 278.761 124.781 279.077C126.073 279.435 127.365 279.795 128.657 280.154C104.65 281.655 81.3716 278.058 58.5903 271.251C61.393 273.431 64.1956 275.613 66.9983 277.793Z" fill="white"/>
</mask>
<g mask="url(#mask0_3771_46421)">
<path d="M96.0352 -5V257.987M1 74L132.921 12H240.04L284 35.5247V64.6749L253.178 88.1996L115.741 170.536L220.335 175.65L262.778 199.175L259.241 238.553L200.123 272.306L69.7606 281L13.6743 247.247L-3 209.914" stroke="white" stroke-width="51"/>
</g>
</svg>
