<svg width="113" height="289" viewBox="0 0 113 289" fill="none" xmlns="http://www.w3.org/2000/svg">
<mask id="mask0_3771_46424" style="mask-type:alpha" maskUnits="userSpaceOnUse" x="0" y="0" width="113" height="289">
<path d="M56.3378 275.278C58.0591 273.647 59.4445 272.335 61.4445 270.439C62.1738 272.302 62.7778 273.845 63.5618 275.849C71.7925 274.141 74.2325 267.669 75.6071 260.821C81.3845 232.061 86.9205 203.253 92.6125 174.114C92.6525 174.089 93.0778 173.665 93.5791 173.537C111.411 168.986 113.964 171.91 112.246 190.781C110.066 214.714 105.152 237.793 94.7071 259.533C92.2898 264.567 89.6485 269.575 86.4645 274.15C77.8751 286.486 66.8551 290.377 51.3418 287.262C20.8845 281.147 20.0111 275.611 13.8338 245.138C11.9645 235.913 10.5018 226.605 7.44313 217.465C7.06979 219.807 6.6978 222.151 5.96313 226.766C0.296465 191.427 -1.14754 158.191 2.4138 124.805C2.60446 123.011 6.95779 121.643 7.12713 119.865C7.71246 113.749 7.4618 107.529 7.1818 101.365C7.0738 98.9861 5.21113 96.5288 5.5418 94.3128C9.10846 70.4487 13.9618 46.9007 24.6258 24.9607C25.6031 22.9501 26.6845 20.9741 27.8938 19.0941C41.2445 -1.66726 42.8751 -2.28592 66.6925 4.14874C66.9631 4.22208 67.2125 4.42342 67.4805 4.44609C96.4525 6.83942 105.308 27.4541 109.391 51.4341C111.106 61.5034 111.182 72.0887 110.282 82.2887C109.471 91.4781 102.543 94.1327 94.4245 89.7514C92.2031 88.5514 90.2831 86.5594 87.9431 85.8527C71.6791 80.9434 68.8005 68.0874 67.9511 53.6928C67.5271 46.5074 66.3631 39.3661 65.4911 31.8261C33.3205 60.8821 26.4405 239.034 56.3378 275.278Z" fill="white"/>
</mask>
<g mask="url(#mask0_3771_46424)">
<path d="M80.5 106.499C80.5 106.499 104.477 9.72419 69.5 11.4987C35.3814 13.2297 20 85.9997 20 85.9997V241.5L69.5 294L109 154" stroke="white" stroke-width="51"/>
</g>
</svg>
