<svg width="260" height="271" viewBox="0 0 260 271" fill="none" xmlns="http://www.w3.org/2000/svg">
<mask id="mask0_3771_46425" style="mask-type:alpha" maskUnits="userSpaceOnUse" x="0" y="0" width="260" height="271">
<path d="M159.092 212.346C169.243 214.005 169.4 214.267 182.667 206.429C189.65 202.302 195.972 197.067 202.592 192.334C202.183 191.778 201.774 191.222 201.364 190.666C187.338 197.859 173.311 205.054 159.092 212.346ZM65.3442 228.327V190.443C53.8042 196.927 48.8749 206.821 44.6389 217.023C44.0402 218.467 45.9656 222.379 47.5922 223.046C52.8936 225.218 58.5976 226.415 65.3442 228.327ZM86.4349 160.37C92.7989 157.763 96.8576 156.37 100.672 154.487C111.691 149.046 122.242 142.433 133.678 138.126C144.822 133.93 156.928 132.339 168.424 128.97C174.588 127.162 176.079 130.798 177.516 134.958C179.266 140.017 175.339 140.738 171.898 141.813C169.002 142.718 166.083 143.621 163.306 144.825C139.436 155.175 115.563 165.521 91.8016 176.113C89.5722 177.107 86.5816 179.734 86.5202 181.682C86.0696 195.969 86.2776 210.275 86.2776 224.754C87.0269 224.754 88.3056 224.919 89.5282 224.73C117.518 220.395 144.434 212.602 169.548 199.381C200.747 182.955 226.894 161.194 241.934 128.506C250.726 109.398 251.151 90.9566 234.766 75.002C230.419 70.7713 226.151 66.41 221.447 62.5993C196.206 42.146 166.775 32.154 134.719 29.7193C121.732 28.7327 108.608 29.5567 94.7469 29.5567C91.9776 73.1567 89.2602 115.907 86.4349 160.37ZM83.2989 252.494V269.758C73.3629 271.135 72.1696 270.115 72.4362 261.091C72.5269 258.07 72.4509 255.043 71.5856 251.873C71.1869 253.763 70.7869 255.654 70.3882 257.546C70.3509 249.902 66.2789 246.375 59.1962 244.353C43.3709 239.834 37.6669 226.775 34.9322 212.487C34.2362 208.85 38.0709 204.333 39.8909 200.249C41.3896 196.886 42.3216 192.97 44.6842 190.357C49.0656 185.51 53.9216 180.867 59.3109 177.207C64.1216 173.939 65.4962 170.293 65.5789 164.714C66.0229 134.991 66.9122 105.277 67.6429 75.782C67.8816 76.7286 68.2322 78.1207 68.8909 80.7246V31.634C54.8722 34.6793 40.9056 37.5993 27.0056 40.8007C22.5842 41.818 18.3922 43.8073 13.9829 44.9073C11.9856 45.4046 9.13757 45.6273 7.6669 44.5886C0.230904 39.334 1.1469 31.1073 0.726902 23.3793C0.394902 17.2326 4.72957 14.4967 9.33757 13.3326C23.5549 9.74197 37.8149 5.68063 52.3149 4.02063C65.7562 2.48331 79.5269 3.80597 93.1522 3.85663C98.1682 3.87531 103.184 3.85931 108.039 3.85931C108.232 2.94464 108.335 2.57132 108.31 2.56198C107.364 2.23398 106.408 1.9393 105.452 1.63797C105.792 1.35397 106.136 0.819305 106.474 0.823303C148.371 1.40466 188.19 9.84732 219.983 38.6526C244.782 61.122 259.02 90.3406 259.702 124.205C260.29 153.462 245.034 176.433 225.923 197.303C211.846 212.675 195.195 224.715 176.344 232.974C155.75 241.997 134.199 248.869 111.491 250.815C102.431 251.593 93.3322 251.911 83.2989 252.494Z" fill="white"/>
</mask>
<g mask="url(#mask0_3771_46425)">
<path d="M7 32L102.5 19.5H178.5L242 75L258 141.5L196 203.5L123 232H59.5L34 213L59.5 181.5L123 159L178.5 133.5M78.5 273.5V-3" stroke="white" stroke-width="51"/>
</g>
</svg>
