<svg width="156" height="280" viewBox="0 0 156 280" fill="none" xmlns="http://www.w3.org/2000/svg">
<mask id="mask0_3771_46426" style="mask-type:alpha" maskUnits="userSpaceOnUse" x="0" y="0" width="156" height="280">
<path d="M126.525 81.6059C126.417 80.2646 126.309 78.9233 126.201 77.582C107.23 79.4086 88.2593 81.2353 69.2886 83.0633C69.31 83.4646 69.3313 83.8673 69.3526 84.2699C88.41 83.3819 107.467 82.4939 126.525 81.6059ZM21.3233 239.299C21.6393 241.931 21.9539 244.563 22.2699 247.194C23.1819 247.11 24.094 247.025 25.0073 246.941C23.4153 233.198 22.0366 219.427 20.1553 205.725C18.8806 196.434 15.9993 188.078 22.6566 178.489C26.8473 172.454 25.27 162.454 26.5913 151.709C22.6153 154.577 20.77 155.909 16.9273 158.682C19.594 138.87 22.0846 120.281 24.6019 101.697C25.9753 91.5606 28.014 81.4673 28.63 71.2886C29.3353 59.6486 28.7939 47.9353 29.8846 36.0913C30.2513 37.7873 30.6193 39.4846 31.0433 41.4433C36.6193 36.8313 33.974 31.45 31.226 27.706C29.1606 24.8926 24.4766 23.6513 20.7153 22.4873C16.5566 21.198 11.1686 22.0126 8.09662 19.634C5.46328 17.5953 3.64729 11.8073 4.64596 8.68198C5.44996 6.16595 11.0033 5.15262 14.4486 3.47263C14.7513 4.17798 15.0553 4.8833 15.358 5.58997C14.1833 5.97397 13.01 6.35797 11.8353 6.74197C11.8606 7.17395 11.886 7.60596 11.9126 8.03796C20.894 7.28864 29.8766 6.53931 40.5273 5.65131C37.9526 3.83929 36.8046 3.03131 35.1553 1.86996C70.2886 0.203308 104.883 -1.98471 140.449 3.50729C141.585 2.9433 146.157 0.46463 146.269 0.649963C149.442 5.90594 152.167 11.4313 155.777 18.506C144.953 19.1433 136.31 19.9019 127.653 20.1153C107.093 20.6219 86.526 20.9473 65.9593 21.1926C55.9606 21.3113 52.3606 24.5713 51.8486 34.558C51.4326 42.67 51.146 50.7939 50.474 58.8873C49.9953 64.6593 52.1366 67.2873 58.082 66.8473C76.0379 65.5219 94.0126 64.4366 111.958 62.9793C125.494 61.8793 131.314 65.6806 134.893 78.5193C136.609 84.674 132.491 85.926 128.058 86.4526C105.983 89.0793 83.9153 91.802 61.7913 93.9406C51.5233 94.934 50.3313 95.438 49.906 105.637C48.47 140.082 47.0646 174.53 45.6313 208.975C45.578 210.246 45.3619 211.51 45.074 214.121C43.8313 208.359 42.8766 203.926 41.9206 199.493C41.5433 199.557 41.166 199.621 40.7886 199.685C42.8446 219.075 44.9006 238.467 47.05 258.731C59.014 257.997 71.2046 257.247 83.3953 256.499C83.438 256.931 83.482 257.363 83.5246 257.795C73.19 259.626 62.8553 261.457 52.5206 263.287C52.6513 263.889 52.7806 264.49 52.9113 265.091C80.1633 263.119 107.417 261.147 134.67 259.175C134.65 258.558 134.63 257.939 134.61 257.321H107.671C107.647 256.805 107.625 256.287 107.601 255.771C110.786 255.439 113.971 255.107 119.478 254.534C115.127 253.775 113.042 253.413 110.955 253.049C110.959 252.793 110.962 252.537 110.965 252.281C116.503 252.281 122.047 252.118 127.578 252.317C137.174 252.661 143.921 257.563 146.639 266.23C148.345 271.663 144.595 273.554 140.341 273.77C123.923 274.606 107.485 274.994 91.062 275.722C64.3633 276.905 37.6633 278.062 10.9846 279.602C4.81662 279.958 0.987286 278.246 0.113952 272.087C-0.772714 265.842 3.65129 263.767 8.64596 262.698C18.8326 260.517 20.7233 258.19 20.246 247.658C20.122 244.915 19.878 242.178 19.6873 239.438C20.2326 239.391 20.778 239.346 21.3233 239.299Z" fill="white"/>
</mask>
<g mask="url(#mask0_3771_46426)">
<path d="M152.5 13H6.5L43 63.5V86L133.5 76.5L30.5 127V267L6.5 279.5L152.5 267" stroke="white" stroke-width="51"/>
</g>
</svg>
