<svg width="201" height="543" viewBox="0 0 201 543" fill="none" xmlns="http://www.w3.org/2000/svg">
<mask id="mask0_5983_64779" style="mask-type:luminance" maskUnits="userSpaceOnUse" x="0" y="0" width="201" height="542">
<path d="M200.642 0H0V541.23H200.642V0Z" fill="white"/>
</mask>
<g mask="url(#mask0_5983_64779)">
<mask id="mask1_5983_64779" style="mask-type:alpha" maskUnits="userSpaceOnUse" x="3" y="-1" width="193" height="538">
<path d="M29.5539 476.607C29.9519 480.525 30.33 484.463 30.728 488.382C31.8624 488.262 32.9967 488.123 34.1112 488.004C32.141 467.497 30.4295 446.97 28.1011 426.523C26.5289 412.66 22.9467 400.209 31.2057 385.888C36.3998 376.878 34.4495 361.96 36.0814 345.929C31.1659 350.205 28.8772 352.194 24.1209 356.331C27.4245 326.775 30.5091 299.048 33.6137 271.321C35.3053 256.204 37.8327 241.148 38.6088 225.952C39.4845 208.588 38.8078 191.123 40.1611 173.441C40.6188 175.967 41.0766 178.493 41.594 181.417C48.4996 174.535 45.216 166.519 41.8129 160.93C39.2656 156.733 33.4545 154.883 28.7976 153.153C23.6433 151.224 16.9765 152.437 13.1754 148.896C9.9116 145.853 7.66279 137.221 8.89665 132.567C9.8917 128.807 16.7575 127.296 21.0363 124.79C21.4144 125.844 21.7925 126.898 22.1706 127.952C20.7178 128.529 19.2651 129.106 17.8123 129.663C17.8521 130.299 17.872 130.956 17.9118 131.592C29.0365 130.478 40.1412 129.364 53.3356 128.032C50.1514 125.327 48.7185 124.113 46.6886 122.383C90.1723 119.897 132.999 116.635 177.02 124.829C178.433 123.994 184.085 120.295 184.224 120.573C188.145 128.41 191.528 136.664 195.986 147.206C182.593 148.161 171.886 149.294 161.179 149.613C135.726 150.368 110.272 150.846 84.8189 151.224C72.4405 151.403 67.9827 156.256 67.3459 171.154C66.8284 183.247 66.4702 195.38 65.6344 207.454C65.0373 216.066 67.6842 219.985 75.0475 219.328C97.2769 217.359 119.526 215.728 141.736 213.56C158.492 211.929 165.697 217.598 170.134 236.732C172.264 245.921 167.169 247.791 161.677 248.567C134.353 252.485 107.028 256.543 79.6447 259.745C66.9279 261.217 65.4553 261.973 64.9378 277.188C63.1667 328.565 61.4154 379.961 59.6442 431.337C59.5845 433.226 59.3059 435.116 58.9476 439.014C57.4153 430.422 56.2212 423.798 55.047 417.195C54.5893 417.294 54.1117 417.394 53.654 417.473C56.2013 446.394 58.7486 475.334 61.4154 505.547C76.2217 504.453 91.3067 503.339 106.412 502.225C106.471 502.862 106.511 503.518 106.571 504.155C93.7744 506.879 80.978 509.624 68.2016 512.349C68.3608 513.244 68.52 514.139 68.6792 515.034C102.411 512.091 136.144 509.147 169.876 506.203C169.856 505.288 169.836 504.353 169.796 503.438H136.442C136.422 502.663 136.382 501.887 136.363 501.131C140.303 500.634 144.243 500.137 151.069 499.281C145.676 498.148 143.109 497.611 140.522 497.074C140.522 496.696 140.522 496.318 140.522 495.92C147.368 495.92 154.234 495.681 161.08 495.98C172.96 496.497 181.299 503.816 184.682 516.745C186.792 524.84 182.155 527.665 176.881 528.003C156.562 529.256 136.203 529.833 115.884 530.907C82.8288 532.677 49.7932 534.407 16.7575 536.695C9.11556 537.232 4.37913 534.666 3.30447 525.477C2.20992 516.168 7.68269 513.065 13.8719 511.474C26.4891 508.212 28.8175 504.751 28.2404 489.038C28.0812 484.941 27.7827 480.863 27.5439 476.786C28.2205 476.726 28.8971 476.647 29.5738 476.587L29.5539 476.607ZM159.786 241.366C159.647 239.358 159.527 237.368 159.388 235.36C135.905 238.085 112.422 240.809 88.9384 243.534C88.9583 244.131 88.9981 244.728 89.018 245.344C112.601 244.012 136.203 242.699 159.786 241.366Z" fill="white"/>
<path d="M159.306 68.2035C158.669 68.283 158.49 67.5073 158.112 67.1692C157.873 66.9504 157.595 66.7714 157.396 66.473C157.177 66.1548 157.017 65.6178 156.202 66.652C156.122 66.7714 156.062 66.7714 156.062 66.652C156.062 66.5526 156.102 66.4333 156.202 66.3139C156.719 65.6774 156.44 65.6973 156.381 65.6376C156.062 65.3194 155.764 64.9813 155.406 64.7824C154.729 64.4045 154.271 63.6486 153.734 63.0122C153.515 62.7337 153.276 62.5149 153.017 62.316C152.679 62.0574 152.301 61.9381 152.002 61.6198C151.644 61.2618 151.445 60.5856 151.027 60.3668C150.45 60.0684 149.893 59.7303 149.495 59.1336C149.216 58.7159 148.679 58.7756 148.56 58.1391C148.46 57.6418 148.002 57.7413 147.783 57.423C147.505 56.9855 147.186 56.5877 146.788 56.349C146.311 56.0506 146.132 55.2152 145.415 55.3545C145.176 55.3942 145.435 54.6981 145.296 54.5788C144.977 54.3401 144.719 54.0417 144.42 53.7633C144.38 53.7235 144.341 53.5842 144.221 53.7633C143.724 54.539 143.903 54.0417 143.962 53.7633C144.142 52.7687 143.744 52.8483 143.047 53.9224C142.967 53.8826 143.027 53.5644 143.147 53.4251C143.863 52.5301 143.485 52.4903 143.425 52.4903C143.206 52.4903 143.147 52.2516 143.027 52.1124C142.47 51.3963 141.833 50.7797 141.256 50.1035C141.156 50.004 140.957 50.0637 140.918 49.8847C140.758 48.9896 140.102 48.8703 139.743 48.3134C139.425 47.8161 139.027 47.3984 138.549 47.1398C138.032 46.8614 137.932 45.9266 137.077 46.2249C136.957 46.2647 136.917 46.205 136.937 46.0459C137.057 45.1111 136.639 44.932 136.241 44.7729C135.823 44.5939 135.684 43.9773 135.246 43.8182C134.828 43.679 134.868 42.8038 134.032 43.3209C133.992 43.3408 133.932 43.3209 133.952 43.3011C134.291 42.5055 133.813 42.8436 133.793 42.5651C133.713 41.7098 132.698 42.227 132.599 41.3916C132.539 40.9341 131.823 41.511 131.823 40.9938C131.823 40.5562 131.624 40.417 131.345 40.3772C130.848 40.3175 130.629 39.8601 130.251 39.6413C129.952 39.4822 129.833 39.0048 129.494 38.8656C129.276 38.7661 129.116 38.5075 128.838 38.5473C128.559 38.607 128.539 38.428 128.559 38.1097C128.559 37.9506 128.44 37.9307 128.32 37.9108C127.863 37.8711 127.743 37.3539 127.405 37.155C127.106 36.976 126.927 36.5782 126.708 36.2798C126.35 35.8025 125.853 35.4842 125.315 35.2456C124.818 35.0268 124.818 34.1118 123.982 34.3903C123.882 34.4301 123.803 34.3505 124.002 34.0124C124.181 33.7339 124.101 33.6941 124.002 33.7538C123.405 34.1118 123.564 33.4157 123.365 33.2367C122.887 32.819 122.688 31.9836 122.111 31.7051C121.653 31.4863 121.773 30.4719 120.818 30.9493C120.758 30.9891 120.738 30.8697 120.778 30.7504C120.957 30.2531 120.758 30.1935 120.638 30.0741C120.161 29.5769 119.643 29.1194 119.245 28.5028C119.166 28.3636 118.808 28.5227 118.847 28.3039C118.927 27.4288 118.39 27.389 117.932 27.2497C117.793 27.21 117.693 27.1105 117.753 26.8519C117.813 26.5735 117.753 26.4541 117.633 26.3746C116.937 25.8574 116.519 24.9823 115.763 24.5646C115.623 24.485 115.544 24.3458 115.544 24.1071C115.544 23.769 115.305 23.6695 115.026 23.6496C114.967 23.6496 114.927 23.6496 114.947 23.5502C114.947 23.0131 114.648 22.854 114.33 22.7546C113.534 22.3568 112.997 21.5413 112.32 20.9247C111.922 20.5667 111.663 19.9501 111.166 19.7711C110.21 19.4131 109.613 18.4982 108.877 17.7821C107.962 16.8871 107.066 15.9124 106.071 15.1566C105.633 14.8185 105.076 14.719 104.837 14.1024C104.379 12.9886 103.583 13.0483 103.026 12.2725C102.131 11.0593 101.096 9.98519 99.9614 9.88573C99.9216 9.88573 99.8818 9.76639 99.8818 9.66694C99.842 8.9509 99.623 9.05035 99.4638 8.83156C99.1653 8.43376 98.7872 8.61277 98.5086 8.21497C97.8319 7.24035 97.0558 7.1409 96.3593 6.18617C95.7224 5.29112 95.006 5.05244 94.3493 4.33639C93.6527 3.58057 92.9562 3.20266 92.2796 2.54628C91.9413 2.22804 91.583 2.40705 91.2447 1.90981C90.4885 0.815853 89.7521 0.437941 89.0158 -0.0195312L88.9561 0.0401391C88.7372 0.199259 88.6377 1.69102 88.3193 0.437941C88.3193 0.437941 88.2994 0.437941 88.2795 0.477721C87.9014 1.03464 87.4834 1.15398 87.1053 1.71091C86.7471 2.24793 86.4088 2.98387 86.0108 3.26233C85.4535 3.68002 84.956 4.61486 84.3988 5.03255C84.2197 5.17178 84.1799 5.88782 83.9809 5.88782C83.6624 5.88782 83.2445 5.56958 83.2047 6.86244C83.2047 7.00167 83.1649 7.18068 83.1251 7.1409C82.6873 6.62376 82.4883 7.45914 82.15 7.5387C81.6126 7.67793 81.2146 8.41387 80.8564 9.09013C80.6176 9.52771 80.2992 9.90562 80.0405 9.98518C79.6026 10.1045 79.2842 10.5023 78.926 10.8405C78.7469 11.0195 78.528 11.1786 78.4086 11.4372C78.0106 12.2924 77.1747 12.0339 76.8364 13.088C76.6573 13.6847 76.2792 13.9831 75.9409 14.2616C75.2244 14.8782 74.508 15.5146 73.9309 16.4097C73.7916 16.6484 73.6124 16.8274 73.3935 16.9467C72.5577 17.3644 72.0005 18.2993 71.2641 18.9158C70.5079 19.5523 70.09 20.6462 69.1944 21.1236C68.7566 21.3623 68.7964 22.138 68.3785 22.3767C67.7616 22.7347 67.2242 23.1723 66.6869 23.6496C66.4879 23.8286 66.6869 24.3657 66.3088 24.3458C65.4928 24.2861 65.4729 25.1215 64.7764 25.2209C64.5376 25.2607 64.5376 25.5591 64.5973 25.8773C64.7565 26.3348 64.9953 26.7525 64.1794 26.3149C63.9804 26.1956 63.8809 26.2552 63.8212 26.3149C63.4231 26.6928 63.0848 27.1304 62.6271 27.4486C62.4281 27.5879 62.4281 27.926 62.1893 28.0255C61.7316 28.2045 61.5325 28.6222 61.1942 28.9006C60.7365 29.2586 60.2987 29.6167 59.9206 30.0542C59.3832 30.6708 58.9056 31.3272 58.428 31.9836C58.1693 32.3416 57.7514 32.5604 57.3931 32.8389C57.1742 33.0179 57.1941 33.4555 56.7762 33.4555C56.3185 33.4555 56.5175 33.9925 56.0996 34.0124C55.4229 34.0522 55.8608 35.0467 55.1841 35.1461C54.7463 35.2058 54.4677 35.4842 54.3085 35.8423C54.01 36.5384 53.2338 36.8169 52.796 37.3937C52.5174 37.7517 52 37.8711 51.7612 38.249C51.5621 38.5672 51.5621 39.0446 51.0646 39.1042C50.2885 39.1838 50.2487 39.8998 49.592 40.0789C48.9352 40.2579 48.9352 41.0535 48.1591 41.133C47.8805 41.1529 48.378 41.7297 48.1193 41.7297C47.1839 41.7098 46.8854 42.2668 46.3481 42.6049C46.2486 42.6646 46.1491 42.7441 46.2884 42.9828C46.5272 43.4602 46.4874 43.6591 45.8307 43.3209C45.4326 43.122 45.3729 43.2613 45.3729 43.4204C45.3729 43.5596 45.3928 43.6989 45.2535 43.679C44.4575 43.5397 44.4575 44.1166 43.9401 44.216C43.6018 44.2757 43.7809 44.7928 43.4027 44.8127C43.1042 44.8127 42.9251 44.932 42.9848 45.2702C43.0445 45.6083 42.945 45.8072 42.3878 45.6282C41.7709 45.4293 41.6515 45.7078 41.7709 46.1652C41.7908 46.2846 41.8704 46.4238 41.6117 46.2846C40.9549 45.9067 40.935 46.1453 41.1141 46.5431C41.1937 46.742 41.2335 46.8415 40.9947 46.7222C40.5768 46.5034 40.5768 46.7222 40.3579 46.7222C39.9201 46.7222 40.1191 47.2791 39.741 47.3387C38.7459 47.478 38.3877 48.194 37.5718 48.4924C36.915 48.7311 36.6364 49.3278 35.9399 49.5267C35.2433 49.7256 35.1438 50.4018 34.5468 50.6803C34.0095 50.9389 33.5318 51.2571 33.0144 51.5555C32.696 51.7345 32.3776 51.9135 32.2582 52.2516C32.1189 52.6494 32.1786 53.2262 31.6214 53.2461C31.0243 53.266 31.4621 54.2008 30.6064 53.982C30.5666 53.982 30.6263 54.0815 30.6462 54.1213C30.686 54.3401 30.5069 54.3401 30.4074 54.4395C30.1089 54.7975 29.2332 54.718 30.0094 55.9512C30.0492 56.0108 30.0094 56.0705 29.9497 56.0506C29.1934 55.613 29.2133 55.9711 29.074 56.1302C28.6362 56.5877 28.3576 57.1844 27.9596 57.6617C27.5417 58.159 27.3426 58.8551 26.8451 59.2927C26.5665 59.5513 26.5466 60.0286 26.2282 60.2275C25.3923 60.7049 25.4122 61.8983 24.855 62.5945C24.6759 62.8133 24.3973 62.9525 24.457 63.3901C24.4968 63.6287 23.9993 63.5691 23.8799 63.7879C23.5416 64.3647 23.243 64.9415 22.845 65.4586C22.049 66.5128 21.6112 67.8653 20.9146 68.9991C20.7554 69.2577 20.636 69.556 20.4171 69.7549C19.9992 70.1527 19.9793 70.8687 19.5812 71.2864C19.2031 71.6644 19.0439 72.2412 18.7255 72.6589C18.4867 72.9572 18.5066 73.5141 18.3275 73.892C18.0887 74.3893 17.6906 74.7473 17.5115 75.3042C17.412 75.6026 17.1334 75.7219 17.5513 76.4579C17.83 76.9352 18.0489 77.4524 18.1882 77.89C18.3275 78.2878 18.7454 78.8248 18.9046 79.2226C19.024 79.5011 19.5414 80.0381 20.0191 80.3364C20.6758 80.7342 21.1932 80.8337 21.4121 80.7342C21.8102 80.5552 22.5067 80.6945 23.3823 81.1718C24.0988 81.5497 24.8351 81.9475 25.4919 82.226C26.0292 82.4647 26.8849 83.0017 27.0839 82.9222C27.462 82.7431 28.4571 83.2006 28.477 82.6437C28.477 82.4846 28.7755 82.4249 29.4123 82.8824C29.6711 83.0614 29.8701 83.1012 29.6512 82.8227C29.1934 82.226 29.6512 82.3056 29.7905 82.2459C30.288 82.0669 30.9845 82.0669 31.4024 81.8083C31.6811 81.6293 32.1587 81.5696 32.1786 81.2116C32.1985 80.8536 32.497 80.8735 32.9149 80.9331C33.0144 80.9331 33.1139 80.9928 33.0741 80.8934C32.9149 80.3762 33.5319 80.4956 33.6314 80.1773C33.7508 79.7596 34.6463 80.0182 34.7458 79.5408C34.7856 79.3817 34.6463 79.1033 34.8652 79.0635C35.721 78.9044 36.2981 78.4668 36.5369 77.7706C36.6364 77.4723 36.9946 77.3927 37.0941 77.0546C37.2533 76.4778 38.1688 76.5374 38.1688 75.7816C38.1688 75.6026 38.2683 75.4236 38.4474 75.3838C39.1638 75.1849 39.522 74.6678 39.8405 74.1108C39.9798 73.8722 40.0395 73.5141 40.3579 73.4545C40.9947 73.3351 41.3131 72.9373 41.8306 72.6986C42.2485 72.5196 42.5072 72.1616 42.9052 71.9627C43.2435 71.7837 43.4624 71.5052 43.7411 71.2666C44.2386 70.8489 44.557 70.2721 45.2734 70.0731C46.3083 69.7748 46.766 68.9593 47.582 68.462C48.179 68.104 48.5571 67.567 49.1939 67.2487C49.5123 67.0896 50.1293 67.1294 50.0696 66.7117C49.9502 66.0752 50.8855 66.4333 50.9651 65.9559C51.0447 65.578 51.8209 65.757 52.1393 65.5183C52.2786 65.4189 52.2388 65.1603 52.4776 65.1404C53.1343 65.1404 53.2139 64.5636 53.7712 64.4641C54.408 64.3448 54.607 63.8276 55.1841 63.6486C55.4627 63.5691 55.7016 63.4497 55.8409 63.2309C56.0399 62.9127 56.2986 62.6541 56.9951 62.8133C57.214 62.8729 57.3732 62.853 57.3931 62.7138C57.4528 62.1967 57.9504 62.0773 58.5673 62.0972C59.224 62.0972 59.1046 61.4408 59.7813 61.4806C60.0997 61.4806 59.9206 61.043 60.2191 61.0629C60.8161 61.1027 61.4728 61.2022 61.1942 60.4463C61.1942 60.4066 61.2539 60.4066 61.2937 60.4264C61.7515 60.4861 62.2888 60.6452 61.9704 59.9889C61.8908 59.8098 62.0699 59.8894 62.249 59.9889C62.6669 60.2077 62.8062 60.1281 62.9853 60.0684C63.3435 59.9491 63.4629 59.6308 63.861 59.5513C64.5177 59.412 64.9157 59.054 65.3734 58.7358C66.0899 58.2385 66.7068 57.6418 67.463 57.1844C67.7417 57.0053 68.0203 56.8462 68.3188 56.707C68.5974 56.5678 68.8362 56.349 69.2143 56.2893C69.7517 56.1898 70.1497 55.9313 70.3686 55.5534C70.4681 55.3744 71.0452 55.6727 70.9855 55.3942C70.8661 54.7975 71.5626 54.8771 71.4432 54.2605C71.3437 53.8428 72.1398 54.2605 72.2791 54.1014C72.5776 53.7831 73.1149 53.6638 73.1149 53.087C73.1149 52.8085 73.3537 52.6693 73.7119 52.7091C74.5478 52.8284 73.9508 51.6947 74.6672 51.7146C74.6672 51.7146 74.6473 51.6748 74.6672 51.6748C74.9856 51.635 74.6075 51.0383 74.8662 50.919C75.0652 50.8394 75.3836 50.8792 75.5229 50.7599C75.9608 50.4416 76.3389 50.1035 76.7369 49.7653C76.7966 49.7057 76.8563 49.6261 76.7369 49.4471C76.3986 48.93 76.5777 48.7311 76.1399 48.1741C75.9011 47.8559 76.1399 47.8957 76.4782 48.1542C77.2344 48.7311 77.2145 48.4327 77.3936 48.3531C77.4931 48.3134 77.3936 48.1344 77.5727 48.1542C78.2693 48.194 78.6872 47.9553 79.0056 47.657C79.125 47.5575 79.1449 47.4382 78.8862 47.0802C78.6474 46.742 78.5081 46.5034 79.0852 46.8813C79.2444 46.9807 79.3837 47.0205 79.3439 46.9409C79.1449 46.4039 79.8017 46.6028 79.9808 46.4039C80.4186 45.9266 80.4783 45.1309 81.135 44.8127C81.6723 44.5541 82.1699 44.216 82.5082 43.7784C82.7271 43.5 82.9858 43.2215 83.1649 42.9033C83.3639 42.5651 83.4833 42.1872 83.3241 41.8491C83.3042 41.7695 83.344 41.7297 83.6226 41.9485C84.1202 42.3463 84.0605 42.2071 84.16 42.1872C84.3789 42.1673 84.4187 41.9684 84.4784 41.7894C84.5381 41.6303 85.1948 42.1673 85.0157 41.7894C84.8167 41.3319 85.4734 41.7894 84.8565 40.8546C84.8366 40.8148 84.8565 40.7949 84.8963 40.8347C85.4336 41.2524 85.4535 41.0734 85.5331 40.8944C85.7321 40.3971 86.4088 40.6358 86.6874 40.3175C86.8665 40.1186 87.4038 40.6756 86.8267 39.1838C86.8068 39.1241 86.8665 39.144 86.9063 39.2037C87.3441 39.6811 87.5033 39.6811 87.5829 39.4623C87.7223 39.0645 87.9611 38.8258 88.2198 38.6866C88.4586 38.5473 88.8367 38.9252 88.7571 37.8313C88.7571 37.7915 88.7571 37.8313 88.7969 37.8313C89.2745 38.7661 89.1949 37.8313 89.2944 37.5528C89.374 37.3539 89.4337 37.0556 89.5531 37.0755C89.772 37.1152 89.9114 36.8368 90.1104 36.8964C90.3094 36.9362 90.4686 36.9163 90.3094 35.0268C90.2895 34.7085 90.3094 34.7085 90.389 35.0864C90.6278 36.2798 90.6676 35.9815 90.6875 35.7229C90.7671 35.0069 91.0656 36.0014 91.1253 35.1461C91.1452 34.8677 91.1651 34.2113 91.2845 34.6489C91.4238 35.1859 91.4437 34.3903 91.583 34.8875C91.6427 35.1262 91.6427 34.8875 91.6427 34.45C91.6427 34.3505 91.6427 34.2113 91.6427 34.0919C91.6427 33.9726 91.6427 33.8731 91.6427 33.9129C91.8218 34.6886 91.9015 34.072 92.0607 34.5096C92.2597 35.1461 92.2995 35.0864 92.4189 34.1317C92.4189 34.072 92.4587 34.0919 92.4587 34.1914C92.5184 34.7483 92.5383 34.7881 92.5582 34.1118C92.5781 33.4555 92.6577 33.7538 92.7174 34.1715C92.7373 34.3505 92.7572 34.8478 92.7771 34.7483C92.9164 34.3107 93.0557 35.4842 93.2149 34.45C93.2348 34.3107 93.2547 34.3107 93.2746 34.4897C93.4139 35.8423 93.593 35.8025 93.7722 35.7826C94.0707 35.7627 94.2896 36.5782 94.6478 36.2997C95.1055 35.9417 95.4438 36.5782 95.9016 36.5782C96.0011 36.5782 96.1603 36.3196 96.2598 36.2997C96.3991 36.2997 96.2598 37.0357 96.3593 37.0953C96.5782 37.2346 96.8568 37.1152 96.9961 37.5329C97.0956 37.8114 97.2946 37.7716 97.414 37.9506C97.5732 38.1893 97.8718 38.1296 98.0708 38.2689C98.3096 38.4479 98.5086 38.7064 98.8071 38.7462C99.0061 38.786 98.6479 39.8601 99.424 38.786C99.5633 38.5871 99.4638 38.8457 99.3643 39.0446C99.3046 39.1838 99.1255 39.4623 99.2051 39.4225C99.5832 39.2435 99.2847 40.1584 100.16 39.1639C100.3 39.0048 100.3 39.0844 100.32 39.1241C100.379 39.2634 100.459 39.3827 100.558 39.4623C100.757 39.6214 100.638 40.0789 100.737 40.3772C100.797 40.4767 100.777 40.6955 100.917 40.7153C101.215 40.775 101.514 40.8944 101.693 41.0734C102.15 41.5308 103.086 41.3916 103.225 42.227C103.245 42.3463 103.345 42.3264 103.524 42.227C104.18 41.8889 104.598 41.9684 104.698 42.3861C104.857 43.0823 105.036 43.7983 105.733 43.7983C106.31 43.7983 106.35 44.5144 107.046 44.3155C107.524 44.1762 106.947 45.489 107.703 45.0514C107.743 45.0315 107.703 45.1309 107.703 45.1906C107.623 45.7277 108.399 45.1906 108.141 45.9464C108.141 45.9464 108.22 45.9067 108.24 45.9067C108.678 45.7674 108.837 45.9862 108.817 46.4437C108.817 46.6625 108.758 46.9807 108.897 47.0006C109.394 47.1398 109.514 47.7564 109.872 48.0747C110.151 48.3333 110.37 48.7112 110.907 48.5918C111.265 48.4924 111.046 49.3079 111.743 48.6515C111.743 48.6515 111.723 48.7509 111.723 48.7708C111.802 49.3675 112.001 49.825 112.479 49.9046C112.718 49.9444 112.897 50.0836 113.116 50.1234C113.335 50.1631 112.837 50.8394 113.076 50.8394C113.574 50.8593 113.613 51.5356 114.031 51.6549C114.35 51.7544 114.429 52.0527 113.972 52.9478C114.111 52.9875 114.39 52.4107 114.529 52.5102C114.907 52.7886 115.265 53.1268 116.081 52.729C116.161 52.6892 116.22 52.729 116.201 52.8284C116.081 53.3853 116.499 53.266 116.36 53.8627C116.3 54.0815 116.459 54.0019 116.579 53.9025C116.917 53.624 116.937 53.8229 116.957 54.0417C116.977 54.4793 116.937 55.0362 117.235 55.076C117.594 55.1357 118.031 55.0362 117.992 55.6926C117.992 55.7523 118.071 55.7523 118.131 55.6926C118.728 55.255 118.688 55.7523 118.728 56.1302C118.728 56.2893 118.887 56.2296 118.947 56.2694C119.206 56.4285 119.643 56.349 119.842 56.5678C120.101 56.8462 120.141 57.4628 120.459 57.6617C120.818 57.9004 120.937 58.5767 121.733 58.1391C122.032 57.98 121.733 58.696 122.012 58.5568C122.688 58.2385 122.549 59.1336 122.927 59.2529C123.106 59.3126 123.405 59.1933 123.425 59.4717C123.484 60.0883 123.763 60.4066 124.181 60.5259C124.38 60.5856 124.479 60.8242 124.678 60.864C125.057 60.9237 124.957 61.8187 125.813 61.0828C125.932 60.9834 125.992 61.043 125.952 61.222C125.514 62.7536 126.848 61.7591 126.768 62.7735C127.345 62.0375 127.186 62.6541 127.186 62.8729C127.186 63.2508 127.664 62.7934 127.683 63.1315C127.743 64.0266 128.4 63.8475 129.395 62.6541C129.335 63.2508 128.539 64.7625 129.514 64.0663C129.614 63.9868 129.534 64.2851 129.494 64.4641C129.355 65.0608 129.793 65.6178 130.231 65.2796C130.589 65.0012 130.649 65.1006 130.47 65.6376C130.35 65.936 130.37 66.0752 130.569 65.8763C131.047 65.4388 131.086 65.7769 131.186 65.9758C131.345 66.294 131.246 66.9902 131.604 67.03C131.743 67.03 132.002 66.9106 131.962 67.0896C131.783 68.3029 132.957 67.209 133.136 67.8256C133.276 68.283 133.753 68.2433 134.092 68.3825C134.509 68.5615 134.748 69.0389 135.027 69.4168C135.166 69.5958 135.524 69.4963 135.405 70.1726C135.286 70.8489 135.903 70.6699 136.5 70.0334C135.883 70.9881 136.141 70.8688 136.36 70.8489C136.48 70.8489 136.599 70.6897 136.738 70.5107C137.634 69.3969 136.699 71.6842 137.495 70.7693C137.554 70.7096 137.614 70.8091 137.495 71.008C136.997 71.8633 137.375 71.6445 137.455 71.7837C137.554 71.9627 137.913 71.7837 137.833 72.2412C137.753 72.7185 137.932 72.7782 138.131 72.818C138.251 72.8379 138.33 72.9771 138.45 72.9771C138.828 72.9771 138.748 73.7329 139.166 73.6136C139.763 73.4545 139.664 74.6081 140.52 73.9318C140.559 73.9119 140.579 73.9716 140.559 74.0313C140.42 74.6678 140.679 74.6678 140.858 74.8269C141.415 75.3241 141.913 75.9009 142.47 76.4181C142.589 76.5374 142.549 77.0546 143.087 76.2192C143.186 76.0601 143.246 76.1197 143.206 76.2789C143.027 77.0745 143.266 77.2137 143.564 77.3131C143.684 77.3529 143.863 77.2535 143.962 77.3927C144.241 77.8502 144.739 77.89 145.037 78.3077C145.216 78.5463 145.375 78.8248 145.634 78.9242C145.853 79.0038 146.351 78.6657 146.032 79.6801C146.032 79.7198 146.032 79.7596 146.072 79.7397C146.589 79.3022 146.589 79.8591 146.788 80.0381C147.525 80.7144 148.46 81.0127 149.176 81.7685C149.674 82.3056 150.211 82.7829 150.888 82.942C151.186 83.0017 151.226 83.8769 152.182 82.4647C151.565 83.5586 151.744 83.7973 151.923 83.8769C152.281 84.036 152.619 84.1951 152.918 84.4935C153.097 84.6924 153.475 84.4537 153.614 84.7719C153.714 85.0305 153.614 85.6471 153.893 85.6073C154.391 85.5278 154.51 86.1642 154.769 86.5024C154.868 86.6217 154.968 86.7808 155.147 86.7411C155.406 86.6615 155.943 85.9852 155.485 87.2184C155.485 87.2582 155.525 87.298 155.545 87.3179L156.221 87.8151C156.221 87.8151 156.321 87.9146 156.42 87.7555C156.918 86.9201 156.878 87.2582 156.739 87.835C156.679 88.1135 156.759 88.1334 156.818 88.2328C157.177 88.8295 157.873 88.7897 158.112 89.6251C158.152 89.7842 158.291 89.824 158.411 89.8837C158.49 89.9235 158.669 89.6848 158.629 89.5655C158.55 89.1677 158.789 89.0682 158.908 88.9688C159.127 88.7699 159.167 88.9091 158.988 89.3864C158.908 89.6052 158.729 89.9831 158.928 89.824C159.167 89.645 159.127 89.8638 159.047 90.2218C158.968 90.4804 159.107 90.4406 159.147 90.5202C159.306 90.8583 159.804 90.182 160.042 90.2616C160.222 90.3412 160.222 90.9776 160.759 89.9434C160.779 89.9036 160.858 89.8837 160.878 89.9036C161.177 90.3611 161.714 90.182 162.271 90.0229C162.45 89.9633 162.61 89.9036 162.888 89.2472C163.286 88.3124 163.485 88.1533 163.545 88.6903C163.585 89.108 163.943 88.929 164.142 88.6505C164.799 87.6759 165.316 86.4029 165.854 85.2095C165.913 85.0703 165.893 84.8913 165.913 84.7322C165.973 84.036 166.212 83.678 166.61 83.5785C166.51 83.1012 166.749 82.584 167.087 82.0072C167.466 81.3508 167.684 80.774 167.386 80.7144C167.266 80.6945 167.227 80.4757 167.286 80.2171C167.446 79.4414 167.266 79.2823 167.087 79.1033C166.908 78.9242 166.709 78.8049 166.49 78.6657C166.291 78.5463 166.053 78.4668 166.072 77.9695C166.152 76.6767 165.655 76.438 165.336 75.8413C165.276 75.7219 164.998 75.8413 164.739 76.259C164.62 76.438 164.52 76.6568 164.48 76.5175C164.46 76.438 164.54 76.2391 164.62 76.08C164.918 75.4833 164.858 75.3042 164.819 75.0457C164.739 74.6678 164.381 74.8866 164.281 74.5484C164.122 74.0114 164.003 73.3351 163.067 74.6479C162.988 74.7473 162.948 74.7274 162.968 74.6081C162.988 74.4689 163.067 74.3495 163.147 74.2501C163.605 73.713 163.585 73.3948 163.525 73.1362C163.485 72.9771 163.446 72.818 163.346 72.7782C163.107 72.6589 163.047 72.0025 162.291 73.4346C162.172 73.6534 161.953 73.8722 161.754 74.2501C161.654 74.449 161.356 74.8866 161.475 74.3694C161.575 73.9517 161.694 73.534 161.615 73.3152C161.575 73.2357 161.654 73.0368 161.853 72.7981C162.033 72.5793 162.351 72.2014 162.47 71.8036C162.57 71.4257 162.431 71.3859 162.212 71.5649C162.192 71.5848 162.192 71.4853 162.172 71.4456C162.072 70.5704 161.535 70.5107 161.237 69.9936C161.177 69.8941 161.077 69.8146 160.938 69.8742C160.659 70.0135 160.6 69.7549 160.5 69.5361C160.301 69.0985 160.162 68.462 159.127 69.6555C159.724 68.6212 159.684 68.283 159.465 68.3029L159.306 68.2035ZM156.719 83.6183C156.719 83.6183 156.918 83.499 156.799 83.8172C156.679 84.1355 156.58 84.215 156.46 84.2349C156.301 84.2747 156.202 84.1553 156.062 83.9564C156.361 83.8172 156.54 83.7178 156.699 83.6382L156.719 83.6183Z" fill="white"/>
</mask>
<g mask="url(#mask1_5983_64779)">
<path d="M195.416 135.253L42.788 144.203L26.8672 511.228H199.011" stroke="white" stroke-width="37"/>
<path d="M38.8076 248.626L177.12 232.714" stroke="white" stroke-width="37"/>
<path d="M19.9014 81.5495L92.54 16.9066L173.139 81.5495" stroke="white" stroke-width="18"/>
</g>
</g>
</svg>
