<svg width="193" height="510" viewBox="0 0 193 510" fill="none" xmlns="http://www.w3.org/2000/svg">
<g clip-path="url(#clip0_5983_64766)">
<mask id="mask0_5983_64766" style="mask-type:luminance" maskUnits="userSpaceOnUse" x="-2" y="-8" width="197" height="517">
<path d="M194.043 -7.32056H-1.38672V508.513H194.043V-7.32056Z" fill="white"/>
</mask>
<g mask="url(#mask0_5983_64766)">
<mask id="mask1_5983_64766" style="mask-type:alpha" maskUnits="userSpaceOnUse" x="1" y="-8" width="189" height="513">
<path d="M27.3996 444.842C27.7873 448.703 28.1556 452.583 28.5432 456.443C29.6481 456.325 30.753 456.188 31.8385 456.071C29.9195 435.867 28.2525 415.644 25.9845 395.499C24.4532 381.84 20.9641 369.573 29.0084 355.463C34.0677 346.586 32.168 331.889 33.7575 316.094C28.9697 320.308 26.7405 322.267 22.1077 326.343C25.3255 297.223 28.33 269.906 31.3539 242.589C33.0016 227.696 35.4633 212.861 36.2193 197.89C37.0722 180.781 36.4131 163.576 37.7313 146.155C38.1771 148.644 38.6229 151.132 39.1269 154.013C45.8532 147.233 42.6548 139.335 39.3401 133.829C36.859 129.694 31.1988 127.872 26.663 126.167C21.6425 124.266 15.1489 125.461 11.4465 121.973C8.26756 118.975 6.07717 110.47 7.27898 105.884C8.24818 102.181 14.9357 100.691 19.1032 98.2223C19.4715 99.2609 19.8398 100.3 20.2081 101.338C18.7931 101.906 17.378 102.475 15.963 103.023C16.0018 103.651 16.0212 104.297 16.0599 104.924C26.8956 103.827 37.7119 102.729 50.5635 101.417C47.462 98.7514 46.0664 97.5561 44.0892 95.8512C86.4433 93.4017 128.158 90.1879 171.035 98.2615C172.411 97.4385 177.916 93.7936 178.052 94.0679C181.871 101.789 185.166 109.921 189.508 120.307C176.463 121.248 166.034 122.365 155.605 122.679C130.813 123.423 106.021 123.893 81.229 124.266C69.1721 124.442 64.8301 129.224 64.2098 143.901C63.7058 155.816 63.3569 167.77 62.5428 179.665C61.9613 188.15 64.5393 192.011 71.7114 191.364C93.3633 189.424 115.035 187.817 136.667 185.681C152.989 184.074 160.006 189.659 164.328 208.511C166.402 217.564 161.44 219.406 156.09 220.171C129.476 224.031 102.862 228.029 76.1891 231.184C63.8027 232.634 62.3683 233.379 61.8643 248.37C60.1392 298.987 58.4334 349.624 56.7082 400.241C56.65 402.103 56.3787 403.964 56.0298 407.805C54.5372 399.339 53.3741 392.814 52.2305 386.308C51.7847 386.406 51.3194 386.504 50.8736 386.582C53.3548 415.075 55.8359 443.588 58.4334 473.355C72.8551 472.277 87.5482 471.179 102.261 470.082C102.319 470.709 102.358 471.356 102.416 471.983C89.9518 474.668 77.4878 477.372 65.0433 480.057C65.1984 480.938 65.3535 481.82 65.5085 482.702C98.3644 479.802 131.22 476.902 164.076 474.001C164.057 473.1 164.037 472.179 163.999 471.277H131.511C131.492 470.513 131.453 469.749 131.434 469.004C135.272 468.514 139.11 468.024 145.758 467.182C140.505 466.065 138.005 465.536 135.485 465.007C135.485 464.634 135.485 464.262 135.485 463.87C142.153 463.87 148.84 463.635 155.508 463.929C167.081 464.438 175.203 471.65 178.498 484.387C180.553 492.363 176.036 495.146 170.899 495.479C151.108 496.713 131.278 497.282 111.487 498.34C79.2906 500.084 47.1131 501.789 14.9357 504.042C7.4922 504.572 2.87881 502.044 1.83207 492.99C0.765954 483.819 6.09656 480.762 12.125 479.194C24.4144 475.981 26.6824 472.571 26.1202 457.09C25.9652 453.053 25.6744 449.036 25.4418 445.018C26.1008 444.96 26.7599 444.881 27.419 444.822L27.3996 444.842ZM154.249 213.077C154.113 211.098 153.997 209.138 153.861 207.159C130.988 209.843 108.115 212.528 85.2414 215.213C85.2608 215.801 85.2996 216.389 85.319 216.996C108.289 215.683 131.278 214.39 154.249 213.077Z" fill="white"/>
<path d="M160.141 -7.00782C160.005 -6.49831 159.385 -6.81185 158.997 -6.73347C158.764 -6.67468 158.551 -6.5767 158.26 -6.59629C157.97 -6.61589 157.504 -6.79226 158.028 -5.63608C158.086 -5.5185 158.067 -5.47931 157.989 -5.53809C157.912 -5.59688 157.834 -5.69487 157.776 -5.83204C157.466 -6.5767 157.388 -6.36114 157.33 -6.34154C157 -6.30235 156.652 -6.26316 156.38 -6.12598C155.896 -5.85164 155.198 -5.93002 154.558 -5.91042C154.287 -5.91042 154.054 -5.85164 153.821 -5.75365C153.531 -5.65567 153.318 -5.44011 153.007 -5.38132C152.62 -5.32253 152.077 -5.53809 151.767 -5.36173C151.36 -5.10697 150.953 -4.87182 150.41 -4.89141C150.022 -4.89141 149.906 -4.47989 149.383 -4.71504C148.975 -4.91101 148.917 -4.49949 148.627 -4.51908C148.22 -4.53868 147.832 -4.51908 147.522 -4.36231C147.153 -4.16635 146.475 -4.47989 146.378 -3.85281C146.339 -3.63725 145.874 -4.22514 145.758 -4.16635C145.486 -4.04877 145.196 -4.00958 144.905 -3.93119C144.866 -3.93119 144.75 -3.97039 144.866 -3.77442C145.312 -2.99057 145.002 -3.3825 144.789 -3.57846C144.071 -4.24473 144.033 -3.892 144.672 -2.79461C144.614 -2.75542 144.401 -2.95138 144.304 -3.12775C143.819 -4.14675 143.684 -3.8724 143.664 -3.83321C143.606 -3.65685 143.412 -3.73523 143.257 -3.71563C142.559 -3.65685 141.9 -3.51967 141.241 -3.3825C141.144 -3.3825 141.144 -3.16694 140.989 -3.22573C140.272 -3.53927 140.001 -3.10815 139.477 -3.10815C139.012 -3.10815 138.586 -3.01017 138.256 -2.77501C137.907 -2.52026 137.151 -2.91219 137.171 -2.08914C137.171 -1.97157 137.112 -1.99116 136.996 -2.06955C136.298 -2.61824 136.066 -2.36349 135.833 -2.14793C135.581 -1.91278 135.077 -2.10874 134.845 -1.83439C134.631 -1.57964 133.953 -2.03035 134.147 -1.12892C134.147 -1.07014 134.147 -1.05054 134.108 -1.07014C133.585 -1.71681 133.72 -1.18771 133.488 -1.2857C132.79 -1.63843 132.964 -0.580229 132.286 -0.89377C131.918 -1.07014 132.208 -0.227496 131.801 -0.462651C131.452 -0.658614 131.297 -0.580229 131.22 -0.384266C131.065 -0.0119368 130.658 -0.0511294 130.386 0.144833C130.192 0.301604 129.785 0.184026 129.591 0.379989C129.456 0.517163 129.223 0.497566 129.184 0.771914C129.165 1.02667 129.01 0.948281 128.777 0.771914C128.642 0.693529 128.603 0.771914 128.584 0.869895C128.467 1.22263 128.021 1.08545 127.789 1.26182C127.576 1.43819 127.227 1.3794 126.936 1.43819C126.471 1.51657 126.122 1.77132 125.812 2.10446C125.54 2.39841 124.804 1.98688 124.842 2.80993C124.842 2.90791 124.784 2.9471 124.552 2.63356C124.358 2.35921 124.319 2.418 124.358 2.51598C124.513 3.16266 123.989 2.73154 123.815 2.82952C123.389 3.04508 122.691 2.82952 122.342 3.18226C122.07 3.45661 121.276 2.92751 121.47 3.90732C121.47 3.96611 121.392 3.92692 121.315 3.86813C120.946 3.51539 120.869 3.65257 120.733 3.69176C120.229 3.86813 119.783 4.12288 119.202 4.18167C119.085 4.18167 119.144 4.554 118.969 4.43642C118.291 4.0053 118.155 4.43642 117.942 4.74996C117.884 4.84794 117.787 4.88713 117.593 4.74996C117.38 4.59319 117.283 4.59319 117.186 4.65198C116.643 5.00471 115.848 4.98512 115.383 5.47502C115.305 5.55341 115.17 5.573 114.976 5.47502C114.705 5.35745 114.569 5.49462 114.511 5.71018C114.511 5.76897 114.491 5.78856 114.414 5.74937C113.987 5.51422 113.813 5.71018 113.658 5.94533C113.406 6.33726 112.882 6.29807 112.495 6.47443C112.282 6.59201 111.894 6.47443 111.778 6.72918C111.564 7.25828 111.022 7.25828 110.595 7.43465C110.072 7.66981 109.49 7.84617 109.044 8.19891C108.851 8.35568 108.773 8.7476 108.424 8.61043C107.823 8.35568 107.804 9.00235 107.377 9.04155C106.718 9.10033 106.137 9.33549 106.001 10.1977C106.001 10.2173 105.943 10.1977 105.885 10.1389C105.536 9.74701 105.575 10.0018 105.458 10.0018C105.245 10.0214 105.303 10.4329 105.09 10.4329C104.586 10.4329 104.47 11.0208 103.966 11.0404C103.501 11.0404 103.326 11.5107 102.938 11.6479C102.531 11.785 102.279 12.1574 101.911 12.3533C101.737 12.4513 101.756 12.8628 101.504 12.8628C100.942 12.8628 100.69 13.2939 100.38 13.6662C100.283 13.7838 100.632 14.6069 99.9727 13.8034H99.9533C99.7789 14.019 99.43 13.9798 99.2361 14.1757C99.0617 14.3717 98.9648 14.7048 98.6934 14.7636C98.3057 14.842 98.1312 15.2535 97.7242 15.3319C97.6079 15.3515 97.7629 15.7826 97.5691 15.7042C97.2783 15.6063 96.8519 15.2731 97.1427 16.057C97.1814 16.1354 97.1814 16.2333 97.1427 16.2137C96.6387 15.763 96.6774 16.2137 96.4061 16.1354C95.9796 16.0374 95.8245 16.3705 95.6695 16.6645C95.5726 16.8604 95.3787 16.9976 95.1849 16.9388C94.8553 16.8604 94.6809 16.9976 94.4483 17.0956C94.332 17.1544 94.1963 17.174 94.1381 17.2915C93.9831 17.6835 93.2659 17.2328 93.2077 17.7814C93.1689 18.095 92.9363 18.1538 92.7231 18.2126C92.2773 18.3497 91.8314 18.4869 91.5407 18.8592C91.4631 18.9572 91.3662 19.016 91.2112 18.9964C90.649 18.9376 90.3776 19.3492 89.9318 19.4667C89.4666 19.5843 89.3115 20.1526 88.7494 20.133C88.478 20.133 88.5943 20.6817 88.3229 20.6621C87.9353 20.6621 87.6057 20.7209 87.2956 20.8189C87.1793 20.8581 87.3537 21.3284 87.1017 21.152C86.559 20.7405 86.6171 21.3284 86.1713 21.0932C86.0162 21.0148 86.0356 21.2304 86.1132 21.4851C86.2295 21.9163 86.3458 22.367 85.7449 21.6811C85.5898 21.5243 85.5123 21.5243 85.4541 21.5439C85.1052 21.7399 84.7757 21.9751 84.3686 22.0926C84.1941 22.1514 84.1554 22.4258 83.9615 22.4258C83.5738 22.4258 83.38 22.7001 83.0699 22.8177C82.6628 22.9745 82.2557 23.1116 81.9068 23.3468C81.4028 23.6799 80.957 24.0719 80.4918 24.4442C80.2398 24.6597 79.8715 24.6793 79.5807 24.7969C79.3869 24.8753 79.3481 25.2476 79.0186 25.0909C78.6503 24.9341 78.7666 25.4436 78.4177 25.326C77.8749 25.1301 78.1076 26.1099 77.5648 25.9727C77.1965 25.8747 76.9445 26.0119 76.7894 26.247C76.4793 26.7174 75.8202 26.6978 75.4132 27.0309C75.1612 27.2465 74.7154 27.1485 74.4828 27.4032C74.2889 27.5992 74.2308 28.0107 73.8431 27.8931C73.2228 27.6972 73.1065 28.2851 72.5637 28.2067C72.021 28.1283 71.9434 28.7946 71.3038 28.5986C71.0906 28.5202 71.4201 29.1865 71.2069 29.0885C70.4509 28.7358 70.1601 29.1277 69.6755 29.2257C69.5786 29.2257 69.5011 29.2649 69.5786 29.5392C69.7337 30.0291 69.6755 30.1859 69.1715 29.6568C68.8808 29.3629 68.8032 29.4412 68.7839 29.598C68.7839 29.7156 68.7839 29.8528 68.6675 29.7744C68.0473 29.3825 67.9697 29.8724 67.5433 29.7744C67.2525 29.7156 67.3494 30.2055 67.0393 30.0879C66.8067 30.0095 66.6322 30.0095 66.6516 30.3231C66.6516 30.6366 66.5741 30.7738 66.1282 30.4211C65.663 30.0487 65.5273 30.2447 65.5661 30.6758C65.5661 30.7934 65.6243 30.9306 65.4304 30.715C64.9264 30.1663 64.8877 30.3623 65.004 30.7738C65.0621 30.9697 65.0815 31.0677 64.8877 30.8914C64.5775 30.5778 64.5388 30.7346 64.3643 30.6562C64.0154 30.4994 64.1123 31.0481 63.8022 30.9502C62.988 30.715 62.6197 31.2245 61.9219 31.1853C61.3598 31.1657 61.0884 31.5772 60.4875 31.5184C59.906 31.4401 59.7509 32.0084 59.2469 32.0279C58.7817 32.0475 58.3553 32.1651 57.9288 32.2435C57.6574 32.3023 57.3667 32.3219 57.2504 32.5766C57.0953 32.8706 57.0953 33.3801 56.6301 33.2037C56.1455 33.0274 56.4169 33.968 55.7384 33.4781C55.719 33.4585 55.7384 33.5565 55.7384 33.6152C55.7384 33.8112 55.6027 33.7524 55.5252 33.8112C55.2344 34.0072 54.5366 33.6544 55.06 34.9478C55.0794 35.0066 55.0406 35.0458 55.0018 35.0066C54.4397 34.3795 54.4009 34.693 54.2652 34.7714C53.8582 35.0066 53.5868 35.4377 53.2185 35.7121C52.8308 35.9864 52.5982 36.5155 52.1524 36.7311C51.9004 36.8486 51.8422 37.2602 51.5515 37.3189C50.8343 37.4561 50.7373 38.4555 50.214 38.8671C50.0589 39.0042 49.8069 39.0042 49.8069 39.4157C49.8069 39.6313 49.4192 39.4157 49.3029 39.5529C48.9734 39.9253 48.6633 40.3172 48.3143 40.6307C47.5777 41.2774 47.0932 42.2768 46.4147 43.0019C46.2596 43.1586 46.1433 43.3742 45.9301 43.4722C45.5618 43.6681 45.4843 44.2756 45.116 44.4912C44.7671 44.6871 44.5926 45.1183 44.3019 45.373C44.0692 45.5494 44.0499 46.0197 43.8754 46.2744C43.6428 46.6076 43.2745 46.7839 43.0807 47.1955C42.9837 47.411 42.7317 47.4306 43.0225 48.1949C43.2163 48.7044 43.3327 49.1943 43.4296 49.6254C43.5071 49.9977 43.7979 50.6052 43.8948 50.9972C43.9529 51.2715 44.3406 51.8986 44.7089 52.3101C45.2129 52.8588 45.62 53.1136 45.8138 53.1136C46.1627 53.1136 46.7055 53.4467 47.3839 54.1326C47.946 54.6813 48.5082 55.2691 49.0122 55.7199C49.4386 56.0922 50.0783 56.8368 50.2527 56.8368C50.5823 56.8173 51.3576 57.5227 51.4158 57.0524C51.4158 56.9152 51.6872 56.974 52.1524 57.5619C52.3462 57.7971 52.5013 57.895 52.3462 57.6011C52.0167 56.9544 52.385 57.1504 52.5013 57.17C52.9277 57.17 53.4705 57.4051 53.8388 57.3268C54.0908 57.268 54.4785 57.3855 54.5172 57.0916C54.5754 56.7976 54.808 56.9152 55.1375 57.0916C55.215 57.1308 55.2926 57.2092 55.2732 57.0916C55.1957 56.6017 55.6803 56.8956 55.7772 56.6605C55.9129 56.3469 56.6107 56.8564 56.727 56.4841C56.7658 56.3665 56.6882 56.0726 56.8627 56.1118C57.5799 56.2685 58.0645 56.0922 58.3359 55.5827C58.4522 55.3671 58.7429 55.4063 58.8399 55.1712C59.0143 54.7204 59.7509 55.0928 59.8091 54.4461C59.8091 54.2893 59.906 54.1718 60.0804 54.1913C60.6813 54.2697 61.0109 53.9366 61.321 53.5839C61.4567 53.4271 61.5342 53.1527 61.7862 53.1919C62.3096 53.3095 62.6004 53.0744 63.0462 53.0548C63.3951 53.0548 63.6471 52.8392 63.9766 52.8C64.2674 52.7608 64.4612 52.604 64.7132 52.4865C65.159 52.3101 65.4692 51.9182 66.0701 51.9966C66.923 52.0945 67.3688 51.5654 68.086 51.4283C68.59 51.3303 68.9583 51.0167 69.5011 50.958C69.7724 50.9384 70.2764 51.1931 70.257 50.8012C70.2183 50.2133 70.9355 50.8404 71.0518 50.4876C71.1487 50.1937 71.769 50.6052 72.0404 50.5072C72.1567 50.4681 72.1567 50.2329 72.3505 50.3113C72.8933 50.5268 72.9902 50.0761 73.4554 50.1937C73.9788 50.3113 74.192 49.939 74.6572 49.9977C74.8898 50.0173 75.0837 49.9977 75.2193 49.8802C75.4132 49.6842 75.6458 49.547 76.1885 49.9194C76.363 50.0369 76.4987 50.0761 76.5181 49.9781C76.615 49.5666 77.0221 49.645 77.526 49.8606C78.0494 50.0957 78.03 49.4882 78.5534 49.7626C78.8054 49.8802 78.7085 49.449 78.9411 49.5666C79.4257 49.8018 79.949 50.1349 79.7746 49.3903C79.7746 49.3511 79.8134 49.3903 79.8521 49.3903C80.2204 49.6058 80.6469 49.9194 80.4336 49.2531C80.3755 49.0767 80.5112 49.1943 80.6662 49.3315C80.9764 49.6646 81.0927 49.645 81.2478 49.645C81.5579 49.6842 81.6742 49.4294 82.0037 49.5078C82.5465 49.6254 82.8954 49.4686 83.3025 49.3511C83.9228 49.1747 84.4849 48.9004 85.1246 48.7632C85.3572 48.724 85.6092 48.6652 85.8612 48.6456C86.1132 48.6456 86.307 48.528 86.6171 48.6064C87.063 48.724 87.3925 48.6456 87.6057 48.3908C87.7026 48.2733 88.1485 48.7436 88.1291 48.4692C88.0903 47.9205 88.6525 48.2341 88.5943 47.6658C88.5555 47.2739 89.1564 47.9205 89.2921 47.8226C89.5635 47.6462 90.0093 47.7442 90.0675 47.2543C90.0869 47.0191 90.3001 46.9799 90.5909 47.1563C91.2499 47.5482 90.8816 46.392 91.4631 46.6664V46.6272C91.7151 46.686 91.4631 46.0785 91.6958 46.0589C91.8508 46.0589 92.1028 46.1961 92.2385 46.1569C92.6068 46.0393 92.9557 45.9021 93.3046 45.7453C93.3628 45.7258 93.4209 45.667 93.324 45.471C93.0914 44.9223 93.2659 44.8243 92.9751 44.1972C92.82 43.8445 93.0139 43.9621 93.2465 44.2952C93.7892 45.0399 93.8086 44.7851 93.9637 44.8047C94.0412 44.8047 94.0024 44.6284 94.1381 44.7067C94.7003 45.0007 95.0492 44.9419 95.3399 44.7851C95.4369 44.7263 95.4756 44.648 95.3012 44.256C95.1267 43.8837 95.0686 43.6485 95.4756 44.158C95.5919 44.2952 95.6889 44.3736 95.6695 44.2952C95.5726 43.7857 96.0572 44.1776 96.2316 44.0797C96.6387 43.8445 96.755 43.1782 97.3171 43.1586C97.7823 43.139 98.1894 43.0215 98.5189 42.7863C98.9454 42.4728 99.43 42.2376 99.4687 41.3754C99.4687 41.2774 99.5463 41.2578 99.7595 41.5321C100.147 42.0221 100.147 41.8653 100.263 41.8653C100.535 41.8653 100.671 41.6497 100.826 41.4734C100.961 41.3166 101.562 41.9241 101.504 41.5125C101.446 41.0226 102.105 41.5125 101.659 40.5327C101.64 40.4935 101.679 40.4739 101.717 40.5131C102.241 40.9639 102.357 40.7679 102.512 40.5719C102.938 40.082 103.811 40.2976 104.334 39.9448C104.625 39.7489 105.342 40.18 104.838 38.8475C104.819 38.7887 104.896 38.8083 104.954 38.8475C105.497 39.2394 105.769 39.2002 105.924 39.0042C106.234 38.6123 106.66 38.3576 107.106 38.1812C107.513 38.0048 108.172 38.2008 108.114 37.3189C108.114 37.2993 108.133 37.3189 108.172 37.3189C108.948 37.946 108.87 37.221 109.064 36.9662C109.2 36.7898 109.335 36.5351 109.548 36.5155C109.936 36.4763 110.207 36.2216 110.595 36.1824C110.963 36.1432 111.312 36.0452 110.808 34.7714C110.731 34.5559 110.808 34.5559 110.983 34.7714C111.545 35.5161 111.603 35.3005 111.642 35.1046C111.7 34.5951 112.437 35.1046 112.456 34.5167C112.456 34.3207 112.359 33.8896 112.689 34.1247C113.076 34.3991 112.979 33.8896 113.348 34.1247C113.483 34.2227 113.425 34.0072 113.309 33.7328C113.231 33.5761 113.134 33.3213 113.173 33.3409C113.619 33.5957 113.542 33.0274 113.871 33.1057C114.336 33.2037 114.356 33.1057 114.162 32.2631C114.162 32.2043 114.181 32.1651 114.239 32.2239C114.511 32.4983 114.549 32.4983 114.317 32.0084C114.084 31.5576 114.278 31.636 114.511 31.8124C114.608 31.8908 114.821 32.1847 114.801 32.0867C114.763 31.5968 115.441 32.0867 115.15 31.2441C115.112 31.1265 115.15 31.1069 115.228 31.1853C115.984 31.7928 116.197 31.4793 116.372 31.1853C116.662 30.715 117.341 30.8718 117.535 30.2055C117.767 29.3824 118.446 29.2257 118.833 28.6378C118.911 28.5006 118.853 28.1871 118.93 28.0303C119.027 27.8539 119.454 28.3438 119.57 28.2459C119.841 28.0303 119.977 27.6188 120.403 27.6188C120.694 27.6188 120.811 27.3444 121.043 27.2661C121.373 27.1485 121.508 26.7957 121.76 26.5998C122.07 26.3842 122.439 26.2274 122.671 25.8943C122.807 25.6788 123.602 26.4234 123.078 25.1888C122.982 24.9733 123.156 25.1497 123.292 25.326C123.389 25.4436 123.544 25.6984 123.544 25.62C123.582 25.1497 124.319 25.7179 123.834 24.503C123.757 24.3266 123.834 24.3462 123.873 24.3266C124.048 24.307 124.203 24.2482 124.319 24.1502C124.552 23.9935 125.017 24.209 125.327 24.1894C125.424 24.1894 125.579 24.2874 125.618 24.1894C125.715 23.9739 125.831 23.7779 126.005 23.6995C126.432 23.5036 126.432 22.7001 127.11 22.9353C127.207 22.9745 127.207 22.8765 127.149 22.7001C126.975 22.0142 127.11 21.7399 127.459 21.8379C128.021 21.9947 128.622 22.171 128.719 21.6223C128.797 21.152 129.378 21.446 129.32 20.7797C129.281 20.329 130.212 21.3872 129.999 20.5641C129.999 20.5249 130.057 20.5641 130.115 20.6229C130.522 20.9169 130.212 20.0546 130.774 20.6033C130.774 20.6033 130.774 20.5249 130.755 20.5053C130.716 20.0938 130.91 20.0742 131.278 20.2702C131.452 20.3682 131.685 20.5445 131.724 20.4661C131.918 20.133 132.402 20.3094 132.712 20.1722C132.964 20.0742 133.294 20.0546 133.274 19.5843C133.274 19.2512 133.856 19.7999 133.468 18.9572C133.468 18.9572 133.526 19.016 133.565 19.0356C134.05 19.2512 134.418 19.2904 134.573 18.9572C134.651 18.8005 134.767 18.7025 134.845 18.5457C134.922 18.3889 135.349 19.0944 135.387 18.918C135.484 18.5457 136.027 18.8201 136.182 18.5457C136.318 18.3301 136.57 18.4085 137.171 19.1924C137.229 19.114 136.841 18.6241 136.938 18.5457C137.229 18.3693 137.539 18.2518 137.384 17.4287C137.384 17.3503 137.423 17.3307 137.481 17.3895C137.888 17.7423 137.868 17.3503 138.295 17.7619C138.45 17.899 138.431 17.7619 138.372 17.6051C138.217 17.2132 138.372 17.2915 138.547 17.3895C138.876 17.5855 139.303 17.8794 139.38 17.6639C139.497 17.4091 139.516 17.0368 140.001 17.3699C140.039 17.4091 140.059 17.3503 140.039 17.2719C139.826 16.6057 140.195 16.8604 140.505 17.0172C140.621 17.076 140.602 16.9388 140.66 16.8996C140.834 16.7624 140.854 16.4097 141.067 16.3509C141.338 16.2921 141.803 16.5469 142.017 16.4097C142.269 16.2529 142.811 16.4685 142.637 15.6455C142.579 15.3319 143.063 15.9002 143.025 15.6455C142.908 14.9596 143.567 15.5083 143.742 15.2731C143.819 15.1751 143.8 14.8812 144.013 14.9988C144.498 15.2535 144.789 15.1947 144.963 14.94C145.06 14.8028 145.254 14.8616 145.331 14.7244C145.448 14.4501 146.107 14.9792 145.738 13.9798C145.68 13.823 145.738 13.823 145.874 13.9406C146.94 15.038 146.475 13.5291 147.212 14.0973C146.785 13.2939 147.212 13.725 147.367 13.823C147.638 13.9994 147.425 13.4115 147.677 13.5682C148.375 13.9798 148.375 13.3919 147.696 12.0398C148.123 12.3925 149.092 13.7838 148.782 12.6668C148.743 12.5492 148.956 12.7648 149.072 12.8824C149.499 13.2939 150.003 13.2351 149.848 12.7452C149.712 12.3337 149.809 12.3337 150.158 12.7452C150.352 12.9804 150.468 13.0587 150.352 12.7844C150.119 12.1965 150.391 12.3337 150.565 12.3729C150.836 12.4317 151.34 12.8628 151.437 12.608C151.476 12.51 151.437 12.2553 151.573 12.3729C152.445 13.1371 151.902 11.7066 152.406 11.883C152.775 12.0202 152.872 11.6479 153.046 11.4715C153.279 11.2559 153.686 11.3343 154.035 11.3147C154.209 11.3147 154.209 10.9816 154.694 11.4519C155.159 11.9026 155.178 11.3539 154.849 10.5701C155.392 11.5303 155.372 11.2951 155.411 11.1188C155.411 11.0208 155.353 10.864 155.256 10.668C154.655 9.39428 156.109 11.3147 155.644 10.2369C155.605 10.1585 155.721 10.1781 155.818 10.3545C156.322 11.1775 156.264 10.7856 156.38 10.8052C156.535 10.8248 156.496 10.4721 156.807 10.766C157.156 11.0796 157.233 11.0012 157.311 10.864C157.349 10.7856 157.485 10.8052 157.504 10.7268C157.601 10.4525 158.144 10.9228 158.164 10.5505C158.202 10.0214 159.016 10.7268 158.745 9.74701C158.745 9.70782 158.784 9.72742 158.842 9.76661C159.288 10.2173 159.346 10.041 159.501 10.0018C160.005 9.86459 160.567 9.8254 161.09 9.70782C161.207 9.68822 161.594 10.0018 161.11 9.15912C161.013 9.00235 161.071 8.98276 161.187 9.10033C161.73 9.66863 161.885 9.57065 162.04 9.41388C162.098 9.35509 162.079 9.15912 162.215 9.17872C162.622 9.23751 162.777 8.90437 163.165 8.92397C163.378 8.92397 163.63 8.98276 163.785 8.84558C163.901 8.7476 163.785 8.19891 164.444 8.98276C164.463 9.02195 164.502 9.02195 164.502 8.98276C164.328 8.37527 164.715 8.66922 164.909 8.63002C165.607 8.49285 166.092 8.00294 166.828 7.94415C167.352 7.90496 167.856 7.80698 168.146 7.41505C168.282 7.23869 168.922 7.7286 168.166 6.23928C168.786 7.31707 168.999 7.31707 169.096 7.23869C169.309 7.08192 169.523 6.92515 169.833 6.90555C170.027 6.90555 169.968 6.49403 170.24 6.59201C170.453 6.6704 170.879 7.12111 170.918 6.90555C171.015 6.51363 171.5 6.80757 171.829 6.82717C171.946 6.82717 172.101 6.84676 172.101 6.70959C172.101 6.49403 171.79 5.71018 172.546 6.74878C172.566 6.78797 172.605 6.76838 172.643 6.74878L173.205 6.57241C173.205 6.57241 173.302 6.57241 173.205 6.39605C172.76 5.573 172.973 5.76897 173.361 6.21968C173.535 6.43524 173.593 6.39605 173.671 6.39605C174.194 6.49403 174.369 6.00412 175.047 6.35686C175.183 6.43524 175.241 6.35686 175.318 6.31766C175.376 6.29807 175.26 6.02372 175.163 5.96493C174.853 5.78856 174.853 5.55341 174.814 5.41623C174.737 5.14189 174.853 5.20067 175.144 5.63179C175.28 5.82776 175.493 6.16089 175.435 5.94533C175.376 5.67099 175.512 5.82776 175.745 6.1217C175.919 6.33726 175.919 6.21968 175.997 6.23928C176.288 6.33726 175.958 5.5926 176.094 5.49462C176.21 5.41623 176.656 5.80816 176.094 4.80875C176.074 4.76956 176.094 4.71077 176.094 4.71077C176.501 4.78915 176.559 4.31884 176.598 3.84853C176.598 3.69176 176.598 3.53499 176.249 2.9667C175.706 2.12406 175.648 1.8889 176.055 2.18285C176.365 2.418 176.365 2.06527 176.21 1.75173C175.725 0.713126 174.989 -0.403862 174.31 -1.50125C174.233 -1.61883 174.097 -1.71681 174 -1.83439C173.516 -2.3047 173.341 -2.67703 173.399 -3.01017C173.031 -3.22573 172.74 -3.71563 172.43 -4.28393C172.081 -4.9502 171.752 -5.44011 171.597 -5.26374C171.538 -5.20495 171.383 -5.30293 171.209 -5.4989C170.705 -6.08679 170.53 -6.0476 170.356 -6.028C170.162 -6.00841 170.007 -5.94962 169.852 -5.89083C169.697 -5.83204 169.561 -5.71446 169.212 -6.028C168.301 -6.87064 167.952 -6.65508 167.429 -6.79226C167.313 -6.81185 167.313 -6.5571 167.526 -6.12598C167.623 -5.93002 167.739 -5.73406 167.642 -5.79285C167.565 -5.83204 167.468 -5.98881 167.371 -6.16518C167.041 -6.73347 166.886 -6.81185 166.673 -6.90983C166.382 -7.06661 166.421 -6.69428 166.13 -6.83145C165.684 -7.04701 165.161 -7.34095 165.82 -5.93002C165.878 -5.81244 165.82 -5.79285 165.743 -5.89083C165.646 -5.98881 165.588 -6.10639 165.549 -6.22396C165.297 -6.87064 165.064 -7.04701 164.851 -7.14499C164.735 -7.20378 164.599 -7.26257 164.541 -7.22337C164.386 -7.12539 163.882 -7.45853 164.677 -6.08679C164.793 -5.87123 164.89 -5.59688 165.103 -5.24414C165.219 -5.04818 165.433 -4.59747 165.103 -4.98939C164.832 -5.30293 164.56 -5.63608 164.386 -5.69487C164.308 -5.71446 164.192 -5.89083 164.095 -6.16518C163.998 -6.41993 163.824 -6.87064 163.572 -7.18418C163.339 -7.47813 163.262 -7.39974 163.32 -7.14499C163.32 -7.1058 163.261 -7.16459 163.223 -7.20378C162.544 -7.6349 162.331 -7.30176 161.866 -7.38014C161.769 -7.38014 161.691 -7.38014 161.691 -7.24297C161.691 -6.96862 161.498 -7.06661 161.304 -7.12539C160.916 -7.24297 160.412 -7.49772 160.955 -6.08679C160.393 -7.1058 160.121 -7.28216 160.063 -7.1058L160.141 -7.00782ZM170.608 3.80934C170.608 3.80934 170.589 3.59378 170.763 3.86813C170.957 4.14248 170.976 4.26005 170.957 4.33844C170.938 4.47561 170.821 4.47561 170.627 4.45602C170.627 4.16207 170.608 3.9857 170.589 3.82893L170.608 3.80934Z" fill="white"/>
</mask>
<g mask="url(#mask1_5983_64766)">
<path d="M33.5049 215.097L172.101 208.239" stroke="white" stroke-width="39"/>
<path d="M33.5049 47.5489L176.947 -1.44177" stroke="white" stroke-width="23"/>
<path d="M197.3 106.338L34.4744 122.995L28.6592 481.607H197.3" stroke="white" stroke-width="39"/>
</g>
</g>
</g>
<defs>
<clipPath id="clip0_5983_64766">
<rect width="193" height="510" fill="white"/>
</clipPath>
</defs>
</svg>
