<svg width="203" height="526" viewBox="0 0 203 526" fill="none" xmlns="http://www.w3.org/2000/svg">
<mask id="mask0_5983_64792" style="mask-type:luminance" maskUnits="userSpaceOnUse" x="0" y="0" width="203" height="525">
<path d="M202.638 0H0V524.187H202.638V0Z" fill="white"/>
</mask>
<g mask="url(#mask0_5983_64792)">
<mask id="mask1_5983_64792" style="mask-type:alpha" maskUnits="userSpaceOnUse" x="3" y="-1" width="195" height="521">
<path d="M29.8477 459.431C30.2497 463.356 30.6316 467.301 31.0336 471.226C32.1792 471.107 33.3248 470.967 34.4504 470.848C32.4606 450.306 30.7321 429.744 28.3805 409.262C26.7927 395.375 23.1748 382.902 31.5159 368.557C36.7618 359.531 34.7921 344.588 36.4402 328.529C31.4757 332.812 29.1643 334.805 24.3607 338.949C27.6971 309.342 30.8125 281.567 33.9479 253.793C35.6563 238.65 38.2089 223.568 38.9928 208.346C39.8771 190.952 39.1938 173.459 40.5605 155.746C41.0228 158.277 41.485 160.807 42.0076 163.736C48.982 156.842 45.6656 148.813 42.2287 143.214C39.656 139.01 33.7871 137.157 29.0839 135.424C23.8783 133.491 17.1451 134.706 13.3062 131.16C10.01 128.111 7.7388 119.464 8.98494 114.802C9.98989 111.036 16.924 109.522 21.2453 107.012C21.6272 108.068 22.0091 109.124 22.391 110.18C20.9238 110.757 19.4565 111.335 17.9893 111.893C18.0295 112.531 18.0496 113.188 18.0898 113.826C29.3251 112.71 40.5404 111.594 53.866 110.259C50.6502 107.55 49.2031 106.334 47.153 104.601C91.0693 102.11 134.322 98.8427 178.781 107.051C180.208 106.215 185.917 102.509 186.057 102.788C190.017 110.638 193.434 118.906 197.936 129.466C184.409 130.423 173.596 131.558 162.783 131.877C137.076 132.634 111.369 133.112 85.6627 133.491C73.1611 133.67 68.6589 138.532 68.0157 153.455C67.4932 165.569 67.1314 177.723 66.2872 189.817C65.6843 198.444 68.3574 202.368 75.794 201.711C98.2446 199.738 120.715 198.105 143.146 195.934C160.069 194.3 167.345 199.978 171.827 219.145C173.978 228.35 168.832 230.223 163.285 231C135.689 234.925 108.093 238.989 80.4369 242.197C67.5937 243.671 66.1063 244.428 65.5838 259.671C63.7949 311.135 62.0262 362.619 60.2374 414.083C60.1771 415.976 59.8957 417.869 59.534 421.774C57.9863 413.167 56.7804 406.532 55.5945 399.917C55.1323 400.017 54.6499 400.117 54.1876 400.196C56.7603 429.166 59.333 458.156 62.0262 488.421C76.9799 487.325 92.2149 486.209 107.47 485.093C107.53 485.731 107.571 486.389 107.631 487.026C94.7072 489.756 81.7836 492.505 68.88 495.235C69.0408 496.131 69.2016 497.028 69.3624 497.925C103.43 494.976 137.498 492.027 171.566 489.078C171.546 488.162 171.526 487.225 171.485 486.309H137.8C137.779 485.532 137.739 484.755 137.719 483.998C141.699 483.5 145.678 483.001 152.572 482.145C147.125 481.009 144.533 480.471 141.92 479.933C141.92 479.554 141.92 479.176 141.92 478.777C148.834 478.777 155.768 478.538 162.682 478.837C174.681 479.355 183.103 486.687 186.52 499.638C188.65 507.747 183.967 510.577 178.641 510.915C158.12 512.17 137.558 512.748 117.037 513.824C83.6528 515.597 50.2884 517.331 16.924 519.622C9.20603 520.16 4.42247 517.59 3.33712 508.385C2.23167 499.06 7.7589 495.952 14.0097 494.358C26.7525 491.091 29.104 487.624 28.5212 471.884C28.3604 467.779 28.0589 463.695 27.8177 459.61C28.5011 459.551 29.1844 459.471 29.8678 459.411L29.8477 459.431ZM161.376 223.787C161.235 221.775 161.114 219.782 160.974 217.77C137.257 220.5 113.54 223.229 89.8232 225.959C89.8433 226.556 89.8835 227.154 89.9036 227.772C113.721 226.437 137.558 225.122 161.376 223.787Z" fill="white"/>
<path d="M159.869 59.852C159.386 60.0711 159.206 59.3738 158.884 59.1347C158.683 58.9952 158.462 58.8757 158.281 58.6366C158.1 58.3975 157.939 57.9193 157.356 59.0948C157.296 59.2144 157.256 59.2343 157.256 59.1347C157.256 59.0351 157.276 58.9155 157.336 58.7761C157.698 58.0389 157.477 58.1186 157.437 58.0787C157.176 57.8396 156.934 57.6005 156.633 57.481C156.09 57.2817 155.668 56.684 155.226 56.2058C155.045 56.0066 154.824 55.8472 154.623 55.7276C154.342 55.5683 154.04 55.5483 153.779 55.3292C153.477 55.0701 153.276 54.4923 152.935 54.3728C152.472 54.2134 152.01 54.0739 151.648 53.6157C151.407 53.2969 150.985 53.4961 150.824 52.9183C150.704 52.48 150.362 52.6992 150.161 52.4401C149.9 52.1014 149.618 51.8225 149.297 51.683C148.895 51.5236 148.694 50.7864 148.131 51.1251C147.95 51.2447 148.091 50.4876 147.95 50.4278C147.689 50.2883 147.448 50.0891 147.186 49.9098C147.146 49.8699 147.106 49.7703 147.026 49.9895C146.704 50.8462 146.805 50.3481 146.825 50.0492C146.865 49.053 146.563 49.2523 146.141 50.4676C146.061 50.4676 146.081 50.1489 146.141 49.9695C146.604 48.9335 146.302 48.9933 146.262 48.9933C146.081 49.053 146.021 48.8538 145.9 48.7542C145.377 48.2561 144.835 47.8177 144.292 47.3794C144.212 47.3196 144.051 47.4392 144.011 47.2798C143.79 46.5027 143.267 46.5824 142.905 46.164C142.584 45.7854 142.242 45.5264 141.84 45.4268C141.398 45.3272 141.217 44.4505 140.574 45.0283C140.493 45.108 140.453 45.0483 140.453 44.9088C140.413 44.0122 140.071 43.9723 139.73 43.9524C139.368 43.9126 139.187 43.3746 138.825 43.3746C138.484 43.3746 138.383 42.5378 137.8 43.2949C137.76 43.3348 137.72 43.3348 137.72 43.2949C137.881 42.4581 137.539 42.9164 137.479 42.6773C137.298 41.9002 136.574 42.7171 136.373 41.9799C136.273 41.5814 135.79 42.3585 135.71 41.8803C135.65 41.4818 135.469 41.4021 135.248 41.4619C134.866 41.5814 134.625 41.2228 134.283 41.163C134.022 41.1033 133.861 40.7247 133.579 40.6848C133.398 40.6848 133.238 40.4657 133.017 40.6251C132.796 40.7645 132.775 40.6251 132.735 40.3063C132.735 40.1469 132.615 40.1867 132.514 40.2067C132.152 40.3461 131.971 39.8879 131.67 39.848C131.409 39.7883 131.208 39.4894 130.966 39.2901C130.605 38.9913 130.163 38.8717 129.7 38.8319C129.278 38.812 129.117 37.9552 128.514 38.533C128.434 38.6127 128.374 38.5729 128.474 38.1744C128.555 37.8556 128.474 37.8556 128.434 37.9353C128.032 38.4733 128.032 37.7958 127.831 37.6962C127.369 37.497 127.087 36.8195 126.585 36.7598C126.203 36.7199 126.082 35.7636 125.439 36.5605C125.399 36.6203 125.359 36.5207 125.379 36.4011C125.419 35.8831 125.258 35.903 125.138 35.8233C124.676 35.5444 124.173 35.3451 123.751 34.9467C123.65 34.867 123.429 35.1459 123.389 34.9267C123.289 34.1098 122.846 34.2892 122.465 34.329C122.344 34.329 122.264 34.2892 122.244 34.0501C122.244 33.7711 122.163 33.6914 122.063 33.6715C121.419 33.4723 120.917 32.8347 120.234 32.7749C120.113 32.7749 120.033 32.6554 119.972 32.4561C119.892 32.1573 119.691 32.1573 119.47 32.237C119.43 32.2569 119.389 32.2569 119.389 32.1971C119.289 31.699 119.008 31.699 118.726 31.7389C118.244 31.7986 117.942 31.3404 117.54 31.1611C117.319 31.0614 117.158 30.6829 116.877 30.7626C116.314 30.922 115.973 30.5036 115.551 30.2844C115.028 30.0054 114.505 29.6867 113.943 29.5472C113.701 29.4874 113.34 29.6667 113.219 29.328C113.018 28.6904 112.496 29.0889 112.194 28.7701C111.712 28.272 111.169 27.9732 110.385 28.4314C110.365 28.4314 110.345 28.3717 110.365 28.3119C110.445 27.7939 110.265 27.9732 110.184 27.8736C110.023 27.7142 109.742 28.013 109.601 27.8736C109.28 27.4751 108.717 27.754 108.395 27.3555C108.094 26.9969 107.611 27.1364 107.25 26.9172C106.888 26.6781 106.426 26.7179 106.044 26.5586C105.863 26.4789 105.521 26.7578 105.38 26.5586C105.039 26.1003 104.516 26.18 104.014 26.1601C103.853 26.1601 103.431 26.957 103.632 25.921H103.612C103.33 25.921 103.129 25.6022 102.848 25.5823C102.567 25.5823 102.245 25.7018 102.024 25.5225C101.702 25.2635 101.28 25.383 100.959 25.1041C100.858 25.0244 100.637 25.4229 100.557 25.2236C100.456 24.9447 100.436 24.3669 99.9939 25.1041C99.9537 25.1838 99.8733 25.2436 99.8733 25.2037C99.9135 24.5064 99.5718 24.8251 99.4512 24.5661C99.2503 24.1676 98.8885 24.2473 98.5468 24.3071C98.3257 24.347 98.1046 24.3071 98.0242 24.1079C97.8634 23.7891 97.6423 23.7492 97.4413 23.6297C97.3208 23.5699 97.2203 23.4703 97.0997 23.5101C96.6776 23.6297 96.5972 22.7729 96.1148 23.0718C95.8334 23.2511 95.6324 23.0718 95.4515 22.9523C95.0697 22.6733 94.6677 22.4143 94.1853 22.4143C94.0647 22.4143 93.9441 22.3745 93.8637 22.2549C93.5421 21.7568 93.0598 21.8166 92.6779 21.5177C92.296 21.2189 91.7332 21.458 91.3915 20.9798C91.2308 20.7407 90.8489 21.1989 90.7082 20.9798C90.4871 20.661 90.2258 20.4418 89.9444 20.2625C89.8439 20.1828 89.5826 20.6211 89.5625 20.3223C89.5625 19.625 89.1204 20.0433 89.0199 19.5453C88.9998 19.366 88.839 19.5254 88.6782 19.7445C88.4169 20.1031 88.1355 20.4817 88.2762 19.5652C88.3164 19.346 88.2762 19.2663 88.1958 19.2464C87.8139 19.087 87.432 18.9675 87.0904 18.7085C86.9296 18.5889 86.6884 18.7483 86.5678 18.5889C86.3266 18.2701 85.9849 18.2901 85.7035 18.1107C85.3417 17.8716 84.9599 17.6525 84.5579 17.513C83.9951 17.3138 83.3921 17.1942 82.7892 17.0747C82.4676 16.995 82.2063 16.736 81.9249 16.5566C81.744 16.4371 81.4224 16.6563 81.342 16.2777C81.2415 15.8792 80.8999 16.2777 80.7793 15.939C80.5984 15.3811 79.9552 16.1781 79.7341 15.6401C79.5934 15.2815 79.3321 15.1619 79.0307 15.1819C78.4478 15.2217 78.0659 14.6638 77.5433 14.5443C77.2217 14.4646 77.0208 14.0661 76.6791 14.0263C76.3977 13.9864 76.0359 14.2056 75.8952 13.8071C75.6741 13.1695 75.1315 13.4485 74.8501 12.9504C74.5687 12.4722 73.9858 12.8109 73.7647 12.1733C73.6843 11.9541 73.3627 12.6316 73.3024 12.4124C73.1215 11.5756 72.6392 11.5756 72.2774 11.2369C72.2171 11.1771 72.1367 11.1173 71.9759 11.3564C71.6744 11.7748 71.5136 11.8147 71.6342 11.0974C71.6945 10.679 71.594 10.6591 71.4533 10.7388C71.3528 10.7985 71.2523 10.8782 71.2322 10.7388C71.1719 9.98165 70.7298 10.2407 70.5489 9.82225C70.4283 9.54331 70.0866 9.92187 69.9861 9.60309C69.9057 9.364 69.8052 9.22453 69.564 9.44369C69.3228 9.64293 69.1419 9.64294 69.162 9.08506C69.162 8.46741 68.941 8.48733 68.6194 8.78619C68.539 8.86589 68.4385 8.98543 68.4988 8.68657C68.6395 7.94937 68.4586 8.02907 68.1973 8.36778C68.0767 8.52718 67.9963 8.60687 68.0365 8.34786C68.0968 7.8896 67.9561 7.9693 67.9159 7.78998C67.8154 7.41142 67.4536 7.82983 67.333 7.51104C67.0315 6.71407 66.4085 6.71407 66.0266 6.11634C65.705 5.63816 65.2025 5.65809 64.9211 5.14006C64.6398 4.62203 64.0971 4.84119 63.7755 4.42278C63.474 4.06415 63.1323 3.78521 62.8108 3.46642C62.6098 3.26718 62.4088 3.06794 62.1274 3.10778C61.8058 3.16756 61.3837 3.46642 61.2631 2.98824C61.1224 2.49013 60.5195 3.26718 60.4994 2.43036C60.4994 2.39051 60.4391 2.49013 60.3989 2.51006C60.2582 2.6296 60.1979 2.49013 60.1175 2.45028C59.7959 2.33074 59.6753 1.5537 58.9116 2.74915C58.8714 2.80892 58.8111 2.789 58.8312 2.72922C58.9919 1.89241 58.7307 2.0518 58.59 1.99203C58.1478 1.81271 57.6654 1.83264 57.2232 1.67324C56.761 1.51385 56.1982 1.63339 55.7761 1.3943C55.5349 1.25483 55.153 1.45408 54.952 1.25483C54.4295 0.736803 53.5451 1.25483 52.9019 1.07552C52.701 1.01574 52.5402 0.8165 52.2186 1.07552C52.0377 1.21498 51.9975 0.756727 51.8166 0.736803C51.3342 0.696955 50.8317 0.67703 50.3494 0.557485C49.3846 0.318394 48.2993 0.517636 47.3144 0.378167C47.0933 0.338318 46.8521 0.378167 46.6512 0.258621C46.2693 0.0593786 45.7266 0.358242 45.3447 0.178924C44.9829 -0.000393979 44.5207 0.119151 44.1589 -0.000393994C43.8775 -0.080091 43.4755 0.178924 43.1539 0.178924C42.7318 0.178924 42.3902 -0.0203183 41.9279 0.0593786C41.6867 0.0992271 41.5259 -0.100015 41.0636 0.597333C40.7621 1.05559 40.4205 1.45408 40.0989 1.77286C39.8376 2.0518 39.4959 2.64953 39.2346 2.96831C39.0537 3.18748 38.7321 3.8649 38.6116 4.42278C38.4508 5.1799 38.4508 5.65809 38.5714 5.81748C38.7723 6.09642 38.8125 6.75392 38.6317 7.73021C38.491 8.50725 38.3302 9.32415 38.2498 10.0215C38.1694 10.5993 37.9282 11.5756 38.0488 11.7151C38.2498 11.9741 38.1091 13.0301 38.5312 12.8109C38.6518 12.7511 38.7522 12.9902 38.5312 13.7274C38.4508 14.0263 38.4508 14.2056 38.6116 13.9067C38.9733 13.2492 39.0135 13.6876 39.0738 13.7872C39.315 14.1458 39.4557 14.7435 39.7371 15.0026C39.9381 15.1819 40.0788 15.5804 40.3401 15.4409C40.6215 15.3014 40.6617 15.5804 40.7019 15.9589C40.7019 16.0386 40.7018 16.1582 40.7621 16.0785C41.1239 15.7198 41.1641 16.2976 41.4254 16.2578C41.7671 16.198 41.747 17.0747 42.1289 16.9551C42.2495 16.9153 42.4505 16.6762 42.5108 16.8555C42.8122 17.5329 43.2544 17.8517 43.8373 17.772C44.0986 17.7322 44.2192 18.0111 44.5006 17.9513C44.9829 17.8318 45.1236 18.6686 45.6864 18.3498C45.8271 18.2701 45.9678 18.2701 46.0482 18.4295C46.3497 18.9874 46.8119 19.0671 47.2943 19.107C47.5154 19.107 47.7767 19.0273 47.8973 19.2663C48.1184 19.7645 48.5003 19.884 48.7615 20.2426C48.9826 20.5414 49.3042 20.6211 49.5454 20.8801C49.7464 21.0993 50.0077 21.179 50.2489 21.3185C50.671 21.5775 51.1734 21.6173 51.4749 22.1553C51.9171 22.9323 52.6206 22.9722 53.1632 23.4703C53.5652 23.8289 54.0476 23.9485 54.4094 24.347C54.5903 24.5462 54.6908 25.124 55.0123 24.865C55.4746 24.4864 55.3942 25.4627 55.7761 25.3233C56.0776 25.2236 56.1178 26.0007 56.359 26.1601C56.4595 26.2398 56.6605 26.0804 56.7007 26.2995C56.8414 26.8773 57.2835 26.698 57.4845 27.1364C57.7056 27.6544 58.1478 27.5946 58.4091 28.013C58.5297 28.2123 58.6704 28.3717 58.8513 28.4115C59.1326 28.4514 59.3939 28.551 59.414 29.2483C59.414 29.4675 59.4743 29.607 59.5748 29.5472C59.9768 29.3679 60.1577 29.7464 60.2984 30.3043C60.419 30.8821 60.9014 30.5036 61.0219 31.0814C61.0822 31.3802 61.3837 31.0017 61.4239 31.2806C61.5244 31.8186 61.5847 32.4561 62.1073 31.8584C62.1274 31.8186 62.1475 31.8983 62.1475 31.9381C62.2078 32.3565 62.2078 32.9144 62.6299 32.3366C62.7505 32.1772 62.7304 32.3764 62.7103 32.5757C62.65 33.0339 62.7103 33.1136 62.8108 33.2531C62.9716 33.532 63.2529 33.4723 63.3936 33.7911C63.6348 34.3091 63.9966 34.5083 64.3383 34.7673C64.881 35.1658 65.4437 35.4647 65.9663 35.923C66.1472 36.0823 66.3482 36.2617 66.509 36.441C66.6698 36.6203 66.8909 36.7199 67.0316 37.0387C67.2124 37.477 67.4938 37.6962 67.8355 37.7361C67.9963 37.7361 67.8958 38.3936 68.0968 38.2142C68.5189 37.8357 68.6194 38.4932 69.0415 38.1146C69.3429 37.8556 69.1821 38.7123 69.3429 38.792C69.6444 38.9116 69.8655 39.33 70.2876 39.071C70.4886 38.9514 70.6494 39.1108 70.7097 39.4296C70.8102 40.2266 71.5337 39.2104 71.6744 39.8281L71.7146 39.7883C71.8151 40.0273 72.1769 39.4495 72.3176 39.6289C72.4181 39.7683 72.4583 40.0473 72.5789 40.1469C72.9005 40.386 73.2622 40.5653 73.6039 40.7845C73.6642 40.8243 73.7245 40.8243 73.8451 40.6251C74.1466 40.107 74.3476 40.1668 74.6692 39.5492C74.8501 39.2104 74.8702 39.4495 74.7697 39.8281C74.5084 40.7446 74.7295 40.5852 74.83 40.7247C74.8702 40.8044 74.9908 40.645 75.031 40.8044C75.1515 41.442 75.4329 41.6811 75.7344 41.8404C75.8349 41.9002 75.9354 41.8404 76.1364 41.4818C76.3374 41.1232 76.4781 40.904 76.3374 41.5615C76.2972 41.7408 76.2972 41.8803 76.3374 41.8205C76.6992 41.422 76.6791 42.0596 76.8801 42.1393C77.3423 42.3186 77.9453 41.9998 78.3272 42.4382C78.6488 42.7968 79.0106 43.0758 79.4125 43.1754C79.9351 43.3148 80.4577 43.5539 81.1812 43.0758C81.2616 43.016 81.342 43.0758 81.2415 43.3945C81.0808 44.0122 81.2415 43.9126 81.3018 44.0122C81.4827 44.2314 81.744 44.2114 81.9852 44.2114C82.2063 44.2114 82.0857 45.0881 82.4073 44.7892C82.7691 44.4306 82.7892 45.2873 83.3117 44.2911C83.3318 44.2513 83.372 44.2712 83.372 44.331C83.3519 45.0483 83.5931 45.0084 83.8343 45.0283C84.4976 45.0682 84.8996 45.905 85.5226 46.1042C85.8643 46.2238 85.9849 47.0805 86.7487 45.8253C86.7889 45.7655 86.809 45.8452 86.809 45.9249C86.8291 46.6023 87.0502 46.8016 87.3115 46.8016C87.834 46.8016 88.2963 47.0008 88.7385 47.2399C89.1405 47.4591 89.4017 48.1166 90.0851 47.4989C90.0851 47.4989 90.1253 47.4989 90.1253 47.5388C90.1253 48.5748 90.668 48.0369 91.0097 48.0369C91.2509 48.0369 91.5322 47.9771 91.693 48.1365C91.9945 48.4154 92.3563 48.4752 92.6578 48.7542C92.9392 49.0331 93.2407 49.2323 93.9441 48.0369C94.0647 47.8376 94.1049 47.8775 94.0446 48.1764C93.8235 49.0929 94.0446 49.0132 94.2054 48.9136C94.6677 48.6346 94.7079 49.5711 95.2104 49.1925C95.3712 49.0729 95.6525 48.7143 95.6726 49.1327C95.6927 49.6308 96.0545 49.2124 96.0947 49.6707C96.0947 49.85 96.2354 49.6707 96.3761 49.3718C96.4565 49.2124 96.5972 48.9534 96.5972 48.9933C96.6776 49.5113 97.0997 49.0929 97.2605 49.3917C97.4815 49.8301 97.582 49.7902 98.1247 49.0929C98.1649 49.0331 98.2051 49.053 98.2051 49.1327C98.1649 49.5312 98.2051 49.5511 98.4262 49.073C98.6473 48.5948 98.7076 48.794 98.7076 49.0929C98.7076 49.2124 98.6071 49.5711 98.6875 49.5113C99.0694 49.1726 99.0895 50.0293 99.5919 49.2523C99.6522 49.1526 99.6924 49.1526 99.6924 49.2722C99.6924 50.2684 100.094 50.2286 100.436 50.1887C100.999 50.1289 101.341 50.7665 101.984 50.4876C102.788 50.1489 103.371 50.5872 104.094 50.5274C104.255 50.5274 104.476 50.2485 104.637 50.2286C104.838 50.1887 104.717 50.8462 104.878 50.8661C105.22 50.9458 105.642 50.7864 105.923 51.1251C106.104 51.3642 106.406 51.2646 106.627 51.4041C106.928 51.5834 107.31 51.4639 107.632 51.5436C108.013 51.6432 108.375 51.8424 108.797 51.8026C109.059 51.7826 108.998 52.8785 109.621 51.683C109.722 51.4639 109.702 51.7229 109.662 51.9221C109.621 52.0616 109.521 52.3604 109.601 52.3206C109.983 52.0417 110.043 53.0179 110.687 51.8225C110.787 51.6432 110.807 51.703 110.847 51.7428C110.988 51.8623 111.129 51.942 111.29 52.0018C111.571 52.0815 111.692 52.5796 111.913 52.8386C111.973 52.9183 111.993 53.0976 112.094 53.0777C112.315 53.0179 112.556 52.9781 112.737 53.0777C113.159 53.2969 113.822 52.7789 114.083 53.4762C114.124 53.5559 114.184 53.5161 114.304 53.3567C114.726 52.7789 115.048 52.6992 115.189 53.0379C115.43 53.5958 115.691 54.1736 116.194 53.8946C116.616 53.6555 116.777 54.2931 117.259 53.8348C117.601 53.5161 117.38 54.9307 117.862 54.2333C117.882 54.1935 117.882 54.2931 117.902 54.3529C117.942 54.8709 118.425 54.054 118.364 54.851C118.364 54.851 118.405 54.7912 118.425 54.7713C118.726 54.4724 118.887 54.6119 118.947 55.0303C118.987 55.2295 118.987 55.5284 119.108 55.5085C119.49 55.4487 119.691 55.9468 119.992 56.1062C120.234 56.2457 120.475 56.4848 120.837 56.166C121.098 55.9468 121.038 56.7637 121.46 55.907C121.46 55.907 121.46 56.0066 121.46 56.0265C121.62 56.5445 121.821 56.8633 122.203 56.7637C122.384 56.7239 122.545 56.7637 122.706 56.7039C122.867 56.6641 122.605 57.4611 122.786 57.3814C123.148 57.222 123.289 57.8197 123.61 57.7798C123.872 57.74 123.972 57.999 123.751 58.9753C123.851 58.9753 123.972 58.3377 124.113 58.3776C124.434 58.4971 124.756 58.6565 125.299 57.999C125.339 57.9392 125.399 57.9592 125.399 58.0389C125.399 58.5768 125.68 58.3178 125.66 58.9155C125.66 59.1347 125.741 59.0151 125.841 58.8757C126.062 58.4971 126.103 58.6764 126.143 58.8757C126.223 59.2542 126.263 59.7723 126.505 59.7125C126.786 59.6328 127.087 59.4136 127.148 60.0114C127.148 60.0711 127.208 60.0512 127.248 59.9715C127.63 59.3539 127.67 59.832 127.751 60.1708C127.791 60.3102 127.871 60.2106 127.932 60.2106C128.153 60.2704 128.454 60.0313 128.635 60.1708C128.856 60.3501 128.977 60.888 129.238 60.9677C129.539 61.0673 129.72 61.6252 130.243 60.9677C130.444 60.7087 130.323 61.4658 130.504 61.2666C130.966 60.7286 130.966 61.6252 131.268 61.6053C131.409 61.6053 131.61 61.3861 131.67 61.6451C131.791 62.1831 132.032 62.4023 132.353 62.3624C132.514 62.3624 132.615 62.5417 132.755 62.5019C133.057 62.4222 133.077 63.2789 133.62 62.3226C133.7 62.1831 133.74 62.2229 133.74 62.4023C133.579 63.9564 134.464 62.6015 134.524 63.5579C134.866 62.7011 134.826 63.3188 134.846 63.4981C134.886 63.8368 135.207 63.2789 135.248 63.5778C135.388 64.3947 135.851 64.0161 136.474 62.6015C136.474 63.1793 136.052 64.833 136.715 63.8767C136.775 63.777 136.755 64.0759 136.735 64.2552C136.695 64.853 137.077 65.2315 137.358 64.7733C137.599 64.3947 137.659 64.4744 137.559 65.0323C137.499 65.3511 137.519 65.4706 137.659 65.2116C137.981 64.6537 138.021 64.9526 138.122 65.112C138.262 65.371 138.262 66.0484 138.524 65.9488C138.624 65.9089 138.805 65.7097 138.805 65.889C138.785 67.0845 139.549 65.7097 139.75 66.2277C139.89 66.6063 140.252 66.427 140.514 66.4668C140.835 66.5067 141.056 66.8852 141.297 67.1442C141.418 67.2837 141.679 67.0645 141.639 67.742C141.599 68.3995 142.041 68.0607 142.443 67.2837C142.061 68.3596 142.242 68.1803 142.403 68.0807C142.483 68.0408 142.564 67.8814 142.664 67.6623C143.247 66.3672 142.724 68.7581 143.247 67.6623C143.287 67.5826 143.347 67.6623 143.267 67.8814C142.966 68.8378 143.227 68.519 143.287 68.6386C143.388 68.778 143.629 68.519 143.609 68.9573C143.589 69.4355 143.709 69.4355 143.87 69.4156C143.971 69.4156 144.031 69.5152 144.111 69.4754C144.393 69.3758 144.373 70.113 144.694 69.8739C145.116 69.5551 145.136 70.6708 145.719 69.7942C145.739 69.7543 145.759 69.7942 145.759 69.8739C145.699 70.5114 145.9 70.4517 146.041 70.5513C146.483 70.8701 146.905 71.2686 147.327 71.6073C147.428 71.687 147.428 72.205 147.769 71.2686C147.83 71.0892 147.89 71.1291 147.87 71.2885C147.789 72.0854 147.97 72.1651 148.191 72.1651C148.292 72.1651 148.412 72.0257 148.493 72.1452C148.714 72.5039 149.096 72.4242 149.337 72.723C149.478 72.9023 149.618 73.1215 149.819 73.1614C149.98 73.1813 150.342 72.7429 150.141 73.779C150.141 73.8189 150.141 73.8587 150.181 73.8189C150.543 73.2809 150.563 73.779 150.724 73.9185C151.307 74.3767 152.01 74.4365 152.553 74.9745C152.935 75.353 153.357 75.6917 153.859 75.6519C154.08 75.6519 154.141 76.4489 154.804 74.8948C154.382 76.0902 154.523 76.2695 154.643 76.2895C154.904 76.3492 155.166 76.4289 155.387 76.6481C155.527 76.7876 155.809 76.4887 155.909 76.7676C155.99 76.9868 155.909 77.6045 156.13 77.5048C156.492 77.3255 156.593 77.9033 156.794 78.1623C156.874 78.262 156.955 78.3815 157.075 78.3018C157.256 78.1623 157.658 77.4052 157.336 78.6804C157.336 78.7202 157.356 78.7401 157.377 78.7601L157.879 79.0789C157.879 79.0789 157.959 79.1586 158.02 78.9792C158.361 78.0826 158.361 78.4014 158.261 78.9792C158.221 79.2582 158.261 79.2582 158.321 79.3379C158.603 79.8161 159.105 79.6367 159.286 80.3939C159.326 80.5533 159.427 80.5333 159.507 80.5732C159.567 80.5931 159.688 80.3341 159.668 80.2145C159.608 79.8559 159.788 79.7164 159.869 79.577C160.03 79.3578 160.07 79.4574 159.929 79.9754C159.869 80.2145 159.748 80.5931 159.889 80.4138C160.07 80.1946 160.05 80.4138 159.969 80.7724C159.929 81.0314 160.01 80.9717 160.03 81.0514C160.15 81.3502 160.512 80.5931 160.673 80.6329C160.814 80.6728 160.793 81.2904 161.195 80.1747C161.195 80.1348 161.276 80.095 161.276 80.1149C161.497 80.4935 161.899 80.2145 162.301 79.9356C162.442 79.836 162.562 79.7364 162.743 79.0789C163.024 78.1026 163.185 77.9033 163.225 78.4014C163.266 78.7999 163.527 78.5608 163.668 78.242C164.15 77.186 164.532 75.8511 164.934 74.5959C164.974 74.4564 164.974 74.2771 164.974 74.1376C165.014 73.4403 165.195 73.0617 165.497 72.8824C165.416 72.4441 165.597 71.9061 165.838 71.2885C166.12 70.5712 166.28 69.9934 166.039 69.9934C165.959 69.9934 165.919 69.7942 165.959 69.5351C166.079 68.7581 165.939 68.6386 165.798 68.519C165.657 68.3795 165.497 68.2998 165.336 68.2201C165.195 68.1404 164.994 68.1006 165.014 67.6423C165.054 66.3871 164.673 66.2476 164.411 65.7495C164.351 65.6499 164.17 65.8093 163.969 66.2676C163.889 66.4668 163.808 66.686 163.788 66.5664C163.768 66.4867 163.828 66.3074 163.889 66.1082C164.11 65.4706 164.049 65.3112 164.009 65.0721C163.929 64.7334 163.668 65.0123 163.587 64.6936C163.467 64.2154 163.346 63.5977 162.663 65.0522C162.602 65.1717 162.562 65.1518 162.582 65.0323C162.582 64.8928 162.643 64.7533 162.703 64.6537C163.045 64.0361 163.024 63.7372 162.964 63.4981C162.924 63.3586 162.884 63.2192 162.823 63.1992C162.643 63.1395 162.562 62.5218 162.04 64.056C161.959 64.2951 161.798 64.5541 161.658 64.9526C161.577 65.1717 161.376 65.63 161.457 65.112C161.517 64.6936 161.597 64.2751 161.517 64.0759C161.497 63.9962 161.537 63.797 161.678 63.5379C161.798 63.2989 162.04 62.8605 162.12 62.462C162.18 62.0835 162.08 62.0636 161.899 62.2827C161.879 62.3026 161.879 62.2229 161.879 62.1632C161.758 61.3463 161.356 61.4061 161.095 60.9677C161.035 60.8681 160.974 60.8283 160.854 60.9279C160.633 61.1271 160.592 60.888 160.492 60.6888C160.311 60.3102 160.17 59.7324 159.447 61.0873C159.869 59.9715 159.809 59.6328 159.648 59.7324L159.869 59.852ZM158.442 75.1538C158.442 75.1538 158.583 74.9944 158.502 75.3132C158.422 75.6519 158.341 75.7316 158.261 75.7714C158.14 75.8511 158.08 75.7714 157.959 75.5921C158.181 75.3929 158.301 75.2534 158.422 75.1538H158.442Z" fill="white"/>
</mask>
<g mask="url(#mask1_5983_64792)">
<path d="M198.98 115.561L41.2026 142.458L34.168 505.079H198.98" stroke="white" stroke-width="39"/>
<path d="M36.1787 227.136L171.847 218.17" stroke="white" stroke-width="39"/>
<path d="M13.0645 -8.96594L168.832 71.7272" stroke="white" stroke-width="17"/>
</g>
</g>
</svg>
