<svg width="170" height="264" viewBox="0 0 170 264" fill="none" xmlns="http://www.w3.org/2000/svg">
<mask id="mask0_3771_46427" style="mask-type:alpha" maskUnits="userSpaceOnUse" x="0" y="0" width="170" height="264">
<path d="M53.6824 26.5577C50.993 53.4724 48.3904 79.5177 45.7517 105.922H72.7304C72.7757 105.46 72.8224 105 72.8677 104.539C71.213 104.18 69.557 103.823 66.6157 103.187C68.5797 102.723 69.205 102.504 69.8477 102.434C82.889 101 95.9397 99.6524 108.97 98.135C115.708 97.3497 126.073 104.927 127.126 111.616C127.394 113.316 127.573 115.07 128.142 116.675C129.544 120.631 128.137 122.044 124.08 122.099C109.62 122.291 95.1624 122.708 80.7024 122.944C71.3317 123.099 61.9437 123.423 52.5917 123.023C47.0304 122.786 45.813 124.971 45.589 130.007C44.3357 158.247 42.7384 186.472 41.3037 214.704C40.613 228.274 40.0784 241.85 39.365 255.418C38.9877 262.576 35.545 265.048 28.8197 262.66C27.2317 262.096 25.2624 259.647 25.2557 258.058C25.0917 219.779 25.173 181.499 25.2064 143.219C25.2117 136.999 25.2077 130.778 25.2077 125.055C17.9837 123.983 11.669 123.975 6.28769 121.74C4.42635 120.967 4.88369 114.666 4.12369 109.886C11.3904 109.08 17.5517 108.396 23.7117 107.712C23.7957 107.37 23.8797 107.028 23.9637 106.686C20.8424 106.106 17.7197 105.526 14.597 104.946C14.5317 104.51 14.4664 104.074 14.401 103.638C17.5197 103.484 20.6384 103.33 24.3877 103.146C26.1344 78.283 27.8744 53.5377 29.6717 27.947C23.2464 29.0204 16.9104 30.3977 10.501 31.039C6.10102 31.4803 0.963692 32.1684 0.335692 25.2697C-0.209641 19.2884 -1.17764 13.7364 7.53702 12.4884C24.8237 10.0124 41.9277 5.96436 59.2757 4.29636C82.9637 2.0177 106.808 1.35501 130.585 -0.000976562C130.689 0.69101 130.793 1.38303 130.898 2.07501C127.494 2.77637 124.092 3.47635 120.689 4.17767L120.865 6.39502C133.102 5.07236 145.486 4.48038 157.518 2.11636C163.493 0.941711 166.272 1.83636 167.39 7.38434C168.308 11.939 168.778 16.5817 169.446 21.1857C164.94 21.4323 160.436 21.7537 155.925 21.9177C124.714 23.0484 93.4997 24.123 62.289 25.2977C59.5357 25.4017 56.8037 26.0857 53.6824 26.5577Z" fill="white"/>
</mask>
<g mask="url(#mask0_3771_46427)">
<path d="M31.5 259L39.5 6.5M1.5 18H169.5M1.5 118H130" stroke="white" stroke-width="51"/>
</g>
</svg>
