<svg width="110" height="298" viewBox="0 0 110 298" fill="none" xmlns="http://www.w3.org/2000/svg">
<mask id="mask0_3771_41673" style="mask-type:alpha" maskUnits="userSpaceOnUse" x="-1" y="0" width="111" height="298">
<path d="M11.4881 185.352L9.23479 185.079C8.44279 186.615 7.51745 189.536 6.87745 189.476C-0.577215 188.771 1.04945 192.653 2.86012 196.777C4.41879 200.324 6.42945 203.753 7.41745 207.452C9.70679 216.031 11.4281 224.757 13.5615 233.38C13.9281 234.865 15.1175 236.179 16.0455 237.491C17.2868 239.245 19.4668 240.777 19.8001 242.657C21.0148 249.525 21.3881 256.539 22.5455 263.42C23.5201 269.217 25.1441 274.907 26.4815 280.644C27.2175 280.489 27.9548 280.335 28.6921 280.179C23.5881 249.339 18.4855 218.497 13.5175 188.483V210.88C12.8415 210.899 12.1641 210.916 11.4881 210.933V185.352ZM34.1561 29.8507C35.7295 16.0867 48.1268 10.2227 56.8028 0.214691C69.1495 6.36935 84.3921 8.58405 94.9761 20.0854C100.228 25.792 103.761 32.1013 98.7374 39.6734C97.5174 41.5107 94.8641 43.8107 93.1961 43.5787C91.2961 43.3147 89.0521 40.7307 88.2321 38.656C86.9148 35.324 86.6441 31.5827 86.0495 28.6027H76.8495C53.7708 63.0534 46.3681 104.013 40.7068 145.436C35.1988 185.748 34.9561 225.919 46.0588 268.072C65.0335 226.883 82.3281 187.648 85.8735 141.297C80.6415 144.581 76.5921 147.124 73.3961 149.131C72.4415 146.828 70.7374 142.716 68.7948 138.027C70.1975 137.165 72.5095 135.747 75.0988 134.156C71.1375 133.339 67.5615 132.6 63.9841 131.861C63.9828 131.412 63.9801 130.963 63.9775 130.513C73.6655 127.581 83.2055 123.915 93.0868 121.94C101.435 120.272 108.617 128.155 108.631 136.629C108.695 175.275 109.297 213.921 108.923 252.561C108.796 265.601 106.623 278.66 104.708 291.611C104.397 293.713 100.627 296.747 98.3094 296.884C83.4148 297.764 83.3535 297.551 79.3095 282.303C77.8761 276.897 76.4895 271.456 75.5455 265.953C74.6135 260.521 74.2681 254.991 73.4454 247.493C69.8188 255.897 67.1081 262.772 63.9295 269.424C56.4575 285.064 52.8135 287.007 35.7041 285.237C18.6375 283.473 18.6375 283.472 14.9868 265.839C14.9361 265.595 14.6815 265.393 15.7548 266.887C12.8148 265.631 10.7681 265.391 10.4161 264.493C9.09745 261.123 7.85612 257.595 7.43479 254.025C4.87345 232.372 2.35745 210.708 0.300119 189.004C-0.103881 184.744 1.72012 180.305 2.19745 175.915C2.35345 174.476 1.49212 172.931 1.10812 171.431C-1.90788 159.664 2.09212 148.595 2.47345 137.165C3.39478 137.265 4.31612 137.365 5.23879 137.465C4.65879 140.692 4.08012 143.917 3.40412 147.687C13.3481 141.075 15.5481 131.048 16.5201 121.277C17.7028 109.387 16.9321 97.312 17.2068 85.3213C17.4548 74.4787 17.6548 63.62 18.4575 52.8107C19.2428 42.2213 29.6628 37.7614 34.3561 29.612C32.0095 46.352 29.6735 63.0773 27.3388 79.804C30.4681 73.0333 32.1135 66.044 33.8735 59.0827C34.6521 55.9987 36.3415 52.9893 36.4175 49.916C36.5428 44.876 32.9415 39.7027 37.4068 34.7427C37.7388 34.3734 35.3041 31.5387 34.1561 29.8507Z" fill="white"/>
</mask>
<g mask="url(#mask0_3771_41673)">
<path d="M99.5 31.5L50 15.5L29.5 80.5L20 180.5L29.5 269.5L50 284L91 121.5L99.5 306" stroke="white" stroke-width="51"/>
</g>
</svg>
