<svg width="244" height="392" viewBox="0 0 244 392" fill="none" xmlns="http://www.w3.org/2000/svg">
<mask id="mask0_3771_46429" style="mask-type:alpha" maskUnits="userSpaceOnUse" x="0" y="0" width="244" height="392">
<path d="M189.864 0.32373C197 0.782379 203.435 0.939728 209.774 1.79572C211.243 1.99438 213.435 4.52905 213.51 6.07306C213.976 15.9077 215.639 26.0957 213.775 35.5571C206.602 71.9637 209.443 108.805 207.506 145.422C207.428 146.884 207.642 148.361 207.743 150.294C219.131 150.858 230.204 151.405 242.119 151.994C242.67 154.784 243.202 157.472 243.67 159.845C231.254 160.636 219.794 161.365 206.744 162.196C207.512 238.766 208.278 314.925 209.036 390.506C201.987 394.121 201.076 389.425 199.802 386.308C198.783 383.818 199.299 380.68 198.186 378.264C195.723 372.924 196.08 367.08 193.67 361.342C189.076 350.41 189.218 337.389 188.058 325.172C183.367 275.78 183.999 226.258 184.807 176.736C184.99 165.546 183.591 164.701 172.544 166.014C155.408 168.052 138.255 169.982 121.074 171.576C107.096 172.872 106.823 173.14 106.927 186.804C107.126 213.061 106.951 239.322 107.134 265.581C107.168 270.529 108.146 275.47 107.566 280.616C98.5445 267.266 102.617 251.198 98.2632 234.748V276.492C97.5925 276.506 96.9218 276.521 96.2525 276.536C95.0925 243.741 93.9312 210.946 92.7752 178.246C71.6418 180.35 52.2098 182.032 32.8592 184.366C27.1125 185.06 21.6898 188.208 15.9405 189.14C4.90851 190.928 3.9005 189.917 1.88717 179.312C1.6165 177.888 1.17117 176.496 0.3125 173.178C30.4872 170.713 59.8392 168.314 90.1592 165.837C90.4325 164.322 91.1578 162.016 91.2205 159.692C91.9498 132.416 92.6725 105.14 93.1565 77.8584C93.2538 72.3744 92.0178 66.8717 92.0312 61.3797C92.0405 58.0557 93.4632 54.7584 93.8752 51.4037C94.0938 49.6291 93.6632 47.7211 93.2578 45.933C91.4592 37.981 89.5645 30.0504 88.7405 21.4637C95.5218 25.9544 105.672 21.9024 109.375 30.9411C111.203 35.4064 113.178 40.3251 113.05 44.9838C112.436 67.3104 111.126 89.6171 109.355 111.914C109.086 108.198 108.816 104.484 108.547 100.768C107.82 100.777 107.094 100.788 106.367 100.797C106.367 119.046 106.179 137.3 106.642 155.537C106.691 157.482 110.354 160.633 112.67 160.968C118.215 161.769 123.959 161.226 131.383 161.226C128.77 162.364 128.003 162.697 127.238 163.03C127.336 163.533 127.436 164.036 127.535 164.54L153.686 162.488C153.708 161.961 153.731 161.436 153.754 160.909L124.107 159.042C124.091 158.664 124.075 158.285 124.058 157.908C139.931 157.496 155.803 156.998 171.678 156.704C182.059 156.512 181.636 156.626 182.046 146.524C183.886 101.137 185.965 55.7597 188.05 10.3837C188.187 7.4104 189.094 4.47171 189.864 0.32373Z" fill="white"/>
</mask>
<g mask="url(#mask0_3771_46429)">
<path d="M1 179.5L249.5 157M101 286V15.5M203 393V-8.5" stroke="white" stroke-width="51"/>
</g>
</svg>
