<svg width="148" height="272" viewBox="0 0 148 272" fill="none" xmlns="http://www.w3.org/2000/svg">
<mask id="mask0_3771_46430" style="mask-type:alpha" maskUnits="userSpaceOnUse" x="0" y="0" width="148" height="272">
<path d="M92.4782 247.716C84.0716 249.16 75.6649 250.605 67.2569 252.049L67.4822 253.771C84.2582 254.917 101.034 256.064 118.304 257.244C118.821 260.555 119.35 263.935 119.813 266.891C103.338 267.636 87.5142 268.376 71.6876 269.064C50.2169 269.997 28.7462 271.001 7.26623 271.643C4.96757 271.712 0.93957 269.927 0.600904 268.377C-0.193763 264.744 0.762234 260.731 0.920901 258.264C6.85557 258.264 10.8116 258.549 14.7142 258.212C28.0076 257.063 41.2822 255.695 54.9649 252.717C44.8689 250.699 34.7729 248.679 24.6769 246.659C24.7982 245.815 24.9182 244.969 25.0382 244.124H55.7529V53.3906C56.7396 54.2812 57.6156 55.0706 59.3529 56.6372C60.4049 45.6705 61.6022 35.2906 62.1209 24.8772C62.1782 23.6999 58.3982 21.2092 56.4276 21.2399C44.2756 21.4252 32.1316 22.1559 19.9849 22.7172C17.2089 22.8452 14.4356 23.0239 11.6609 23.1786C11.5396 22.5199 11.4196 21.8599 11.2982 21.2012C23.9062 18.9146 36.5129 16.6279 49.1196 14.3426C49.0489 13.8452 48.9782 13.3479 48.9062 12.8519C35.8369 14.3839 22.7676 15.9172 8.60223 17.5786C4.6089 12.0532 6.01423 7.23856 14.5036 5.75055C22.1889 4.4039 30.0316 3.94522 38.0036 4.0719C32.5649 5.65189 27.1276 7.23056 21.6889 8.81055C21.8969 9.1319 22.1062 9.45325 22.3142 9.77457C33.1329 9.77457 43.9582 9.98123 54.7636 9.60254C56.9569 9.52655 59.0716 7.24789 61.2236 5.98389C60.9262 5.23456 60.6289 4.48523 60.3316 3.7359H48.8116C48.8249 3.10257 48.8396 2.47055 48.8529 1.83722C68.2396 3.25458 87.7822 -3.28943 107.049 4.31989H83.0342C85.5276 14.3372 94.3689 7.83188 100.828 10.8812H86.6449C86.6596 11.1639 86.6742 11.4452 86.6889 11.7266H147.062C146.91 13.8946 146.734 16.4052 146.574 18.6972C127.865 18.6972 109.936 18.6919 92.0062 18.6999C85.2462 18.7026 81.5449 20.9546 81.1622 28.7906C79.1182 70.6359 76.5436 112.455 74.1516 154.283C74.0209 156.552 74.1662 158.879 73.6982 161.077C72.6649 165.931 70.4969 170.677 70.2529 175.541C69.3129 194.161 68.9542 212.809 68.3676 231.448C68.3049 233.467 68.2836 235.496 68.0529 237.5C67.4889 242.395 68.5502 245.012 74.5569 244.543C80.2729 244.096 86.1009 245.085 91.8809 245.443C92.0796 246.201 92.2782 246.959 92.4782 247.716Z" fill="white"/>
</mask>
<g mask="url(#mask0_3771_46430)">
<path d="M63 270.5L71 3M6.5 17L151.5 11M-1.5 261.5H125.5" stroke="white" stroke-width="41"/>
</g>
</svg>
