<svg width="69" height="116" viewBox="0 0 69 116" fill="none" xmlns="http://www.w3.org/2000/svg">
<mask id="mask0_3936_36302" style="mask-type:alpha" maskUnits="userSpaceOnUse" x="1" y="4" width="62" height="111">
<path d="M22.404 76.8515C18.0302 72.33 16.7201 67.5653 18.2963 65.2952C17.4228 63.5575 16.2602 62.1794 16.0912 60.7258C15.6777 57.2404 15.6974 53.7191 15.6333 50.2083C15.6239 49.6999 15.9667 49.0698 16.3593 48.7093C20.4618 44.9141 25.1557 42.3582 31.099 42.4284C33.3408 42.4553 35.5742 42.3934 37.2233 42.3742C39.8845 41.192 42.1334 40.0611 44.49 39.1806C49.4716 37.3083 50.0475 35.2225 46.5525 30.9693C38.647 21.33 29.1655 15.6513 16.1684 18.2087C11.9912 19.0278 7.66573 19.272 3.39209 19.6476C2.92909 19.6872 2.36169 18.8585 1.8422 18.4376C3.80084 16.8332 2.49999 15.0168 2.2535 13.1232C1.75931 9.36609 5.89439 6.03443 10.1353 6.20842C11.2157 6.25391 12.3043 5.41118 13.3846 5.45667C15.6269 5.5615 17.8659 5.98443 20.1894 6.28897C20.6953 4.37372 22.6989 4.17253 24.6828 4.78904C28.5147 5.97304 32.2455 7.51128 36.0477 8.81286C39.1788 9.88618 42.4596 10.6052 45.4785 11.9262C47.6769 12.8877 49.7784 14.3409 51.5483 15.9671C57.0202 20.9815 60.9861 27.0464 62.5595 34.1461C63.4788 38.3059 60.5498 41.6315 57.5856 43.8764C53.3239 47.1039 48.5716 49.9009 43.6386 52.0729C40.145 53.6104 36.0315 53.996 32.1259 54.5356C29.5082 54.8971 28.7939 56.017 29.4869 58.3706C30.673 62.3714 31.8481 66.3795 32.7532 69.4381C29.7417 70.9036 27.1485 72.1672 24.2508 73.5826C23.6608 72.5769 22.7483 71.0119 21.8367 69.4528C21.4752 69.6296 21.1188 69.7998 20.7573 69.9766C21.2514 72.0433 21.7464 74.1158 22.398 76.8522L22.404 76.8515Z" fill="#CDDD20"/>
<path d="M36.2942 112.123C36.1233 109.944 36.0124 108.585 35.9084 107.231C35.6957 107.198 35.488 107.158 35.2753 107.124C34.7097 108.597 34.1382 110.071 33.4176 111.941C31.6004 110.812 30.136 109.903 28.516 108.9C28.0773 109.314 27.4432 109.914 26.6187 110.694C27.542 111.724 28.4198 112.7 29.2976 113.676C28.9858 114.009 28.6681 114.342 28.3563 114.674C26.5777 113.145 24.7942 111.623 23.0207 110.087C22.0137 109.217 20.779 108.483 20.0699 107.42C18.8675 105.61 17.8932 103.627 17.0574 101.633C16.708 100.795 17.0587 99.7261 16.9001 98.7867C16.4841 96.3746 16.6064 96.6772 19.3057 95.3164C22.0898 93.9152 24.4524 91.757 27.1188 90.1187C33.355 86.2859 41.087 88.8492 42.4171 95.3138C42.7684 97.0266 41.9715 98.99 41.4684 100.773C40.5614 103.973 39.5461 107.144 38.4207 110.276C38.1903 110.922 37.278 111.311 36.2961 112.134L36.2942 112.123Z" fill="#CDDD20"/>
</mask>
<g mask="url(#mask0_3936_36302)">
<path d="M-0.5 13.5L34.5 12L53.5 25.5L58.5 40.5L47 49.5L39.5 40.5L16.5 43L11.5 62L34.5 77.5M34.5 87.5L32 103L34.5 119" stroke="#28282D" stroke-width="35"/>
</g>
</svg>
