<svg width="206" height="272" viewBox="0 0 206 272" fill="none" xmlns="http://www.w3.org/2000/svg">
<mask id="mask0_3771_46431" style="mask-type:alpha" maskUnits="userSpaceOnUse" x="0" y="0" width="206" height="272">
<path d="M193.645 11.7035C193.679 11.2755 193.713 10.8488 193.748 10.4208C190.784 10.2101 187.819 9.99948 184.855 9.78882C184.873 9.55814 184.891 9.32748 184.909 9.09683C186.621 8.74216 188.335 8.38748 190.047 8.03281C189.972 7.55682 189.896 7.08081 189.821 6.60483C181.879 7.34348 173.937 8.0835 165.995 8.82349C166.019 8.9848 166.041 9.14615 166.065 9.30615C175.259 10.1061 184.452 10.9048 193.645 11.7035ZM48.2545 41.8235C49.0959 41.9581 49.9385 42.0941 50.7825 42.2262C50.7839 42.2248 50.5519 42.1901 50.5519 42.1901C56.2639 40.3608 62.0252 38.6702 67.6785 36.6768C84.4905 30.7502 101.335 24.8968 118.007 18.5995C124.036 16.3221 129.617 12.8688 135.401 9.95148L135.092 9.7048C137.72 10.4301 140.604 12.2368 142.931 11.6902C151.771 9.61414 160.308 6.13416 169.201 4.44482C175.297 3.28748 181.795 4.22348 188.421 3.11813C187.387 2.65414 186.353 2.18881 184.941 1.55548C203.54 0.0154724 201.393 0.459473 205.623 14.4421C184.195 15.5715 162.559 16.7115 140.029 17.8995C139.147 25.7421 138.521 33.4435 137.381 41.0675C131.381 81.1795 125.397 121.294 119.112 161.361C115.208 186.253 110.871 211.079 106.492 235.895C105.712 240.315 104.112 244.679 102.307 248.818C96.8465 261.334 88.8639 269.909 73.5999 270.865C53.2225 272.141 41.9745 266.346 33.9492 247.29C28.2745 233.814 22.0212 220.473 17.7492 206.547C13.7265 193.431 11.9599 179.63 9.20122 166.131C10.0372 165.849 10.8759 165.567 11.7132 165.286C13.1345 168.067 14.5572 170.849 15.9812 173.635C16.7025 164.538 17.4305 155.561 18.1212 146.579C18.4719 142.009 20.2625 138.573 25.4719 139.222C28.4279 139.591 33.4132 140.681 33.7025 142.171C34.5145 146.347 33.5225 150.923 32.9052 155.294C32.6065 157.395 30.5625 159.623 30.9865 161.398C34.2839 175.19 37.9945 188.886 41.5652 202.614C46.1252 220.142 53.9292 236.175 64.4799 250.855C67.0599 254.446 70.5732 257.375 74.8772 261.887C79.2639 252.897 83.0265 245.185 86.8985 237.25C87.7919 238.089 89.1399 239.354 91.4585 241.53C92.6972 236.197 93.3759 231.743 94.7852 227.531C97.4732 219.493 101.315 211.771 103.317 203.589C105.676 193.95 106.937 183.999 108.065 174.117C111.271 146.055 114.143 117.957 117.201 89.8795C117.936 83.1488 118.892 76.4421 118.563 69.1901C117.791 70.2928 117.019 71.3955 116.245 72.4981C115.652 72.2941 115.06 72.0915 114.467 71.8875C116.564 67.0435 118.728 62.2261 120.743 57.3488C122.553 52.9608 123.975 49.2715 122.579 43.5888C120.864 36.6061 123.609 28.5408 124.509 20.1781C118.645 21.9315 111.36 23.6195 104.46 26.2901C94.5559 30.1235 84.8065 34.4168 75.2585 39.0568C71.9039 40.6875 69.4972 44.1408 66.3825 46.3848C53.0559 55.9941 39.4212 65.1955 26.3385 75.1195C21.4012 78.8635 17.6799 84.1848 13.3599 88.7461C9.2932 93.0381 6.50787 91.5968 4.18787 86.8302C0.249206 78.7395 -2.16013 71.2701 7.6532 65.1235C20.1799 57.2768 32.3812 48.9155 44.7212 40.7755C43.1532 42.2408 41.7425 43.9328 39.9905 45.1328C31.7372 50.7861 23.3905 56.3048 15.0772 61.8728C26.3852 57.2408 36.9892 51.6955 47.4519 45.8981C48.2359 45.4635 48.0105 43.2235 48.2545 41.8235Z" fill="white"/>
</mask>
<g mask="url(#mask0_3771_46431)">
<path d="M2 86L72 35L132.5 11.5M132.5 11.5L205 2M132.5 11.5L116.5 154L97 241.5L72 268.5L39.5 251.5L23.5 195V133.5" stroke="white" stroke-width="41"/>
</g>
</svg>
