<svg width="157" height="304" viewBox="0 0 157 304" fill="none" xmlns="http://www.w3.org/2000/svg">
<mask id="mask0_3771_41679" style="mask-type:alpha" maskUnits="userSpaceOnUse" x="0" y="0" width="157" height="304">
<path d="M11.0598 243.771C5.77585 244.489 5.11451 253.469 11.0598 266.05V243.771ZM22.6078 25.6728C21.7212 25.5328 20.8345 25.3914 19.9478 25.2501C18.1558 44.5915 16.3638 63.9328 14.5718 83.2741C15.1065 83.3195 15.6412 83.3661 16.1758 83.4115C18.3198 64.1661 20.4638 44.9195 22.6078 25.6728ZM58.9305 71.4701C79.2292 47.5581 99.5292 23.6475 119.536 0.08078C126.076 4.55814 130.983 8.19812 136.172 11.3808C140.056 13.7621 141.723 16.0488 137.856 19.7675C125.247 31.8981 114.267 45.2448 99.1038 55.3061C85.7172 64.1888 73.9452 77.8128 66.1972 91.9181C61.3772 100.693 53.1732 106.809 50.0692 116.041C48.5612 120.526 47.6065 126.881 49.6705 130.586C59.8772 148.903 70.5639 167.025 82.2439 184.445C96.9038 206.306 112.728 227.394 127.983 248.862C136.739 261.185 145.237 273.69 154.103 285.933C158.329 291.769 155.836 295.011 150.529 297.691C147.363 299.291 144.2 300.899 139.737 303.162C104.365 250.641 68.5812 197.509 32.6585 144.171C31.9518 154.45 31.2825 165.122 30.4572 175.782C30.0252 181.355 29.9585 187.065 28.6278 192.445C22.2598 218.194 28.6305 244.329 25.8998 270.21C24.5292 283.206 23.0158 285.327 10.8665 281.223C8.25851 280.342 5.22651 276.523 4.91718 273.777C3.06384 257.379 0.693178 240.89 0.834511 224.451C1.21184 180.499 2.38385 136.542 4.07318 92.6181C4.68385 76.7581 7.68918 60.9901 9.55051 45.1741C9.92651 41.9755 10.0718 38.7501 10.3238 35.5368C9.50918 35.4501 8.69318 35.3635 7.87851 35.2768C6.20251 50.0088 4.52784 64.7408 2.58918 81.7915C-2.97216 53.2821 5.61584 27.8008 7.25051 2.45682C24.1412 9.22079 24.1412 9.22079 29.9745 5.78879C33.0478 12.3394 38.7078 16.2941 36.8838 26.2901C31.9705 53.2195 30.0078 80.6808 26.9265 107.937C26.7852 109.181 27.1585 110.483 27.4092 112.865C30.2132 109.925 32.2558 107.782 34.2985 105.639C33.6385 109.037 32.9785 112.434 32.3185 115.833C37.6025 111.637 40.8292 106.737 44.5838 102.279C67.5198 75.0501 90.6185 47.9568 113.535 20.7115C116.012 17.7648 117.669 14.1341 119.707 10.8208C119.043 10.3421 118.38 9.86346 117.717 9.3848C115.741 11.1435 113.556 12.7195 111.823 14.6888C98.1438 30.2234 84.6692 45.9381 70.8492 61.3475C67.4038 65.1888 62.9305 68.1208 58.9305 71.4701Z" fill="white"/>
</mask>
<g mask="url(#mask0_3771_41679)">
<path d="M19.5 -12.5L16.75 141.5M14 295.5L16.75 141.5M16.75 141.5L31.2444 124.5M131 7.5L31.2444 124.5M31.2444 124.5L152 306" stroke="white" stroke-width="41"/>
</g>
</svg>
