<svg width="122" height="284" viewBox="0 0 122 284" fill="none" xmlns="http://www.w3.org/2000/svg">
<mask id="mask0_3771_42333" style="mask-type:alpha" maskUnits="userSpaceOnUse" x="0" y="0" width="122" height="284">
<path d="M18.1711 74.9997C11.4284 102.15 13.2511 129.477 15.5551 156.809C16.4271 156.82 17.2991 156.829 18.1711 156.838V74.9997ZM10.8618 0.0917664C15.6338 0.0917664 20.1338 -0.142914 24.5991 0.146423C31.2511 0.577087 36.1751 3.48642 36.1004 10.8824C35.7404 46.1824 35.3138 81.4824 34.6951 116.778C34.4551 130.508 33.7484 144.233 33.0738 157.952C31.8631 182.59 30.4898 207.221 29.2524 231.858C29.0591 235.714 29.2258 239.588 29.2258 244.178C44.1484 243.356 58.3871 242.581 72.6244 241.778C76.8431 241.541 81.1138 241.566 85.2618 240.88C99.7604 238.478 111.072 241.844 118.892 255.57C123.15 263.045 123.69 265.822 114.936 268.266C105.238 270.974 95.1538 272.429 85.1684 273.989C65.4338 277.072 45.6471 279.81 25.8924 282.769C14.8511 284.422 9.6391 281.49 5.82844 271.21C3.99377 266.26 2.17644 261.305 0.648438 257.158C2.67244 254.532 5.5031 252.56 5.62044 250.441C6.98044 225.872 8.16577 201.286 8.87644 176.69C9.18177 166.106 8.24577 155.489 7.95244 144.884C7.9071 143.233 8.0311 141.497 8.50177 139.925C15.6818 115.912 12.6564 91.6598 10.3138 66.0064C8.59377 69.5291 7.41777 71.9344 6.2431 74.3398C5.61244 74.2731 4.98177 74.2064 4.3511 74.1397C6.5231 49.4451 8.69377 24.7517 10.8618 0.0917664Z" fill="white"/>
</mask>
<g mask="url(#mask0_3771_42333)">
<path d="M21.5 -6V277.5L121.5 254.5" stroke="white" stroke-width="41"/>
</g>
</svg>
