<svg width="191" height="304" viewBox="0 0 191 304" fill="none" xmlns="http://www.w3.org/2000/svg">
<mask id="mask0_3771_46432" style="mask-type:alpha" maskUnits="userSpaceOnUse" x="0" y="0" width="191" height="304">
<path d="M142.291 85.4993C129.661 124.375 117.44 162.149 105.088 199.879C102.831 206.774 100.108 213.521 97.4347 220.27C96.844 221.759 95.372 224.219 94.6027 224.114C87.6134 223.149 79.0307 223.697 74.2827 219.77C70.656 216.771 71.6867 207.954 71.0907 201.683C70.836 199.007 72.604 195.983 71.932 193.53C68.5374 181.123 64.8 168.801 60.792 156.575C59.9467 153.997 57.4654 151.95 55.7374 149.658C55.0587 150.105 54.3814 150.551 53.704 150.998C57.084 161.966 60.4654 172.933 63.8467 183.901C62.7667 184.262 61.6854 184.625 60.6054 184.987C59.6427 182.65 58.3987 180.387 57.76 177.966C51.1307 152.826 44.3587 127.718 38.2547 102.45C37.1027 97.678 38.9547 92.242 38.9374 87.1153C38.9307 85.1846 37.552 83.258 36.1347 79.626C34.2587 110.179 33.0387 138.817 30.6107 167.353C27.692 201.634 23.76 235.83 20.2254 270.058C19.7774 274.395 19.0814 278.709 18.5 283.033C17.548 282.998 16.596 282.962 15.6427 282.927C16.232 274.237 16.8214 265.546 17.4094 256.855C16.5494 256.753 15.6894 256.65 14.828 256.547C13.3467 265.194 11.8654 273.842 10.284 283.074C1.86137 285.435 -0.219965 284.458 0.604035 274.579C3.1667 243.883 6.39604 213.243 9.43737 182.587C9.76404 179.298 10.556 176.054 12.1894 172.901C9.16804 202.481 6.14537 232.059 3.1227 261.638C4.0267 261.739 4.92937 261.839 5.83203 261.939C8.6107 237.062 11.3574 212.179 14.1747 187.306C16.8827 163.394 19.664 139.49 22.4134 115.582C21.4214 115.482 20.4307 115.381 19.44 115.281C18.404 123.79 17.368 132.299 16.332 140.809C15.1134 103.41 30.76 66.9807 20.676 29.0553C27.6094 29.7713 33.4614 29.8153 38.9827 31.1833C41.7254 31.8633 45.168 34.5233 46.0454 37.0593C49.8667 48.1046 52.9507 59.4086 56.1347 70.6646C60.592 86.418 65.2574 102.129 69.1 118.033C70.712 124.702 69.6187 132.015 71.2027 138.697C74.584 152.962 78.912 167.006 83.2147 182.443C89.1627 168.021 94.5134 155.047 99.864 142.073C100.365 142.199 100.868 142.326 101.371 142.453C101.493 144.749 101.616 147.045 101.744 149.415C102.437 149.313 103.216 149.375 103.303 149.161C107.72 138.279 113.225 127.663 116.076 116.382C118.324 107.491 116.552 97.6726 117.895 88.4566C119.707 76.0206 121.336 66.414 125.772 47.3433C127.721 38.9606 130.485 27.7713 134.216 14.5913C134.815 14.7113 135.412 14.83 136.009 14.9486C137.357 10.6487 138.704 6.34729 140.003 2.20596C148.973 1.62198 158.224 0.832642 167.489 0.480652C173.567 0.249969 176.913 4.05399 177.725 9.61798C178.936 17.9193 180.063 26.2833 180.397 34.654C181.471 61.5406 182.236 88.4393 182.949 115.338C183.097 120.919 182.221 126.526 182.329 132.111C182.509 141.515 182.981 150.919 183.541 160.31C184.939 183.767 186.589 207.211 187.884 230.674C189.025 251.363 189.661 272.079 190.847 292.765C191.377 302.022 188.78 303.701 179.717 302.951C167.331 301.926 164.189 293.905 162.972 284.155C157.704 241.933 152.331 199.717 147.748 157.417C145.187 133.779 144.099 109.985 142.291 85.4993Z" fill="white"/>
</mask>
<g mask="url(#mask0_3771_46432)">
<path d="M7.5 285.5L32.5 26L85.5 226.5L158.5 -2.5L180.5 305.5" stroke="white" stroke-width="41"/>
</g>
</svg>
