<svg width="170" height="314" viewBox="0 0 170 314" fill="none" xmlns="http://www.w3.org/2000/svg">
<mask id="mask0_3771_41341" style="mask-type:alpha" maskUnits="userSpaceOnUse" x="0" y="0" width="170" height="314">
<path d="M16.6676 40.0163C19.3343 57.695 25.2716 70.983 31.605 72.8843C26.3436 61.307 21.5063 50.6617 16.6676 40.0163ZM147.718 135.054C148.181 135.139 148.645 135.224 149.108 135.31V76.407C148.645 76.4056 148.181 76.4043 147.718 76.403V135.054ZM149.568 265.799L153.609 265.443C152.218 254.35 150.826 243.256 149.434 232.163C148.265 232.311 147.094 232.46 145.925 232.61L149.568 265.799ZM13.1743 240.595C14.0063 240.988 14.837 241.382 15.669 241.774C17.2663 240.088 20.2636 238.379 20.237 236.719C20.033 224.228 19.233 211.747 18.6196 199.262C17.9223 199.259 17.2236 199.255 16.5263 199.251C15.409 213.032 14.2916 226.814 13.1743 240.595ZM144.022 100.511C142.437 134.198 140.242 168.087 147.576 201.68C146.392 167.958 145.208 134.235 144.022 100.511ZM140.51 245.142C141.366 242.27 142.43 240.516 142.308 238.848C139.442 199.883 134.936 160.966 133.941 121.958C133.093 88.727 136.2 55.391 137.712 22.1096C137.968 16.4776 139.253 12.2296 147.134 15.0203C151.853 16.6896 157.502 16.231 162.693 15.9683C168.05 15.699 169.906 18.1336 169.477 22.8523C168.644 31.995 166.874 41.1083 166.77 50.2496C166.486 75.3643 167.029 100.487 166.946 125.606C166.776 177.454 166.298 229.3 166.273 281.148C166.269 287.616 168.522 294.056 169.161 300.564C169.477 303.77 169.128 309.659 167.989 309.938C162.845 311.2 157.052 316.914 151.976 310.139C145.634 301.674 138.96 293.348 133.616 284.271C118.134 257.975 103.637 231.103 88.0223 204.887C70.249 175.048 60.3996 141.84 46.189 110.499C45.4263 108.816 44.6343 107.147 43.857 105.472C43.005 105.746 42.153 106.019 41.3023 106.294C41.961 113.039 42.621 119.786 43.281 126.532C43.281 137.796 43.161 147.963 43.3036 158.126C43.6623 183.626 44.3503 209.123 44.4543 234.623C44.4903 243.463 38.4476 247.507 29.4116 245.758C23.5023 244.612 17.6263 243.3 10.7383 241.854C10.3036 236.787 9.2663 231.26 9.4583 225.776C10.2703 202.542 11.105 179.296 12.725 156.11C13.1476 150.047 16.9583 144.294 18.2596 138.198C19.8703 130.644 25.5343 122.334 15.7236 115.794C14.9103 115.252 15.2556 112.676 15.4076 111.078C15.9556 105.319 16.6516 99.575 18.3543 93.8003C18.649 95.0163 18.9436 96.2336 19.237 97.451C20.0516 97.4723 20.865 97.4936 21.6783 97.5163C21.853 90.8496 23.6076 83.7536 21.9156 77.595C15.9316 55.8123 8.7703 34.3496 2.04497 12.7697C1.47564 10.943 0.831635 9.13898 0.292969 7.53497C8.28897 5.2283 15.8556 2.9043 23.5023 0.88031C30.665 -1.01569 34.8356 2.9003 37.1983 8.95364C42.5903 22.7723 47.769 36.6736 52.9423 50.575C63.365 78.5843 72.8663 106.975 84.4276 134.51C91.6796 151.78 102.345 167.603 110.826 184.403C119.532 201.646 127.418 219.298 135.726 236.74C136.913 239.234 138.456 241.559 140.51 245.142Z" fill="white"/>
</mask>
<g mask="url(#mask0_3771_41341)">
<path d="M25.5 250L16 1L161 313L154.5 12.5" stroke="white" stroke-width="41"/>
</g>
</svg>
