<svg width="172" height="274" viewBox="0 0 172 274" fill="none" xmlns="http://www.w3.org/2000/svg">
<mask id="mask0_3771_46434" style="mask-type:alpha" maskUnits="userSpaceOnUse" x="0" y="0" width="172" height="274">
<path d="M84.6862 52.0884C83.9502 51.7111 83.2142 51.3337 82.4782 50.9564C80.0916 54.8791 77.0569 58.5577 75.4436 62.7737C71.1289 74.0457 67.5262 85.5844 63.4436 96.9484C60.1636 106.075 56.5942 115.1 53.1542 124.17C53.6796 124.364 54.2049 124.56 54.7302 124.755C64.7156 100.532 74.7009 76.3111 84.6862 52.0884ZM139.762 162.1C139.409 161.922 139.057 161.743 138.704 161.564C143.101 137.584 148.617 113.74 151.581 89.5871C154.566 65.2617 154.462 40.6737 146.349 16.9031C142.604 5.92975 138.628 4.5444 128.361 10.007C114.662 17.295 105.1 28.7831 98.3302 41.9537C73.3476 90.5551 50.1116 139.718 39.9342 194.224C35.8982 215.846 50.0516 249.686 63.9302 259.499C75.7929 267.888 78.1382 267.814 88.2729 257.647C91.4849 254.426 94.7409 251.138 97.3249 247.431C103.644 238.37 109.582 229.046 115.673 219.827C115.969 219.939 116.264 220.051 116.56 220.163L99.8582 255.33C100.506 255.683 101.154 256.035 101.802 256.387C112.394 245.346 123.365 233.763 128.445 219.518C138.39 191.632 145.845 162.866 154.216 134.85C153.957 134.611 154.485 135.098 154.193 134.828C155.006 131.612 156.181 128.402 156.585 125.099C157.856 114.712 159.252 104.314 159.833 93.8777C160.774 77.0084 161.745 60.0964 161.464 43.2231C161.284 32.4191 157.178 22.3671 149.801 12.7018C153.021 25.1831 157.842 36.2004 158.288 47.3911C158.954 64.0937 157.958 81.1644 155.081 97.6297C151.286 119.347 144.985 140.631 139.762 162.1ZM42.2862 85.9524C39.5089 109.564 36.7329 133.178 33.9556 156.791C34.6396 156.931 35.3236 157.071 36.0076 157.212C36.6516 155.766 37.3809 154.351 37.9249 152.87C49.6516 120.988 60.2516 88.6391 73.4716 57.3844C81.7036 37.9244 95.5023 21.2257 111.992 7.54575C128.76 -6.36359 153.997 0.120392 163.124 19.9724C169.486 33.8124 171.248 48.6017 171.164 63.5124C171.056 82.3124 171.684 101.352 168.988 119.855C162.998 160.962 151.386 200.602 129.88 236.666C120.158 252.967 108.438 269.119 88.4769 272.094C48.3982 278.064 16.4636 264.331 7.98758 219.716C4.61158 201.943 3.00225 183.791 1.44091 165.739C0.672914 156.851 0.714246 147.582 2.39691 138.867C5.03558 125.191 9.38358 111.842 12.9756 98.3457C13.3462 96.9524 13.4929 95.5017 12.9142 93.8084C11.0916 97.5764 9.26891 101.344 7.17024 105.686C7.33424 84.0684 24.2969 36.2057 40.2742 19.6151C38.2769 24.5391 37.0036 27.6791 35.7289 30.8191C35.9862 31.0044 36.2422 31.1897 36.4982 31.3737C38.0556 29.3751 39.8129 27.4991 41.1289 25.3551C44.4569 19.9364 48.7449 17.2737 54.8222 20.7697C57.3796 22.2417 61.5809 25.1511 61.2542 26.5111C60.3022 30.4884 62.5796 36.3711 55.7262 38.1351C53.6796 38.6617 51.6116 41.8884 50.8849 44.2791C44.9022 63.9671 40.2329 84.1111 33.2022 103.408C25.3369 125.002 26.2702 147.178 25.4489 169.335C25.1502 177.382 25.4009 185.447 25.4009 193.504C26.2329 193.594 27.0649 193.683 27.8969 193.772C29.9649 181.802 32.3756 169.876 33.9662 157.842C34.8196 151.378 33.7409 144.674 34.4462 138.176C36.3449 120.688 38.7329 103.254 40.9262 85.7964C41.3796 85.8484 41.8329 85.9004 42.2862 85.9524Z" fill="white"/>
</mask>
<g mask="url(#mask0_3771_46434)">
<path d="M53 22L12 131.5L22.5 232.5L64.5 267L120.5 251.5L165.5 47L144.5 2H112.5L80 62.5L31 194" stroke="white" stroke-width="41"/>
</g>
</svg>
