<svg width="238" height="331" viewBox="0 0 238 331" fill="none" xmlns="http://www.w3.org/2000/svg">
<mask id="mask0_3771_46435" style="mask-type:alpha" maskUnits="userSpaceOnUse" x="0" y="0" width="238" height="331">
<path d="M150.732 10.2946C150.584 10.78 150.435 11.264 150.287 11.7493C163.379 16.2733 176.472 20.7986 189.564 25.3227C189.788 24.6093 190.011 23.896 190.233 23.1826C177.065 18.8867 163.899 14.5907 150.732 10.2946ZM106.556 190.115C106.895 190.729 107.232 191.345 107.571 191.961C115.177 187.213 122.983 182.748 130.347 177.652C142.201 169.447 153.896 160.996 165.373 152.279C168.907 149.593 174.175 146.34 167.684 140.284C171.739 138.283 175.691 136.633 179.329 134.465C185.065 131.047 191.609 128.208 195.983 123.457C203.949 114.803 210.8 105.085 217.661 95.4893C220.86 91.016 223.049 85.8186 225.601 80.9C227.849 76.5693 226.767 72.9427 223.679 69.1986C214.651 58.252 202.452 52.0853 189.781 46.868C160.036 34.6187 128.764 32.928 97.1013 34.608C96.3947 34.6453 95.724 35.3653 94.432 36.1187C101.556 38.5547 108.452 40.8853 107.441 49.1826C104.548 72.96 101.189 96.684 97.8507 120.407C94.9333 141.132 91.7213 161.817 88.9013 182.555C88.688 184.123 90.2227 186.395 91.612 187.531C92.4133 188.184 94.8533 187.664 96.0387 186.889C99.4187 184.68 102.423 181.904 105.78 179.653C111.239 175.993 116.861 172.575 122.415 169.053C122.628 169.413 122.843 169.772 123.057 170.132C120.273 173.104 117.491 176.076 114.516 179.255C116.245 179.807 117.311 180.147 119.452 180.829C114.588 184.332 110.572 187.223 106.556 190.115ZM81.0893 34.9293C69.3493 37.4773 58.96 39.5693 48.656 42.0146C38.8 44.3546 29.0107 46.9893 19.2307 49.6306C11.4987 51.7187 8.25466 49.6973 6.33333 41.86C4.92266 36.104 3.28134 30.372 1.252 24.8053C-0.527998 19.924 -0.130663 16.6213 5.48934 15.0413C17.6493 11.62 29.7333 7.93066 41.928 4.63998C44.228 4.01999 46.8947 4.72531 49.392 4.84265C53.5547 5.03732 58.036 7.776 61.424 2.51865C62.1813 1.34265 65.1987 1.37997 67.2 1.25333C100.063 -0.820007 132.791 -0.122681 164.328 10.3747C177.449 14.7413 189.957 21.1333 202.381 27.3267C226.408 39.304 247.285 89.7893 231.879 115.449C220.724 134.028 205.488 147.86 188.768 160.709C159.649 183.088 127.448 200.064 93.5467 213.964C88.7773 215.92 86.5387 218.284 86.5067 223.784C86.3227 255.609 85.7667 287.433 85.2453 319.257C85.1813 323.153 84.5667 327.041 84.2267 330.709C75.364 332.016 74.4573 327.043 74.1333 321.327C72.344 289.875 70.5013 258.425 68.6547 226.976C68.6147 226.289 68.3013 225.62 67.852 223.981C63.396 226.348 59.14 228.383 55.116 230.797C48.5333 234.745 46.8227 233.513 43.8053 226.649C40.4733 219.069 42.8053 214.848 49.3947 211.503C50.5147 210.933 51.3947 209.819 52.5493 209.405C66.7507 204.304 69.8533 194.307 69.0173 179.863C67.5453 154.421 73.6947 129.512 78.2467 104.581C78.6493 102.377 79.0813 100.18 79.9267 95.7307C77.7867 98.9253 76.8773 100.283 75.1027 102.932C72.5627 79.4333 77.456 58.0346 81.0893 34.9293Z" fill="white"/>
</mask>
<g mask="url(#mask0_3771_46435)">
<path d="M80.5 335.5L91 34.5M1 32L120.5 15L195.5 34.5L237 75.5L231 116L167 167L40 228" stroke="white" stroke-width="44"/>
</g>
</svg>
