<svg width="220" height="374" viewBox="0 0 220 374" fill="none" xmlns="http://www.w3.org/2000/svg">
<mask id="mask0_3771_46436" style="mask-type:alpha" maskUnits="userSpaceOnUse" x="0" y="0" width="220" height="374">
<path d="M39.7357 251.299C38.9557 251.499 38.1757 251.701 37.3957 251.901C40.6517 259.783 43.909 267.667 47.1664 275.55C47.881 275.262 48.5957 274.974 49.309 274.686C46.1184 266.89 42.9264 259.095 39.7357 251.299ZM195.817 82.026C190.985 130.389 179.701 177.429 162.941 223.307C185.586 178.755 194.309 131.193 195.817 82.026ZM83.3437 73.566C69.2624 93.166 62.3837 115.106 56.4917 137.203C52.9157 150.615 51.517 164.662 49.8637 178.509C45.8504 212.143 48.041 245.205 63.129 276.139C67.6757 285.461 74.901 293.581 81.5424 301.733C83.0837 303.623 87.2184 303.815 90.221 304.069C101.745 305.039 107.961 295.507 116.092 290.127C119.742 287.713 123.293 281.939 123.084 277.885C122.885 274.014 117.742 270.397 114.008 265.709C112.53 266.249 109.289 267.186 105.68 266.098C99.2877 264.17 95.9397 256.993 96.0917 251.266C96.2077 246.883 103.285 242.674 107.318 238.413C107.786 237.918 108.424 237.585 109.532 236.777C117.16 247.075 124.669 257.215 132.528 267.826C136.25 263.742 140.082 261.086 141.742 257.449C149.252 241.001 156.946 224.562 163.109 207.594C179.44 162.63 190.02 116.598 185.042 68.274C183.402 52.346 179.758 36.8327 170.597 23.366C168.27 19.9474 164.034 17.0767 160.061 15.642C147.816 11.2234 136.01 14.2354 124.816 19.7567C103.137 30.45 89.2997 49.2287 74.6437 67.7514C77.6264 69.746 80.0877 71.39 83.3437 73.566ZM150.253 287.29C162.58 302.385 173.197 313.937 180.854 321.915C187.03 328.35 193.266 334.527 203.436 345.518C210.401 353.045 216.012 359.371 219.776 363.674C218.648 366.363 215.808 372.114 210.925 372.979C207.888 373.518 204.382 372.109 195.038 362.313C190.392 357.441 184.253 350.443 177.79 341.206C174.133 337.809 169.492 333.373 164.241 328.034C159.088 322.793 155.326 318.677 151.517 314.535C147.102 309.737 142.838 304.801 138.497 299.91C133.684 303.318 129.041 307.343 123.76 310.199C109.506 317.907 95.4037 318.43 80.3664 310.681C49.0197 294.525 35.709 266.659 28.1077 234.687C23.193 214.017 23.4917 193.114 25.7437 172.155C26.0264 169.53 26.2704 166.901 26.5317 164.273C25.5664 164.095 24.601 163.919 23.6357 163.742C20.241 179.665 16.8464 195.586 13.4877 211.343C3.39569 208.231 0.442359 204.49 0.461025 191.918C0.487692 172.87 6.70769 155.23 13.733 137.878C24.441 111.426 35.1424 84.7887 52.205 61.686C63.0997 46.934 75.725 33.3033 88.665 20.2393C97.965 10.8513 110.104 5.10736 123.125 1.94736C140.333 -2.22864 155.145 5.04071 169.185 13.102C191.509 25.9194 199.777 48.1194 204.721 71.4807C213.125 111.193 204.29 149.715 195.066 188.129C186.784 222.623 172.444 254.369 152.097 283.462C151.534 284.269 151.224 285.249 150.253 287.29Z" fill="white"/>
</mask>
<g mask="url(#mask0_3771_46436)">
<path d="M2.5 204.5L25.1791 160M25.1791 160L95 23L153 5L196 39.5L203 106.5L179.5 192.5L153 259L115 306H70.5L42.5 271.5L25.1791 160ZM101.5 243.5L217.5 372" stroke="white" stroke-width="44"/>
</g>
</svg>
