<svg width="172" height="291" viewBox="0 0 172 291" fill="none" xmlns="http://www.w3.org/2000/svg">
<mask id="mask0_3771_46437" style="mask-type:alpha" maskUnits="userSpaceOnUse" x="0" y="0" width="172" height="291">
<path d="M134.074 67.22C135.922 61.7401 138.178 56.344 139.367 50.7254C139.714 49.084 137.318 46.4427 135.553 45.0401C135.018 44.6147 132.379 46.8107 130.705 47.8067C130.31 45.776 130.447 42.3254 129.431 41.9467C123.478 39.732 117.342 37.3454 111.099 36.7387C104.402 36.0881 97.518 37.34 90.7167 37.7627C90.6994 37.4254 90.6821 37.088 90.6647 36.7507C95.1661 36.4427 99.666 36.1334 104.167 35.8254C99.0741 34.232 94.046 34.108 89.026 34.2574C77.3927 34.6027 77.0741 35.4001 76.374 47.3934C75.166 68.0494 73.3874 88.6707 71.9647 109.315C70.9634 123.857 70.1541 138.413 69.258 152.963C70.2421 153.371 71.2261 153.78 72.2101 154.189C77.0461 148.373 82.1221 142.735 86.6634 136.699C93.3274 127.841 99.594 118.688 106.058 109.68C112.97 100.044 119.913 90.4321 126.842 80.8094C129.253 76.28 131.663 71.7494 134.074 67.22ZM76.6647 179.245C87.0834 191.196 97.4061 203.713 108.483 215.532C117.273 224.908 126.945 233.469 136.295 242.32C147.498 252.923 159.03 263.203 169.797 274.224C171.821 276.295 172.442 281.98 171.055 284.612C168.277 289.884 152.203 291.927 146.797 288.489C122.219 272.868 103.318 251.247 84.2941 229.764C79.1727 223.981 74.0927 218.167 67.9834 213.033C67.7794 218.832 67.5754 224.629 67.3714 230.428C66.2754 239.139 66.6687 246.067 67.2434 250.82C68.094 257.865 68.6634 264.943 69.2834 272.013C69.5594 275.149 69.6101 278.941 68.0607 281.345C67.2154 282.657 62.7207 282.153 60.0101 281.68C48.5381 279.677 42.2461 273.263 42.4821 261.092C42.7087 249.375 42.3861 237.648 42.4567 225.927C42.4887 220.657 42.8914 215.392 43.1061 210.551C38.7807 211.161 34.1367 213.264 31.3167 211.824C28.2394 210.255 26.5421 205.552 24.8087 201.947C22.5447 197.235 20.8341 192.259 18.5727 186.617C20.7807 187.005 22.7261 186.916 24.4434 186.532C37.0701 183.709 45.4234 163.141 47.1034 135.976C49.5034 106.829 52.1141 75.1307 54.7101 43.5894C47.0327 43.244 40.2127 42.796 33.3887 42.7534C32.0861 42.7454 30.6447 44.1974 29.4874 45.2214C22.7274 51.2081 13.3327 50.6627 8.36606 43.2827C5.38339 38.848 3.25805 33.7414 1.37672 28.7027C-0.661948 23.2414 3.49406 20.7907 7.64606 19.64C26.8194 14.3227 45.9101 8.47739 65.3794 4.5267C79.2487 1.71204 93.666 0.821381 107.855 0.672058C113.771 0.610718 122.095 2.9787 125.234 7.23071C135.402 21.0027 145.533 35.3774 152.165 50.9974C159.107 67.3521 153.834 83.7187 145.137 99.4081C133.781 119.897 117.921 136.356 101.87 152.867C93.7287 161.243 85.7261 169.752 76.6647 179.245Z" fill="white"/>
</mask>
<g mask="url(#mask0_3771_46437)">
<path d="M56.5 282.996L68 -1.00195M2 36.998L123.5 17.998L157 65.998L98 141.498L60 172.248M22 202.998L60 172.248M60 172.248L165 289.998" stroke="white" stroke-width="44"/>
</g>
</svg>
