<svg width="164" height="299" viewBox="0 0 164 299" fill="none" xmlns="http://www.w3.org/2000/svg">
<mask id="mask0_3771_46438" style="mask-type:alpha" maskUnits="userSpaceOnUse" x="0" y="0" width="164" height="299">
<path d="M44.4462 61.2859C41.5782 63.0233 38.7102 64.7593 35.8422 66.4966C35.3569 65.9086 34.8729 65.3219 34.3889 64.7339C43.4169 57.4806 52.1169 49.7699 61.5569 43.0926C73.2662 34.8086 85.4702 27.1859 97.7156 19.6899C101.662 17.2739 106.558 16.4446 110.75 14.3539C113.433 13.0166 115.346 9.9046 118.082 8.96329C127.809 5.61526 137.758 0.669922 147.586 0.752594C152.916 0.7966 158.249 9.71127 163.257 14.9313C163.553 15.2419 160.965 18.2899 160.72 18.6393C156.364 17.3419 153.076 15.3793 149.949 15.6059C137.641 16.4966 127.229 21.2006 120.696 32.3726C120.092 33.4046 119.136 34.2926 118.188 35.0566C99.6756 49.9659 80.7716 64.4219 62.7182 79.8633C46.8929 93.4006 35.4489 110.522 28.2262 129.975C24.3302 140.467 27.4156 145.531 38.2369 148.034C59.6396 152.982 81.2929 156.874 102.648 162.003C115.686 165.134 125.869 173.097 133.825 183.983C145.046 199.338 138.633 212.523 129.032 225.271C106.993 254.53 77.8582 274.557 44.5249 289.035C37.7929 291.959 30.9662 294.677 24.3222 297.783C18.3076 300.597 14.7156 297.085 13.0796 292.606C12.4822 290.973 16.1502 286.191 18.7516 285.247C55.6062 271.891 85.7009 248.678 112.573 221.134C118.256 215.311 121.736 206.753 124.474 198.851C127.96 188.805 123.72 181.739 113.001 179.205C94.7729 174.893 76.3716 171.263 57.9662 167.747C38.7009 164.066 22.2929 156.37 12.6289 138.234C12.1582 137.35 11.5422 136.509 10.8516 135.781C-1.83509 122.397 -1.86842 117.073 7.57024 101.458C10.4822 96.6406 11.1836 88.6659 20.2116 89.0553C21.7316 89.1219 23.2076 84.8233 25.0956 82.9286C28.9129 79.0979 33.0409 75.5753 36.9622 71.8433C40.0236 68.9299 42.9662 65.8939 45.9609 62.9126C45.4569 62.3699 44.9516 61.8273 44.4462 61.2859Z" fill="white"/>
</mask>
<g mask="url(#mask0_3771_46438)">
<path d="M161 4.5L83 44.5L19.5 106V145L54 164L136.5 187.5L124.5 229.5L12 299" stroke="white" stroke-width="44"/>
</g>
</svg>
