<svg width="180" height="286" viewBox="0 0 180 286" fill="none" xmlns="http://www.w3.org/2000/svg">
<mask id="mask0_3771_46439" style="mask-type:alpha" maskUnits="userSpaceOnUse" x="0" y="0" width="180" height="286">
<path d="M63.8846 178.506V124.31C63.1486 124.33 62.4113 124.352 61.6739 124.373C56.0126 142.554 60.7806 160.565 63.8846 178.506ZM55.2739 233.094C53.6272 213.353 51.9806 193.612 50.3326 173.87C50.7432 173.829 51.1539 173.788 51.5646 173.748C52.4512 179.69 53.3392 185.634 54.2259 191.577C55.5752 161.569 46.3153 131.686 56.9059 101.845C56.1926 101.708 55.4792 101.572 54.7646 101.436C54.0179 102.444 53.1139 103.376 52.5739 104.484C52.1099 105.433 52.0646 106.582 50.7886 107.562C53.4819 85.1276 50.5886 62.4063 56.9179 38.7116C46.6646 40.3009 38.1592 41.6249 29.6512 42.937C23.3139 43.9143 16.9979 45.2916 10.6246 45.6463C7.83525 45.8023 3.11125 44.5303 2.43125 42.7249C0.753912 38.2703 0.509914 33.121 0.651247 28.2783C0.68058 27.3076 6.85791 25.4076 7.03125 25.7116C10.7126 32.2116 14.9952 27.0743 18.7286 26.3516C41.3259 21.9796 63.8753 17.3636 86.4419 12.8329C88.6966 12.381 90.9552 11.9516 93.2126 11.5116C93.0926 10.7716 92.9726 10.0316 92.8526 9.2916C79.9139 10.9156 66.9072 12.1396 54.0539 14.2783C41.1566 16.425 28.4126 19.4823 15.1712 20.5983C29.4246 16.8276 43.8939 13.705 57.8699 9.0983C70.8712 4.81161 83.9526 6.39828 97.0859 5.77429C115.774 4.88763 134.395 2.59964 153.05 0.972961C155.002 0.802277 156.994 1.01694 158.965 1.10895C173.451 1.7876 179.083 8.03561 179.043 23.3623C149.799 26.9863 120.553 30.6089 90.4832 34.3343C82.6206 118.338 76.7286 201.914 84.0286 285.961C68.9926 282.546 63.7699 276.225 61.2673 256.416C60.1139 247.289 56.8406 237.889 61.6566 228.717C62.1446 227.786 62.1806 226.508 62.1019 225.413C61.4646 216.558 60.7499 207.71 58.3699 198.91V232.985C57.3379 233.021 56.3059 233.057 55.2739 233.094Z" fill="white"/>
</mask>
<g mask="url(#mask0_3771_46439)">
<path d="M77 292.5L70 38M0 38L183 11.5" stroke="white" stroke-width="44"/>
</g>
</svg>
