<svg width="15" height="6" viewBox="0 0 15 6" fill="none" xmlns="http://www.w3.org/2000/svg"> 
<mask id="mask0_5914_63145" style="mask-type:alpha" maskUnits="userSpaceOnUse" x="0" y="0" width="15" height="6">
<path d="M11.2207 0.417969C11.2402 0.417969 11.25 0.417969 11.25 0.417969C11.2891 0.417969 11.3086 0.457031 11.3086 0.535156C11.3086 0.59375 11.2988 0.632813 11.2793 0.652344C11.2598 0.652344 11.2109 0.652344 11.1328 0.652344C11.0742 0.652344 11.0254 0.652344 10.9863 0.652344C10.9668 0.632813 10.957 0.603516 10.957 0.564453C10.957 0.544922 10.9668 0.525391 10.9863 0.505859C11.0059 0.486328 11.0352 0.466797 11.0742 0.447266C11.1328 0.427734 11.1816 0.417969 11.2207 0.417969ZM11.6309 0.447266C11.6895 0.447266 11.7188 0.457031 11.7188 0.476562C11.7383 0.476562 11.748 0.476562 11.748 0.476562C11.748 0.496094 11.7285 0.515625 11.6895 0.535156C11.6699 0.535156 11.6602 0.544922 11.6602 0.564453C11.6602 0.564453 11.6699 0.564453 11.6895 0.564453C11.7285 0.564453 11.748 0.574219 11.748 0.59375C11.748 0.59375 11.7383 0.603516 11.7188 0.623047C11.6992 0.642578 11.6699 0.652344 11.6309 0.652344C11.5723 0.652344 11.5332 0.652344 11.5137 0.652344C11.4941 0.632813 11.4844 0.59375 11.4844 0.535156C11.4844 0.496094 11.4941 0.476562 11.5137 0.476562C11.5332 0.457031 11.5723 0.447266 11.6309 0.447266ZM10.5176 0.535156C10.791 0.535156 10.9277 0.544922 10.9277 0.564453C10.9277 0.583984 10.918 0.603516 10.8984 0.623047C10.8984 0.623047 10.8691 0.632813 10.8105 0.652344C10.7715 0.652344 10.7129 0.652344 10.6348 0.652344C10.5957 0.652344 10.5566 0.652344 10.5176 0.652344C10.498 0.652344 10.4883 0.652344 10.4883 0.652344C10.4883 0.652344 10.4883 0.642578 10.4883 0.623047C10.4883 0.603516 10.459 0.59375 10.4004 0.59375C10.3613 0.59375 10.332 0.603516 10.3125 0.623047C10.293 0.623047 10.2832 0.632813 10.2832 0.652344C10.2832 0.652344 10.2734 0.662109 10.2539 0.681641C10.2539 0.681641 10.2441 0.681641 10.2246 0.681641C10.2246 0.681641 10.2148 0.681641 10.1953 0.681641C10.1953 0.662109 10.1953 0.652344 10.1953 0.652344C10.1953 0.652344 10.2051 0.652344 10.2246 0.652344C10.2246 0.632813 10.2148 0.623047 10.1953 0.623047C10.1953 0.603516 10.1855 0.59375 10.166 0.59375C10.1465 0.59375 10.127 0.59375 10.1074 0.59375C10.1074 0.59375 10.1074 0.583984 10.1074 0.564453C10.1074 0.544922 10.2441 0.535156 10.5176 0.535156ZM9.84375 0.564453C9.86328 0.564453 9.88281 0.564453 9.90234 0.564453C9.90234 0.583984 9.90234 0.59375 9.90234 0.59375C9.90234 0.613281 9.89258 0.632813 9.87305 0.652344C9.85352 0.652344 9.82422 0.652344 9.78516 0.652344C9.70703 0.652344 9.66797 0.642578 9.66797 0.623047C9.66797 0.623047 9.67773 0.613281 9.69727 0.59375C9.75586 0.574219 9.80469 0.564453 9.84375 0.564453ZM10.7812 0.798828C10.7617 0.798828 10.752 0.789062 10.752 0.769531C10.752 0.75 10.7617 0.740234 10.7812 0.740234H10.8691C10.8887 0.740234 10.8984 0.75 10.8984 0.769531C10.8984 0.789062 10.8887 0.798828 10.8691 0.798828H10.7812ZM1.11328 2.73242C1.11328 2.71289 1.11328 2.70312 1.11328 2.70312C1.13281 2.70312 1.15234 2.70312 1.17188 2.70312C1.19141 2.70312 1.20117 2.70312 1.20117 2.70312C1.2207 2.70312 1.23047 2.70312 1.23047 2.70312C1.23047 2.68359 1.24023 2.66406 1.25977 2.64453C1.29883 2.625 1.33789 2.61523 1.37695 2.61523C1.51367 2.55664 1.63086 2.50781 1.72852 2.46875C1.82617 2.41016 1.875 2.36133 1.875 2.32227C1.875 2.30273 1.88477 2.29297 1.9043 2.29297C1.92383 2.29297 1.94336 2.29297 1.96289 2.29297C1.98242 2.29297 2.00195 2.29297 2.02148 2.29297C2.04102 2.29297 2.05078 2.2832 2.05078 2.26367C2.05078 2.26367 2.06055 2.26367 2.08008 2.26367C2.11914 2.24414 2.1582 2.23438 2.19727 2.23438C2.23633 2.21484 2.27539 2.20508 2.31445 2.20508C2.35352 2.20508 2.38281 2.19531 2.40234 2.17578C2.42188 2.17578 2.51953 2.15625 2.69531 2.11719C2.89062 2.05859 3.11523 2 3.36914 1.94141C3.62305 1.88281 3.85742 1.83398 4.07227 1.79492C4.30664 1.73633 4.48242 1.69727 4.59961 1.67773C5.00977 1.61914 5.44922 1.57031 5.91797 1.53125C6.40625 1.47266 6.80664 1.43359 7.11914 1.41406C7.43164 1.375 7.63672 1.35547 7.73438 1.35547C7.79297 1.35547 7.83203 1.35547 7.85156 1.35547C7.85156 1.35547 7.8418 1.36523 7.82227 1.38477C7.80273 1.38477 7.77344 1.38477 7.73438 1.38477C7.71484 1.38477 7.69531 1.38477 7.67578 1.38477L7.55859 1.41406C7.53906 1.41406 7.51953 1.41406 7.5 1.41406C7.48047 1.43359 7.4707 1.44336 7.4707 1.44336C7.4707 1.44336 7.48047 1.44336 7.5 1.44336C7.51953 1.44336 7.55859 1.44336 7.61719 1.44336C8.24219 1.38477 8.95508 1.32617 9.75586 1.26758C10.0098 1.24805 10.2539 1.23828 10.4883 1.23828C10.7227 1.21875 10.8887 1.19922 10.9863 1.17969C11.084 1.17969 11.2402 1.16992 11.4551 1.15039C11.6699 1.13086 11.9043 1.12109 12.1582 1.12109C12.3926 1.12109 12.5879 1.12109 12.7441 1.12109C12.9004 1.10156 12.9883 1.0918 13.0078 1.0918C13.0078 1.07227 13.0078 1.0625 13.0078 1.0625C13.0273 1.0625 13.0469 1.07227 13.0664 1.0918C13.0859 1.11133 13.1055 1.14062 13.125 1.17969C13.2031 1.25781 13.2422 1.32617 13.2422 1.38477C13.2422 1.38477 13.2422 1.39453 13.2422 1.41406C13.2422 1.43359 13.2422 1.45313 13.2422 1.47266C13.2422 1.49219 13.252 1.52148 13.2715 1.56055C13.291 1.58008 13.3301 1.61914 13.3887 1.67773C13.4668 1.75586 13.5156 1.81445 13.5352 1.85352C13.5547 1.89258 13.5645 1.93164 13.5645 1.9707C13.5645 1.99023 13.5645 2.00977 13.5645 2.0293C13.5645 2.04883 13.5645 2.06836 13.5645 2.08789C13.584 2.10742 13.623 2.13672 13.6816 2.17578C13.8184 2.27344 13.8867 2.36133 13.8867 2.43945C13.8867 2.45898 13.8867 2.47852 13.8867 2.49805C13.8867 2.49805 13.8867 2.50781 13.8867 2.52734C13.8867 2.52734 13.8867 2.54688 13.8867 2.58594C13.9062 2.625 13.9355 2.67383 13.9746 2.73242C14.0918 2.9082 14.1504 3.09375 14.1504 3.28906C14.1504 3.36719 14.1406 3.44531 14.1211 3.52344C14.1016 3.60156 14.0625 3.66992 14.0039 3.72852C13.9648 3.76758 13.8965 3.81641 13.7988 3.875C13.7207 3.93359 13.6621 3.98242 13.623 4.02148C13.584 4.04102 13.5449 4.05078 13.5059 4.05078C13.4863 4.05078 13.4473 4.04102 13.3887 4.02148C13.252 3.98242 13.1836 3.94336 13.1836 3.9043C13.1836 3.86523 13.2031 3.83594 13.2422 3.81641C13.2617 3.79688 13.2715 3.78711 13.2715 3.78711C13.2715 3.78711 13.2617 3.78711 13.2422 3.78711C13.2422 3.76758 13.2031 3.75781 13.125 3.75781C13.0859 3.75781 13.0469 3.75781 13.0078 3.75781C12.9883 3.73828 12.9785 3.71875 12.9785 3.69922C12.9785 3.69922 12.959 3.69922 12.9199 3.69922C12.8613 3.69922 12.6953 3.71875 12.4219 3.75781C12.1289 3.79688 11.7383 3.8457 11.25 3.9043C10.7812 3.96289 10.3223 4.00195 9.87305 4.02148C9.7168 4.04102 9.57031 4.06055 9.43359 4.08008C9.31641 4.08008 9.23828 4.08008 9.19922 4.08008C9.10156 4.09961 8.94531 4.11914 8.73047 4.13867C8.53516 4.1582 8.32031 4.16797 8.08594 4.16797C7.96875 4.1875 7.85156 4.20703 7.73438 4.22656C7.63672 4.22656 7.56836 4.22656 7.5293 4.22656C7.50977 4.22656 7.48047 4.22656 7.44141 4.22656L7.26562 4.25586C7.24609 4.25586 7.2168 4.25586 7.17773 4.25586C7.11914 4.25586 7.00195 4.27539 6.82617 4.31445C6.66992 4.33398 6.49414 4.35352 6.29883 4.37305C5.79102 4.45117 5.32227 4.51953 4.89258 4.57812C4.48242 4.63672 4.0332 4.69531 3.54492 4.75391C3.29102 4.79297 3.02734 4.83203 2.75391 4.87109C2.48047 4.91016 2.26562 4.93945 2.10938 4.95898C1.95313 4.99805 1.81641 5.02734 1.69922 5.04688C1.58203 5.04688 1.51367 5.05664 1.49414 5.07617C1.47461 5.07617 1.43555 5.07617 1.37695 5.07617C1.31836 5.05664 1.25 5.04688 1.17188 5.04688C1.11328 5.02734 1.05469 5.00781 0.996094 4.98828C0.957031 4.96875 0.917969 4.95898 0.878906 4.95898C0.859375 4.91992 0.839844 4.88086 0.820312 4.8418C0.820312 4.80273 0.820312 4.77344 0.820312 4.75391C0.820312 4.73438 0.820312 4.71484 0.820312 4.69531C0.839844 4.65625 0.859375 4.62695 0.878906 4.60742C0.917969 4.58789 0.9375 4.56836 0.9375 4.54883C0.9375 4.5293 0.908203 4.51953 0.849609 4.51953C0.791016 4.5 0.751953 4.45117 0.732422 4.37305C0.732422 4.33398 0.712891 4.28516 0.673828 4.22656C0.654297 4.16797 0.634766 4.10938 0.615234 4.05078C0.556641 3.95312 0.527344 3.89453 0.527344 3.875C0.527344 3.85547 0.527344 3.8457 0.527344 3.8457C0.546875 3.82617 0.556641 3.79688 0.556641 3.75781C0.556641 3.69922 0.546875 3.65039 0.527344 3.61133C0.507812 3.55273 0.488281 3.51367 0.46875 3.49414C0.449219 3.49414 0.429688 3.49414 0.410156 3.49414C0.410156 3.47461 0.410156 3.45508 0.410156 3.43555C0.410156 3.43555 0.419922 3.42578 0.439453 3.40625C0.439453 3.38672 0.429688 3.37695 0.410156 3.37695C0.390625 3.37695 0.380859 3.36719 0.380859 3.34766V3.25977C0.380859 3.25977 0.390625 3.25977 0.410156 3.25977C0.429688 3.25977 0.439453 3.25 0.439453 3.23047C0.439453 3.23047 0.429688 3.2207 0.410156 3.20117C0.390625 3.18164 0.380859 3.16211 0.380859 3.14258C0.380859 3.12305 0.380859 3.10352 0.380859 3.08398C0.400391 3.06445 0.410156 3.05469 0.410156 3.05469C0.410156 3.05469 0.400391 3.05469 0.380859 3.05469C0.361328 3.07422 0.351562 3.08398 0.351562 3.08398C0.351562 3.08398 0.341797 3.08398 0.322266 3.08398C0.322266 3.06445 0.322266 3.04492 0.322266 3.02539C0.302734 2.98633 0.283203 2.9668 0.263672 2.9668C0.263672 2.94727 0.253906 2.9375 0.234375 2.9375C0.195312 2.9375 0.166016 2.91797 0.146484 2.87891C0.146484 2.82031 0.146484 2.76172 0.146484 2.70312C0.146484 2.64453 0.15625 2.58594 0.175781 2.52734C0.253906 2.37109 0.429688 2.23438 0.703125 2.11719C0.761719 2.09766 0.820312 2.07813 0.878906 2.05859C0.9375 2.01953 0.976563 2 0.996094 2C1.07422 1.96094 1.21094 1.92188 1.40625 1.88281C1.60156 1.82422 1.77734 1.78516 1.93359 1.76562C2.08984 1.72656 2.19727 1.70703 2.25586 1.70703C2.27539 1.70703 2.29492 1.70703 2.31445 1.70703C2.33398 1.70703 2.35352 1.70703 2.37305 1.70703C2.39258 1.70703 2.40234 1.70703 2.40234 1.70703C2.40234 1.6875 2.40234 1.67773 2.40234 1.67773C2.40234 1.6582 2.40234 1.64844 2.40234 1.64844C2.40234 1.64844 2.41211 1.64844 2.43164 1.64844C2.45117 1.64844 2.50977 1.64844 2.60742 1.64844C2.70508 1.62891 2.82227 1.60937 2.95898 1.58984C3.0957 1.57031 3.20312 1.55078 3.28125 1.53125C3.35938 1.51172 3.41797 1.50195 3.45703 1.50195C3.49609 1.50195 3.51562 1.51172 3.51562 1.53125C3.55469 1.53125 3.62305 1.53125 3.7207 1.53125C3.81836 1.51172 3.93555 1.49219 4.07227 1.47266C4.42383 1.41406 4.89258 1.35547 5.47852 1.29688C6.06445 1.21875 6.66016 1.15039 7.26562 1.0918C7.53906 1.05273 7.7832 1.02344 7.99805 1.00391C8.21289 0.984375 8.33984 0.964844 8.37891 0.945312C8.41797 0.945312 8.50586 0.945312 8.64258 0.945312C8.79883 0.925781 8.96484 0.90625 9.14062 0.886719C9.33594 0.867188 9.49219 0.857422 9.60938 0.857422C9.74609 0.837891 9.82422 0.818359 9.84375 0.798828H10.2246C10.2637 0.798828 10.2832 0.789062 10.2832 0.769531C10.3027 0.75 10.332 0.740234 10.3711 0.740234H10.5762C10.5957 0.740234 10.6055 0.75 10.6055 0.769531C10.6055 0.789062 10.5957 0.798828 10.5762 0.798828C10.5566 0.798828 10.5371 0.798828 10.5176 0.798828C10.498 0.798828 10.4785 0.808594 10.459 0.828125C10.459 0.828125 10.459 0.837891 10.459 0.857422C10.459 0.857422 10.4102 0.867188 10.3125 0.886719C10.2344 0.90625 10.1367 0.925781 10.0195 0.945312C9.90234 0.945312 9.80469 0.945312 9.72656 0.945312C9.6875 0.945312 9.6582 0.945312 9.63867 0.945312C9.61914 0.945312 9.60938 0.955078 9.60938 0.974609C9.60938 0.994141 9.58984 1.00391 9.55078 1.00391C9.51172 1.00391 9.45312 1.00391 9.375 1.00391C9.29688 1.00391 9.15039 1.01367 8.93555 1.0332C8.74023 1.05273 8.51562 1.07227 8.26172 1.0918C8.02734 1.11133 7.82227 1.13086 7.64648 1.15039C7.4707 1.16992 7.37305 1.18945 7.35352 1.20898C7.33398 1.20898 7.24609 1.21875 7.08984 1.23828C6.95312 1.25781 6.78711 1.27734 6.5918 1.29688C4.32617 1.55078 2.66602 1.84375 1.61133 2.17578C1.39648 2.23438 1.2207 2.29297 1.08398 2.35156C0.966797 2.41016 0.908203 2.44922 0.908203 2.46875C0.908203 2.48828 0.888672 2.50781 0.849609 2.52734C0.830078 2.54688 0.800781 2.55664 0.761719 2.55664C0.722656 2.57617 0.683594 2.5957 0.644531 2.61523C0.625 2.63477 0.615234 2.64453 0.615234 2.64453C0.615234 2.64453 0.605469 2.6543 0.585938 2.67383C0.566406 2.69336 0.537109 2.71289 0.498047 2.73242C0.419922 2.77148 0.371094 2.80078 0.351562 2.82031C0.351562 2.83984 0.351562 2.85937 0.351562 2.87891C0.351562 2.89844 0.380859 2.92773 0.439453 2.9668C0.458984 2.98633 0.478516 2.99609 0.498047 2.99609C0.517578 2.99609 0.537109 2.99609 0.556641 2.99609C0.595703 2.97656 0.664062 2.9375 0.761719 2.87891C0.820312 2.85937 0.878906 2.83984 0.9375 2.82031C0.996094 2.78125 1.03516 2.76172 1.05469 2.76172C1.07422 2.76172 1.09375 2.75195 1.11328 2.73242ZM7.91016 0.886719C7.92969 0.886719 7.94922 0.896484 7.96875 0.916016C7.98828 0.916016 7.99805 0.925781 7.99805 0.945312C7.99805 0.945312 7.98828 0.955078 7.96875 0.974609C7.94922 0.974609 7.92969 0.974609 7.91016 0.974609C7.89062 0.974609 7.87109 0.974609 7.85156 0.974609C7.83203 0.955078 7.82227 0.945312 7.82227 0.945312C7.82227 0.925781 7.83203 0.916016 7.85156 0.916016C7.87109 0.896484 7.89062 0.886719 7.91016 0.886719ZM7.67578 0.916016C7.71484 0.916016 7.73438 0.916016 7.73438 0.916016V0.945312L7.70508 0.974609C7.66602 0.974609 7.5293 0.984375 7.29492 1.00391C7.08008 1.02344 6.83594 1.05273 6.5625 1.0918C6.28906 1.11133 6.05469 1.13086 5.85938 1.15039C5.72266 1.16992 5.60547 1.17969 5.50781 1.17969C5.46875 1.19922 5.42969 1.20898 5.39062 1.20898L5.18555 1.23828C5.16602 1.23828 5.15625 1.23828 5.15625 1.23828C5.11719 1.23828 5.08789 1.23828 5.06836 1.23828C5.06836 1.23828 5.06836 1.22852 5.06836 1.20898C5.06836 1.20898 5.17578 1.19922 5.39062 1.17969C5.60547 1.14062 5.85938 1.10156 6.15234 1.0625C6.44531 1.02344 6.70898 0.994141 6.94336 0.974609C7.37305 0.935547 7.61719 0.916016 7.67578 0.916016ZM3.48633 1.38477L3.25195 1.44336C3.13477 1.48242 3.05664 1.50195 3.01758 1.50195C2.97852 1.50195 2.95898 1.50195 2.95898 1.50195C2.95898 1.50195 2.97852 1.49219 3.01758 1.47266C3.03711 1.45313 3.06641 1.44336 3.10547 1.44336C3.16406 1.42383 3.22266 1.41406 3.28125 1.41406L3.48633 1.38477ZM10.5469 1.41406L10.5176 1.44336H10.6055C10.5859 1.42383 10.5664 1.41406 10.5469 1.41406ZM10.2246 1.41406C10.2051 1.41406 10.1953 1.42383 10.1953 1.44336C10.1953 1.44336 10.1855 1.45313 10.166 1.47266C10.166 1.47266 10.166 1.48242 10.166 1.50195C10.166 1.50195 10.1758 1.50195 10.1953 1.50195L10.2246 1.47266V1.41406ZM11.8066 1.47266C11.7871 1.47266 11.7773 1.48242 11.7773 1.50195C11.7773 1.50195 11.8164 1.50195 11.8945 1.50195C11.9922 1.50195 12.041 1.50195 12.041 1.50195C12.041 1.48242 12.0312 1.47266 12.0117 1.47266H11.8066ZM9.25781 1.47266C9.23828 1.47266 9.21875 1.48242 9.19922 1.50195C9.19922 1.52148 9.22852 1.53125 9.28711 1.53125C9.36523 1.53125 9.4043 1.53125 9.4043 1.53125C9.4043 1.53125 9.38477 1.52148 9.3457 1.50195C9.30664 1.48242 9.27734 1.47266 9.25781 1.47266ZM8.70117 1.50195C8.68164 1.50195 8.66211 1.51172 8.64258 1.53125C8.64258 1.53125 8.63281 1.53125 8.61328 1.53125C8.61328 1.55078 8.62305 1.57031 8.64258 1.58984C8.66211 1.58984 8.68164 1.58984 8.70117 1.58984C8.75977 1.58984 8.78906 1.57031 8.78906 1.53125C8.78906 1.53125 8.7793 1.53125 8.75977 1.53125C8.74023 1.51172 8.7207 1.50195 8.70117 1.50195ZM8.96484 1.50195L8.93555 1.53125C8.93555 1.55078 8.94531 1.56055 8.96484 1.56055C8.96484 1.58008 8.96484 1.58984 8.96484 1.58984C8.98438 1.58984 8.99414 1.58984 8.99414 1.58984C9.01367 1.57031 9.02344 1.55078 9.02344 1.53125C9.02344 1.53125 9.01367 1.53125 8.99414 1.53125C8.99414 1.51172 8.98438 1.50195 8.96484 1.50195ZM6.97266 1.56055C6.875 1.56055 6.61133 1.58984 6.18164 1.64844C5.75195 1.6875 5.29297 1.74609 4.80469 1.82422C4.31641 1.88281 3.91602 1.94141 3.60352 2C3.31055 2.05859 3.04688 2.12695 2.8125 2.20508C2.69531 2.22461 2.57812 2.25391 2.46094 2.29297C2.36328 2.33203 2.28516 2.35156 2.22656 2.35156C2.16797 2.37109 2.10938 2.39062 2.05078 2.41016C2.01172 2.41016 1.99219 2.41992 1.99219 2.43945C1.97266 2.43945 1.95313 2.44922 1.93359 2.46875C1.93359 2.46875 1.92383 2.46875 1.9043 2.46875C1.9043 2.46875 1.89453 2.47852 1.875 2.49805C1.875 2.49805 1.86523 2.49805 1.8457 2.49805C1.82617 2.49805 1.78711 2.50781 1.72852 2.52734C1.68945 2.54688 1.65039 2.56641 1.61133 2.58594C1.55273 2.60547 1.52344 2.61523 1.52344 2.61523C1.52344 2.61523 1.5332 2.61523 1.55273 2.61523C1.57227 2.61523 1.5918 2.61523 1.61133 2.61523C1.65039 2.5957 1.68945 2.58594 1.72852 2.58594H1.75781C1.79688 2.58594 1.82617 2.58594 1.8457 2.58594C1.86523 2.58594 1.875 2.58594 1.875 2.58594C1.875 2.58594 1.86523 2.5957 1.8457 2.61523C1.82617 2.63477 1.76758 2.6543 1.66992 2.67383C1.61133 2.69336 1.5625 2.71289 1.52344 2.73242C1.48438 2.75195 1.44531 2.77148 1.40625 2.79102C1.38672 2.81055 1.36719 2.83008 1.34766 2.84961C1.34766 2.84961 1.34766 2.83984 1.34766 2.82031C1.34766 2.82031 1.33789 2.82031 1.31836 2.82031C1.31836 2.82031 1.30859 2.83008 1.28906 2.84961C1.26953 2.84961 1.24023 2.85937 1.20117 2.87891C1.18164 2.87891 1.15234 2.87891 1.11328 2.87891C1.05469 2.87891 0.976563 2.89844 0.878906 2.9375C0.800781 2.97656 0.722656 3.02539 0.644531 3.08398C0.566406 3.12305 0.517578 3.15234 0.498047 3.17188C0.498047 3.19141 0.498047 3.20117 0.498047 3.20117C0.517578 3.20117 0.527344 3.20117 0.527344 3.20117C0.527344 3.18164 0.546875 3.16211 0.585938 3.14258C0.625 3.12305 0.664062 3.11328 0.703125 3.11328C0.800781 3.07422 1.01562 3.00586 1.34766 2.9082C1.69922 2.79102 2.05078 2.68359 2.40234 2.58594C2.77344 2.48828 3.02734 2.41992 3.16406 2.38086C3.20312 2.38086 3.28125 2.36133 3.39844 2.32227C3.53516 2.2832 3.66211 2.24414 3.7793 2.20508C3.85742 2.18555 3.92578 2.17578 3.98438 2.17578C4.04297 2.15625 4.0918 2.14648 4.13086 2.14648C4.16992 2.12695 4.21875 2.11719 4.27734 2.11719C4.35547 2.09766 4.42383 2.07813 4.48242 2.05859C4.56055 2.03906 4.64844 2.01953 4.74609 2C4.86328 1.98047 4.98047 1.96094 5.09766 1.94141C5.21484 1.92188 5.32227 1.90234 5.41992 1.88281C5.51758 1.86328 5.5957 1.84375 5.6543 1.82422C5.71289 1.82422 5.77148 1.82422 5.83008 1.82422C5.88867 1.80469 5.9375 1.79492 5.97656 1.79492C6.01562 1.79492 6.04492 1.79492 6.06445 1.79492C6.10352 1.77539 6.12305 1.76562 6.12305 1.76562C6.12305 1.74609 6.17188 1.72656 6.26953 1.70703C6.38672 1.66797 6.58203 1.62891 6.85547 1.58984C6.91406 1.58984 6.95312 1.58984 6.97266 1.58984C6.99219 1.57031 7.00195 1.56055 7.00195 1.56055C7.00195 1.56055 6.99219 1.56055 6.97266 1.56055ZM7.91016 1.58984L7.88086 1.61914V1.67773L7.93945 1.61914C7.93945 1.59961 7.92969 1.58984 7.91016 1.58984ZM9.14062 1.82422C9.12109 1.82422 9.10156 1.83398 9.08203 1.85352H9.19922C9.17969 1.83398 9.16016 1.82422 9.14062 1.82422ZM2.43164 2C2.45117 2 2.46094 2 2.46094 2C2.46094 2 2.45117 2.00977 2.43164 2.0293C2.41211 2.04883 2.39258 2.06836 2.37305 2.08789C2.37305 2.08789 2.36328 2.08789 2.34375 2.08789C2.30469 2.08789 2.28516 2.07813 2.28516 2.05859C2.28516 2.05859 2.29492 2.04883 2.31445 2.0293C2.37305 2.00977 2.41211 2 2.43164 2ZM6.94336 2.08789C6.92383 2.08789 6.91406 2.09766 6.91406 2.11719C6.91406 2.11719 6.94336 2.11719 7.00195 2.11719C7.04102 2.11719 7.06055 2.10742 7.06055 2.08789H6.94336ZM1.8457 2.14648C1.8457 2.14648 1.8457 2.15625 1.8457 2.17578C1.86523 2.17578 1.875 2.17578 1.875 2.17578C1.875 2.17578 1.86523 2.18555 1.8457 2.20508L1.81641 2.23438C1.81641 2.23438 1.81641 2.22461 1.81641 2.20508C1.79688 2.20508 1.78711 2.20508 1.78711 2.20508C1.78711 2.18555 1.78711 2.17578 1.78711 2.17578C1.80664 2.15625 1.82617 2.14648 1.8457 2.14648ZM1.72852 2.20508C1.72852 2.20508 1.72852 2.21484 1.72852 2.23438C1.72852 2.25391 1.72852 2.26367 1.72852 2.26367H1.64062C1.64062 2.26367 1.64062 2.25391 1.64062 2.23438C1.66016 2.23438 1.66992 2.23438 1.66992 2.23438C1.68945 2.21484 1.70898 2.20508 1.72852 2.20508ZM1.875 2.9668C1.85547 2.9668 1.8457 2.95703 1.8457 2.9375V3.02539C1.8457 3.04492 1.8457 3.05469 1.8457 3.05469C1.86523 3.05469 1.875 3.05469 1.875 3.05469V2.9668ZM0.908203 3.23047C0.908203 3.23047 0.908203 3.24023 0.908203 3.25977C0.908203 3.2793 0.908203 3.30859 0.908203 3.34766C0.927734 3.36719 0.947266 3.37695 0.966797 3.37695V3.31836C0.966797 3.29883 0.957031 3.2793 0.9375 3.25977C0.9375 3.24023 0.927734 3.23047 0.908203 3.23047ZM1.34766 3.23047C1.32812 3.23047 1.30859 3.25 1.28906 3.28906C1.28906 3.30859 1.28906 3.31836 1.28906 3.31836C1.30859 3.31836 1.33789 3.30859 1.37695 3.28906C1.39648 3.28906 1.40625 3.28906 1.40625 3.28906C1.40625 3.26953 1.39648 3.25 1.37695 3.23047C1.37695 3.23047 1.36719 3.23047 1.34766 3.23047ZM0.966797 3.40625C0.947266 3.40625 0.927734 3.41602 0.908203 3.43555C0.888672 3.43555 0.878906 3.44531 0.878906 3.46484C0.878906 3.46484 0.878906 3.47461 0.878906 3.49414C0.898438 3.49414 0.927734 3.48438 0.966797 3.46484C1.00586 3.44531 1.02539 3.42578 1.02539 3.40625C1.02539 3.40625 1.00586 3.40625 0.966797 3.40625ZM3.92578 4.10938C3.90625 4.10938 3.88672 4.11914 3.86719 4.13867H3.95508C3.93555 4.11914 3.92578 4.10938 3.92578 4.10938Z" fill="white"/>
</mask>
<g mask="url(#mask0_5914_63145)">
<path d="M-1 4L15 1" stroke="black" stroke-width="6"/>
</g>
</svg>
