<svg width="150" height="289" viewBox="0 0 150 289" fill="none" xmlns="http://www.w3.org/2000/svg">
<mask id="mask0_3771_46440" style="mask-type:alpha" maskUnits="userSpaceOnUse" x="0" y="0" width="150" height="289">
<path d="M14.6722 197.346C15.6082 197.541 16.5442 197.737 17.4816 197.932C17.8762 196.864 18.2696 195.797 18.6442 194.788C18.9869 196.134 19.3402 197.524 19.6949 198.914C20.4162 198.796 21.1389 198.678 21.8616 198.561C21.2216 191.529 20.5816 184.497 19.9402 177.466C18.6576 177.533 17.3736 177.6 16.0896 177.666C15.6162 184.226 15.1442 190.786 14.6722 197.346ZM8.63489 105.225C9.12556 108.6 9.61622 111.974 10.1082 115.348C9.82289 115.31 9.53622 115.273 9.25089 115.236C11.3616 89.305 13.4722 63.3743 15.7856 34.9503C27.7056 36.4143 38.8856 37.7877 49.8162 39.129C45.0176 68.2757 41.4909 104.15 42.6349 145.11C43.6802 182.542 48.3802 215.398 54.0016 242.52C56.1189 242.648 58.8202 242.81 61.1122 242.949C63.3869 234.869 65.6829 225.741 68.5976 216.812C69.8736 212.905 72.9642 209.586 74.2509 205.681C76.2069 199.749 82.8976 194.253 75.7296 186.945C74.2389 185.425 75.6269 178.58 77.8642 176.404C88.8522 165.714 89.4629 151.45 92.4176 138.022C94.5149 128.49 94.1482 118.088 97.8376 109.301C106.543 88.565 103.696 66.817 105.926 45.5317C106.675 38.381 107.443 31.233 109.879 23.9383C110.482 26.197 111.084 28.4543 111.718 30.8263C113.815 20.5437 115.867 10.4877 117.89 0.572998C128.438 5.17831 136.114 5.289 141.27 4.461C143.216 4.14899 144.198 3.79968 145.38 4.31033C152.832 7.52634 147.202 35.7477 145.38 45.8237C142.066 64.1703 142.132 96.4543 142.267 161.024C142.334 192.998 143.63 199.989 143.304 240.938C143.163 258.778 142.79 273.498 142.483 283.432C136.506 282.212 131.611 280.978 126.639 280.258C120.602 279.382 119.968 274.76 119.551 270.342C118.236 256.389 116.65 242.425 116.236 228.433C115.375 199.296 115.194 170.138 114.746 140.988C114.7 138.056 114.739 135.122 114.739 132.189C113.676 132.044 112.615 131.898 111.552 131.754C109.55 140.142 107.816 148.606 105.498 156.906C95.4122 193.009 85.2402 229.088 74.8589 265.105C73.4802 269.888 71.1922 274.588 68.4322 278.738C66.3616 281.854 63.2869 285.162 59.9162 286.424C43.9616 292.398 19.5096 281.122 16.9282 264.376C11.7709 230.92 -0.498446 198.538 1.11355 164.07C1.25355 161.078 1.60955 157.853 2.87355 155.213C4.94155 150.889 6.62289 147.026 2.39755 143.072C2.39755 143.072 1.94689 141.998 1.67889 140.721C1.14022 138.161 3.79622 124.132 8.63489 105.225Z" fill="white"/>
</mask>
<g mask="url(#mask0_3771_46440)">
<path d="M30.5 36L23 135V192L53 285.5L136.5 1.5L131 283.5" stroke="white" stroke-width="64"/>
</g>
</svg>
