<svg width="291" height="526" viewBox="0 0 291 526" fill="none" xmlns="http://www.w3.org/2000/svg">
<mask id="mask0_5983_64805" style="mask-type:luminance" maskUnits="userSpaceOnUse" x="0" y="0" width="290" height="525">
<path d="M289.171 0H0V524.339H289.171V0Z" fill="white"/>
</mask>
<g mask="url(#mask0_5983_64805)">
<mask id="mask1_5983_64805" style="mask-type:alpha" maskUnits="userSpaceOnUse" x="60" y="-1" width="227" height="523">
<path d="M72.2185 250.483C72.946 255.486 73.6735 260.489 74.401 265.491L73.1427 265.333C76.2493 226.872 79.3756 188.41 82.7771 146.271C100.355 148.446 116.832 150.483 132.955 152.46C132.916 254.873 124.52 354.951 139.129 454.1C142.255 454.298 146.227 454.535 149.609 454.733C152.971 442.75 156.353 429.204 160.639 415.975C162.527 410.181 167.069 405.257 168.976 399.463C171.866 390.664 181.717 382.517 171.159 371.68C168.956 369.426 171.001 359.282 174.304 356.039C190.506 340.18 191.411 319.041 195.756 299.108C198.842 284.969 198.311 269.545 203.738 256.514C216.577 225.765 212.369 193.512 215.673 161.932C216.774 151.333 217.914 140.734 221.493 129.917C222.378 133.259 223.262 136.621 224.206 140.141C227.293 124.895 230.323 109.985 233.312 95.2726C245.52 97.2896 256.708 98.8715 267.797 101.047C283.802 104.171 287.756 108.047 286.832 124.578C285.102 155.664 281.6 186.67 279.734 217.756C278.788 233.398 280.086 249.138 279.87 264.839C279.142 315.165 278.198 365.471 277.294 415.797C276.763 444.786 276.37 473.776 275.269 502.725C275.111 507.016 271.378 511.189 269.586 514.788C260.778 512.988 253.564 511.149 246.228 510.082C237.323 508.776 236.397 501.934 235.769 495.369C233.823 474.685 231.481 453.962 230.872 433.218C229.594 390.011 229.338 346.764 228.669 303.538C228.612 299.187 228.669 294.837 228.669 290.486C227.096 290.269 225.545 290.051 223.972 289.834C221.023 302.272 218.465 314.829 215.044 327.128C200.181 380.678 185.178 434.187 169.861 487.598C167.836 494.697 164.454 501.658 160.384 507.827C157.336 512.454 152.794 517.358 147.82 519.217C124.284 528.076 88.2235 511.347 84.4287 486.51C76.8195 436.896 58.7303 388.864 61.1094 337.747C61.3257 333.318 61.8369 328.532 63.7048 324.617C66.7525 318.21 69.2299 312.476 62.997 306.603C62.2105 305.871 61.7779 304.23 61.9352 303.122C64.452 285.563 67.1064 268.023 69.7215 250.483C70.5473 250.483 71.3731 250.483 72.1989 250.483H72.2185ZM81.1255 387.104C82.5019 387.401 83.8782 387.678 85.2742 387.974C85.8641 386.392 86.4343 384.81 86.9848 383.308C87.496 385.305 88.0073 387.361 88.5381 389.438C89.5999 389.26 90.6617 389.082 91.7431 388.924C90.7993 378.502 89.8555 368.061 88.9117 357.64C87.0242 357.739 85.1169 357.838 83.2294 357.937C82.5412 367.666 81.8333 377.395 81.1452 387.124L81.1255 387.104Z" fill="white"/>
<path d="M230.718 59.402C230.247 59.6195 230.07 58.9274 229.755 58.6901C229.558 58.5517 229.342 58.433 229.165 58.1957C228.988 57.9584 228.831 57.4838 228.261 58.6505C228.202 58.7692 228.162 58.789 228.162 58.6901C228.162 58.5912 228.182 58.4726 228.241 58.3341C228.595 57.6025 228.379 57.6816 228.339 57.642C228.084 57.4047 227.848 57.1674 227.553 57.0488C227.022 56.8511 226.609 56.2578 226.176 55.7832C225.999 55.5855 225.783 55.4273 225.587 55.3087C225.311 55.1505 225.016 55.1307 224.761 54.9132C224.466 54.6561 224.269 54.0826 223.935 53.964C223.483 53.8058 223.03 53.6674 222.677 53.2126C222.441 52.8962 222.028 53.0939 221.87 52.5205C221.752 52.0854 221.418 52.3029 221.222 52.0459C220.966 51.7097 220.691 51.4329 220.376 51.2944C219.983 51.1362 219.786 50.4046 219.236 50.7408C219.059 50.8594 219.196 50.108 219.059 50.0486C218.803 49.9102 218.567 49.7125 218.312 49.5345C218.272 49.495 218.233 49.3961 218.154 49.6136C217.84 50.4639 217.938 49.9696 217.958 49.6729C217.997 48.6842 217.702 48.882 217.289 50.0882C217.211 50.0882 217.23 49.7718 217.289 49.5938C217.741 48.5656 217.446 48.6249 217.407 48.6249C217.23 48.6842 217.171 48.4865 217.053 48.3876C216.542 47.8932 216.011 47.4582 215.48 47.0232C215.402 46.9638 215.244 47.0825 215.205 46.9243C214.969 46.1531 214.477 46.2322 214.124 45.8169C213.809 45.4412 213.475 45.1841 213.081 45.0853C212.669 44.9864 212.472 44.1163 211.843 44.6898C211.764 44.7689 211.725 44.7096 211.725 44.5711C211.685 43.6813 211.351 43.6417 211.017 43.622C210.663 43.5824 210.486 43.0485 210.132 43.0485C209.798 43.0485 209.7 42.218 209.129 42.9694C209.09 43.0089 209.051 43.0089 209.051 42.9694C209.208 42.1389 208.874 42.5937 208.815 42.3564C208.638 41.5852 207.93 42.3959 207.733 41.6643C207.635 41.2688 207.163 42.04 207.084 41.5654C207.025 41.1699 206.849 41.0908 206.632 41.1502C206.259 41.2688 206.023 40.9129 205.688 40.8535C205.433 40.7942 205.276 40.4185 205 40.379C204.823 40.379 204.666 40.1614 204.45 40.3196C204.233 40.458 204.214 40.3196 204.174 40.0032C204.174 39.845 204.057 39.8846 203.958 39.9044C203.604 40.0428 203.427 39.588 203.132 39.5484C202.877 39.4891 202.68 39.1925 202.444 38.9947C202.09 38.6981 201.658 38.5795 201.205 38.5399C200.793 38.5202 200.635 37.6699 200.045 38.2433C199.967 38.3224 199.908 38.2829 200.006 37.8874C200.085 37.571 200.006 37.571 199.967 37.6501C199.574 38.184 199.574 37.5117 199.377 37.4128C198.925 37.215 198.649 36.5427 198.158 36.4834C197.784 36.4438 197.666 35.4947 197.037 36.2856C196.998 36.345 196.958 36.2461 196.978 36.1274C197.017 35.6133 196.86 35.6331 196.742 35.554C196.29 35.2771 195.798 35.0794 195.385 34.6839C195.287 34.6048 195.071 34.8817 195.031 34.6641C194.933 33.8534 194.501 34.0314 194.127 34.0709C194.009 34.0709 193.93 34.0314 193.911 33.7941C193.911 33.5172 193.832 33.4381 193.734 33.4183C193.104 33.2206 192.613 32.5878 191.944 32.5285C191.826 32.5285 191.748 32.4099 191.689 32.2121C191.61 31.9155 191.414 31.9155 191.197 31.9946C191.158 32.0144 191.119 32.0144 191.119 31.955C191.02 31.4607 190.745 31.4607 190.47 31.5002C189.998 31.5596 189.703 31.1047 189.31 30.9268C189.093 30.8279 188.936 30.4522 188.661 30.5313C188.11 30.6895 187.776 30.2742 187.363 30.0567C186.852 29.7799 186.341 29.4635 185.79 29.325C185.554 29.2657 185.2 29.4437 185.082 29.1075C184.886 28.4747 184.374 28.8702 184.099 28.5538C183.627 28.0595 183.096 27.7629 182.33 28.2177C182.31 28.2177 182.29 28.1583 182.31 28.099C182.389 27.5849 182.212 27.7629 182.133 27.664C181.976 27.5058 181.7 27.8024 181.563 27.664C181.248 27.2685 180.698 27.5453 180.383 27.1499C180.088 26.7939 179.616 26.9323 179.262 26.7148C178.908 26.4775 178.456 26.5171 178.083 26.3589C177.906 26.2798 177.571 26.5566 177.434 26.3589C177.099 25.9041 176.588 25.9832 176.097 25.9634C175.939 25.9634 175.527 26.7544 175.723 25.7261H175.703C175.428 25.7261 175.232 25.4097 174.956 25.3899C174.681 25.3899 174.366 25.5086 174.15 25.3306C173.836 25.0735 173.423 25.1922 173.108 24.9153C173.01 24.8362 172.793 25.2317 172.715 25.034C172.617 24.7571 172.597 24.1837 172.164 24.9153C172.125 24.9944 172.046 25.0538 172.046 25.0142C172.086 24.3221 171.751 24.6385 171.633 24.3814C171.437 23.9859 171.083 24.065 170.768 24.1244C170.552 24.1639 170.336 24.1244 170.257 23.9266C170.1 23.6102 169.883 23.5707 169.687 23.452C169.569 23.3927 169.471 23.2938 169.353 23.3334C168.94 23.452 168.861 22.6017 168.389 22.8983C168.114 23.0763 167.917 22.8983 167.74 22.7797C167.367 22.5029 166.973 22.2458 166.502 22.2458C166.384 22.2458 166.266 22.2062 166.187 22.0876C165.872 21.5932 165.401 21.6526 165.027 21.3559C164.653 21.0593 164.103 21.2966 163.769 20.822C163.611 20.5847 163.238 21.0396 163.1 20.822C162.884 20.5056 162.628 20.2881 162.353 20.1102C162.255 20.0311 161.999 20.4661 161.979 20.1695C161.979 19.4774 161.547 19.8926 161.448 19.3983C161.429 19.2204 161.271 19.3786 161.114 19.5961C160.859 19.952 160.583 20.3277 160.721 19.4181C160.76 19.2006 160.721 19.1215 160.642 19.1017C160.269 18.9435 159.895 18.8249 159.561 18.5678C159.404 18.4492 159.168 18.6074 159.05 18.4492C158.814 18.1328 158.479 18.1525 158.204 17.9746C157.85 17.7373 157.477 17.5198 157.083 17.3813C156.533 17.1836 155.943 17.0649 155.353 16.9463C155.039 16.8672 154.783 16.6101 154.508 16.4322C154.331 16.3135 154.016 16.531 153.937 16.1553C153.839 15.7598 153.505 16.1553 153.387 15.8192C153.21 15.2655 152.581 16.0565 152.364 15.5225C152.227 15.1666 151.971 15.048 151.676 15.0677C151.106 15.1073 150.733 14.5536 150.221 14.4349C149.907 14.3559 149.71 13.9604 149.376 13.9208C149.101 13.8813 148.747 14.0988 148.609 13.7033C148.393 13.0705 147.862 13.3474 147.587 12.853C147.311 12.3784 146.741 12.7146 146.525 12.0818C146.446 11.8643 146.132 12.5366 146.073 12.3191C145.896 11.4886 145.424 11.4886 145.07 11.1524C145.011 11.0931 144.932 11.0337 144.775 11.271C144.48 11.6863 144.323 11.7259 144.441 11.014C144.5 10.5987 144.401 10.5789 144.264 10.658C144.165 10.7174 144.067 10.7965 144.047 10.658C143.988 9.9066 143.556 10.1637 143.379 9.74841C143.261 9.47157 142.927 9.84728 142.828 9.53089C142.75 9.29359 142.651 9.15517 142.415 9.37269C142.179 9.57044 142.003 9.57044 142.022 9.01675C142.022 8.40375 141.806 8.42352 141.491 8.72014C141.413 8.79923 141.314 8.91788 141.373 8.62126C141.511 7.88961 141.334 7.96871 141.078 8.30487C140.96 8.46307 140.882 8.54217 140.921 8.2851C140.98 7.83029 140.842 7.90938 140.803 7.73141C140.705 7.3557 140.351 7.77096 140.233 7.45457C139.938 6.66359 139.328 6.66359 138.955 6.07036C138.64 5.59578 138.149 5.61555 137.873 5.10141C137.598 4.58728 137.067 4.8048 136.753 4.38953C136.458 4.03359 136.124 3.75675 135.809 3.44036C135.612 3.24262 135.416 3.04487 135.14 3.08442C134.826 3.14375 134.413 3.44036 134.295 2.96578C134.157 2.47141 133.567 3.24262 133.548 2.41209C133.548 2.37254 133.489 2.47141 133.449 2.49119C133.312 2.60984 133.253 2.47141 133.174 2.43187C132.86 2.31322 132.742 1.54202 131.994 2.72848C131.955 2.78781 131.896 2.76803 131.916 2.70871C132.073 1.87819 131.818 2.03638 131.68 1.97706C131.247 1.79909 130.775 1.81886 130.343 1.66067C129.891 1.50247 129.34 1.62112 128.927 1.38382C128.691 1.2454 128.318 1.44315 128.121 1.2454C127.61 0.731268 126.745 1.2454 126.116 1.06743C125.919 1.00811 125.762 0.810366 125.447 1.06743C125.27 1.20585 125.231 0.751042 125.054 0.731268C124.582 0.691719 124.09 0.671945 123.618 0.553298C122.675 0.316005 121.613 0.513749 120.649 0.375328C120.433 0.335779 120.197 0.375328 120.001 0.256681C119.627 0.0589368 119.096 0.355554 118.723 0.177583C118.369 -0.000386427 117.916 0.11826 117.562 -0.000386441C117.287 -0.0794843 116.894 0.177583 116.579 0.177583C116.166 0.177583 115.832 -0.020161 115.38 0.0589368C115.144 0.0984857 114.987 -0.0992585 114.534 0.592847C114.24 1.04766 113.886 1.44315 113.591 1.75954C113.335 2.03638 113.001 2.62961 112.745 2.946C112.568 3.16352 112.254 3.83585 112.136 4.38953C111.978 5.14096 111.978 5.61555 112.096 5.77375C112.293 6.05059 112.332 6.70314 112.155 7.67209C112.018 8.44329 111.86 9.25405 111.782 9.94615C111.703 10.5196 111.467 11.4886 111.585 11.627C111.782 11.884 111.664 12.9321 112.057 12.7146C112.175 12.6552 112.273 12.8925 112.057 13.6242C111.978 13.9208 111.978 14.0988 112.136 13.8022C112.49 13.1496 112.529 13.5846 112.588 13.6835C112.824 14.0395 112.962 14.6327 113.237 14.8898C113.433 15.0677 113.551 15.4632 113.827 15.3248C114.102 15.1864 114.141 15.4632 114.181 15.8389C114.181 15.918 114.181 16.0367 114.24 15.9576C114.593 15.6016 114.633 16.1751 114.888 16.1356C115.223 16.0762 115.203 16.9463 115.577 16.8277C115.695 16.7881 115.891 16.5508 115.95 16.7288C116.245 17.4011 116.678 17.7175 117.248 17.6384C117.503 17.5989 117.621 17.8757 117.897 17.8164C118.369 17.6977 118.506 18.5283 119.057 18.2119C119.194 18.1328 119.332 18.1328 119.411 18.291C119.706 18.8446 120.158 18.9237 120.63 18.9633C120.846 18.9633 121.102 18.8842 121.22 19.1215C121.436 19.6159 121.809 19.7345 122.065 20.0904C122.281 20.387 122.596 20.4661 122.832 20.7232C123.029 20.9407 123.284 21.0198 123.52 21.1582C123.933 21.4153 124.425 21.4548 124.719 21.9887C125.152 22.7599 125.84 22.7995 126.371 23.2938C126.764 23.6498 127.236 23.7684 127.59 24.1639C127.767 24.3617 127.865 24.9351 128.18 24.678C128.632 24.3023 128.554 25.2713 128.908 25.1329C129.202 25.034 129.242 25.8052 129.478 25.9634C129.576 26.0425 129.773 25.8843 129.812 26.1018C129.95 26.6753 130.382 26.4973 130.579 26.9323C130.795 27.4465 131.228 27.3871 131.483 27.8024C131.601 28.0002 131.739 28.1583 131.916 28.1979C132.191 28.2374 132.447 28.3363 132.466 29.0284C132.466 29.2459 132.525 29.3844 132.624 29.325C133.017 29.1471 133.194 29.5228 133.332 30.0765C133.449 30.6499 133.921 30.2742 134.039 30.8477C134.098 31.1443 134.393 30.7686 134.433 31.0454C134.531 31.5793 134.59 32.2121 135.101 31.6189C135.121 31.5793 135.14 31.6584 135.14 31.698C135.199 32.1132 135.199 32.6669 135.612 32.0935C135.73 31.9353 135.711 32.133 135.691 32.3308C135.632 32.7856 135.691 32.8647 135.789 33.0031C135.947 33.2799 136.222 33.2206 136.359 33.537C136.595 34.0511 136.949 34.2489 137.284 34.5059C137.814 34.9014 138.365 35.198 138.876 35.6529C139.053 35.8111 139.25 35.989 139.407 36.167C139.564 36.345 139.781 36.4438 139.918 36.7602C140.095 37.1953 140.371 37.4128 140.705 37.4523C140.862 37.4523 140.764 38.1049 140.96 37.9269C141.373 37.5512 141.472 38.2038 141.885 37.828C142.179 37.571 142.022 38.4213 142.179 38.5004C142.474 38.619 142.691 39.0343 143.104 38.7772C143.3 38.6586 143.458 38.8168 143.517 39.1332C143.615 39.9241 144.323 38.9156 144.46 39.5286L144.5 39.4891C144.598 39.7264 144.952 39.1529 145.089 39.3309C145.188 39.4693 145.227 39.7462 145.345 39.845C145.66 40.0823 146.014 40.2603 146.348 40.4778C146.407 40.5174 146.466 40.5174 146.584 40.3196C146.879 39.8055 147.075 39.8648 147.39 39.2518C147.567 38.9156 147.606 39.1529 147.488 39.5286C147.233 40.4383 147.449 40.2801 147.547 40.4185C147.587 40.4976 147.705 40.3394 147.744 40.4976C147.862 41.1304 148.137 41.3677 148.432 41.5259C148.53 41.5852 148.629 41.5259 148.825 41.1699C149.022 40.814 149.16 40.5965 149.022 41.249C148.983 41.427 148.983 41.5654 149.022 41.5061C149.376 41.1106 149.356 41.7434 149.553 41.8225C150.005 42.0005 150.595 41.6841 150.968 42.1191C151.283 42.475 151.637 42.7519 152.03 42.8508C152.541 42.9892 153.053 43.2265 153.76 42.7519C153.839 42.6926 153.918 42.7519 153.819 43.0683C153.662 43.6813 153.819 43.5824 153.878 43.6813C154.055 43.8988 154.311 43.879 154.547 43.879C154.763 43.879 154.645 44.7491 154.96 44.4525C155.314 44.0965 155.333 44.9468 155.845 43.9581C155.864 43.9186 155.904 43.9383 155.904 43.9977C155.884 44.7096 156.12 44.67 156.356 44.6898C157.005 44.7293 157.398 45.5599 158.008 45.7576C158.342 45.8762 158.46 46.7265 159.207 45.4808C159.246 45.4214 159.266 45.5005 159.266 45.5796C159.286 46.252 159.502 46.4497 159.757 46.4497C160.269 46.4497 160.721 46.6474 161.153 46.8847C161.547 47.1023 161.802 47.7548 162.471 47.1418C162.471 47.1418 162.51 47.1418 162.51 47.1814C162.51 48.2096 163.041 47.6757 163.375 47.6757C163.611 47.6757 163.887 47.6164 164.044 47.7746C164.339 48.0514 164.693 48.1108 164.988 48.3876C165.263 48.6644 165.558 48.8622 166.246 47.6757C166.364 47.478 166.403 47.5175 166.344 47.8141C166.128 48.7238 166.344 48.6447 166.502 48.5458C166.954 48.269 166.993 49.1984 167.485 48.8226C167.642 48.704 167.917 48.348 167.937 48.7633C167.957 49.2577 168.311 48.8424 168.35 49.2972C168.35 49.4752 168.487 49.2972 168.625 49.0006C168.704 48.8424 168.841 48.5853 168.841 48.6249C168.92 49.139 169.333 48.7238 169.49 49.0204C169.707 49.4554 169.805 49.4159 170.336 48.7238C170.375 48.6644 170.414 48.6842 170.414 48.7633C170.375 49.1588 170.414 49.1786 170.631 48.704C170.847 48.2294 170.906 48.4271 170.906 48.7238C170.906 48.8424 170.808 49.1983 170.886 49.139C171.26 48.8029 171.279 49.6532 171.771 48.882C171.83 48.7831 171.869 48.7831 171.869 48.9017C171.869 49.8905 172.263 49.8509 172.597 49.8114C173.147 49.752 173.482 50.3848 174.111 50.108C174.897 49.7718 175.468 50.2068 176.175 50.1475C176.333 50.1475 176.549 49.8707 176.706 49.8509C176.903 49.8114 176.785 50.4639 176.942 50.4837C177.276 50.5628 177.689 50.4046 177.965 50.7408C178.142 50.978 178.437 50.8792 178.653 51.0176C178.948 51.1956 179.321 51.0769 179.636 51.156C180.009 51.2549 180.363 51.4526 180.776 51.4131C181.032 51.3933 180.973 52.4809 181.582 51.2944C181.681 51.0769 181.661 51.334 181.622 51.5317C181.582 51.6702 181.484 51.9668 181.563 51.9272C181.936 51.6504 181.995 52.6193 182.625 51.4329C182.723 51.2549 182.743 51.3142 182.782 51.3538C182.919 51.4724 183.057 51.5515 183.214 51.6108C183.49 51.6899 183.608 52.1843 183.824 52.4414C183.883 52.5205 183.903 52.6984 184.001 52.6786C184.217 52.6193 184.453 52.5798 184.63 52.6786C185.043 52.8962 185.692 52.382 185.947 53.0741C185.987 53.1532 186.046 53.1137 186.164 52.9555C186.577 52.382 186.891 52.3029 187.029 52.6391C187.265 53.1928 187.52 53.7662 188.012 53.4894C188.425 53.2521 188.582 53.8849 189.054 53.4301C189.388 53.1137 189.172 54.5177 189.644 53.8256C189.664 53.786 189.664 53.8849 189.683 53.9442C189.723 54.4584 190.194 53.6476 190.135 54.4386C190.135 54.4386 190.175 54.3793 190.194 54.3595C190.489 54.0629 190.647 54.2013 190.706 54.6165C190.745 54.8143 190.745 55.1109 190.863 55.0911C191.237 55.0318 191.433 55.5262 191.728 55.6844C191.964 55.8228 192.2 56.0601 192.554 55.7437C192.81 55.5262 192.77 56.3369 193.163 55.4866C193.163 55.4866 193.163 55.5855 193.163 55.6053C193.321 56.1194 193.517 56.4358 193.891 56.3369C194.068 56.2974 194.225 56.3369 194.383 56.2776C194.559 56.2381 194.284 57.029 194.461 56.9499C194.815 56.7917 194.953 57.385 195.267 57.3454C195.523 57.3059 195.621 57.5629 195.405 58.5319C195.503 58.5319 195.621 57.8991 195.759 57.9387C196.073 58.0573 196.388 58.2155 196.919 57.5629C196.978 57.5036 197.017 57.5234 197.017 57.6025C197.017 58.1364 197.293 57.8793 197.273 58.4726C197.273 58.6901 197.352 58.5714 197.45 58.433C197.666 58.0573 197.706 58.2353 197.745 58.433C197.824 58.8087 197.863 59.3229 198.099 59.2635C198.374 59.1844 198.669 58.9669 198.728 59.5602C198.728 59.6195 198.787 59.5997 198.826 59.5206C199.2 58.9076 199.239 59.3822 199.318 59.7184C199.357 59.8568 199.436 59.7579 199.495 59.7579C199.711 59.8172 200.006 59.5799 200.183 59.7184C200.399 59.8963 200.517 60.4302 200.773 60.5093C201.068 60.6082 201.245 61.1619 201.756 60.5093C201.953 60.2523 201.835 61.0037 202.012 60.8059C202.464 60.272 202.464 61.1619 202.759 61.1421C202.896 61.1421 203.093 60.9246 203.152 61.1817C203.27 61.7156 203.506 61.9331 203.821 61.8935C203.978 61.8935 204.076 62.0715 204.214 62.032C204.509 61.9529 204.528 62.8032 205.059 61.854C205.138 61.7156 205.177 61.7551 205.177 61.9331C205.02 63.4755 205.885 62.1308 205.944 63.08C206.278 62.2297 206.239 62.8427 206.259 63.0207C206.298 63.3568 206.613 62.8032 206.652 63.0998C206.79 63.9105 207.242 63.5348 207.851 62.1308C207.851 62.7043 207.438 64.3456 208.087 63.3964C208.146 63.2975 208.127 63.5941 208.107 63.7721C208.068 64.3653 208.441 64.7411 208.716 64.2862C208.952 63.9105 209.011 63.9896 208.913 64.5433C208.854 64.8597 208.874 64.9784 209.011 64.7213C209.306 64.1676 209.365 64.4642 209.464 64.6224C209.601 64.8795 209.601 65.5518 209.857 65.4529C209.955 65.4134 210.132 65.2156 210.132 65.3936C210.112 66.5801 210.86 65.2156 211.056 65.7298C211.194 66.1055 211.528 65.9275 211.803 65.9671C212.118 66.0066 212.334 66.3823 212.57 66.6394C212.688 66.7778 212.944 66.5603 212.904 67.2326C212.865 67.8852 213.298 67.549 213.691 66.7778C213.317 67.8456 213.494 67.6677 213.652 67.5688C213.73 67.5293 213.809 67.3711 213.907 67.1535C214.477 65.8682 213.966 68.2411 214.477 67.1535C214.517 67.0744 214.576 67.1535 214.497 67.3711C214.202 68.3202 214.458 68.0038 214.517 68.1225C214.615 68.2609 214.851 68.0038 214.831 68.4389C214.812 68.9135 214.93 68.9135 215.087 68.8937C215.185 68.8937 215.244 68.9926 215.323 68.953C215.598 68.8541 215.579 69.5858 215.893 69.3485C216.306 69.0321 216.326 70.1395 216.896 69.2694C216.916 69.2299 216.935 69.2694 216.935 69.3485C216.876 69.9813 217.073 69.922 217.21 70.0208C217.643 70.3372 218.056 70.7327 218.469 71.0689C218.567 71.148 218.567 71.6621 218.901 70.7327C218.96 70.5547 219.019 70.5943 219 70.7525C218.921 71.5435 219.098 71.6226 219.314 71.6226C219.413 71.6226 219.531 71.4841 219.609 71.6028C219.826 71.9587 220.199 71.8796 220.435 72.1762C220.573 72.3542 220.71 72.5717 220.887 72.6113C221.045 72.6311 221.399 72.196 221.202 73.2243C221.202 73.2638 221.202 73.3034 221.241 73.2638C221.595 72.7299 221.615 73.2243 221.772 73.3627C222.342 73.8175 223.03 73.8768 223.561 74.4108C223.935 74.7865 224.348 75.1226 224.839 75.0831C225.056 75.0831 225.115 75.8741 225.764 74.3317C225.351 75.5181 225.488 75.6961 225.606 75.7159C225.862 75.7752 226.117 75.8543 226.334 76.0718C226.471 76.2102 226.747 75.9136 226.845 76.1905C226.924 76.408 226.845 77.021 227.061 76.9221C227.415 76.7441 227.513 77.3176 227.71 77.5747C227.789 77.6735 227.867 77.7922 227.985 77.7131C228.162 77.5747 228.556 76.8232 228.241 78.0888C228.241 78.1283 228.261 78.1481 228.28 78.1679L228.772 78.4843C228.772 78.4843 228.85 78.5634 228.909 78.3854C229.244 77.4956 229.244 77.812 229.145 78.3854C229.106 78.6623 229.145 78.6623 229.204 78.7414C229.48 79.2159 229.971 79.038 230.148 79.7894C230.188 79.9476 230.286 79.9278 230.364 79.9674C230.423 79.9871 230.541 79.7301 230.522 79.6114C230.463 79.2555 230.64 79.1171 230.718 78.9787C230.876 78.7611 230.915 78.86 230.777 79.3741C230.718 79.6114 230.6 79.9871 230.738 79.8092C230.915 79.5917 230.895 79.8092 230.817 80.1651C230.777 80.4222 230.856 80.3629 230.876 80.442C230.994 80.7386 231.348 79.9871 231.505 80.0267C231.643 80.0662 231.623 80.6793 232.016 79.5719C232.016 79.5323 232.095 79.4928 232.095 79.5126C232.311 79.8883 232.704 79.6114 233.098 79.3346C233.235 79.2357 233.353 79.1368 233.53 78.4843C233.805 77.5153 233.963 77.3176 234.002 77.812C234.041 78.2074 234.297 77.9702 234.435 77.6538C234.906 76.6057 235.28 75.2808 235.673 74.035C235.713 73.8966 235.713 73.7187 235.713 73.5802C235.752 72.8881 235.929 72.5124 236.224 72.3344C236.145 71.8994 236.322 71.3655 236.558 70.7525C236.833 70.0406 236.991 69.4671 236.755 69.4671C236.676 69.4671 236.637 69.2694 236.676 69.0123C236.794 68.2411 236.656 68.1225 236.519 68.0038C236.381 67.8654 236.224 67.7863 236.067 67.7072C235.929 67.6281 235.732 67.5886 235.752 67.1338C235.791 65.888 235.418 65.7496 235.162 65.2552C235.103 65.1563 234.926 65.3145 234.729 65.7693C234.651 65.9671 234.572 66.1846 234.553 66.0659C234.533 65.9868 234.592 65.8089 234.651 65.6111C234.867 64.9783 234.808 64.8202 234.769 64.5829C234.69 64.2467 234.435 64.5235 234.356 64.2071C234.238 63.7326 234.12 63.1196 233.451 64.5631C233.392 64.6817 233.353 64.662 233.373 64.5433C233.373 64.4049 233.432 64.2665 233.491 64.1676C233.825 63.5546 233.805 63.258 233.746 63.0207C233.707 62.8823 233.668 62.7438 233.609 62.7241C233.432 62.6647 233.353 62.0517 232.842 63.5744C232.763 63.8117 232.606 64.0687 232.468 64.4642C232.39 64.6817 232.193 65.1365 232.272 64.6224C232.331 64.2071 232.409 63.7919 232.331 63.5941C232.311 63.515 232.35 63.3173 232.508 63.0602C232.626 62.8229 232.862 62.3879 232.94 61.9924C232.999 61.6167 232.901 61.5969 232.724 61.8144C232.704 61.8342 232.704 61.7551 232.704 61.6958C232.586 60.885 232.193 60.9444 231.937 60.5093C231.878 60.4105 231.819 60.3709 231.702 60.4698C231.485 60.6675 231.446 60.4302 231.348 60.2325C231.171 59.8568 231.033 59.2833 230.325 60.628C230.738 59.5206 230.679 59.1844 230.522 59.2833L230.718 59.402ZM229.322 74.5887C229.322 74.5887 229.46 74.4305 229.381 74.7469C229.303 75.0831 229.224 75.1622 229.145 75.2017C229.027 75.2808 228.968 75.2017 228.85 75.0238C229.067 74.826 229.185 74.6876 229.303 74.5887H229.322Z" fill="white"/>
</mask>
<g mask="url(#mask1_5983_64805)">
<path d="M100.277 127.264V526.979L155.732 533.91L256.373 94.9172L261.507 529.288" stroke="white" stroke-width="44"/>
<path d="M106.176 3.95483L246.76 71.1879" stroke="white" stroke-width="17"/>
</g>
</g>
</svg>
