<svg width="145" height="305" viewBox="0 0 145 305" fill="none" xmlns="http://www.w3.org/2000/svg">
<mask id="mask0_3771_46441" style="mask-type:alpha" maskUnits="userSpaceOnUse" x="0" y="0" width="145" height="305">
<path d="M115.629 161.064C116.078 156.753 116.527 152.443 116.977 148.132C116.291 147.972 115.607 147.812 114.923 147.652C113.25 154.392 111.511 161.117 109.914 167.875C100.979 205.691 92.0953 243.519 83.138 281.328C82.43 284.312 81.7927 287.496 80.2433 290.061C77.2153 295.075 74.5367 302.12 69.9473 303.959C62.7433 306.844 49.7807 299.149 46.6313 291.884C42.6273 282.647 38.4687 274.12 40.1007 262.584C41.582 252.115 36.2607 240.785 34.47 229.749C30.218 203.528 26.2993 177.253 22.1887 151.008C21.7153 147.993 20.878 145.033 19.7273 139.889C17.8287 148.177 16.3967 154.435 14.9633 160.692C14.278 160.615 13.5927 160.537 12.9073 160.46C10.966 150.507 9.026 140.553 7.08466 130.601C6.714 130.611 6.34333 130.621 5.97267 130.632C4.58867 137.76 3.20466 144.888 1.82199 152.017C1.54066 152.065 1.26066 152.115 0.980661 152.164C0.755328 150.259 0.176657 148.319 0.359323 146.453C1.62466 133.544 3.09666 120.655 4.38333 107.747C4.65533 105.009 4.44599 102.223 4.44733 99.4585C4.44999 82.4092 4.44866 65.3586 4.44866 48.0426C11.806 48.9106 19.1953 49.3839 26.3647 50.8945C28.29 51.2999 30.826 54.8212 30.9033 56.9892C31.574 75.8985 30.4753 94.9545 32.3993 113.713C34.7007 136.149 39.022 158.419 43.29 180.603C46.882 199.271 51.646 217.717 55.906 236.257C56.5753 239.164 57.326 242.053 59.35 244.951C62.774 228.571 66.2487 212.201 69.5967 195.805C70.9727 189.061 71.3647 181.907 79.1807 178.712C80.3167 178.248 81.262 169.981 81.47 168.235C82.382 160.567 81.9393 152.153 85.1007 145.465C90.966 133.057 93.97 121.135 90.4833 107.495C89.3193 102.943 91.1193 97.5479 91.9527 92.6026C93.5807 82.9465 94.926 73.1879 97.466 63.7599C99.122 57.6159 102.678 51.9786 105.382 46.1146C106.235 46.3652 107.087 46.6145 107.941 46.8652V69.6012C108.641 69.6092 109.341 69.6159 110.041 69.6239C111.969 58.2292 113.95 46.8572 110.025 35.2932C108.29 30.1839 105.529 24.9545 105.635 19.8279C105.737 14.9079 109.085 10.0986 110.751 5.15457C111.43 3.13989 112.371 1.93454 113.481 1.23587C116.435 -0.625458 119.93 0.126556 123.479 0.779877C135.921 3.07455 138.125 0.23056 141.274 2.71188C146.109 6.5199 144.407 15.9612 142.198 27.2826C137.398 51.8732 132.859 71.6972 132.338 73.9852C128.203 92.1439 129.765 91.9119 124.554 119.651C121.191 137.553 117.857 151.936 115.629 161.064Z" fill="white"/>
</mask>
<g mask="url(#mask0_3771_46441)">
<path d="M13 48L63.5 306L133 -1.5" stroke="white" stroke-width="64"/>
</g>
</svg>
