<svg width="91" height="282" viewBox="0 0 91 282" fill="none" xmlns="http://www.w3.org/2000/svg">
<g clip-path="url(#clip0_5983_64837)">
<mask id="mask0_5983_64837" style="mask-type:alpha" maskUnits="userSpaceOnUse" x="18" y="40" width="55" height="51">
<path d="M55.2285 43.4695C55.0581 42.7129 54.8704 41.8793 54.706 40.9429C55.5804 41.4304 56.4345 41.9064 57.2733 42.3739C59.5777 43.6582 61.7668 44.8782 63.9447 46.098C63.8075 46.3157 63.6711 46.5338 63.5344 46.7523C63.4486 46.8894 63.3628 47.0267 63.2765 47.1643L62.6584 48.1493L63.7985 47.9202C64.8691 47.7051 65.9397 47.4875 67.0096 47.27L67.0097 47.27C67.853 47.0985 68.696 46.9272 69.5388 46.7571C69.4883 47.1323 69.4326 47.5049 69.3762 47.8817C69.3129 48.3052 69.2487 48.734 69.1905 49.1774C69.0528 50.2263 68.9578 51.2997 69.0312 52.3741L69.0313 52.3756C69.0575 52.7426 69.2143 53.062 69.3987 53.3307C69.5823 53.5984 69.8172 53.8492 70.04 54.0771C70.0997 54.1381 70.1583 54.1975 70.2156 54.2555C70.6176 54.6628 70.9533 55.003 71.1277 55.3731L71.1286 55.3751C72.4288 58.1032 72.1213 60.5093 71.101 62.5912C70.0689 64.6975 68.3039 66.474 66.6923 67.8723L66.6919 67.8727C59.6748 73.9741 51.7446 79.1958 43.631 83.8564C38.6542 86.714 32.8481 88.3006 27.1432 89.8596C26.9748 89.9056 26.8065 89.9516 26.6384 89.9976C25.6376 90.2701 24.4965 90.16 23.0674 89.8876C22.6286 89.804 22.1614 89.7047 21.6675 89.5997C20.9599 89.4492 20.1973 89.2871 19.3845 89.1427C20.364 88.5206 21.2436 87.9626 22.0643 87.4419C23.8705 86.2961 25.3914 85.3312 27.0642 84.2624C27.6784 84.4786 28.6124 84.8124 29.6491 85.1828C30.1095 85.3473 30.5901 85.519 31.072 85.6909L31.5392 85.8576L31.7096 85.3918C31.8586 84.9843 32.0074 84.5877 32.1658 84.1818L32.3057 83.8234L31.995 83.5963C31.3076 83.0939 30.575 82.593 29.8507 82.0978C29.2796 81.7074 28.7137 81.3206 28.1791 80.9392C26.933 80.0502 25.762 79.1279 24.7657 78.0591C24.7527 78.0449 24.7165 77.9936 24.6808 77.8735C24.6464 77.7575 24.6206 77.6047 24.6081 77.4183C24.5831 77.0455 24.6145 76.5864 24.6962 76.1201C24.7779 75.654 24.9061 75.2027 25.0624 74.8434C25.2284 74.4618 25.3902 74.268 25.4905 74.2068L25.4909 74.2065C25.8128 74.0096 26.1361 73.8098 26.4607 73.6092C27.8648 72.7415 29.295 71.8576 30.7574 71.1159C32.5551 70.2042 34.3589 69.5304 36.1523 69.3782L36.1526 69.3782C39.1169 69.1246 41.0418 67.7563 42.584 66.1064C43.2874 65.354 43.9171 64.5364 44.524 63.7485C44.5753 63.6818 44.6265 63.6154 44.6776 63.5491C45.3385 62.6924 45.9783 61.8791 46.6911 61.176L46.6916 61.1755C50.2577 57.6484 52.7518 52.9373 55.1066 48.4891C55.2119 48.2902 55.3169 48.0919 55.4218 47.8942L55.422 47.8937C55.6602 47.4431 55.7346 46.9391 55.7241 46.4082C55.7137 45.8804 55.6181 45.294 55.4886 44.66C55.4118 44.2839 55.3228 43.8885 55.2285 43.4695Z" fill="white" stroke="white"/>
</mask>
<g mask="url(#mask0_5983_64837)">
<path d="M20 92.5L71 47" stroke="white" stroke-width="41"/>
</g>
</g>
<defs>
<clipPath id="clip0_5983_64837">
<rect width="55" height="51" fill="white" transform="translate(18 40)"/>
</clipPath>
</defs>
</svg>
