<svg width="276" height="336" viewBox="0 0 276 336" fill="none" xmlns="http://www.w3.org/2000/svg">
<mask id="mask0_3771_41009" style="mask-type:alpha" maskUnits="userSpaceOnUse" x="0" y="0" width="276" height="336">
<path d="M245.483 48.1077C243.994 47.6677 242.504 47.229 241.015 46.789C233.68 72.8543 226.344 98.9197 219.008 124.985C219.964 125.282 220.919 125.578 221.874 125.874C222.814 122.834 223.839 119.816 224.676 116.748C227.615 105.976 230.21 95.1023 233.46 84.4263C237.175 72.2317 241.451 60.2064 245.483 48.1077ZM43.1562 288.697C37.5455 262.81 31.9349 236.922 26.3229 211.036C28.0295 237.774 26.8015 265.152 43.1562 288.697ZM132.772 239.796C131.899 241.949 131.514 242.901 130.919 244.369C130.227 242.817 129.686 241.604 128.135 238.129V254.384L126.874 254.414C125.303 227.79 123.731 201.165 122.099 173.494C123.658 175.34 124.716 176.592 127.063 179.369C125.078 159.16 123.252 140.585 121.426 122.009C120.551 121.965 119.676 121.922 118.802 121.878C117.5 132.758 116.2 143.64 115.02 153.506C114.687 152.836 113.814 151.072 111.791 146.992C104.47 176.681 97.8962 204.056 90.9349 231.332C85.4042 252.994 79.5909 274.592 73.5295 296.113C70.0109 308.601 66.9322 308.564 53.9682 307.481C38.9669 306.229 33.0789 296.781 30.2975 285.172C22.3509 252.005 14.4882 218.748 8.68954 185.168C4.52421 161.041 3.50821 136.356 1.56688 111.882C1.04555 105.316 2.20288 98.577 9.08421 94.3223C9.37355 97.2303 9.63754 99.8904 9.90154 102.55C13.6575 91.989 7.05221 84.3543 2.41755 76.3304C-0.450453 71.365 -0.339788 72.6117 4.53221 69.501C8.05488 67.2503 10.0762 62.1823 11.9215 58.001C13.1135 55.3037 12.1909 51.713 13.2749 48.9317C14.6082 45.5103 17.0442 42.517 19.0042 39.3383C21.0402 42.157 23.0762 44.977 24.6269 47.1223C26.7469 46.8064 30.0229 45.5717 33.0389 46.0317C38.3615 46.8437 43.3802 48.365 43.4935 55.681C43.7229 70.5397 44.1469 85.4143 45.1242 100.241C48.4415 150.57 51.8135 200.9 55.6829 251.19C56.6282 263.473 59.5469 275.608 61.5589 287.81C62.4189 287.905 63.2789 288 64.1375 288.096C66.0015 280.202 69.0069 272.377 69.4855 264.402C70.4282 248.678 73.4282 232.729 67.4562 217.19C66.7415 215.33 67.4389 212.724 68.0242 210.612C72.1695 195.657 75.1789 180.649 83.5362 166.73C90.1242 155.757 91.7055 141.886 96.1215 129.518C99.4669 120.153 99.3802 109.705 108.348 101.949C111.74 99.0157 109.58 89.7317 109.951 83.3423C109.202 83.0663 108.454 82.7903 107.704 82.5143C104.667 89.5343 101.63 96.5557 98.5922 103.576C98.3349 103.496 98.0775 103.416 97.8202 103.336C101.524 90.5437 106.579 77.9517 108.539 64.8997C110.375 52.677 108.932 39.9677 110.192 27.4623V37.2263C110.638 37.2903 111.083 37.3543 111.528 37.4184C112.234 34.069 112.94 30.7184 113.375 28.6624C121.168 27.7144 128.243 26.613 135.36 26.1424C137.408 26.0077 140.958 27.2157 141.452 28.6277C143.558 34.6424 145.578 40.889 146.187 47.189C150.09 87.5757 153.438 128.014 157.312 168.404C160.791 204.669 164.648 240.9 168.495 277.129C169.183 283.606 170.634 290.005 172.143 298.85C179.756 274.949 186.575 253.538 193.395 232.128C192.854 231.849 192.314 231.57 191.774 231.293C190.678 232.528 189.582 233.762 188.128 235.401C186.019 219.144 190.322 194.504 198.984 174.596C198.218 185.041 197.576 193.789 196.936 202.537C197.624 202.693 198.314 202.848 199.002 203.004C201.926 194.516 204.85 186.026 207.774 177.538C207.435 177.353 207.096 177.168 206.758 176.982C205.171 179.42 203.586 181.856 201.999 184.292C201.363 184.081 200.727 183.87 200.091 183.66C204.663 165.381 208.9 147.012 213.876 128.844C224.062 91.6543 234.634 54.5703 245.084 17.453C245.764 15.037 246.607 12.6357 247.664 10.361C251.848 1.36768 264.079 -2.82031 272.758 2.27567C274.627 3.37302 276.207 7.36902 275.758 9.59702C270.175 37.281 265.786 65.3383 258.006 92.4223C236.37 167.745 213.292 242.657 190.734 317.717C189.69 321.19 188.547 324.742 186.751 327.86C183.391 333.694 178.508 336.885 171.288 335.002C167.222 333.941 162.932 333.636 158.96 332.334C153.156 330.432 149.814 327.188 150.864 319.917C151.551 315.164 149.344 309.998 146.698 305.254C146.335 310.308 145.971 315.361 145.608 320.414C145.411 320.452 145.212 320.489 145.015 320.525C140.994 294.01 136.972 267.496 132.772 239.796Z" fill="white"/>
</mask>
<g mask="url(#mask0_3771_41009)">
<path d="M13.5 40L55 314L128 23.5L169.5 338.5L270 -7.5" stroke="white" stroke-width="64"/>
</g>
</svg>
