<svg width="199" height="321" viewBox="0 0 199 321" fill="none" xmlns="http://www.w3.org/2000/svg">
<mask id="mask0_3771_41669" style="mask-type:alpha" maskUnits="userSpaceOnUse" x="0" y="0" width="199" height="321">
<path d="M158.072 320.756C150.156 308.344 141.27 295.789 133.872 282.417C126.648 269.359 120.694 255.575 114.74 241.869C113.095 238.083 113.942 233.297 112.775 229.217C109.372 217.323 104.59 206.155 93.0418 198.159C88.3938 208.137 84.1084 217.488 79.6978 226.779C66.2378 255.125 52.2858 283.26 43.1124 313.403C41.1884 319.727 35.8084 318.208 31.8791 316.956C21.0844 313.515 10.5444 309.288 0.148438 305.463C5.61644 298.403 10.8578 291.788 15.8938 285.021C16.9951 283.543 17.6791 281.58 18.0044 279.743C18.8604 274.917 19.5818 271.301 25.0458 268.068C29.8604 265.219 31.7951 257.532 34.9658 251.961C35.7764 250.537 36.4498 249.036 38.6391 248.096C33.4684 263.145 28.2964 278.193 22.7618 294.299C29.7098 291.42 53.0444 243.739 55.2551 227.759C51.7031 233.572 48.1524 239.384 44.7124 245.012C49.0978 221.04 61.2058 200.235 72.9578 179.32C75.3138 175.128 75.2471 172.241 72.8484 167.94C63.6898 151.521 54.6218 135.004 46.5818 118.027C36.2111 96.1265 26.6004 73.8572 17.2391 51.5092C14.7311 45.5239 14.3231 38.6705 12.8164 31.5839C23.2164 30.2225 32.2551 28.2572 41.3124 28.1706C46.1098 28.1252 51.8364 30.2959 55.4951 33.3946C58.9311 36.3065 60.6644 41.5826 62.3378 46.1145C68.7351 63.4425 74.7644 80.9039 81.0124 98.2879C85.4178 110.545 89.9551 122.757 94.7964 135.98C99.5458 127.409 105.206 120.883 109.014 112.364C117.086 94.3092 127.468 77.1479 138.155 60.4119C150.563 40.9799 164.246 22.3492 177.592 3.5239C178.806 1.8132 181.607 1.21722 183.67 0.103882C184.168 0.818542 184.666 1.53455 185.164 2.24921C182.332 6.77853 179.5 11.3065 176.668 15.8359C177.158 16.1785 177.648 16.5225 178.139 16.8665C182.115 12.0505 186.091 7.23453 190.023 2.47321C200.486 7.11453 201.274 10.1665 195.047 19.2959C185.247 33.6652 175.724 48.2225 165.844 62.5372C161.16 69.3239 156.448 75.8252 150.154 81.7345C142.43 88.9852 137.467 99.5612 132.63 109.345C124.467 125.853 117.064 142.756 110.019 159.771C108.678 163.011 109.468 167.973 110.975 171.401C129.338 213.192 147.994 254.855 166.646 296.519C169.211 302.249 172.11 307.836 174.959 313.436C177.14 317.725 175.636 319.837 171.11 320.157C166.998 320.448 162.871 320.544 158.072 320.756Z" fill="white"/>
</mask>
<g mask="url(#mask0_3771_41669)">
<path d="M10 322L196.5 -4M25.5 22.5L174 328" stroke="white" stroke-width="64"/>
</g>
</svg>
