<svg width="176" height="290" viewBox="0 0 176 290" fill="none" xmlns="http://www.w3.org/2000/svg">
<mask id="mask0_3771_41677" style="mask-type:alpha" maskUnits="userSpaceOnUse" x="0" y="0" width="176" height="290">
<path d="M123.516 192.015C124.059 197.605 125.796 203.385 124.94 208.756C121.081 232.973 116.588 257.093 112.104 281.208C110.52 289.728 107.347 291.268 99.0601 288.443C86.9067 284.3 86.9134 284.3 87.2507 271.136C87.9627 243.265 93.1707 216.337 101.148 189.517C110.685 157.452 117.413 124.565 125.845 92.1613C127.967 84.0053 132.107 76.3866 134.987 68.4013C135.867 65.96 135.632 63.12 136.052 59.0773C133.148 60.9013 131.041 61.5333 130.064 62.9413C119.057 78.8026 107.877 94.5626 97.4267 110.787C83.1881 132.893 70.1534 155.788 55.3827 177.525C48.0094 188.377 42.0894 188.505 29.7867 182.937C10.0827 174.021 0.525404 159.067 1.72007 137.296C2.54807 122.213 4.25607 107.167 5.98274 92.1506C6.69607 85.956 8.16407 80.384 4.0574 74.2933C-1.0706 66.688 -0.921261 57.812 3.18007 49.5373C7.99341 39.8253 4.41341 29.1546 7.23074 19.264C8.28008 15.5786 9.1814 11.8506 10.3574 7.34796C19.1201 10.8373 26.9881 13.888 34.7814 17.116C37.9174 18.416 41.0027 19.9226 43.8961 21.6866C45.4721 22.6466 47.8134 24.4346 47.7161 25.6893C47.2627 31.5213 46.1241 37.3053 45.1454 43.0933C40.3934 71.212 34.3894 99.1946 31.3041 127.492C29.4521 144.475 30.9041 162.127 38.3974 180.563C42.4094 176.584 46.1361 174.052 48.2881 170.559C59.0147 153.137 68.9561 135.231 79.8801 117.936C93.9801 95.6133 108.748 73.708 123.231 51.624C123.381 51.3933 123.683 51.1893 123.704 50.9533C125.14 34.984 139.719 27.7066 147.179 15.732C150.245 10.8093 152.843 5.59732 155.561 0.685303C156.108 0.557312 156.459 0.349304 156.645 0.447968C177.553 11.5746 179.067 5.7413 171.227 34.2093C163.207 63.3373 155.46 92.54 147.299 121.628C141.664 141.708 135.528 161.649 129.703 181.361C129.491 180.085 129.201 178.339 128.911 176.592C128.32 176.463 127.729 176.333 127.139 176.204C125.999 181.536 124.859 186.868 123.728 192.208C122.74 194.151 121.384 195.985 120.805 198.036C116.329 213.921 112.259 229.9 111.888 246.529C111.763 252.157 111.868 257.789 111.868 263.419C113.681 255.947 115.093 248.665 116.213 241.34C118.724 224.909 121.091 208.457 123.516 192.015Z" fill="white"/>
</mask>
<g mask="url(#mask0_3771_41677)">
<path d="M32 7L16.5 185L174.5 0.5L96.5 298.5" stroke="white" stroke-width="64"/>
</g>
</svg>
