<svg width="235" height="284" viewBox="0 0 235 284" fill="none" xmlns="http://www.w3.org/2000/svg">
<mask id="mask0_3771_41011" style="mask-type:alpha" maskUnits="userSpaceOnUse" x="0" y="0" width="235" height="284">
<path d="M44.0228 24.5012C44.1028 25.1465 44.1842 25.7918 44.2655 26.4372C54.7788 25.0798 65.2922 23.7225 75.8055 22.3652C75.7175 21.6665 75.6282 20.9692 75.5388 20.2719C65.0335 21.6812 54.5282 23.0918 44.0228 24.5012ZM58.5508 153.949C60.9055 150.268 63.2602 146.588 66.8402 140.996C57.9882 143.379 50.9255 145.313 43.8455 147.179C32.1002 150.276 26.4068 146.943 23.5375 135.433C22.9975 133.265 22.2548 131.144 21.5188 129.029C17.0882 116.293 16.7615 114.272 29.7188 110.592C55.5762 103.248 82.0228 97.9678 108.189 91.6812C111.287 90.9372 114.78 89.9105 117.025 87.8598C138.312 68.4132 159.371 48.7185 180.481 29.0812C181.229 28.3852 181.841 27.5452 183.328 25.8425C168.961 26.6385 155.715 27.3732 141.173 28.1785C143.419 29.0065 144.399 29.3678 145.452 29.7558C145.021 30.0332 144.588 30.5518 144.244 30.4985C122.969 27.1692 104.516 37.7932 84.7988 42.2158C69.7468 45.5905 54.5108 48.1972 39.2935 50.7692C34.1802 51.6332 26.1722 43.5785 25.0082 37.2732C21.9322 20.6372 23.7015 18.2092 40.6108 15.9319C56.7655 13.7545 72.9215 11.5852 89.0788 9.43185C90.1895 9.28384 91.3282 9.33984 92.4455 9.22653C101.487 8.31052 110.526 7.37451 119.568 6.4425C131.958 8.57718 144.155 7.69452 156.288 5.75986C156.232 4.9425 156.177 4.12518 156.121 3.30652C143.916 4.42917 131.71 5.55185 119.503 6.67319C130.373 4.69318 141.187 1.57718 152.13 1.03586C164.518 0.422516 177.015 2.44385 189.476 2.66653C195.175 2.76785 200.889 1.19318 206.62 0.591858C211.119 0.11853 212.72 2.47318 214.983 6.58786C224.159 23.2772 216.549 34.3612 203.927 44.1305C193.885 51.9012 183.544 59.2852 173.339 66.8452C173.115 67.0118 172.915 67.2132 172.716 67.4132C166.933 73.2145 161.152 79.0185 154.344 85.8518C157.968 86.6692 161.055 87.1585 164.011 88.0692C176.241 91.8425 188.951 94.6652 200.391 100.111C205.207 102.403 207.436 110.267 210.385 115.836C210.599 116.24 206.64 120.171 205.369 119.814C177.16 111.907 150.851 122.891 124.007 127.775C100.169 132.112 87.2855 150.101 74.7148 168.408C67.6588 178.683 59.6642 188.316 52.3908 198.449C45.7482 207.705 39.5095 217.246 32.8042 227.084C38.9255 227.386 44.4468 227.659 51.8415 228.023C42.6122 230.653 35.1842 232.769 27.7575 234.885C27.8362 235.272 27.9135 235.659 27.9922 236.045C49.1455 234.84 70.4962 235.036 91.4122 232.138C134.709 226.138 176.517 230.014 216.821 246.872C221.056 248.642 224.233 253.793 226.971 257.977C229.665 262.094 231.14 266.995 233.219 271.52C235.739 277.007 235.347 281.738 232.043 283.924C222.168 281.34 214.169 278.54 205.932 277.208C166.068 270.764 125.871 269.218 85.5348 269.374C64.9815 269.453 44.4082 267.656 23.8735 268.081C13.1282 268.305 7.95884 262.109 2.75884 255.11C-0.415829 250.837 1.4495 239.814 5.85484 236.364C3.9735 234.708 2.21084 233.156 0.576172 231.717C12.2642 215.357 23.9642 198.57 36.1188 182.117C43.3308 172.354 51.2602 163.117 58.8695 153.64C58.8908 155.425 58.6988 157.26 59.0868 158.964C59.1748 159.348 61.9428 159.826 62.3628 159.329C66.7495 154.144 70.9068 148.768 75.1282 143.445C74.4348 142.824 73.7402 142.204 73.0455 141.583C68.2148 145.705 63.3828 149.826 58.5508 153.949Z" fill="white"/>
</mask>
<g mask="url(#mask0_3771_41011)">
<path d="M19 40.5L221.5 11.5L104 119.5L1.5 259L242.5 272M19 135.5L215 108" stroke="white" stroke-width="64"/>
</g>
</svg>
